<svg xmlns="http://www.w3.org/2000/svg" xmlns:xlink="http://www.w3.org/1999/xlink" stroke-miterlimit="4" clip-rule="evenodd" viewBox="0 0 1920 1080"><desc>SVG generated by Keynote</desc><g transform="matrix(1.00, 0.00, -0.00, -1.00, 0.0, 1080.0)"><path fill="#FEFFFF" d="M 0.0 1080.0 L 1920.0 1080.0 L 1920.0 0.0 L 0.0 0.0 Z M 0.0 1080.0"/><image width="810" height="539" transform="matrix(2.39, 0.00, -0.00, -2.39, -7.0, 972.0)" xlink:href="../../608461AC-C4BD-4872-A6C3-297AD8693356/assets/A168E3B122C2D19CF454324A5FEA6727.png"/><g><clipPath id="clip-60"><path d="M 50.0 52.0 L 154.0 52.0 L 154.0 -1.0 L 50.0 -1.0 Z M 50.4 52.4"/></clipPath><g clip-path="url(#clip-60)"><image width="104" height="104" transform="matrix(1.00, 0.00, -0.00, -0.99, 50.0, 77.0)" xlink:href="../../4F9A92A2-2DC6-4691-97F8-9F75BE53396F/assets/B22C448CED7C82A0C99889D0AD879A76.png"/></g></g><text fill="#A6AAA8" font-family="OpenSans-Bold" font-size="30" font-weight="bold" transform="matrix(1.00, 0.00, -0.00, -1.00, 54.0, 1014.0)" xml:space="preserve">T</text><text fill="#A6AAA8" font-family="OpenSans-Bold" font-size="30" font-weight="bold" transform="matrix(1.00, 0.00, -0.00, -1.00, 71.4, 1014.0)" xml:space="preserve">H</text><text fill="#A6AAA8" font-family="OpenSans-Bold" font-size="30" font-weight="bold" transform="matrix(1.00, 0.00, -0.00, -1.00, 94.3, 1014.0)" xml:space="preserve">E</text><text fill="#A6AAA8" font-family="OpenSans-Bold" font-size="30" font-weight="bold" transform="matrix(1.00, 0.00, -0.00, -1.00, 118.9, 1014.0)" xml:space="preserve">P</text><text fill="#A6AAA8" font-family="OpenSans-Bold" font-size="30" font-weight="bold" transform="matrix(1.00, 0.00, -0.00, -1.00, 137.8, 1014.0)" xml:space="preserve">I</text><text fill="#A6AAA8" font-family="OpenSans-Bold" font-size="30" font-weight="bold" transform="matrix(1.00, 0.00, -0.00, -1.00, 147.7, 1014.0)" xml:space="preserve">T</text><text fill="#A6AAA8" font-family="OpenSans-Bold" font-size="30" font-weight="bold" transform="matrix(1.00, 0.00, -0.00, -1.00, 164.5, 1014.0)" xml:space="preserve">C</text><text fill="#A6AAA8" font-family="OpenSans-Bold" font-size="30" font-weight="bold" transform="matrix(1.00, 0.00, -0.00, -1.00, 183.6, 1014.0)" xml:space="preserve">H</text><text fill="#52575F" font-family="OpenSans-Bold" font-size="125" font-weight="bold" transform="matrix(1.00, 0.00, -0.00, -1.00, 54.0, 842.0)" xml:space="preserve">W</text><text fill="#52575F" font-family="OpenSans-Bold" font-size="125" font-weight="bold" transform="matrix(1.00, 0.00, -0.00, -1.00, 172.3, 842.0)" xml:space="preserve">e</text><text fill="#52575F" font-family="OpenSans-Bold" font-size="125" font-weight="bold" transform="matrix(1.00, 0.00, -0.00, -1.00, 244.9, 842.0)" xml:space="preserve">’</text><text fill="#52575F" font-family="OpenSans-Bold" font-size="125" font-weight="bold" transform="matrix(1.00, 0.00, -0.00, -1.00, 268.3, 842.0)" xml:space="preserve">r</text><text fill="#52575F" font-family="OpenSans-Bold" font-size="125" font-weight="bold" transform="matrix(1.00, 0.00, -0.00, -1.00, 322.6, 842.0)" xml:space="preserve">e</text><text fill="#52575F" font-family="OpenSans-Bold" font-size="125" font-weight="bold" transform="matrix(1.00, 0.00, -0.00, -1.00, 428.8, 842.0)" xml:space="preserve">y</text><text fill="#52575F" font-family="OpenSans-Bold" font-size="125" font-weight="bold" transform="matrix(1.00, 0.00, -0.00, -1.00, 499.9, 842.0)" xml:space="preserve">o</text><text fill="#52575F" font-family="OpenSans-Bold" font-size="125" font-weight="bold" transform="matrix(1.00, 0.00, -0.00, -1.00, 577.3, 842.0)" xml:space="preserve">u</text><text fill="#52575F" font-family="OpenSans-Bold" font-size="125" font-weight="bold" transform="matrix(1.00, 0.00, -0.00, -1.00, 659.5, 842.0)" xml:space="preserve">r</text><text fill="#52575F" font-family="OpenSans-Bold" font-size="125" font-weight="bold" transform="matrix(1.00, 0.00, -0.00, -1.00, 748.7, 842.0)" xml:space="preserve">d</text><text fill="#52575F" font-family="OpenSans-Bold" font-size="125" font-weight="bold" transform="matrix(1.00, 0.00, -0.00, -1.00, 827.8, 842.0)" xml:space="preserve">e</text><text fill="#52575F" font-family="OpenSans-Bold" font-size="125" font-weight="bold" transform="matrix(1.00, 0.00, -0.00, -1.00, 901.6, 842.0)" xml:space="preserve">s</text><text fill="#52575F" font-family="OpenSans-Bold" font-size="125" font-weight="bold" transform="matrix(1.00, 0.00, -0.00, -1.00, 963.8, 842.0)" xml:space="preserve">i</text><text fill="#52575F" font-family="OpenSans-Bold" font-size="125" font-weight="bold" transform="matrix(1.00, 0.00, -0.00, -1.00, 1001.9, 842.0)" xml:space="preserve">g</text><text fill="#52575F" font-family="OpenSans-Bold" font-size="125" font-weight="bold" transform="matrix(1.00, 0.00, -0.00, -1.00, 1072.6, 842.0)" xml:space="preserve">n</text><text fill="#52575F" font-family="OpenSans-Bold" font-size="125" font-weight="bold" transform="matrix(1.00, 0.00, -0.00, -1.00, 1187.2, 842.0)" xml:space="preserve">t</text><text fill="#52575F" font-family="OpenSans-Bold" font-size="125" font-weight="bold" transform="matrix(1.00, 0.00, -0.00, -1.00, 1241.4, 842.0)" xml:space="preserve">e</text><text fill="#52575F" font-family="OpenSans-Bold" font-size="125" font-weight="bold" transform="matrix(1.00, 0.00, -0.00, -1.00, 1315.3, 842.0)" xml:space="preserve">a</text><text fill="#52575F" font-family="OpenSans-Bold" font-size="125" font-weight="bold" transform="matrix(1.00, 0.00, -0.00, -1.00, 1390.8, 842.0)" xml:space="preserve">m</text><text fill="#52575F" font-family="OpenSans-Bold" font-size="125" font-weight="bold" transform="matrix(1.00, 0.00, -0.00, -1.00, 54.0, 671.0)" xml:space="preserve">b</text><text fill="#52575F" font-family="OpenSans-Bold" font-size="125" font-weight="bold" transform="matrix(1.00, 0.00, -0.00, -1.00, 133.1, 671.0)" xml:space="preserve">e</text><text fill="#52575F" font-family="OpenSans-Bold" font-size="125" font-weight="bold" transform="matrix(1.00, 0.00, -0.00, -1.00, 206.9, 671.0)" xml:space="preserve">f</text><text fill="#52575F" font-family="OpenSans-Bold" font-size="125" font-weight="bold" transform="matrix(1.00, 0.00, -0.00, -1.00, 255.3, 671.0)" xml:space="preserve">o</text><text fill="#52575F" font-family="OpenSans-Bold" font-size="125" font-weight="bold" transform="matrix(1.00, 0.00, -0.00, -1.00, 332.7, 671.0)" xml:space="preserve">r</text><text fill="#52575F" font-family="OpenSans-Bold" font-size="125" font-weight="bold" transform="matrix(1.00, 0.00, -0.00, -1.00, 387.0, 671.0)" xml:space="preserve">e</text><text fill="#52575F" font-family="OpenSans-Bold" font-size="125" font-weight="bold" transform="matrix(1.00, 0.00, -0.00, -1.00, 493.3, 671.0)" xml:space="preserve">y</text><text fill="#52575F" font-family="OpenSans-Bold" font-size="125" font-weight="bold" transform="matrix(1.00, 0.00, -0.00, -1.00, 564.4, 671.0)" xml:space="preserve">o</text><text fill="#52575F" font-family="OpenSans-Bold" font-size="125" font-weight="bold" transform="matrix(1.00, 0.00, -0.00, -1.00, 641.8, 671.0)" xml:space="preserve">u</text><text fill="#52575F" font-family="OpenSans-Bold" font-size="125" font-weight="bold" transform="matrix(1.00, 0.00, -0.00, -1.00, 756.4, 671.0)" xml:space="preserve">h</text><text fill="#52575F" font-family="OpenSans-Bold" font-size="125" font-weight="bold" transform="matrix(1.00, 0.00, -0.00, -1.00, 838.6, 671.0)" xml:space="preserve">a</text><text fill="#52575F" font-family="OpenSans-Bold" font-size="125" font-weight="bold" transform="matrix(1.00, 0.00, -0.00, -1.00, 914.1, 671.0)" xml:space="preserve">d</text><text fill="#52575F" font-family="OpenSans-Bold" font-size="125" font-weight="bold" transform="matrix(1.00, 0.00, -0.00, -1.00, 1025.6, 671.0)" xml:space="preserve">o</text><text fill="#52575F" font-family="OpenSans-Bold" font-size="125" font-weight="bold" transform="matrix(1.00, 0.00, -0.00, -1.00, 1103.0, 671.0)" xml:space="preserve">n</text><text fill="#52575F" font-family="OpenSans-Bold" font-size="125" font-weight="bold" transform="matrix(1.00, 0.00, -0.00, -1.00, 1185.2, 671.0)" xml:space="preserve">e</text><text fill="#52575F" font-family="OpenSans-Bold" font-size="125" font-weight="bold" transform="matrix(1.00, 0.00, -0.00, -1.00, 1259.0, 671.0)" xml:space="preserve">.</text></g></svg>