<svg xmlns="http://www.w3.org/2000/svg" xmlns:xlink="http://www.w3.org/1999/xlink" stroke-miterlimit="4" clip-rule="evenodd" viewBox="0 0 1920 1080"><desc>SVG generated by Keynote</desc><g transform="matrix(1.00, 0.00, -0.00, -1.00, 0.0, 1080.0)"><path fill="#FEFFFF" d="M 0.0 1080.0 L 1920.0 1080.0 L 1920.0 0.0 L 0.0 0.0 Z M 0.0 1080.0"/><g><clipPath id="clip-27"><path d="M 50.0 52.0 L 154.0 52.0 L 154.0 -1.0 L 50.0 -1.0 Z M 50.4 52.4"/></clipPath><g clip-path="url(#clip-27)"><image width="104" height="104" transform="matrix(1.00, 0.00, -0.00, -0.99, 50.0, 77.0)" xlink:href="../../4F9A92A2-2DC6-4691-97F8-9F75BE53396F/assets/B22C448CED7C82A0C99889D0AD879A76.png"/></g></g><text fill="#A6AAA8" font-family="OpenSans-Bold" font-size="30" font-weight="bold" transform="matrix(1.00, 0.00, -0.00, -1.00, 54.0, 1014.0)" xml:space="preserve">I</text><text fill="#A6AAA8" font-family="OpenSans-Bold" font-size="30" font-weight="bold" transform="matrix(1.00, 0.00, -0.00, -1.00, 63.9, 1014.0)" xml:space="preserve">N</text><text fill="#A6AAA8" font-family="OpenSans-Bold" font-size="30" font-weight="bold" transform="matrix(1.00, 0.00, -0.00, -1.00, 88.3, 1014.0)" xml:space="preserve">T</text><text fill="#A6AAA8" font-family="OpenSans-Bold" font-size="30" font-weight="bold" transform="matrix(1.00, 0.00, -0.00, -1.00, 105.7, 1014.0)" xml:space="preserve">R</text><text fill="#A6AAA8" font-family="OpenSans-Bold" font-size="30" font-weight="bold" transform="matrix(1.00, 0.00, -0.00, -1.00, 125.5, 1014.0)" xml:space="preserve">O</text><image width="401" height="401" transform="matrix(1.00, 0.00, -0.00, -1.00, 266.0, 899.0)" xlink:href="D780482F3C291F073D17DBF947C96DDD.png"/><image width="231" height="228" transform="matrix(1.00, 0.00, -0.00, -1.00, 810.0, 823.0)" xlink:href="34F99AB7CC127E0E12AE0B95ADA3AA6D.png"/><image width="385" height="254" transform="matrix(1.00, 0.00, -0.00, -1.00, 299.0, 506.0)" xlink:href="872127E30FB5AB0504D89A19FCCB0BAC.png"/><image width="439" height="132" transform="matrix(1.00, 0.00, -0.00, -1.00, 1167.0, 418.0)" xlink:href="0B140853814460F898B19292DB0D674A.png"/><image width="337" height="238" transform="matrix(1.00, 0.00, -0.00, -1.00, 1219.0, 828.0)" xlink:href="3F8D64019B80484F07DE9285F9DCD508.png"/><image width="268" height="268" transform="matrix(1.00, 0.00, -0.00, -1.00, 792.0, 489.0)" xlink:href="475192ABBC7F4E1EFA7408423A8793B6.png"/></g></svg>