<?xml version="1.0" encoding="UTF-8" standalone="no"?><svg xmlns="http://www.w3.org/2000/svg" xmlns:xlink="http://www.w3.org/1999/xlink" clip-rule="evenodd" stroke-miterlimit="4.00" viewBox="0 0 1920 1080"><desc>SVG generated by Keynote</desc><defs></defs><g transform="matrix(1.00, 0.00, -0.00, -1.00, 0.0, 1080.0)"><path d="M 0.0 1080.0 L 1920.0 1080.0 L 1920.0 0.0 L 0.0 0.0 Z M 0.0 1080.0 " fill="#00D0C0"></path><g opacity="0.60"><g><clipPath id="clip-0"><path d="M 0.0 0.0 L 1920.0 0.0 L 1920.0 1080.0 L 0.0 1080.0 Z M 0.0 0.0 "></path></clipPath><g clip-path="url(#clip-0)"><image xlink:href="E474FEB6E7B45685BA3E7A6B51FDC50E.png" width="961.00" height="530.00" transform="matrix(2.04, 0.00, -0.00, -2.05, -22.0, 1082.0)"></image></g></g></g><text xml:space="preserve" font-family="OpenSans-Light" font-size="150.0" fill="#FEFFFE" transform="matrix(1.00, 0.00, -0.00, -1.00, 204.0, 299.0)">W</text><text xml:space="preserve" font-family="OpenSans-Light" font-size="150.0" fill="#FEFFFE" transform="matrix(1.00, 0.00, -0.00, -1.00, 334.8, 299.0)">e</text><text xml:space="preserve" font-family="OpenSans-Light" font-size="150.0" fill="#FEFFFE" transform="matrix(1.00, 0.00, -0.00, -1.00, 417.1, 299.0)"> </text><text xml:space="preserve" font-family="OpenSans-Light" font-size="150.0" fill="#FEFFFE" transform="matrix(1.00, 0.00, -0.00, -1.00, 456.1, 299.0)">a</text><text xml:space="preserve" font-family="OpenSans-Light" font-size="150.0" fill="#FEFFFE" transform="matrix(1.00, 0.00, -0.00, -1.00, 535.5, 299.0)">r</text><text xml:space="preserve" font-family="OpenSans-Light" font-size="150.0" fill="#FEFFFE" transform="matrix(1.00, 0.00, -0.00, -1.00, 590.9, 299.0)">e</text><text xml:space="preserve" font-family="OpenSans-Light" font-size="150.0" fill="#FEFFFE" transform="matrix(1.00, 0.00, -0.00, -1.00, 673.2, 299.0)"> </text><text xml:space="preserve" font-family="OpenSans-Light" font-size="150.0" fill="#FEFFFE" transform="matrix(1.00, 0.00, -0.00, -1.00, 712.1, 299.0)">V</text><text xml:space="preserve" font-family="OpenSans-Light" font-size="150.0" fill="#FEFFFE" transform="matrix(1.00, 0.00, -0.00, -1.00, 795.7, 299.0)">o</text><text xml:space="preserve" font-family="OpenSans-Light" font-size="150.0" fill="#FEFFFE" transform="matrix(1.00, 0.00, -0.00, -1.00, 880.6, 299.0)">x</text><text xml:space="preserve" font-family="OpenSans-Light" font-size="150.0" fill="#FEFFFE" transform="matrix(1.00, 0.00, -0.00, -1.00, 955.3, 299.0)">u</text><text xml:space="preserve" font-family="OpenSans-Light" font-size="150.0" fill="#FEFFFE" transform="matrix(1.00, 0.00, -0.00, -1.00, 1043.7, 299.0)">m</text><text xml:space="preserve" font-family="OpenSans-Light" font-size="150.0" fill="#FEFFFE" transform="matrix(1.00, 0.00, -0.00, -1.00, 1176.1, 299.0)">.</text><g><clipPath id="clip-1"><path d="M 200.0 959.0 L 928.0 959.0 L 928.0 450.0 L 200.0 450.0 Z M 200.0 959.0 "></path></clipPath><g clip-path="url(#clip-1)"><g><clipPath id="clip-2"><path d="M 200.0 450.0 L 928.0 450.0 L 928.0 959.0 L 200.0 959.0 Z M 200.0 450.0 "></path></clipPath><g clip-path="url(#clip-2)"><path d="M 509.8 630.1 C 515.5 631.7 519.5 632.4 523.3 633.9 C 538.9 639.7 544.2 654.9 535.8 669.3 C 532.6 674.6 529.6 675.1 526.0 670.1 C 517.7 658.7 513.5 645.5 509.8 630.1 M 809.8 624.8 C 809.8 610.4 809.4 596.8 815.8 584.2 C 819.6 576.8 824.8 576.4 829.0 583.0 C 835.4 593.3 837.6 604.9 838.2 617.2 C 833.1 618.2 828.6 618.8 824.3 620.0 C 819.7 621.2 815.3 622.9 809.8 624.8 M 465.7 598.5 L 429.1 598.5 C 429.0 595.3 428.7 592.6 428.8 590.0 C 429.6 553.6 430.6 517.2 431.5 480.8 C 431.6 476.0 431.9 471.1 431.5 466.3 C 430.9 459.2 429.0 452.6 420.7 450.6 C 412.6 448.6 404.5 451.6 401.2 460.1 C 397.3 470.2 393.5 480.9 392.8 491.5 C 390.5 524.5 389.4 557.6 388.4 590.6 C 388.2 597.4 386.7 599.8 379.6 599.9 C 362.8 600.0 346.0 600.8 329.3 601.8 C 323.1 602.2 320.7 600.7 320.4 594.3 C 319.5 567.0 318.2 539.8 317.1 512.6 C 317.0 511.4 317.1 510.1 317.0 508.8 C 316.5 494.4 310.1 487.3 297.2 486.8 C 281.3 486.2 271.1 493.5 270.8 507.7 C 270.4 524.7 271.5 541.8 272.8 558.8 C 273.9 573.7 276.0 588.6 277.8 604.6 C 267.2 605.6 256.7 606.6 246.2 607.7 C 238.9 608.6 231.6 609.8 224.3 610.7 C 217.2 611.5 212.0 615.3 208.4 621.3 C 202.3 631.3 199.4 642.3 200.1 654.1 C 200.6 662.5 204.4 666.6 212.8 665.6 C 225.3 664.0 237.8 661.2 250.2 658.7 C 262.1 656.3 273.9 653.5 285.8 650.9 C 290.5 669.6 294.4 687.5 299.5 705.0 C 303.9 720.1 309.5 734.9 314.8 749.7 C 316.4 754.2 318.7 758.5 321.1 762.7 C 326.8 772.6 333.3 775.8 341.5 773.0 C 349.5 770.3 353.2 763.6 350.7 752.3 C 346.5 733.2 341.0 714.4 336.6 695.3 C 332.7 678.3 329.6 661.0 325.9 642.7 C 347.4 639.5 367.6 636.5 388.7 633.3 C 389.4 647.0 390.1 659.6 390.8 672.2 C 395.4 751.2 405.2 829.3 429.1 905.0 C 433.3 918.1 438.9 930.7 444.7 943.1 C 446.9 948.0 450.9 952.6 455.3 955.8 C 465.1 963.1 477.6 957.2 477.5 945.0 C 477.4 934.4 476.2 923.6 473.7 913.4 C 457.7 849.1 444.9 784.2 437.3 718.5 C 434.1 691.4 432.5 664.2 429.9 637.1 C 429.4 631.4 431.3 629.3 436.9 629.3 C 446.3 629.2 455.7 628.9 465.1 628.4 C 470.0 628.1 471.2 630.5 472.8 634.6 C 479.1 651.5 485.0 668.5 492.9 684.6 C 496.9 692.8 503.9 700.0 511.0 705.9 C 522.0 715.0 535.8 713.5 546.4 703.8 C 561.3 690.3 569.1 658.2 562.0 639.4 C 558.4 629.9 552.0 622.5 543.1 618.2 C 533.2 613.3 522.6 609.6 512.0 606.0 C 507.5 604.5 504.8 602.6 505.6 597.6 C 506.8 589.6 507.1 581.3 509.6 573.7 C 514.8 558.3 528.8 553.5 541.7 563.4 C 550.0 569.7 557.3 578.1 563.1 586.8 C 579.3 610.9 589.3 638.0 597.0 665.7 C 607.6 704.2 616.5 743.2 627.8 781.4 C 634.3 803.3 643.7 824.3 652.4 845.4 C 655.0 851.6 659.4 857.2 663.8 862.4 C 668.8 868.4 675.7 869.2 682.6 866.4 C 689.5 863.7 690.8 857.4 689.7 851.1 C 688.6 844.1 686.8 837.2 684.4 830.5 C 670.3 791.5 656.2 752.5 647.9 711.8 C 640.9 677.0 636.5 641.9 640.8 606.4 C 641.6 599.9 641.8 591.6 649.2 589.7 C 657.3 587.6 661.8 595.0 665.8 600.7 C 679.8 620.7 687.0 643.5 693.0 666.7 C 701.6 699.4 709.1 732.4 718.0 765.0 C 721.7 779.0 727.4 792.4 733.1 805.7 C 735.4 811.1 739.2 816.6 743.8 820.2 C 753.6 827.8 765.4 822.4 765.8 810.2 C 766.0 802.0 764.4 793.4 761.9 785.5 C 750.7 749.6 738.3 713.9 733.6 676.4 C 730.8 653.8 730.6 630.8 729.4 608.0 C 729.3 605.5 730.1 603.0 730.6 600.5 C 732.0 593.9 733.5 586.9 740.8 584.8 C 748.1 582.7 754.1 587.3 758.0 592.5 C 766.0 603.1 773.1 614.6 780.2 625.9 C 782.4 629.5 783.9 633.8 785.0 637.9 C 788.5 650.8 799.1 658.5 807.1 667.9 C 812.6 674.5 821.1 674.5 829.1 672.6 C 843.6 669.1 855.2 661.1 862.9 648.3 C 865.2 644.5 867.5 643.6 871.5 644.6 C 885.8 648.2 900.2 651.5 914.5 655.0 C 924.4 657.4 929.9 652.0 927.4 642.1 C 925.2 633.6 919.4 628.3 911.2 626.4 C 899.4 623.6 887.4 621.3 875.4 619.4 C 870.7 618.6 868.7 617.2 868.1 612.1 C 864.9 588.1 855.7 566.7 836.2 551.6 C 828.4 545.6 818.5 541.5 809.0 538.9 C 796.2 535.5 786.7 541.0 781.2 553.1 C 778.4 559.6 776.7 566.6 774.2 574.5 C 772.4 572.2 771.0 570.0 769.3 568.1 C 760.8 559.1 753.1 548.9 743.4 541.4 C 726.8 528.5 710.7 532.5 701.6 551.6 C 696.9 561.6 694.8 572.9 691.7 583.5 C 691.0 585.6 690.7 587.8 690.1 590.7 C 683.6 580.0 678.5 569.6 671.6 560.6 C 664.3 551.0 656.3 541.4 647.0 533.8 C 629.4 519.5 611.2 524.4 603.4 545.7 C 599.1 557.3 597.9 569.9 595.5 582.1 C 595.0 584.5 595.0 587.0 593.2 590.0 C 591.9 587.8 590.6 585.6 589.3 583.4 C 579.1 564.5 567.2 546.8 551.2 532.2 C 540.5 522.4 528.5 514.9 513.7 513.3 C 489.5 510.7 469.6 526.8 466.0 553.6 C 464.1 568.0 465.7 582.9 465.7 598.5 " fill="#FFFFFF"></path></g></g></g></g></g></svg>