<?xml version="1.0" encoding="UTF-8" standalone="no"?><svg xmlns="http://www.w3.org/2000/svg" xmlns:xlink="http://www.w3.org/1999/xlink" clip-rule="evenodd" stroke-miterlimit="4.00" viewBox="0 0 1920 1080"><desc>SVG generated by Keynote</desc><defs></defs><g transform="matrix(1.00, 0.00, -0.00, -1.00, 0.0, 1080.0)"><path d="M 0.0 1080.0 L 1920.0 1080.0 L 1920.0 0.0 L 0.0 0.0 Z M 0.0 1080.0 " fill="#000000"></path><g opacity="0.39"><g><clipPath id="clip-562"><path d="M 18.0 0.0 L 1906.0 0.0 L 1906.0 1080.0 L 18.0 1080.0 Z M 18.0 0.0 "></path></clipPath><g clip-path="url(#clip-562)"><image xlink:href="../../44CDB6CA-22C4-4C7E-9169-77206C966AAE/assets/DA9ECC8D8AB6D040D8613F323D7A6822.jpeg" width="675.00" height="769.00" transform="matrix(2.79, 0.00, -0.00, -2.79, 19.0, 1429.0)"></image></g></g></g><text xml:space="preserve" font-family="Helvetica-Bold" font-weight="bold" font-size="151.0" fill="#FEFFFF" transform="matrix(1.00, 0.00, -0.00, -1.00, 538.0, 570.0)">3</text><text xml:space="preserve" font-family="Helvetica-Bold" font-weight="bold" font-size="151.0" fill="#FEFFFF" transform="matrix(1.00, 0.00, -0.00, -1.00, 622.0, 570.0)"> </text><text xml:space="preserve" font-family="Helvetica-Bold" font-weight="bold" font-size="151.0" fill="#FEFFFF" transform="matrix(1.00, 0.00, -0.00, -1.00, 663.9, 570.0)">c</text><text xml:space="preserve" font-family="Helvetica-Bold" font-weight="bold" font-size="151.0" fill="#FEFFFF" transform="matrix(1.00, 0.00, -0.00, -1.00, 747.9, 570.0)">l</text><text xml:space="preserve" font-family="Helvetica-Bold" font-weight="bold" font-size="151.0" fill="#FEFFFF" transform="matrix(1.00, 0.00, -0.00, -1.00, 789.9, 570.0)">i</text><text xml:space="preserve" font-family="Helvetica-Bold" font-weight="bold" font-size="151.0" fill="#FEFFFF" transform="matrix(1.00, 0.00, -0.00, -1.00, 831.8, 570.0)">e</text><text xml:space="preserve" font-family="Helvetica-Bold" font-weight="bold" font-size="151.0" fill="#FEFFFF" transform="matrix(1.00, 0.00, -0.00, -1.00, 915.8, 570.0)">n</text><text xml:space="preserve" font-family="Helvetica-Bold" font-weight="bold" font-size="151.0" fill="#FEFFFF" transform="matrix(1.00, 0.00, -0.00, -1.00, 1008.0, 570.0)">t</text><text xml:space="preserve" font-family="Helvetica-Bold" font-weight="bold" font-size="151.0" fill="#FEFFFF" transform="matrix(1.00, 0.00, -0.00, -1.00, 1058.3, 570.0)">s</text></g></svg>