<svg xmlns="http://www.w3.org/2000/svg" xmlns:xlink="http://www.w3.org/1999/xlink" stroke-miterlimit="4" clip-rule="evenodd" viewBox="0 0 1920 1080"><desc>SVG generated by Keynote</desc><g transform="matrix(1.00, 0.00, -0.00, -1.00, 0.0, 1080.0)"><path fill="#000" d="M 0.0 1080.0 L 1920.0 1080.0 L 1920.0 0.0 L 0.0 0.0 Z M 0.0 1080.0"/><image width="769" height="769" transform="matrix(2.51, 0.00, -0.00, -2.51, -6.0, 1578.0)" xlink:href="../../37310001-B7EA-45D6-AD36-F650B52320BA/assets/3CFE526FA5A7B797C3AD0497C9E1134B.jpeg"/><text fill="#FEFFFF" font-family="Helvetica-Bold" font-size="90" font-weight="bold" transform="matrix(1.00, 0.00, -0.00, -1.00, 538.0, 629.0)" xml:space="preserve">A</text><text fill="#FEFFFF" font-family="Helvetica-Bold" font-size="90" font-weight="bold" transform="matrix(1.00, 0.00, -0.00, -1.00, 624.7, 629.0)" xml:space="preserve">f</text><text fill="#FEFFFF" font-family="Helvetica-Bold" font-size="90" font-weight="bold" transform="matrix(1.00, 0.00, -0.00, -1.00, 654.7, 629.0)" xml:space="preserve">e</text><text fill="#FEFFFF" font-family="Helvetica-Bold" font-size="90" font-weight="bold" transform="matrix(1.00, 0.00, -0.00, -1.00, 704.7, 629.0)" xml:space="preserve">w</text><text fill="#FEFFFF" font-family="Helvetica-Bold" font-size="90" font-weight="bold" transform="matrix(1.00, 0.00, -0.00, -1.00, 799.7, 629.0)" xml:space="preserve">d</text><text fill="#FEFFFF" font-family="Helvetica-Bold" font-size="90" font-weight="bold" transform="matrix(1.00, 0.00, -0.00, -1.00, 854.7, 629.0)" xml:space="preserve">e</text><text fill="#FEFFFF" font-family="Helvetica-Bold" font-size="90" font-weight="bold" transform="matrix(1.00, 0.00, -0.00, -1.00, 904.7, 629.0)" xml:space="preserve">ﬁ</text><text fill="#FEFFFF" font-family="Helvetica-Bold" font-size="90" font-weight="bold" transform="matrix(1.00, 0.00, -0.00, -1.00, 959.7, 629.0)" xml:space="preserve">n</text><text fill="#FEFFFF" font-family="Helvetica-Bold" font-size="90" font-weight="bold" transform="matrix(1.00, 0.00, -0.00, -1.00, 1014.7, 629.0)" xml:space="preserve">i</text><text fill="#FEFFFF" font-family="Helvetica-Bold" font-size="90" font-weight="bold" transform="matrix(1.00, 0.00, -0.00, -1.00, 1039.6, 629.0)" xml:space="preserve">t</text><text fill="#FEFFFF" font-family="Helvetica-Bold" font-size="90" font-weight="bold" transform="matrix(1.00, 0.00, -0.00, -1.00, 1069.6, 629.0)" xml:space="preserve">i</text><text fill="#FEFFFF" font-family="Helvetica-Bold" font-size="90" font-weight="bold" transform="matrix(1.00, 0.00, -0.00, -1.00, 1094.6, 629.0)" xml:space="preserve">o</text><text fill="#FEFFFF" font-family="Helvetica-Bold" font-size="90" font-weight="bold" transform="matrix(1.00, 0.00, -0.00, -1.00, 1149.6, 629.0)" xml:space="preserve">n</text><text fill="#FEFFFF" font-family="Helvetica-Bold" font-size="90" font-weight="bold" transform="matrix(1.00, 0.00, -0.00, -1.00, 1204.5, 629.0)" xml:space="preserve">s</text><text fill="#FEFFFF" font-family="Helvetica-Bold" font-size="90" font-weight="bold" transform="matrix(1.00, 0.00, -0.00, -1.00, 1254.6, 629.0)" xml:space="preserve">…</text></g></svg>