<svg xmlns="http://www.w3.org/2000/svg" xmlns:xlink="http://www.w3.org/1999/xlink" stroke-miterlimit="4" clip-rule="evenodd" viewBox="0 0 1920 1080"><desc>SVG generated by Keynote</desc><g><path fill="#FEFFFF" d="M 0.0 1080.0 L 1920.0 1080.0 L 1920.0 0.0 L 0.0 0.0 Z M 0.0 1080.0" transform="matrix(1.00, 0.00, -0.00, -1.00, 0.0, 1080.0)"/><g transform="matrix(1.00, 0.00, -0.00, -1.00, 0.0, 1080.0)"><clipPath id="clip-367"><path d="M 0.0 1080.0 L 1920.0 1080.0 L 1920.0 0.0 L 0.0 0.0 Z M 0.0 1080.0"/></clipPath><g clip-path="url(#clip-367)"><image width="864" height="540" transform="matrix(2.59, 0.00, -0.00, -2.59, 0.0, 1080.0)" xlink:href="../../36B21DDF-66B8-4E0B-B975-645CED6F7938/assets/92DFBCB505E700EAD5A1102A5CE40E92.png"/></g></g><g transform="matrix(1.00, 0.00, -0.00, -1.00, 0.0, 1080.0)"><clipPath id="clip-368"><path d="M 50.0 52.0 L 154.0 52.0 L 154.0 -1.0 L 50.0 -1.0 Z M 50.4 52.4"/></clipPath><g clip-path="url(#clip-368)"><image width="104" height="104" transform="matrix(1.00, 0.00, -0.00, -0.99, 50.0, 77.0)" xlink:href="../../4F9A92A2-2DC6-4691-97F8-9F75BE53396F/assets/B22C448CED7C82A0C99889D0AD879A76.png"/></g></g></g></svg>