<?xml version="1.0" encoding="UTF-8" standalone="no"?><svg xmlns="http://www.w3.org/2000/svg" xmlns:xlink="http://www.w3.org/1999/xlink" clip-rule="evenodd" stroke-miterlimit="4.00" viewBox="0 0 1920 1080"><desc>SVG generated by Keynote</desc><defs></defs><g transform="matrix(1.00, 0.00, -0.00, -1.00, 0.0, 1080.0)"><path d="M 0.0 1080.0 L 1920.0 1080.0 L 1920.0 0.0 L 0.0 0.0 Z M 0.0 1080.0 " fill="#000000"></path><g><clipPath id="clip-697"><path d="M 588.0 674.7 L 740.0 674.7 L 740.0 826.7 L 588.0 826.7 Z M 588.0 674.7 "></path></clipPath><g clip-path="url(#clip-697)"><path d="M 717.0 803.7 C 746.3 774.4 746.3 726.9 717.0 697.6 C 687.7 668.4 640.3 668.4 611.0 697.6 C 581.7 726.9 581.7 774.4 611.0 803.7 C 640.3 833.0 687.7 833.0 717.0 803.7 " fill="#A1DB98"></path></g></g><g><clipPath id="clip-698"><path d="M 786.0 674.7 L 938.0 674.7 L 938.0 826.7 L 786.0 826.7 Z M 786.0 674.7 "></path></clipPath><g clip-path="url(#clip-698)"><path d="M 915.0 803.7 C 944.3 774.4 944.3 726.9 915.0 697.6 C 885.7 668.4 838.3 668.4 809.0 697.6 C 779.7 726.9 779.7 774.4 809.0 803.7 C 838.3 833.0 885.7 833.0 915.0 803.7 " fill="#A1DB98"></path></g></g><g><clipPath id="clip-699"><path d="M 984.0 674.7 L 1136.0 674.7 L 1136.0 826.7 L 984.0 826.7 Z M 984.0 674.7 "></path></clipPath><g clip-path="url(#clip-699)"><path d="M 1113.0 803.7 C 1142.3 774.4 1142.3 726.9 1113.0 697.6 C 1083.7 668.4 1036.3 668.4 1007.0 697.6 C 977.7 726.9 977.7 774.4 1007.0 803.7 C 1036.3 833.0 1083.7 833.0 1113.0 803.7 " fill="#A1DB98"></path></g></g><g><clipPath id="clip-700"><path d="M 390.0 476.7 L 542.0 476.7 L 542.0 628.7 L 390.0 628.7 Z M 390.0 476.7 "></path></clipPath><g clip-path="url(#clip-700)"><path d="M 519.0 605.7 C 548.3 576.4 548.3 528.9 519.0 499.6 C 489.7 470.4 442.3 470.4 413.0 499.6 C 383.7 528.9 383.7 576.4 413.0 605.7 C 442.3 635.0 489.7 635.0 519.0 605.7 " fill="#A1DB98"></path></g></g><g><clipPath id="clip-701"><path d="M 390.0 278.7 L 542.0 278.7 L 542.0 430.7 L 390.0 430.7 Z M 390.0 278.7 "></path></clipPath><g clip-path="url(#clip-701)"><path d="M 519.0 407.7 C 548.3 378.4 548.3 330.9 519.0 301.6 C 489.7 272.4 442.3 272.4 413.0 301.6 C 383.7 330.9 383.7 378.4 413.0 407.7 C 442.3 437.0 489.7 437.0 519.0 407.7 " fill="#A1DB98"></path></g></g><g><clipPath id="clip-702"><path d="M 588.0 476.7 L 740.0 476.7 L 740.0 628.7 L 588.0 628.7 Z M 588.0 476.7 "></path></clipPath><g clip-path="url(#clip-702)"><path d="M 717.0 605.7 C 746.3 576.4 746.3 528.9 717.0 499.6 C 687.7 470.4 640.3 470.4 611.0 499.6 C 581.7 528.9 581.7 576.4 611.0 605.7 C 640.3 635.0 687.7 635.0 717.0 605.7 " fill="#A1DB98"></path></g></g><g><clipPath id="clip-703"><path d="M 588.0 278.7 L 740.0 278.7 L 740.0 430.7 L 588.0 430.7 Z M 588.0 278.7 "></path></clipPath><g clip-path="url(#clip-703)"><path d="M 717.0 407.7 C 746.3 378.4 746.3 330.9 717.0 301.6 C 687.7 272.4 640.3 272.4 611.0 301.6 C 581.7 330.9 581.7 378.4 611.0 407.7 C 640.3 437.0 687.7 437.0 717.0 407.7 " fill="#A1DB98"></path></g></g><g><clipPath id="clip-704"><path d="M 786.0 476.7 L 938.0 476.7 L 938.0 628.7 L 786.0 628.7 Z M 786.0 476.7 "></path></clipPath><g clip-path="url(#clip-704)"><path d="M 915.0 605.7 C 944.3 576.4 944.3 528.9 915.0 499.6 C 885.7 470.4 838.3 470.4 809.0 499.6 C 779.7 528.9 779.7 576.4 809.0 605.7 C 838.3 635.0 885.7 635.0 915.0 605.7 " fill="#A1DB98"></path></g></g><g><clipPath id="clip-705"><path d="M 984.0 476.7 L 1136.0 476.7 L 1136.0 628.7 L 984.0 628.7 Z M 984.0 476.7 "></path></clipPath><g clip-path="url(#clip-705)"><path d="M 1113.0 605.7 C 1142.3 576.4 1142.3 528.9 1113.0 499.6 C 1083.7 470.4 1036.3 470.4 1007.0 499.6 C 977.7 528.9 977.7 576.4 1007.0 605.7 C 1036.3 635.0 1083.7 635.0 1113.0 605.7 " fill="#A1DB98"></path></g></g><g><clipPath id="clip-706"><path d="M 786.0 278.7 L 938.0 278.7 L 938.0 430.7 L 786.0 430.7 Z M 786.0 278.7 "></path></clipPath><g clip-path="url(#clip-706)"><path d="M 915.0 407.7 C 944.3 378.4 944.3 330.9 915.0 301.6 C 885.7 272.4 838.3 272.4 809.0 301.6 C 779.7 330.9 779.7 378.4 809.0 407.7 C 838.3 437.0 885.7 437.0 915.0 407.7 " fill="#A1DB98"></path></g></g><g><clipPath id="clip-707"><path d="M 984.0 278.7 L 1136.0 278.7 L 1136.0 430.7 L 984.0 430.7 Z M 984.0 278.7 "></path></clipPath><g clip-path="url(#clip-707)"><path d="M 1113.0 407.7 C 1142.3 378.4 1142.3 330.9 1113.0 301.6 C 1083.7 272.4 1036.3 272.4 1007.0 301.6 C 977.7 330.9 977.7 378.4 1007.0 407.7 C 1036.3 437.0 1083.7 437.0 1113.0 407.7 " fill="#A1DB98"></path></g></g><g><clipPath id="clip-708"><path d="M 984.0 80.7 L 1136.0 80.7 L 1136.0 232.7 L 984.0 232.7 Z M 984.0 80.7 "></path></clipPath><g clip-path="url(#clip-708)"><path d="M 1113.0 209.7 C 1142.3 180.4 1142.3 132.9 1113.0 103.6 C 1083.7 74.4 1036.3 74.4 1007.0 103.6 C 977.7 132.9 977.7 180.4 1007.0 209.7 C 1036.3 239.0 1083.7 239.0 1113.0 209.7 " fill="#A1DB98"></path></g></g><g><clipPath id="clip-709"><path d="M 786.0 80.7 L 938.0 80.7 L 938.0 232.7 L 786.0 232.7 Z M 786.0 80.7 "></path></clipPath><g clip-path="url(#clip-709)"><path d="M 915.0 209.7 C 944.3 180.4 944.3 132.9 915.0 103.6 C 885.7 74.4 838.3 74.4 809.0 103.6 C 779.7 132.9 779.7 180.4 809.0 209.7 C 838.3 239.0 885.7 239.0 915.0 209.7 " fill="#A1DB98"></path></g></g><g><clipPath id="clip-710"><path d="M 588.0 80.7 L 740.0 80.7 L 740.0 232.7 L 588.0 232.7 Z M 588.0 80.7 "></path></clipPath><g clip-path="url(#clip-710)"><path d="M 717.0 209.7 C 746.3 180.4 746.3 132.9 717.0 103.6 C 687.7 74.4 640.3 74.4 611.0 103.6 C 581.7 132.9 581.7 180.4 611.0 209.7 C 640.3 239.0 687.7 239.0 717.0 209.7 " fill="#A1DB98"></path></g></g><g><clipPath id="clip-711"><path d="M 390.0 80.7 L 542.0 80.7 L 542.0 232.7 L 390.0 232.7 Z M 390.0 80.7 "></path></clipPath><g clip-path="url(#clip-711)"><path d="M 519.0 209.7 C 548.3 180.4 548.3 132.9 519.0 103.6 C 489.7 74.4 442.3 74.4 413.0 103.6 C 383.7 132.9 383.7 180.4 413.0 209.7 C 442.3 239.0 489.7 239.0 519.0 209.7 " fill="#A1DB98"></path></g></g><g><clipPath id="clip-712"><path d="M 1182.0 674.7 L 1334.0 674.7 L 1334.0 826.7 L 1182.0 826.7 Z M 1182.0 674.7 "></path></clipPath><g clip-path="url(#clip-712)"><path d="M 1311.0 803.7 C 1340.3 774.4 1340.3 726.9 1311.0 697.6 C 1281.7 668.4 1234.3 668.4 1205.0 697.6 C 1175.7 726.9 1175.7 774.4 1205.0 803.7 C 1234.3 833.0 1281.7 833.0 1311.0 803.7 " fill="#7ADA45"></path></g></g><g><clipPath id="clip-713"><path d="M 1182.0 476.7 L 1334.0 476.7 L 1334.0 628.7 L 1182.0 628.7 Z M 1182.0 476.7 "></path></clipPath><g clip-path="url(#clip-713)"><path d="M 1311.0 605.7 C 1340.3 576.4 1340.3 528.9 1311.0 499.6 C 1281.7 470.4 1234.3 470.4 1205.0 499.6 C 1175.7 528.9 1175.7 576.4 1205.0 605.7 C 1234.3 635.0 1281.7 635.0 1311.0 605.7 " fill="#82E1D5"></path></g></g><g><clipPath id="clip-714"><path d="M 1182.0 278.7 L 1334.0 278.7 L 1334.0 430.7 L 1182.0 430.7 Z M 1182.0 278.7 "></path></clipPath><g clip-path="url(#clip-714)"><path d="M 1311.0 407.7 C 1340.3 378.4 1340.3 330.9 1311.0 301.6 C 1281.7 272.4 1234.3 272.4 1205.0 301.6 C 1175.7 330.9 1175.7 378.4 1205.0 407.7 C 1234.3 437.0 1281.7 437.0 1311.0 407.7 " fill="#82E1D5"></path></g></g><g><clipPath id="clip-715"><path d="M 1182.0 80.7 L 1334.0 80.7 L 1334.0 232.7 L 1182.0 232.7 Z M 1182.0 80.7 "></path></clipPath><g clip-path="url(#clip-715)"><path d="M 1311.0 209.7 C 1340.3 180.4 1340.3 132.9 1311.0 103.6 C 1281.7 74.4 1234.3 74.4 1205.0 103.6 C 1175.7 132.9 1175.7 180.4 1205.0 209.7 C 1234.3 239.0 1281.7 239.0 1311.0 209.7 " fill="#82E1D5"></path></g></g><g><clipPath id="clip-716"><path d="M 1182.0 673.7 L 1334.0 673.7 L 1334.0 825.7 L 1182.0 825.7 Z M 1182.0 673.7 "></path></clipPath><g clip-path="url(#clip-716)"><path d="M 1311.0 802.7 C 1340.3 773.4 1340.3 725.9 1311.0 696.6 C 1281.7 667.4 1234.3 667.4 1205.0 696.6 C 1175.7 725.9 1175.7 773.4 1205.0 802.7 C 1234.3 832.0 1281.7 832.0 1311.0 802.7 " fill="#82E1D5"></path></g></g><g><clipPath id="clip-717"><path d="M 1377.0 673.7 L 1529.0 673.7 L 1529.0 825.7 L 1377.0 825.7 Z M 1377.0 673.7 "></path></clipPath><g clip-path="url(#clip-717)"><path d="M 1506.0 802.7 C 1535.3 773.4 1535.3 725.9 1506.0 696.6 C 1476.7 667.4 1429.3 667.4 1400.0 696.6 C 1370.7 725.9 1370.7 773.4 1400.0 802.7 C 1429.3 832.0 1476.7 832.0 1506.0 802.7 " fill="#82E1D5"></path></g></g><g><clipPath id="clip-718"><path d="M 1377.0 476.7 L 1529.0 476.7 L 1529.0 628.7 L 1377.0 628.7 Z M 1377.0 476.7 "></path></clipPath><g clip-path="url(#clip-718)"><path d="M 1506.0 605.7 C 1535.3 576.4 1535.3 528.9 1506.0 499.6 C 1476.7 470.4 1429.3 470.4 1400.0 499.6 C 1370.7 528.9 1370.7 576.4 1400.0 605.7 C 1429.3 635.0 1476.7 635.0 1506.0 605.7 " fill="#91C4FC"></path></g></g><g><clipPath id="clip-719"><path d="M 1378.0 278.7 L 1530.0 278.7 L 1530.0 430.7 L 1378.0 430.7 Z M 1378.0 278.7 "></path></clipPath><g clip-path="url(#clip-719)"><path d="M 1507.0 407.7 C 1536.3 378.4 1536.3 330.9 1507.0 301.6 C 1477.7 272.4 1430.3 272.4 1401.0 301.6 C 1371.7 330.9 1371.7 378.4 1401.0 407.7 C 1430.3 437.0 1477.7 437.0 1507.0 407.7 " fill="#91C4FC"></path></g></g><g><clipPath id="clip-720"><path d="M 415.0 501.7 L 517.0 501.7 L 517.0 603.7 L 415.0 603.7 Z M 415.0 501.7 "></path></clipPath><g clip-path="url(#clip-720)"><path d="M 501.4 588.0 C 520.9 568.5 520.9 536.8 501.4 517.3 C 481.8 497.8 450.2 497.8 430.6 517.3 C 411.1 536.8 411.1 568.5 430.6 588.0 C 450.2 607.6 481.8 607.6 501.4 588.0 " fill="#BEB5F0"></path></g></g><g><clipPath id="clip-721"><path d="M 415.0 303.7 L 517.0 303.7 L 517.0 405.7 L 415.0 405.7 Z M 415.0 303.7 "></path></clipPath><g clip-path="url(#clip-721)"><path d="M 501.4 390.0 C 520.9 370.5 520.9 338.8 501.4 319.3 C 481.8 299.8 450.2 299.8 430.6 319.3 C 411.1 338.8 411.1 370.5 430.6 390.0 C 450.2 409.6 481.8 409.6 501.4 390.0 " fill="#BEB5F0"></path></g></g><g><clipPath id="clip-722"><path d="M 440.0 526.7 L 492.0 526.7 L 492.0 578.7 L 440.0 578.7 Z M 440.0 526.7 "></path></clipPath><g clip-path="url(#clip-722)"><path d="M 483.7 570.4 C 493.4 560.6 493.4 544.8 483.7 535.0 C 473.9 525.2 458.1 525.2 448.3 535.0 C 438.6 544.8 438.6 560.6 448.3 570.4 C 458.1 580.1 473.9 580.1 483.7 570.4 " fill="#E6C889"></path></g></g><g><clipPath id="clip-723"><path d="M 390.0 674.7 L 542.0 674.7 L 542.0 826.7 L 390.0 826.7 Z M 390.0 674.7 "></path></clipPath><g clip-path="url(#clip-723)"><path d="M 519.0 803.7 C 548.3 774.4 548.3 726.9 519.0 697.6 C 489.7 668.4 442.3 668.4 413.0 697.6 C 383.7 726.9 383.7 774.4 413.0 803.7 C 442.3 833.0 489.7 833.0 519.0 803.7 " fill="#A1DB98"></path></g></g><g><clipPath id="clip-724"><path d="M 1377.0 80.7 L 1529.0 80.7 L 1529.0 232.7 L 1377.0 232.7 Z M 1377.0 80.7 "></path></clipPath><g clip-path="url(#clip-724)"><path d="M 1506.0 209.7 C 1535.3 180.4 1535.3 132.9 1506.0 103.6 C 1476.7 74.4 1429.3 74.4 1400.0 103.6 C 1370.7 132.9 1370.7 180.4 1400.0 209.7 C 1429.3 239.0 1476.7 239.0 1506.0 209.7 " fill="#E6C889"></path></g></g><path d="M 873.3 930.4 C 883.0 920.6 883.0 904.8 873.3 895.0 C 863.5 885.2 847.7 885.2 837.9 895.0 C 828.2 904.8 828.2 920.6 837.9 930.4 C 847.7 940.1 863.5 940.1 873.3 930.4 " fill="#82E1D5"></path><path d="M 438.3 934.9 C 448.0 925.1 448.0 909.3 438.3 899.5 C 428.5 889.7 412.7 889.7 402.9 899.5 C 393.1 909.3 393.1 925.1 402.9 934.9 C 412.7 944.6 428.5 944.6 438.3 934.9 " fill="#91C4FC"></path><path d="M 436.2 1019.5 C 445.9 1009.8 445.9 994.0 436.2 984.2 C 426.4 974.4 410.6 974.4 400.8 984.2 C 391.1 994.0 391.1 1009.8 400.8 1019.5 C 410.6 1029.3 426.4 1029.3 436.2 1019.5 " fill="#A1DB98"></path><path d="M 1298.4 1017.4 C 1308.1 1007.6 1308.1 991.8 1298.4 982.0 C 1288.6 972.2 1272.8 972.2 1263.0 982.0 C 1253.3 991.8 1253.3 1007.6 1263.0 1017.4 C 1272.8 1027.1 1288.6 1027.1 1298.4 1017.4 " fill="#E6C889"></path><text xml:space="preserve" font-family="Helvetica-Light" font-size="36.0" fill="#FEFFFF" transform="matrix(1.00, 0.00, -0.00, -1.00, 463.0, 905.0)">C</text><text xml:space="preserve" font-family="Helvetica-Light" font-size="36.0" fill="#FEFFFF" transform="matrix(1.00, 0.00, -0.00, -1.00, 489.0, 905.0)">l</text><text xml:space="preserve" font-family="Helvetica-Light" font-size="36.0" fill="#FEFFFF" transform="matrix(1.00, 0.00, -0.00, -1.00, 497.0, 905.0)">i</text><text xml:space="preserve" font-family="Helvetica-Light" font-size="36.0" fill="#FEFFFF" transform="matrix(1.00, 0.00, -0.00, -1.00, 505.0, 905.0)">e</text><text xml:space="preserve" font-family="Helvetica-Light" font-size="36.0" fill="#FEFFFF" transform="matrix(1.00, 0.00, -0.00, -1.00, 525.0, 905.0)">n</text><text xml:space="preserve" font-family="Helvetica-Light" font-size="36.0" fill="#FEFFFF" transform="matrix(1.00, 0.00, -0.00, -1.00, 545.0, 905.0)">t</text><text xml:space="preserve" font-family="Helvetica-Light" font-size="36.0" fill="#FEFFFF" transform="matrix(1.00, 0.00, -0.00, -1.00, 555.0, 905.0)">s</text><text xml:space="preserve" font-family="Helvetica-Light" font-size="36.0" fill="#FEFFFF" transform="matrix(1.00, 0.00, -0.00, -1.00, 897.0, 900.0)">C</text><text xml:space="preserve" font-family="Helvetica-Light" font-size="36.0" fill="#FEFFFF" transform="matrix(1.00, 0.00, -0.00, -1.00, 923.0, 900.0)">o</text><text xml:space="preserve" font-family="Helvetica-Light" font-size="36.0" fill="#FEFFFF" transform="matrix(1.00, 0.00, -0.00, -1.00, 943.0, 900.0)">r</text><text xml:space="preserve" font-family="Helvetica-Light" font-size="36.0" fill="#FEFFFF" transform="matrix(1.00, 0.00, -0.00, -1.00, 955.0, 900.0)">p</text><text xml:space="preserve" font-family="Helvetica-Light" font-size="36.0" fill="#FEFFFF" transform="matrix(1.00, 0.00, -0.00, -1.00, 977.0, 900.0)">o</text><text xml:space="preserve" font-family="Helvetica-Light" font-size="36.0" fill="#FEFFFF" transform="matrix(1.00, 0.00, -0.00, -1.00, 997.0, 900.0)">r</text><text xml:space="preserve" font-family="Helvetica-Light" font-size="36.0" fill="#FEFFFF" transform="matrix(1.00, 0.00, -0.00, -1.00, 1009.0, 900.0)">a</text><text xml:space="preserve" font-family="Helvetica-Light" font-size="36.0" fill="#FEFFFF" transform="matrix(1.00, 0.00, -0.00, -1.00, 1029.0, 900.0)">t</text><text xml:space="preserve" font-family="Helvetica-Light" font-size="36.0" fill="#FEFFFF" transform="matrix(1.00, 0.00, -0.00, -1.00, 1039.0, 900.0)">i</text><text xml:space="preserve" font-family="Helvetica-Light" font-size="36.0" fill="#FEFFFF" transform="matrix(1.00, 0.00, -0.00, -1.00, 1047.0, 900.0)">o</text><text xml:space="preserve" font-family="Helvetica-Light" font-size="36.0" fill="#FEFFFF" transform="matrix(1.00, 0.00, -0.00, -1.00, 1067.0, 900.0)">n</text><text xml:space="preserve" font-family="Helvetica-Light" font-size="36.0" fill="#FEFFFF" transform="matrix(1.00, 0.00, -0.00, -1.00, 1322.0, 986.0)">N</text><text xml:space="preserve" font-family="Helvetica-Light" font-size="36.0" fill="#FEFFFF" transform="matrix(1.00, 0.00, -0.00, -1.00, 1348.0, 986.0)">o</text><text xml:space="preserve" font-family="Helvetica-Light" font-size="36.0" fill="#FEFFFF" transform="matrix(1.00, 0.00, -0.00, -1.00, 1368.0, 986.0)">n</text><text xml:space="preserve" font-family="Helvetica-Light" font-size="36.0" fill="#FEFFFF" transform="matrix(1.00, 0.00, -0.00, -1.00, 1388.0, 986.0)">-</text><text xml:space="preserve" font-family="Helvetica-Light" font-size="36.0" fill="#FEFFFF" transform="matrix(1.00, 0.00, -0.00, -1.00, 1400.0, 986.0)">P</text><text xml:space="preserve" font-family="Helvetica-Light" font-size="36.0" fill="#FEFFFF" transform="matrix(1.00, 0.00, -0.00, -1.00, 1422.0, 986.0)">r</text><text xml:space="preserve" font-family="Helvetica-Light" font-size="36.0" fill="#FEFFFF" transform="matrix(1.00, 0.00, -0.00, -1.00, 1433.3, 986.0)">o</text><text xml:space="preserve" font-family="Helvetica-Light" font-size="36.0" fill="#FEFFFF" transform="matrix(1.00, 0.00, -0.00, -1.00, 1453.4, 986.0)">ï¬</text><text xml:space="preserve" font-family="Helvetica-Light" font-size="36.0" fill="#FEFFFF" transform="matrix(1.00, 0.00, -0.00, -1.00, 1471.4, 986.0)">t</text><text xml:space="preserve" font-family="Helvetica-Light" font-size="36.0" fill="#FEFFFF" transform="matrix(1.00, 0.00, -0.00, -1.00, 1481.4, 986.0)">s</text><text xml:space="preserve" font-family="Helvetica-Light" font-size="36.0" fill="#FEFFFF" transform="matrix(1.00, 0.00, -0.00, -1.00, 461.0, 989.0)">C</text><text xml:space="preserve" font-family="Helvetica-Light" font-size="36.0" fill="#FEFFFF" transform="matrix(1.00, 0.00, -0.00, -1.00, 487.0, 989.0)">o</text><text xml:space="preserve" font-family="Helvetica-Light" font-size="36.0" fill="#FEFFFF" transform="matrix(1.00, 0.00, -0.00, -1.00, 507.0, 989.0)">n</text><text xml:space="preserve" font-family="Helvetica-Light" font-size="36.0" fill="#FEFFFF" transform="matrix(1.00, 0.00, -0.00, -1.00, 527.0, 989.0)">s</text><text xml:space="preserve" font-family="Helvetica-Light" font-size="36.0" fill="#FEFFFF" transform="matrix(1.00, 0.00, -0.00, -1.00, 545.0, 989.0)">u</text><text xml:space="preserve" font-family="Helvetica-Light" font-size="36.0" fill="#FEFFFF" transform="matrix(1.00, 0.00, -0.00, -1.00, 565.0, 989.0)">l</text><text xml:space="preserve" font-family="Helvetica-Light" font-size="36.0" fill="#FEFFFF" transform="matrix(1.00, 0.00, -0.00, -1.00, 573.0, 989.0)">t</text><text xml:space="preserve" font-family="Helvetica-Light" font-size="36.0" fill="#FEFFFF" transform="matrix(1.00, 0.00, -0.00, -1.00, 583.0, 989.0)">a</text><text xml:space="preserve" font-family="Helvetica-Light" font-size="36.0" fill="#FEFFFF" transform="matrix(1.00, 0.00, -0.00, -1.00, 603.1, 989.0)">n</text><text xml:space="preserve" font-family="Helvetica-Light" font-size="36.0" fill="#FEFFFF" transform="matrix(1.00, 0.00, -0.00, -1.00, 623.1, 989.0)">c</text><text xml:space="preserve" font-family="Helvetica-Light" font-size="36.0" fill="#FEFFFF" transform="matrix(1.00, 0.00, -0.00, -1.00, 643.1, 989.0)">y</text><path d="M 871.5 1018.0 C 881.3 1008.3 881.3 992.5 871.5 982.7 C 861.8 972.9 846.0 972.9 836.2 982.7 C 826.4 992.5 826.4 1008.3 836.2 1018.0 C 846.0 1027.8 861.8 1027.8 871.5 1018.0 " fill="#BEB5F0"></path><text xml:space="preserve" font-family="Helvetica-Light" font-size="36.0" fill="#FEFFFF" transform="matrix(1.00, 0.00, -0.00, -1.00, 903.0, 988.0)">S</text><text xml:space="preserve" font-family="Helvetica-Light" font-size="36.0" fill="#FEFFFF" transform="matrix(1.00, 0.00, -0.00, -1.00, 925.0, 988.0)">t</text><text xml:space="preserve" font-family="Helvetica-Light" font-size="36.0" fill="#FEFFFF" transform="matrix(1.00, 0.00, -0.00, -1.00, 935.0, 988.0)">a</text><text xml:space="preserve" font-family="Helvetica-Light" font-size="36.0" fill="#FEFFFF" transform="matrix(1.00, 0.00, -0.00, -1.00, 955.0, 988.0)">r</text><text xml:space="preserve" font-family="Helvetica-Light" font-size="36.0" fill="#FEFFFF" transform="matrix(1.00, 0.00, -0.00, -1.00, 967.7, 988.0)">t</text><text xml:space="preserve" font-family="Helvetica-Light" font-size="36.0" fill="#FEFFFF" transform="matrix(1.00, 0.00, -0.00, -1.00, 977.7, 988.0)">u</text><text xml:space="preserve" font-family="Helvetica-Light" font-size="36.0" fill="#FEFFFF" transform="matrix(1.00, 0.00, -0.00, -1.00, 997.7, 988.0)">p</text></g></svg>