<?xml version="1.0" encoding="UTF-8" standalone="no"?><svg xmlns="http://www.w3.org/2000/svg" xmlns:xlink="http://www.w3.org/1999/xlink" clip-rule="evenodd" stroke-miterlimit="4.00" viewBox="0 0 1920 1080"><desc>SVG generated by Keynote</desc><defs></defs><g transform="matrix(1.00, 0.00, -0.00, -1.00, 0.0, 1080.0)"><path d="M 0.0 1080.0 L 1920.0 1080.0 L 1920.0 0.0 L 0.0 0.0 Z M 0.0 1080.0 " fill="#FEFFFF"></path><g><clipPath id="clip-38"><path d="M 50.0 52.0 L 154.0 52.0 L 154.0 -1.0 L 50.0 -1.0 Z M 50.4 52.4 "></path></clipPath><g clip-path="url(#clip-38)"><image xlink:href="../../4F9A92A2-2DC6-4691-97F8-9F75BE53396F/assets/B22C448CED7C82A0C99889D0AD879A76.png" width="104.00" height="104.00" transform="matrix(1.00, 0.00, -0.00, -0.99, 50.0, 77.0)"></image></g></g><text xml:space="preserve" font-family="OpenSans-Bold" font-weight="bold" font-size="30.0" fill="#A6AAA8" transform="matrix(1.00, 0.00, -0.00, -1.00, 54.0, 1014.0)">T</text><text xml:space="preserve" font-family="OpenSans-Bold" font-weight="bold" font-size="30.0" fill="#A6AAA8" transform="matrix(1.00, 0.00, -0.00, -1.00, 71.4, 1014.0)">H</text><text xml:space="preserve" font-family="OpenSans-Bold" font-weight="bold" font-size="30.0" fill="#A6AAA8" transform="matrix(1.00, 0.00, -0.00, -1.00, 94.3, 1014.0)">E</text><text xml:space="preserve" font-family="OpenSans-Bold" font-weight="bold" font-size="30.0" fill="#A6AAA8" transform="matrix(1.00, 0.00, -0.00, -1.00, 111.1, 1014.0)"> </text><text xml:space="preserve" font-family="OpenSans-Bold" font-weight="bold" font-size="30.0" fill="#A6AAA8" transform="matrix(1.00, 0.00, -0.00, -1.00, 118.9, 1014.0)">P</text><text xml:space="preserve" font-family="OpenSans-Bold" font-weight="bold" font-size="30.0" fill="#A6AAA8" transform="matrix(1.00, 0.00, -0.00, -1.00, 137.8, 1014.0)">R</text><text xml:space="preserve" font-family="OpenSans-Bold" font-weight="bold" font-size="30.0" fill="#A6AAA8" transform="matrix(1.00, 0.00, -0.00, -1.00, 157.6, 1014.0)">O</text><text xml:space="preserve" font-family="OpenSans-Bold" font-weight="bold" font-size="30.0" fill="#A6AAA8" transform="matrix(1.00, 0.00, -0.00, -1.00, 181.5, 1014.0)">B</text><text xml:space="preserve" font-family="OpenSans-Bold" font-weight="bold" font-size="30.0" fill="#A6AAA8" transform="matrix(1.00, 0.00, -0.00, -1.00, 201.6, 1014.0)">L</text><text xml:space="preserve" font-family="OpenSans-Bold" font-weight="bold" font-size="30.0" fill="#A6AAA8" transform="matrix(1.00, 0.00, -0.00, -1.00, 218.6, 1014.0)">E</text><text xml:space="preserve" font-family="OpenSans-Bold" font-weight="bold" font-size="30.0" fill="#A6AAA8" transform="matrix(1.00, 0.00, -0.00, -1.00, 235.4, 1014.0)">M</text><text xml:space="preserve" font-family="OpenSans-Bold" font-weight="bold" font-size="165.0" fill="#52575F" transform="matrix(1.00, 0.00, -0.00, -1.00, 54.0, 800.0)">C</text><text xml:space="preserve" font-family="OpenSans-Bold" font-weight="bold" font-size="165.0" fill="#52575F" transform="matrix(1.00, 0.00, -0.00, -1.00, 159.2, 800.0)">o</text><text xml:space="preserve" font-family="OpenSans-Bold" font-weight="bold" font-size="165.0" fill="#52575F" transform="matrix(1.00, 0.00, -0.00, -1.00, 261.3, 800.0)">m</text><text xml:space="preserve" font-family="OpenSans-Bold" font-weight="bold" font-size="165.0" fill="#52575F" transform="matrix(1.00, 0.00, -0.00, -1.00, 423.3, 800.0)">m</text><text xml:space="preserve" font-family="OpenSans-Bold" font-weight="bold" font-size="165.0" fill="#52575F" transform="matrix(1.00, 0.00, -0.00, -1.00, 585.4, 800.0)">u</text><text xml:space="preserve" font-family="OpenSans-Bold" font-weight="bold" font-size="165.0" fill="#52575F" transform="matrix(1.00, 0.00, -0.00, -1.00, 693.8, 800.0)">n</text><text xml:space="preserve" font-family="OpenSans-Bold" font-weight="bold" font-size="165.0" fill="#52575F" transform="matrix(1.00, 0.00, -0.00, -1.00, 802.3, 800.0)">i</text><text xml:space="preserve" font-family="OpenSans-Bold" font-weight="bold" font-size="165.0" fill="#52575F" transform="matrix(1.00, 0.00, -0.00, -1.00, 852.7, 800.0)">c</text><text xml:space="preserve" font-family="OpenSans-Bold" font-weight="bold" font-size="165.0" fill="#52575F" transform="matrix(1.00, 0.00, -0.00, -1.00, 937.6, 800.0)">a</text><text xml:space="preserve" font-family="OpenSans-Bold" font-weight="bold" font-size="165.0" fill="#52575F" transform="matrix(1.00, 0.00, -0.00, -1.00, 1037.2, 800.0)">t</text><text xml:space="preserve" font-family="OpenSans-Bold" font-weight="bold" font-size="165.0" fill="#52575F" transform="matrix(1.00, 0.00, -0.00, -1.00, 1108.9, 800.0)">i</text><text xml:space="preserve" font-family="OpenSans-Bold" font-weight="bold" font-size="165.0" fill="#52575F" transform="matrix(1.00, 0.00, -0.00, -1.00, 1159.2, 800.0)">o</text><text xml:space="preserve" font-family="OpenSans-Bold" font-weight="bold" font-size="165.0" fill="#52575F" transform="matrix(1.00, 0.00, -0.00, -1.00, 1261.4, 800.0)">n</text><text xml:space="preserve" font-family="OpenSans-Bold" font-weight="bold" font-size="165.0" fill="#52575F" transform="matrix(1.00, 0.00, -0.00, -1.00, 1369.9, 800.0)">.</text><text xml:space="preserve" font-family="OpenSans-Bold" font-weight="bold" font-size="165.0" fill="#52575F" transform="matrix(1.00, 0.00, -0.00, -1.00, 1417.0, 800.0)"> </text><text xml:space="preserve" font-family="OpenSans-Bold" font-weight="bold" font-size="165.0" fill="#52575F" transform="matrix(1.00, 0.00, -0.00, -1.00, 54.0, 576.0)">A</text><text xml:space="preserve" font-family="OpenSans-Bold" font-weight="bold" font-size="165.0" fill="#52575F" transform="matrix(1.00, 0.00, -0.00, -1.00, 167.8, 576.0)">c</text><text xml:space="preserve" font-family="OpenSans-Bold" font-weight="bold" font-size="165.0" fill="#52575F" transform="matrix(1.00, 0.00, -0.00, -1.00, 252.6, 576.0)">c</text><text xml:space="preserve" font-family="OpenSans-Bold" font-weight="bold" font-size="165.0" fill="#52575F" transform="matrix(1.00, 0.00, -0.00, -1.00, 337.5, 576.0)">e</text><text xml:space="preserve" font-family="OpenSans-Bold" font-weight="bold" font-size="165.0" fill="#52575F" transform="matrix(1.00, 0.00, -0.00, -1.00, 434.9, 576.0)">s</text><text xml:space="preserve" font-family="OpenSans-Bold" font-weight="bold" font-size="165.0" fill="#52575F" transform="matrix(1.00, 0.00, -0.00, -1.00, 516.9, 576.0)">s</text><text xml:space="preserve" font-family="OpenSans-Bold" font-weight="bold" font-size="165.0" fill="#52575F" transform="matrix(1.00, 0.00, -0.00, -1.00, 598.9, 576.0)">i</text><text xml:space="preserve" font-family="OpenSans-Bold" font-weight="bold" font-size="165.0" fill="#52575F" transform="matrix(1.00, 0.00, -0.00, -1.00, 649.3, 576.0)">b</text><text xml:space="preserve" font-family="OpenSans-Bold" font-weight="bold" font-size="165.0" fill="#52575F" transform="matrix(1.00, 0.00, -0.00, -1.00, 753.7, 576.0)">i</text><text xml:space="preserve" font-family="OpenSans-Bold" font-weight="bold" font-size="165.0" fill="#52575F" transform="matrix(1.00, 0.00, -0.00, -1.00, 804.0, 576.0)">l</text><text xml:space="preserve" font-family="OpenSans-Bold" font-weight="bold" font-size="165.0" fill="#52575F" transform="matrix(1.00, 0.00, -0.00, -1.00, 854.3, 576.0)">i</text><text xml:space="preserve" font-family="OpenSans-Bold" font-weight="bold" font-size="165.0" fill="#52575F" transform="matrix(1.00, 0.00, -0.00, -1.00, 904.7, 576.0)">t</text><text xml:space="preserve" font-family="OpenSans-Bold" font-weight="bold" font-size="165.0" fill="#52575F" transform="matrix(1.00, 0.00, -0.00, -1.00, 976.3, 576.0)">y</text><text xml:space="preserve" font-family="OpenSans-Bold" font-weight="bold" font-size="165.0" fill="#52575F" transform="matrix(1.00, 0.00, -0.00, -1.00, 1063.5, 576.0)">.</text><text xml:space="preserve" font-family="OpenSans-Bold" font-weight="bold" font-size="165.0" fill="#52575F" transform="matrix(1.00, 0.00, -0.00, -1.00, 1110.6, 576.0)"> </text><text xml:space="preserve" font-family="OpenSans-Bold" font-weight="bold" font-size="165.0" fill="#52575F" transform="matrix(1.00, 0.00, -0.00, -1.00, 54.0, 352.0)">C</text><text xml:space="preserve" font-family="OpenSans-Bold" font-weight="bold" font-size="165.0" fill="#52575F" transform="matrix(1.00, 0.00, -0.00, -1.00, 159.2, 352.0)">u</text><text xml:space="preserve" font-family="OpenSans-Bold" font-weight="bold" font-size="165.0" fill="#52575F" transform="matrix(1.00, 0.00, -0.00, -1.00, 267.6, 352.0)">l</text><text xml:space="preserve" font-family="OpenSans-Bold" font-weight="bold" font-size="165.0" fill="#52575F" transform="matrix(1.00, 0.00, -0.00, -1.00, 318.0, 352.0)">t</text><text xml:space="preserve" font-family="OpenSans-Bold" font-weight="bold" font-size="165.0" fill="#52575F" transform="matrix(1.00, 0.00, -0.00, -1.00, 389.7, 352.0)">u</text><text xml:space="preserve" font-family="OpenSans-Bold" font-weight="bold" font-size="165.0" fill="#52575F" transform="matrix(1.00, 0.00, -0.00, -1.00, 498.2, 352.0)">r</text><text xml:space="preserve" font-family="OpenSans-Bold" font-weight="bold" font-size="165.0" fill="#52575F" transform="matrix(1.00, 0.00, -0.00, -1.00, 569.8, 352.0)">e</text><text xml:space="preserve" font-family="OpenSans-Bold" font-weight="bold" font-size="165.0" fill="#52575F" transform="matrix(1.00, 0.00, -0.00, -1.00, 667.3, 352.0)">.</text></g></svg>