<?xml version="1.0" encoding="UTF-8" standalone="no"?><svg xmlns="http://www.w3.org/2000/svg" xmlns:xlink="http://www.w3.org/1999/xlink" clip-rule="evenodd" stroke-miterlimit="4.00" viewBox="0 0 1920 1080"><desc>SVG generated by Keynote</desc><defs></defs><g transform="matrix(1.00, 0.00, -0.00, -1.00, 0.0, 1080.0)"><path d="M 0.0 1080.0 L 1920.0 1080.0 L 1920.0 0.0 L 0.0 0.0 Z M 0.0 1080.0 " fill="#FEFFFF"></path><g><clipPath id="clip-39"><path d="M 50.0 52.0 L 154.0 52.0 L 154.0 -1.0 L 50.0 -1.0 Z M 50.4 52.4 "></path></clipPath><g clip-path="url(#clip-39)"><image xlink:href="../../4F9A92A2-2DC6-4691-97F8-9F75BE53396F/assets/B22C448CED7C82A0C99889D0AD879A76.png" width="104.00" height="104.00" transform="matrix(1.00, 0.00, -0.00, -0.99, 50.0, 77.0)"></image></g></g><text xml:space="preserve" font-family="OpenSans-Bold" font-weight="bold" font-size="30.0" fill="#A6AAA8" transform="matrix(1.00, 0.00, -0.00, -1.00, 54.0, 1014.0)">C</text><text xml:space="preserve" font-family="OpenSans-Bold" font-weight="bold" font-size="30.0" fill="#A6AAA8" transform="matrix(1.00, 0.00, -0.00, -1.00, 72.5, 1014.0)">O</text><text xml:space="preserve" font-family="OpenSans-Bold" font-weight="bold" font-size="30.0" fill="#A6AAA8" transform="matrix(1.00, 0.00, -0.00, -1.00, 96.4, 1014.0)">M</text><text xml:space="preserve" font-family="OpenSans-Bold" font-weight="bold" font-size="30.0" fill="#A6AAA8" transform="matrix(1.00, 0.00, -0.00, -1.00, 124.7, 1014.0)">M</text><text xml:space="preserve" font-family="OpenSans-Bold" font-weight="bold" font-size="30.0" fill="#A6AAA8" transform="matrix(1.00, 0.00, -0.00, -1.00, 153.0, 1014.0)">U</text><text xml:space="preserve" font-family="OpenSans-Bold" font-weight="bold" font-size="30.0" fill="#A6AAA8" transform="matrix(1.00, 0.00, -0.00, -1.00, 175.6, 1014.0)">N</text><text xml:space="preserve" font-family="OpenSans-Bold" font-weight="bold" font-size="30.0" fill="#A6AAA8" transform="matrix(1.00, 0.00, -0.00, -1.00, 200.0, 1014.0)">I</text><text xml:space="preserve" font-family="OpenSans-Bold" font-weight="bold" font-size="30.0" fill="#A6AAA8" transform="matrix(1.00, 0.00, -0.00, -1.00, 210.0, 1014.0)">C</text><text xml:space="preserve" font-family="OpenSans-Bold" font-weight="bold" font-size="30.0" fill="#A6AAA8" transform="matrix(1.00, 0.00, -0.00, -1.00, 229.1, 1014.0)">A</text><text xml:space="preserve" font-family="OpenSans-Bold" font-weight="bold" font-size="30.0" fill="#A6AAA8" transform="matrix(1.00, 0.00, -0.00, -1.00, 247.7, 1014.0)">T</text><text xml:space="preserve" font-family="OpenSans-Bold" font-weight="bold" font-size="30.0" fill="#A6AAA8" transform="matrix(1.00, 0.00, -0.00, -1.00, 265.1, 1014.0)">I</text><text xml:space="preserve" font-family="OpenSans-Bold" font-weight="bold" font-size="30.0" fill="#A6AAA8" transform="matrix(1.00, 0.00, -0.00, -1.00, 275.0, 1014.0)">O</text><text xml:space="preserve" font-family="OpenSans-Bold" font-weight="bold" font-size="30.0" fill="#A6AAA8" transform="matrix(1.00, 0.00, -0.00, -1.00, 298.9, 1014.0)">N</text><text xml:space="preserve" font-family="OpenSans-Light" font-size="85.0" fill="#52575F" transform="matrix(1.00, 0.00, -0.00, -1.00, 54.0, 885.0)">P</text><text xml:space="preserve" font-family="OpenSans-Light" font-size="85.0" fill="#52575F" transform="matrix(1.00, 0.00, -0.00, -1.00, 103.7, 885.0)">r</text><text xml:space="preserve" font-family="OpenSans-Light" font-size="85.0" fill="#52575F" transform="matrix(1.00, 0.00, -0.00, -1.00, 135.1, 885.0)">e</text><text xml:space="preserve" font-family="OpenSans-Light" font-size="85.0" fill="#52575F" transform="matrix(1.00, 0.00, -0.00, -1.00, 181.7, 885.0)">s</text><text xml:space="preserve" font-family="OpenSans-Light" font-size="85.0" fill="#52575F" transform="matrix(1.00, 0.00, -0.00, -1.00, 221.3, 885.0)">e</text><text xml:space="preserve" font-family="OpenSans-Light" font-size="85.0" fill="#52575F" transform="matrix(1.00, 0.00, -0.00, -1.00, 268.0, 885.0)">n</text><text xml:space="preserve" font-family="OpenSans-Light" font-size="85.0" fill="#52575F" transform="matrix(1.00, 0.00, -0.00, -1.00, 318.1, 885.0)">t</text><text xml:space="preserve" font-family="OpenSans-Light" font-size="85.0" fill="#52575F" transform="matrix(1.00, 0.00, -0.00, -1.00, 346.5, 885.0)">i</text><text xml:space="preserve" font-family="OpenSans-Light" font-size="85.0" fill="#52575F" transform="matrix(1.00, 0.00, -0.00, -1.00, 365.8, 885.0)">n</text><text xml:space="preserve" font-family="OpenSans-Light" font-size="85.0" fill="#52575F" transform="matrix(1.00, 0.00, -0.00, -1.00, 415.9, 885.0)">g</text><text xml:space="preserve" font-family="OpenSans-Light" font-size="85.0" fill="#52575F" transform="matrix(1.00, 0.00, -0.00, -1.00, 460.3, 885.0)"> </text><text xml:space="preserve" font-family="OpenSans-Light" font-size="85.0" fill="#52575F" transform="matrix(1.00, 0.00, -0.00, -1.00, 54.0, 769.0)">M</text><text xml:space="preserve" font-family="OpenSans-Light" font-size="85.0" fill="#52575F" transform="matrix(1.00, 0.00, -0.00, -1.00, 127.3, 769.0)">e</text><text xml:space="preserve" font-family="OpenSans-Light" font-size="85.0" fill="#52575F" transform="matrix(1.00, 0.00, -0.00, -1.00, 174.0, 769.0)">e</text><text xml:space="preserve" font-family="OpenSans-Light" font-size="85.0" fill="#52575F" transform="matrix(1.00, 0.00, -0.00, -1.00, 220.6, 769.0)">t</text><text xml:space="preserve" font-family="OpenSans-Light" font-size="85.0" fill="#52575F" transform="matrix(1.00, 0.00, -0.00, -1.00, 249.1, 769.0)">i</text><text xml:space="preserve" font-family="OpenSans-Light" font-size="85.0" fill="#52575F" transform="matrix(1.00, 0.00, -0.00, -1.00, 268.3, 769.0)">n</text><text xml:space="preserve" font-family="OpenSans-Light" font-size="85.0" fill="#52575F" transform="matrix(1.00, 0.00, -0.00, -1.00, 318.4, 769.0)">g</text><text xml:space="preserve" font-family="OpenSans-Light" font-size="85.0" fill="#52575F" transform="matrix(1.00, 0.00, -0.00, -1.00, 362.8, 769.0)">s</text><text xml:space="preserve" font-family="OpenSans-Light" font-size="85.0" fill="#52575F" transform="matrix(1.00, 0.00, -0.00, -1.00, 402.4, 769.0)"> </text><text xml:space="preserve" font-family="OpenSans-Light" font-size="85.0" fill="#52575F" transform="matrix(1.00, 0.00, -0.00, -1.00, 54.0, 653.0)">H</text><text xml:space="preserve" font-family="OpenSans-Light" font-size="85.0" fill="#52575F" transform="matrix(1.00, 0.00, -0.00, -1.00, 115.2, 653.0)">a</text><text xml:space="preserve" font-family="OpenSans-Light" font-size="85.0" fill="#52575F" transform="matrix(1.00, 0.00, -0.00, -1.00, 160.2, 653.0)">n</text><text xml:space="preserve" font-family="OpenSans-Light" font-size="85.0" fill="#52575F" transform="matrix(1.00, 0.00, -0.00, -1.00, 210.4, 653.0)">d</text><text xml:space="preserve" font-family="OpenSans-Light" font-size="85.0" fill="#52575F" transform="matrix(1.00, 0.00, -0.00, -1.00, 261.0, 653.0)">-</text><text xml:space="preserve" font-family="OpenSans-Light" font-size="85.0" fill="#52575F" transform="matrix(1.00, 0.00, -0.00, -1.00, 288.3, 653.0)">O</text><text xml:space="preserve" font-family="OpenSans-Light" font-size="85.0" fill="#52575F" transform="matrix(1.00, 0.00, -0.00, -1.00, 353.3, 653.0)">ﬀ</text><text xml:space="preserve" font-family="OpenSans-Light" font-size="85.0" fill="#52575F" transform="matrix(1.00, 0.00, -0.00, -1.00, 404.3, 653.0)">s</text><text xml:space="preserve" font-family="OpenSans-Light" font-size="85.0" fill="#52575F" transform="matrix(1.00, 0.00, -0.00, -1.00, 443.9, 653.0)"> </text><text xml:space="preserve" font-family="OpenSans-Light" font-size="85.0" fill="#52575F" transform="matrix(1.00, 0.00, -0.00, -1.00, 54.0, 537.0)">C</text><text xml:space="preserve" font-family="OpenSans-Light" font-size="85.0" fill="#52575F" transform="matrix(1.00, 0.00, -0.00, -1.00, 106.8, 537.0)">h</text><text xml:space="preserve" font-family="OpenSans-Light" font-size="85.0" fill="#52575F" transform="matrix(1.00, 0.00, -0.00, -1.00, 156.9, 537.0)">a</text><text xml:space="preserve" font-family="OpenSans-Light" font-size="85.0" fill="#52575F" transform="matrix(1.00, 0.00, -0.00, -1.00, 202.0, 537.0)">n</text><text xml:space="preserve" font-family="OpenSans-Light" font-size="85.0" fill="#52575F" transform="matrix(1.00, 0.00, -0.00, -1.00, 252.1, 537.0)">n</text><text xml:space="preserve" font-family="OpenSans-Light" font-size="85.0" fill="#52575F" transform="matrix(1.00, 0.00, -0.00, -1.00, 302.3, 537.0)">e</text><text xml:space="preserve" font-family="OpenSans-Light" font-size="85.0" fill="#52575F" transform="matrix(1.00, 0.00, -0.00, -1.00, 348.9, 537.0)">l</text><text xml:space="preserve" font-family="OpenSans-Light" font-size="85.0" fill="#52575F" transform="matrix(1.00, 0.00, -0.00, -1.00, 368.2, 537.0)">s</text><text xml:space="preserve" font-family="OpenSans-Light" font-size="85.0" fill="#52575F" transform="matrix(1.00, 0.00, -0.00, -1.00, 407.8, 537.0)">/</text><text xml:space="preserve" font-family="OpenSans-Light" font-size="85.0" fill="#52575F" transform="matrix(1.00, 0.00, -0.00, -1.00, 436.7, 537.0)">T</text><text xml:space="preserve" font-family="OpenSans-Light" font-size="85.0" fill="#52575F" transform="matrix(1.00, 0.00, -0.00, -1.00, 475.3, 537.0)">o</text><text xml:space="preserve" font-family="OpenSans-Light" font-size="85.0" fill="#52575F" transform="matrix(1.00, 0.00, -0.00, -1.00, 525.1, 537.0)">o</text><text xml:space="preserve" font-family="OpenSans-Light" font-size="85.0" fill="#52575F" transform="matrix(1.00, 0.00, -0.00, -1.00, 575.0, 537.0)">l</text><text xml:space="preserve" font-family="OpenSans-Light" font-size="85.0" fill="#52575F" transform="matrix(1.00, 0.00, -0.00, -1.00, 594.2, 537.0)">s</text><text xml:space="preserve" font-family="OpenSans-Light" font-size="85.0" fill="#52575F" transform="matrix(1.00, 0.00, -0.00, -1.00, 633.8, 537.0)"> </text><text xml:space="preserve" font-family="OpenSans-Light" font-size="85.0" fill="#52575F" transform="matrix(1.00, 0.00, -0.00, -1.00, 54.0, 421.0)">L</text><text xml:space="preserve" font-family="OpenSans-Light" font-size="85.0" fill="#52575F" transform="matrix(1.00, 0.00, -0.00, -1.00, 97.6, 421.0)">o</text><text xml:space="preserve" font-family="OpenSans-Light" font-size="85.0" fill="#52575F" transform="matrix(1.00, 0.00, -0.00, -1.00, 147.4, 421.0)">s</text><text xml:space="preserve" font-family="OpenSans-Light" font-size="85.0" fill="#52575F" transform="matrix(1.00, 0.00, -0.00, -1.00, 187.0, 421.0)">t</text><text xml:space="preserve" font-family="OpenSans-Light" font-size="85.0" fill="#52575F" transform="matrix(1.00, 0.00, -0.00, -1.00, 215.5, 421.0)"> </text><text xml:space="preserve" font-family="OpenSans-Light" font-size="85.0" fill="#52575F" transform="matrix(1.00, 0.00, -0.00, -1.00, 237.5, 421.0)">i</text><text xml:space="preserve" font-family="OpenSans-Light" font-size="85.0" fill="#52575F" transform="matrix(1.00, 0.00, -0.00, -1.00, 256.8, 421.0)">n</text><text xml:space="preserve" font-family="OpenSans-Light" font-size="85.0" fill="#52575F" transform="matrix(1.00, 0.00, -0.00, -1.00, 306.9, 421.0)"> </text><text xml:space="preserve" font-family="OpenSans-Light" font-size="85.0" fill="#52575F" transform="matrix(1.00, 0.00, -0.00, -1.00, 329.0, 421.0)">t</text><text xml:space="preserve" font-family="OpenSans-Light" font-size="85.0" fill="#52575F" transform="matrix(1.00, 0.00, -0.00, -1.00, 357.4, 421.0)">r</text><text xml:space="preserve" font-family="OpenSans-Light" font-size="85.0" fill="#52575F" transform="matrix(1.00, 0.00, -0.00, -1.00, 388.8, 421.0)">a</text><text xml:space="preserve" font-family="OpenSans-Light" font-size="85.0" fill="#52575F" transform="matrix(1.00, 0.00, -0.00, -1.00, 433.8, 421.0)">n</text><text xml:space="preserve" font-family="OpenSans-Light" font-size="85.0" fill="#52575F" transform="matrix(1.00, 0.00, -0.00, -1.00, 483.9, 421.0)">s</text><text xml:space="preserve" font-family="OpenSans-Light" font-size="85.0" fill="#52575F" transform="matrix(1.00, 0.00, -0.00, -1.00, 523.5, 421.0)">l</text><text xml:space="preserve" font-family="OpenSans-Light" font-size="85.0" fill="#52575F" transform="matrix(1.00, 0.00, -0.00, -1.00, 542.7, 421.0)">a</text><text xml:space="preserve" font-family="OpenSans-Light" font-size="85.0" fill="#52575F" transform="matrix(1.00, 0.00, -0.00, -1.00, 587.8, 421.0)">t</text><text xml:space="preserve" font-family="OpenSans-Light" font-size="85.0" fill="#52575F" transform="matrix(1.00, 0.00, -0.00, -1.00, 616.2, 421.0)">i</text><text xml:space="preserve" font-family="OpenSans-Light" font-size="85.0" fill="#52575F" transform="matrix(1.00, 0.00, -0.00, -1.00, 635.5, 421.0)">o</text><text xml:space="preserve" font-family="OpenSans-Light" font-size="85.0" fill="#52575F" transform="matrix(1.00, 0.00, -0.00, -1.00, 685.3, 421.0)">n</text><text xml:space="preserve" font-family="OpenSans-Light" font-size="85.0" fill="#52575F" transform="matrix(1.00, 0.00, -0.00, -1.00, 735.4, 421.0)"> </text><text xml:space="preserve" font-family="OpenSans-Light" font-size="85.0" fill="#52575F" transform="matrix(1.00, 0.00, -0.00, -1.00, 54.0, 305.0)">E</text><text xml:space="preserve" font-family="OpenSans-Light" font-size="85.0" fill="#52575F" transform="matrix(1.00, 0.00, -0.00, -1.00, 100.9, 305.0)">n</text><text xml:space="preserve" font-family="OpenSans-Light" font-size="85.0" fill="#52575F" transform="matrix(1.00, 0.00, -0.00, -1.00, 151.0, 305.0)">g</text><text xml:space="preserve" font-family="OpenSans-Light" font-size="85.0" fill="#52575F" transform="matrix(1.00, 0.00, -0.00, -1.00, 195.4, 305.0)">a</text><text xml:space="preserve" font-family="OpenSans-Light" font-size="85.0" fill="#52575F" transform="matrix(1.00, 0.00, -0.00, -1.00, 240.5, 305.0)">g</text><text xml:space="preserve" font-family="OpenSans-Light" font-size="85.0" fill="#52575F" transform="matrix(1.00, 0.00, -0.00, -1.00, 284.9, 305.0)">e</text><text xml:space="preserve" font-family="OpenSans-Light" font-size="85.0" fill="#52575F" transform="matrix(1.00, 0.00, -0.00, -1.00, 331.5, 305.0)">m</text><text xml:space="preserve" font-family="OpenSans-Light" font-size="85.0" fill="#52575F" transform="matrix(1.00, 0.00, -0.00, -1.00, 406.5, 305.0)">e</text><text xml:space="preserve" font-family="OpenSans-Light" font-size="85.0" fill="#52575F" transform="matrix(1.00, 0.00, -0.00, -1.00, 453.2, 305.0)">n</text><text xml:space="preserve" font-family="OpenSans-Light" font-size="85.0" fill="#52575F" transform="matrix(1.00, 0.00, -0.00, -1.00, 503.3, 305.0)">t</text><text xml:space="preserve" font-family="OpenSans-Light" font-size="45.0" fill="#52575F" transform="matrix(1.00, 0.00, -0.00, -1.00, 1042.0, 485.0)">“</text><text xml:space="preserve" font-family="OpenSans-Light" font-size="45.0" fill="#52575F" transform="matrix(1.00, 0.00, -0.00, -1.00, 1055.5, 485.0)">O</text><text xml:space="preserve" font-family="OpenSans-Light" font-size="45.0" fill="#52575F" transform="matrix(1.00, 0.00, -0.00, -1.00, 1089.9, 485.0)">u</text><text xml:space="preserve" font-family="OpenSans-Light" font-size="45.0" fill="#52575F" transform="matrix(1.00, 0.00, -0.00, -1.00, 1116.4, 485.0)">t</text><text xml:space="preserve" font-family="OpenSans-Light" font-size="45.0" fill="#52575F" transform="matrix(1.00, 0.00, -0.00, -1.00, 1131.5, 485.0)">s</text><text xml:space="preserve" font-family="OpenSans-Light" font-size="45.0" fill="#52575F" transform="matrix(1.00, 0.00, -0.00, -1.00, 1152.4, 485.0)">i</text><text xml:space="preserve" font-family="OpenSans-Light" font-size="45.0" fill="#52575F" transform="matrix(1.00, 0.00, -0.00, -1.00, 1162.6, 485.0)">d</text><text xml:space="preserve" font-family="OpenSans-Light" font-size="45.0" fill="#52575F" transform="matrix(1.00, 0.00, -0.00, -1.00, 1189.4, 485.0)">e</text><text xml:space="preserve" font-family="OpenSans-Light" font-size="45.0" fill="#52575F" transform="matrix(1.00, 0.00, -0.00, -1.00, 1214.1, 485.0)"> </text><text xml:space="preserve" font-family="OpenSans-Light" font-size="45.0" fill="#52575F" transform="matrix(1.00, 0.00, -0.00, -1.00, 1225.8, 485.0)">c</text><text xml:space="preserve" font-family="OpenSans-Light" font-size="45.0" fill="#52575F" transform="matrix(1.00, 0.00, -0.00, -1.00, 1247.2, 485.0)">o</text><text xml:space="preserve" font-family="OpenSans-Light" font-size="45.0" fill="#52575F" transform="matrix(1.00, 0.00, -0.00, -1.00, 1273.5, 485.0)">n</text><text xml:space="preserve" font-family="OpenSans-Light" font-size="45.0" fill="#52575F" transform="matrix(1.00, 0.00, -0.00, -1.00, 1300.1, 485.0)">s</text><text xml:space="preserve" font-family="OpenSans-Light" font-size="45.0" fill="#52575F" transform="matrix(1.00, 0.00, -0.00, -1.00, 1321.0, 485.0)">u</text><text xml:space="preserve" font-family="OpenSans-Light" font-size="45.0" fill="#52575F" transform="matrix(1.00, 0.00, -0.00, -1.00, 1347.5, 485.0)">l</text><text xml:space="preserve" font-family="OpenSans-Light" font-size="45.0" fill="#52575F" transform="matrix(1.00, 0.00, -0.00, -1.00, 1357.7, 485.0)">t</text><text xml:space="preserve" font-family="OpenSans-Light" font-size="45.0" fill="#52575F" transform="matrix(1.00, 0.00, -0.00, -1.00, 1372.8, 485.0)">a</text><text xml:space="preserve" font-family="OpenSans-Light" font-size="45.0" fill="#52575F" transform="matrix(1.00, 0.00, -0.00, -1.00, 1396.6, 485.0)">n</text><text xml:space="preserve" font-family="OpenSans-Light" font-size="45.0" fill="#52575F" transform="matrix(1.00, 0.00, -0.00, -1.00, 1423.2, 485.0)">t</text><text xml:space="preserve" font-family="OpenSans-Light" font-size="45.0" fill="#52575F" transform="matrix(1.00, 0.00, -0.00, -1.00, 1438.2, 485.0)">s</text><text xml:space="preserve" font-family="OpenSans-Light" font-size="45.0" fill="#52575F" transform="matrix(1.00, 0.00, -0.00, -1.00, 1459.2, 485.0)"> </text><text xml:space="preserve" font-family="OpenSans-Light" font-size="45.0" fill="#52575F" transform="matrix(1.00, 0.00, -0.00, -1.00, 1470.9, 485.0)">a</text><text xml:space="preserve" font-family="OpenSans-Light" font-size="45.0" fill="#52575F" transform="matrix(1.00, 0.00, -0.00, -1.00, 1494.7, 485.0)">r</text><text xml:space="preserve" font-family="OpenSans-Light" font-size="45.0" fill="#52575F" transform="matrix(1.00, 0.00, -0.00, -1.00, 1511.3, 485.0)">e</text><text xml:space="preserve" font-family="OpenSans-Light" font-size="45.0" fill="#52575F" transform="matrix(1.00, 0.00, -0.00, -1.00, 1536.0, 485.0)">n</text><text xml:space="preserve" font-family="OpenSans-Light" font-size="45.0" fill="#52575F" transform="matrix(1.00, 0.00, -0.00, -1.00, 1562.1, 485.0)">’</text><text xml:space="preserve" font-family="OpenSans-Light" font-size="45.0" fill="#52575F" transform="matrix(1.00, 0.00, -0.00, -1.00, 1568.6, 485.0)">t</text><text xml:space="preserve" font-family="OpenSans-Light" font-size="45.0" fill="#52575F" transform="matrix(1.00, 0.00, -0.00, -1.00, 1583.8, 485.0)"> </text><text xml:space="preserve" font-family="OpenSans-Light" font-size="45.0" fill="#52575F" transform="matrix(1.00, 0.00, -0.00, -1.00, 1042.0, 424.0)">a</text><text xml:space="preserve" font-family="OpenSans-Light" font-size="45.0" fill="#52575F" transform="matrix(1.00, 0.00, -0.00, -1.00, 1065.8, 424.0)">b</text><text xml:space="preserve" font-family="OpenSans-Light" font-size="45.0" fill="#52575F" transform="matrix(1.00, 0.00, -0.00, -1.00, 1092.6, 424.0)">l</text><text xml:space="preserve" font-family="OpenSans-Light" font-size="45.0" fill="#52575F" transform="matrix(1.00, 0.00, -0.00, -1.00, 1102.8, 424.0)">e</text><text xml:space="preserve" font-family="OpenSans-Light" font-size="45.0" fill="#52575F" transform="matrix(1.00, 0.00, -0.00, -1.00, 1127.5, 424.0)"> </text><text xml:space="preserve" font-family="OpenSans-Light" font-size="45.0" fill="#52575F" transform="matrix(1.00, 0.00, -0.00, -1.00, 1139.2, 424.0)">t</text><text xml:space="preserve" font-family="OpenSans-Light" font-size="45.0" fill="#52575F" transform="matrix(1.00, 0.00, -0.00, -1.00, 1154.2, 424.0)">o</text><text xml:space="preserve" font-family="OpenSans-Light" font-size="45.0" fill="#52575F" transform="matrix(1.00, 0.00, -0.00, -1.00, 1180.6, 424.0)"> </text><text xml:space="preserve" font-family="OpenSans-Light" font-size="45.0" fill="#52575F" transform="matrix(1.00, 0.00, -0.00, -1.00, 1192.3, 424.0)">u</text><text xml:space="preserve" font-family="OpenSans-Light" font-size="45.0" fill="#52575F" transform="matrix(1.00, 0.00, -0.00, -1.00, 1218.8, 424.0)">s</text><text xml:space="preserve" font-family="OpenSans-Light" font-size="45.0" fill="#52575F" transform="matrix(1.00, 0.00, -0.00, -1.00, 1239.8, 424.0)">e</text><text xml:space="preserve" font-family="OpenSans-Light" font-size="45.0" fill="#52575F" transform="matrix(1.00, 0.00, -0.00, -1.00, 1264.5, 424.0)"> </text><text xml:space="preserve" font-family="OpenSans-Light" font-size="45.0" fill="#52575F" transform="matrix(1.00, 0.00, -0.00, -1.00, 1276.1, 424.0)">i</text><text xml:space="preserve" font-family="OpenSans-Light" font-size="45.0" fill="#52575F" transform="matrix(1.00, 0.00, -0.00, -1.00, 1286.3, 424.0)">n</text><text xml:space="preserve" font-family="OpenSans-Light" font-size="45.0" fill="#52575F" transform="matrix(1.00, 0.00, -0.00, -1.00, 1312.9, 424.0)">t</text><text xml:space="preserve" font-family="OpenSans-Light" font-size="45.0" fill="#52575F" transform="matrix(1.00, 0.00, -0.00, -1.00, 1327.9, 424.0)">e</text><text xml:space="preserve" font-family="OpenSans-Light" font-size="45.0" fill="#52575F" transform="matrix(1.00, 0.00, -0.00, -1.00, 1352.6, 424.0)">r</text><text xml:space="preserve" font-family="OpenSans-Light" font-size="45.0" fill="#52575F" transform="matrix(1.00, 0.00, -0.00, -1.00, 1370.1, 424.0)">n</text><text xml:space="preserve" font-family="OpenSans-Light" font-size="45.0" fill="#52575F" transform="matrix(1.00, 0.00, -0.00, -1.00, 1396.7, 424.0)">a</text><text xml:space="preserve" font-family="OpenSans-Light" font-size="45.0" fill="#52575F" transform="matrix(1.00, 0.00, -0.00, -1.00, 1420.5, 424.0)">l</text><text xml:space="preserve" font-family="OpenSans-Light" font-size="45.0" fill="#52575F" transform="matrix(1.00, 0.00, -0.00, -1.00, 1430.7, 424.0)"> </text><text xml:space="preserve" font-family="OpenSans-Light" font-size="45.0" fill="#52575F" transform="matrix(1.00, 0.00, -0.00, -1.00, 1442.4, 424.0)">t</text><text xml:space="preserve" font-family="OpenSans-Light" font-size="45.0" fill="#52575F" transform="matrix(1.00, 0.00, -0.00, -1.00, 1457.4, 424.0)">o</text><text xml:space="preserve" font-family="OpenSans-Light" font-size="45.0" fill="#52575F" transform="matrix(1.00, 0.00, -0.00, -1.00, 1483.8, 424.0)">o</text><text xml:space="preserve" font-family="OpenSans-Light" font-size="45.0" fill="#52575F" transform="matrix(1.00, 0.00, -0.00, -1.00, 1510.2, 424.0)">l</text><text xml:space="preserve" font-family="OpenSans-Light" font-size="45.0" fill="#52575F" transform="matrix(1.00, 0.00, -0.00, -1.00, 1520.3, 424.0)">s</text><text xml:space="preserve" font-family="OpenSans-Light" font-size="45.0" fill="#52575F" transform="matrix(1.00, 0.00, -0.00, -1.00, 1541.4, 424.0)">”</text><text xml:space="preserve" font-family="OpenSans-Light" font-size="45.0" fill="#52575F" transform="matrix(1.00, 0.00, -0.00, -1.00, 1554.9, 424.0)"> </text><text xml:space="preserve" font-family="OpenSans-Light" font-size="45.0" fill="#52575F" transform="matrix(1.00, 0.00, -0.00, -1.00, 1566.6, 424.0)"> </text><text xml:space="preserve" font-family="OpenSans-Light" font-size="45.0" fill="#52575F" transform="matrix(1.00, 0.00, -0.00, -1.00, 1042.0, 363.0)">-</text><text xml:space="preserve" font-family="OpenSans-Light" font-size="45.0" fill="#52575F" transform="matrix(1.00, 0.00, -0.00, -1.00, 1056.5, 363.0)">J</text><text xml:space="preserve" font-family="OpenSans-Light" font-size="45.0" fill="#52575F" transform="matrix(1.00, 0.00, -0.00, -1.00, 1067.6, 363.0)">o</text><text xml:space="preserve" font-family="OpenSans-Light" font-size="45.0" fill="#52575F" transform="matrix(1.00, 0.00, -0.00, -1.00, 1094.0, 363.0)">h</text><text xml:space="preserve" font-family="OpenSans-Light" font-size="45.0" fill="#52575F" transform="matrix(1.00, 0.00, -0.00, -1.00, 1120.5, 363.0)">n</text><text xml:space="preserve" font-family="OpenSans-Light" font-size="45.0" fill="#52575F" transform="matrix(1.00, 0.00, -0.00, -1.00, 1147.0, 363.0)"> </text><text xml:space="preserve" font-family="OpenSans-Light" font-size="45.0" fill="#52575F" transform="matrix(1.00, 0.00, -0.00, -1.00, 1158.7, 363.0)">E</text><text xml:space="preserve" font-family="OpenSans-Light" font-size="45.0" fill="#52575F" transform="matrix(1.00, 0.00, -0.00, -1.00, 1183.5, 363.0)">v</text><text xml:space="preserve" font-family="OpenSans-Light" font-size="45.0" fill="#52575F" transform="matrix(1.00, 0.00, -0.00, -1.00, 1204.2, 363.0)">a</text><text xml:space="preserve" font-family="OpenSans-Light" font-size="45.0" fill="#52575F" transform="matrix(1.00, 0.00, -0.00, -1.00, 1228.0, 363.0)">n</text><text xml:space="preserve" font-family="OpenSans-Light" font-size="45.0" fill="#52575F" transform="matrix(1.00, 0.00, -0.00, -1.00, 1254.5, 363.0)">s</text><text xml:space="preserve" font-family="OpenSans-Light" font-size="45.0" fill="#52575F" transform="matrix(1.00, 0.00, -0.00, -1.00, 1049.0, 933.0)">“</text><text xml:space="preserve" font-family="OpenSans-Light" font-size="45.0" fill="#52575F" transform="matrix(1.00, 0.00, -0.00, -1.00, 1062.5, 933.0)">D</text><text xml:space="preserve" font-family="OpenSans-Light" font-size="45.0" fill="#52575F" transform="matrix(1.00, 0.00, -0.00, -1.00, 1094.2, 933.0)">r</text><text xml:space="preserve" font-family="OpenSans-Light" font-size="45.0" fill="#52575F" transform="matrix(1.00, 0.00, -0.00, -1.00, 1110.8, 933.0)">o</text><text xml:space="preserve" font-family="OpenSans-Light" font-size="45.0" fill="#52575F" transform="matrix(1.00, 0.00, -0.00, -1.00, 1137.2, 933.0)">p</text><text xml:space="preserve" font-family="OpenSans-Light" font-size="45.0" fill="#52575F" transform="matrix(1.00, 0.00, -0.00, -1.00, 1164.0, 933.0)">p</text><text xml:space="preserve" font-family="OpenSans-Light" font-size="45.0" fill="#52575F" transform="matrix(1.00, 0.00, -0.00, -1.00, 1190.8, 933.0)">i</text><text xml:space="preserve" font-family="OpenSans-Light" font-size="45.0" fill="#52575F" transform="matrix(1.00, 0.00, -0.00, -1.00, 1200.9, 933.0)">n</text><text xml:space="preserve" font-family="OpenSans-Light" font-size="45.0" fill="#52575F" transform="matrix(1.00, 0.00, -0.00, -1.00, 1227.5, 933.0)">g</text><text xml:space="preserve" font-family="OpenSans-Light" font-size="45.0" fill="#52575F" transform="matrix(1.00, 0.00, -0.00, -1.00, 1251.0, 933.0)"> </text><text xml:space="preserve" font-family="OpenSans-Light" font-size="45.0" fill="#52575F" transform="matrix(1.00, 0.00, -0.00, -1.00, 1262.7, 933.0)">a</text><text xml:space="preserve" font-family="OpenSans-Light" font-size="45.0" fill="#52575F" transform="matrix(1.00, 0.00, -0.00, -1.00, 1286.5, 933.0)"> </text><text xml:space="preserve" font-family="OpenSans-Light" font-size="45.0" fill="#52575F" transform="matrix(1.00, 0.00, -0.00, -1.00, 1298.2, 933.0)">b</text><text xml:space="preserve" font-family="OpenSans-Light" font-size="45.0" fill="#52575F" transform="matrix(1.00, 0.00, -0.00, -1.00, 1324.9, 933.0)">u</text><text xml:space="preserve" font-family="OpenSans-Light" font-size="45.0" fill="#52575F" transform="matrix(1.00, 0.00, -0.00, -1.00, 1351.5, 933.0)">n</text><text xml:space="preserve" font-family="OpenSans-Light" font-size="45.0" fill="#52575F" transform="matrix(1.00, 0.00, -0.00, -1.00, 1378.0, 933.0)">c</text><text xml:space="preserve" font-family="OpenSans-Light" font-size="45.0" fill="#52575F" transform="matrix(1.00, 0.00, -0.00, -1.00, 1399.4, 933.0)">h</text><text xml:space="preserve" font-family="OpenSans-Light" font-size="45.0" fill="#52575F" transform="matrix(1.00, 0.00, -0.00, -1.00, 1425.9, 933.0)"> </text><text xml:space="preserve" font-family="OpenSans-Light" font-size="45.0" fill="#52575F" transform="matrix(1.00, 0.00, -0.00, -1.00, 1437.6, 933.0)">o</text><text xml:space="preserve" font-family="OpenSans-Light" font-size="45.0" fill="#52575F" transform="matrix(1.00, 0.00, -0.00, -1.00, 1464.0, 933.0)">f</text><text xml:space="preserve" font-family="OpenSans-Light" font-size="45.0" fill="#52575F" transform="matrix(1.00, 0.00, -0.00, -1.00, 1477.4, 933.0)"> </text><text xml:space="preserve" font-family="OpenSans-Light" font-size="45.0" fill="#52575F" transform="matrix(1.00, 0.00, -0.00, -1.00, 1489.1, 933.0)">w</text><text xml:space="preserve" font-family="OpenSans-Light" font-size="45.0" fill="#52575F" transform="matrix(1.00, 0.00, -0.00, -1.00, 1521.7, 933.0)">o</text><text xml:space="preserve" font-family="OpenSans-Light" font-size="45.0" fill="#52575F" transform="matrix(1.00, 0.00, -0.00, -1.00, 1548.0, 933.0)">r</text><text xml:space="preserve" font-family="OpenSans-Light" font-size="45.0" fill="#52575F" transform="matrix(1.00, 0.00, -0.00, -1.00, 1565.5, 933.0)">k</text><text xml:space="preserve" font-family="OpenSans-Light" font-size="45.0" fill="#52575F" transform="matrix(1.00, 0.00, -0.00, -1.00, 1587.3, 933.0)"> </text><text xml:space="preserve" font-family="OpenSans-Light" font-size="45.0" fill="#52575F" transform="matrix(1.00, 0.00, -0.00, -1.00, 1599.0, 933.0)">a</text><text xml:space="preserve" font-family="OpenSans-Light" font-size="45.0" fill="#52575F" transform="matrix(1.00, 0.00, -0.00, -1.00, 1622.8, 933.0)">n</text><text xml:space="preserve" font-family="OpenSans-Light" font-size="45.0" fill="#52575F" transform="matrix(1.00, 0.00, -0.00, -1.00, 1649.3, 933.0)">d</text><text xml:space="preserve" font-family="OpenSans-Light" font-size="45.0" fill="#52575F" transform="matrix(1.00, 0.00, -0.00, -1.00, 1676.1, 933.0)"> </text><text xml:space="preserve" font-family="OpenSans-Light" font-size="45.0" fill="#52575F" transform="matrix(1.00, 0.00, -0.00, -1.00, 1687.8, 933.0)">w</text><text xml:space="preserve" font-family="OpenSans-Light" font-size="45.0" fill="#52575F" transform="matrix(1.00, 0.00, -0.00, -1.00, 1720.3, 933.0)">a</text><text xml:space="preserve" font-family="OpenSans-Light" font-size="45.0" fill="#52575F" transform="matrix(1.00, 0.00, -0.00, -1.00, 1744.1, 933.0)">l</text><text xml:space="preserve" font-family="OpenSans-Light" font-size="45.0" fill="#52575F" transform="matrix(1.00, 0.00, -0.00, -1.00, 1754.3, 933.0)">k</text><text xml:space="preserve" font-family="OpenSans-Light" font-size="45.0" fill="#52575F" transform="matrix(1.00, 0.00, -0.00, -1.00, 1776.1, 933.0)">i</text><text xml:space="preserve" font-family="OpenSans-Light" font-size="45.0" fill="#52575F" transform="matrix(1.00, 0.00, -0.00, -1.00, 1786.2, 933.0)">n</text><text xml:space="preserve" font-family="OpenSans-Light" font-size="45.0" fill="#52575F" transform="matrix(1.00, 0.00, -0.00, -1.00, 1812.8, 933.0)">g</text><text xml:space="preserve" font-family="OpenSans-Light" font-size="45.0" fill="#52575F" transform="matrix(1.00, 0.00, -0.00, -1.00, 1836.3, 933.0)"> </text><text xml:space="preserve" font-family="OpenSans-Light" font-size="45.0" fill="#52575F" transform="matrix(1.00, 0.00, -0.00, -1.00, 1049.0, 872.0)">a</text><text xml:space="preserve" font-family="OpenSans-Light" font-size="45.0" fill="#52575F" transform="matrix(1.00, 0.00, -0.00, -1.00, 1072.8, 872.0)">w</text><text xml:space="preserve" font-family="OpenSans-Light" font-size="45.0" fill="#52575F" transform="matrix(1.00, 0.00, -0.00, -1.00, 1105.4, 872.0)">a</text><text xml:space="preserve" font-family="OpenSans-Light" font-size="45.0" fill="#52575F" transform="matrix(1.00, 0.00, -0.00, -1.00, 1129.2, 872.0)">y</text><text xml:space="preserve" font-family="OpenSans-Light" font-size="45.0" fill="#52575F" transform="matrix(1.00, 0.00, -0.00, -1.00, 1148.1, 872.0)">.</text><text xml:space="preserve" font-family="OpenSans-Light" font-size="45.0" fill="#52575F" transform="matrix(1.00, 0.00, -0.00, -1.00, 1158.8, 872.0)"> </text><text xml:space="preserve" font-family="OpenSans-Light" font-size="45.0" fill="#52575F" transform="matrix(1.00, 0.00, -0.00, -1.00, 1170.4, 872.0)">t</text><text xml:space="preserve" font-family="OpenSans-Light" font-size="45.0" fill="#52575F" transform="matrix(1.00, 0.00, -0.00, -1.00, 1185.5, 872.0)">h</text><text xml:space="preserve" font-family="OpenSans-Light" font-size="45.0" fill="#52575F" transform="matrix(1.00, 0.00, -0.00, -1.00, 1212.0, 872.0)">e</text><text xml:space="preserve" font-family="OpenSans-Light" font-size="45.0" fill="#52575F" transform="matrix(1.00, 0.00, -0.00, -1.00, 1236.7, 872.0)"> </text><text xml:space="preserve" font-family="OpenSans-Light" font-size="45.0" fill="#52575F" transform="matrix(1.00, 0.00, -0.00, -1.00, 1248.4, 872.0)">b</text><text xml:space="preserve" font-family="OpenSans-Light" font-size="45.0" fill="#52575F" transform="matrix(1.00, 0.00, -0.00, -1.00, 1275.2, 872.0)">e</text><text xml:space="preserve" font-family="OpenSans-Light" font-size="45.0" fill="#52575F" transform="matrix(1.00, 0.00, -0.00, -1.00, 1299.9, 872.0)">s</text><text xml:space="preserve" font-family="OpenSans-Light" font-size="45.0" fill="#52575F" transform="matrix(1.00, 0.00, -0.00, -1.00, 1320.8, 872.0)">t</text><text xml:space="preserve" font-family="OpenSans-Light" font-size="45.0" fill="#52575F" transform="matrix(1.00, 0.00, -0.00, -1.00, 1335.9, 872.0)"> </text><text xml:space="preserve" font-family="OpenSans-Light" font-size="45.0" fill="#52575F" transform="matrix(1.00, 0.00, -0.00, -1.00, 1347.6, 872.0)">w</text><text xml:space="preserve" font-family="OpenSans-Light" font-size="45.0" fill="#52575F" transform="matrix(1.00, 0.00, -0.00, -1.00, 1380.1, 872.0)">a</text><text xml:space="preserve" font-family="OpenSans-Light" font-size="45.0" fill="#52575F" transform="matrix(1.00, 0.00, -0.00, -1.00, 1404.0, 872.0)">y</text><text xml:space="preserve" font-family="OpenSans-Light" font-size="45.0" fill="#52575F" transform="matrix(1.00, 0.00, -0.00, -1.00, 1424.6, 872.0)"> </text><text xml:space="preserve" font-family="OpenSans-Light" font-size="45.0" fill="#52575F" transform="matrix(1.00, 0.00, -0.00, -1.00, 1436.3, 872.0)">i</text><text xml:space="preserve" font-family="OpenSans-Light" font-size="45.0" fill="#52575F" transform="matrix(1.00, 0.00, -0.00, -1.00, 1446.5, 872.0)">s</text><text xml:space="preserve" font-family="OpenSans-Light" font-size="45.0" fill="#52575F" transform="matrix(1.00, 0.00, -0.00, -1.00, 1467.4, 872.0)"> </text><text xml:space="preserve" font-family="OpenSans-Light" font-size="45.0" fill="#52575F" transform="matrix(1.00, 0.00, -0.00, -1.00, 1479.1, 872.0)">a</text><text xml:space="preserve" font-family="OpenSans-Light" font-size="45.0" fill="#52575F" transform="matrix(1.00, 0.00, -0.00, -1.00, 1502.9, 872.0)"> </text><text xml:space="preserve" font-family="OpenSans-Light" font-size="45.0" fill="#52575F" transform="matrix(1.00, 0.00, -0.00, -1.00, 1514.6, 872.0)">g</text><text xml:space="preserve" font-family="OpenSans-Light" font-size="45.0" fill="#52575F" transform="matrix(1.00, 0.00, -0.00, -1.00, 1538.2, 872.0)">r</text><text xml:space="preserve" font-family="OpenSans-Light" font-size="45.0" fill="#52575F" transform="matrix(1.00, 0.00, -0.00, -1.00, 1554.8, 872.0)">a</text><text xml:space="preserve" font-family="OpenSans-Light" font-size="45.0" fill="#52575F" transform="matrix(1.00, 0.00, -0.00, -1.00, 1578.6, 872.0)">d</text><text xml:space="preserve" font-family="OpenSans-Light" font-size="45.0" fill="#52575F" transform="matrix(1.00, 0.00, -0.00, -1.00, 1605.4, 872.0)">i</text><text xml:space="preserve" font-family="OpenSans-Light" font-size="45.0" fill="#52575F" transform="matrix(1.00, 0.00, -0.00, -1.00, 1615.6, 872.0)">e</text><text xml:space="preserve" font-family="OpenSans-Light" font-size="45.0" fill="#52575F" transform="matrix(1.00, 0.00, -0.00, -1.00, 1640.3, 872.0)">n</text><text xml:space="preserve" font-family="OpenSans-Light" font-size="45.0" fill="#52575F" transform="matrix(1.00, 0.00, -0.00, -1.00, 1666.8, 872.0)">t</text><text xml:space="preserve" font-family="OpenSans-Light" font-size="45.0" fill="#52575F" transform="matrix(1.00, 0.00, -0.00, -1.00, 1681.9, 872.0)"> </text><text xml:space="preserve" font-family="OpenSans-Light" font-size="45.0" fill="#52575F" transform="matrix(1.00, 0.00, -0.00, -1.00, 1693.6, 872.0)">w</text><text xml:space="preserve" font-family="OpenSans-Light" font-size="45.0" fill="#52575F" transform="matrix(1.00, 0.00, -0.00, -1.00, 1726.1, 872.0)">h</text><text xml:space="preserve" font-family="OpenSans-Light" font-size="45.0" fill="#52575F" transform="matrix(1.00, 0.00, -0.00, -1.00, 1752.6, 872.0)">e</text><text xml:space="preserve" font-family="OpenSans-Light" font-size="45.0" fill="#52575F" transform="matrix(1.00, 0.00, -0.00, -1.00, 1777.3, 872.0)">r</text><text xml:space="preserve" font-family="OpenSans-Light" font-size="45.0" fill="#52575F" transform="matrix(1.00, 0.00, -0.00, -1.00, 1793.9, 872.0)">e</text><text xml:space="preserve" font-family="OpenSans-Light" font-size="45.0" fill="#52575F" transform="matrix(1.00, 0.00, -0.00, -1.00, 1818.6, 872.0)"> </text><text xml:space="preserve" font-family="OpenSans-Light" font-size="45.0" fill="#52575F" transform="matrix(1.00, 0.00, -0.00, -1.00, 1049.0, 811.0)">t</text><text xml:space="preserve" font-family="OpenSans-Light" font-size="45.0" fill="#52575F" transform="matrix(1.00, 0.00, -0.00, -1.00, 1064.1, 811.0)">h</text><text xml:space="preserve" font-family="OpenSans-Light" font-size="45.0" fill="#52575F" transform="matrix(1.00, 0.00, -0.00, -1.00, 1090.6, 811.0)">e</text><text xml:space="preserve" font-family="OpenSans-Light" font-size="45.0" fill="#52575F" transform="matrix(1.00, 0.00, -0.00, -1.00, 1115.3, 811.0)"> </text><text xml:space="preserve" font-family="OpenSans-Light" font-size="45.0" fill="#52575F" transform="matrix(1.00, 0.00, -0.00, -1.00, 1127.0, 811.0)">a</text><text xml:space="preserve" font-family="OpenSans-Light" font-size="45.0" fill="#52575F" transform="matrix(1.00, 0.00, -0.00, -1.00, 1150.8, 811.0)">g</text><text xml:space="preserve" font-family="OpenSans-Light" font-size="45.0" fill="#52575F" transform="matrix(1.00, 0.00, -0.00, -1.00, 1174.3, 811.0)">e</text><text xml:space="preserve" font-family="OpenSans-Light" font-size="45.0" fill="#52575F" transform="matrix(1.00, 0.00, -0.00, -1.00, 1199.0, 811.0)">n</text><text xml:space="preserve" font-family="OpenSans-Light" font-size="45.0" fill="#52575F" transform="matrix(1.00, 0.00, -0.00, -1.00, 1225.6, 811.0)">c</text><text xml:space="preserve" font-family="OpenSans-Light" font-size="45.0" fill="#52575F" transform="matrix(1.00, 0.00, -0.00, -1.00, 1246.9, 811.0)">y</text><text xml:space="preserve" font-family="OpenSans-Light" font-size="45.0" fill="#52575F" transform="matrix(1.00, 0.00, -0.00, -1.00, 1267.6, 811.0)"> </text><text xml:space="preserve" font-family="OpenSans-Light" font-size="45.0" fill="#52575F" transform="matrix(1.00, 0.00, -0.00, -1.00, 1279.3, 811.0)">i</text><text xml:space="preserve" font-family="OpenSans-Light" font-size="45.0" fill="#52575F" transform="matrix(1.00, 0.00, -0.00, -1.00, 1289.5, 811.0)">s</text><text xml:space="preserve" font-family="OpenSans-Light" font-size="45.0" fill="#52575F" transform="matrix(1.00, 0.00, -0.00, -1.00, 1310.4, 811.0)"> </text><text xml:space="preserve" font-family="OpenSans-Light" font-size="45.0" fill="#52575F" transform="matrix(1.00, 0.00, -0.00, -1.00, 1322.1, 811.0)">s</text><text xml:space="preserve" font-family="OpenSans-Light" font-size="45.0" fill="#52575F" transform="matrix(1.00, 0.00, -0.00, -1.00, 1343.0, 811.0)">l</text><text xml:space="preserve" font-family="OpenSans-Light" font-size="45.0" fill="#52575F" transform="matrix(1.00, 0.00, -0.00, -1.00, 1353.2, 811.0)">o</text><text xml:space="preserve" font-family="OpenSans-Light" font-size="45.0" fill="#52575F" transform="matrix(1.00, 0.00, -0.00, -1.00, 1378.7, 811.0)">w</text><text xml:space="preserve" font-family="OpenSans-Light" font-size="45.0" fill="#52575F" transform="matrix(1.00, 0.00, -0.00, -1.00, 1411.2, 811.0)">l</text><text xml:space="preserve" font-family="OpenSans-Light" font-size="45.0" fill="#52575F" transform="matrix(1.00, 0.00, -0.00, -1.00, 1421.4, 811.0)">y</text><text xml:space="preserve" font-family="OpenSans-Light" font-size="45.0" fill="#52575F" transform="matrix(1.00, 0.00, -0.00, -1.00, 1442.1, 811.0)"> </text><text xml:space="preserve" font-family="OpenSans-Light" font-size="45.0" fill="#52575F" transform="matrix(1.00, 0.00, -0.00, -1.00, 1453.7, 811.0)">s</text><text xml:space="preserve" font-family="OpenSans-Light" font-size="45.0" fill="#52575F" transform="matrix(1.00, 0.00, -0.00, -1.00, 1474.7, 811.0)">t</text><text xml:space="preserve" font-family="OpenSans-Light" font-size="45.0" fill="#52575F" transform="matrix(1.00, 0.00, -0.00, -1.00, 1489.8, 811.0)">e</text><text xml:space="preserve" font-family="OpenSans-Light" font-size="45.0" fill="#52575F" transform="matrix(1.00, 0.00, -0.00, -1.00, 1514.5, 811.0)">p</text><text xml:space="preserve" font-family="OpenSans-Light" font-size="45.0" fill="#52575F" transform="matrix(1.00, 0.00, -0.00, -1.00, 1541.2, 811.0)">p</text><text xml:space="preserve" font-family="OpenSans-Light" font-size="45.0" fill="#52575F" transform="matrix(1.00, 0.00, -0.00, -1.00, 1568.0, 811.0)">i</text><text xml:space="preserve" font-family="OpenSans-Light" font-size="45.0" fill="#52575F" transform="matrix(1.00, 0.00, -0.00, -1.00, 1578.2, 811.0)">n</text><text xml:space="preserve" font-family="OpenSans-Light" font-size="45.0" fill="#52575F" transform="matrix(1.00, 0.00, -0.00, -1.00, 1604.8, 811.0)">g</text><text xml:space="preserve" font-family="OpenSans-Light" font-size="45.0" fill="#52575F" transform="matrix(1.00, 0.00, -0.00, -1.00, 1628.3, 811.0)"> </text><text xml:space="preserve" font-family="OpenSans-Light" font-size="45.0" fill="#52575F" transform="matrix(1.00, 0.00, -0.00, -1.00, 1640.0, 811.0)">a</text><text xml:space="preserve" font-family="OpenSans-Light" font-size="45.0" fill="#52575F" transform="matrix(1.00, 0.00, -0.00, -1.00, 1663.8, 811.0)">w</text><text xml:space="preserve" font-family="OpenSans-Light" font-size="45.0" fill="#52575F" transform="matrix(1.00, 0.00, -0.00, -1.00, 1696.3, 811.0)">a</text><text xml:space="preserve" font-family="OpenSans-Light" font-size="45.0" fill="#52575F" transform="matrix(1.00, 0.00, -0.00, -1.00, 1720.2, 811.0)">y</text><text xml:space="preserve" font-family="OpenSans-Light" font-size="45.0" fill="#52575F" transform="matrix(1.00, 0.00, -0.00, -1.00, 1740.8, 811.0)"> </text><text xml:space="preserve" font-family="OpenSans-Light" font-size="45.0" fill="#52575F" transform="matrix(1.00, 0.00, -0.00, -1.00, 1049.0, 750.0)">i</text><text xml:space="preserve" font-family="OpenSans-Light" font-size="45.0" fill="#52575F" transform="matrix(1.00, 0.00, -0.00, -1.00, 1059.2, 750.0)">n</text><text xml:space="preserve" font-family="OpenSans-Light" font-size="45.0" fill="#52575F" transform="matrix(1.00, 0.00, -0.00, -1.00, 1085.7, 750.0)">s</text><text xml:space="preserve" font-family="OpenSans-Light" font-size="45.0" fill="#52575F" transform="matrix(1.00, 0.00, -0.00, -1.00, 1106.7, 750.0)">t</text><text xml:space="preserve" font-family="OpenSans-Light" font-size="45.0" fill="#52575F" transform="matrix(1.00, 0.00, -0.00, -1.00, 1121.7, 750.0)">e</text><text xml:space="preserve" font-family="OpenSans-Light" font-size="45.0" fill="#52575F" transform="matrix(1.00, 0.00, -0.00, -1.00, 1146.4, 750.0)">a</text><text xml:space="preserve" font-family="OpenSans-Light" font-size="45.0" fill="#52575F" transform="matrix(1.00, 0.00, -0.00, -1.00, 1170.3, 750.0)">d</text><text xml:space="preserve" font-family="OpenSans-Light" font-size="45.0" fill="#52575F" transform="matrix(1.00, 0.00, -0.00, -1.00, 1197.1, 750.0)"> </text><text xml:space="preserve" font-family="OpenSans-Light" font-size="45.0" fill="#52575F" transform="matrix(1.00, 0.00, -0.00, -1.00, 1208.7, 750.0)">o</text><text xml:space="preserve" font-family="OpenSans-Light" font-size="45.0" fill="#52575F" transform="matrix(1.00, 0.00, -0.00, -1.00, 1235.1, 750.0)">f</text><text xml:space="preserve" font-family="OpenSans-Light" font-size="45.0" fill="#52575F" transform="matrix(1.00, 0.00, -0.00, -1.00, 1248.6, 750.0)"> </text><text xml:space="preserve" font-family="OpenSans-Light" font-size="45.0" fill="#52575F" transform="matrix(1.00, 0.00, -0.00, -1.00, 1260.3, 750.0)">a</text><text xml:space="preserve" font-family="OpenSans-Light" font-size="45.0" fill="#52575F" transform="matrix(1.00, 0.00, -0.00, -1.00, 1284.1, 750.0)">n</text><text xml:space="preserve" font-family="OpenSans-Light" font-size="45.0" fill="#52575F" transform="matrix(1.00, 0.00, -0.00, -1.00, 1310.6, 750.0)"> </text><text xml:space="preserve" font-family="OpenSans-Light" font-size="45.0" fill="#52575F" transform="matrix(1.00, 0.00, -0.00, -1.00, 1322.3, 750.0)">a</text><text xml:space="preserve" font-family="OpenSans-Light" font-size="45.0" fill="#52575F" transform="matrix(1.00, 0.00, -0.00, -1.00, 1346.1, 750.0)">b</text><text xml:space="preserve" font-family="OpenSans-Light" font-size="45.0" fill="#52575F" transform="matrix(1.00, 0.00, -0.00, -1.00, 1372.9, 750.0)">r</text><text xml:space="preserve" font-family="OpenSans-Light" font-size="45.0" fill="#52575F" transform="matrix(1.00, 0.00, -0.00, -1.00, 1390.4, 750.0)">u</text><text xml:space="preserve" font-family="OpenSans-Light" font-size="45.0" fill="#52575F" transform="matrix(1.00, 0.00, -0.00, -1.00, 1417.0, 750.0)">p</text><text xml:space="preserve" font-family="OpenSans-Light" font-size="45.0" fill="#52575F" transform="matrix(1.00, 0.00, -0.00, -1.00, 1443.8, 750.0)">t</text><text xml:space="preserve" font-family="OpenSans-Light" font-size="45.0" fill="#52575F" transform="matrix(1.00, 0.00, -0.00, -1.00, 1458.8, 750.0)"> </text><text xml:space="preserve" font-family="OpenSans-Light" font-size="45.0" fill="#52575F" transform="matrix(1.00, 0.00, -0.00, -1.00, 1470.5, 750.0)">m</text><text xml:space="preserve" font-family="OpenSans-Light" font-size="45.0" fill="#52575F" transform="matrix(1.00, 0.00, -0.00, -1.00, 1510.2, 750.0)">o</text><text xml:space="preserve" font-family="OpenSans-Light" font-size="45.0" fill="#52575F" transform="matrix(1.00, 0.00, -0.00, -1.00, 1536.6, 750.0)">m</text><text xml:space="preserve" font-family="OpenSans-Light" font-size="45.0" fill="#52575F" transform="matrix(1.00, 0.00, -0.00, -1.00, 1576.3, 750.0)">e</text><text xml:space="preserve" font-family="OpenSans-Light" font-size="45.0" fill="#52575F" transform="matrix(1.00, 0.00, -0.00, -1.00, 1601.0, 750.0)">n</text><text xml:space="preserve" font-family="OpenSans-Light" font-size="45.0" fill="#52575F" transform="matrix(1.00, 0.00, -0.00, -1.00, 1627.6, 750.0)">t</text><text xml:space="preserve" font-family="OpenSans-Light" font-size="45.0" fill="#52575F" transform="matrix(1.00, 0.00, -0.00, -1.00, 1642.6, 750.0)">.</text><text xml:space="preserve" font-family="OpenSans-Light" font-size="45.0" fill="#52575F" transform="matrix(1.00, 0.00, -0.00, -1.00, 1653.4, 750.0)">”</text><text xml:space="preserve" font-family="OpenSans-Light" font-size="45.0" fill="#52575F" transform="matrix(1.00, 0.00, -0.00, -1.00, 1666.9, 750.0)"> </text><text xml:space="preserve" font-family="OpenSans-Light" font-size="45.0" fill="#52575F" transform="matrix(1.00, 0.00, -0.00, -1.00, 1049.0, 689.0)">-</text><text xml:space="preserve" font-family="OpenSans-Light" font-size="45.0" fill="#52575F" transform="matrix(1.00, 0.00, -0.00, -1.00, 1063.5, 689.0)">J</text><text xml:space="preserve" font-family="OpenSans-Light" font-size="45.0" fill="#52575F" transform="matrix(1.00, 0.00, -0.00, -1.00, 1074.6, 689.0)">o</text><text xml:space="preserve" font-family="OpenSans-Light" font-size="45.0" fill="#52575F" transform="matrix(1.00, 0.00, -0.00, -1.00, 1101.0, 689.0)">h</text><text xml:space="preserve" font-family="OpenSans-Light" font-size="45.0" fill="#52575F" transform="matrix(1.00, 0.00, -0.00, -1.00, 1127.5, 689.0)">n</text><text xml:space="preserve" font-family="OpenSans-Light" font-size="45.0" fill="#52575F" transform="matrix(1.00, 0.00, -0.00, -1.00, 1154.0, 689.0)"> </text><text xml:space="preserve" font-family="OpenSans-Light" font-size="45.0" fill="#52575F" transform="matrix(1.00, 0.00, -0.00, -1.00, 1165.7, 689.0)">E</text><text xml:space="preserve" font-family="OpenSans-Light" font-size="45.0" fill="#52575F" transform="matrix(1.00, 0.00, -0.00, -1.00, 1190.5, 689.0)">v</text><text xml:space="preserve" font-family="OpenSans-Light" font-size="45.0" fill="#52575F" transform="matrix(1.00, 0.00, -0.00, -1.00, 1211.2, 689.0)">a</text><text xml:space="preserve" font-family="OpenSans-Light" font-size="45.0" fill="#52575F" transform="matrix(1.00, 0.00, -0.00, -1.00, 1235.0, 689.0)">n</text><text xml:space="preserve" font-family="OpenSans-Light" font-size="45.0" fill="#52575F" transform="matrix(1.00, 0.00, -0.00, -1.00, 1261.5, 689.0)">s</text></g></svg>