<?xml version="1.0" encoding="UTF-8" standalone="no"?><svg xmlns="http://www.w3.org/2000/svg" xmlns:xlink="http://www.w3.org/1999/xlink" clip-rule="evenodd" stroke-miterlimit="4.00" viewBox="0 0 1920 1080"><desc>SVG generated by Keynote</desc><defs></defs><g transform="matrix(1.00, 0.00, -0.00, -1.00, 0.0, 1080.0)"><path d="M 0.0 1080.0 L 1920.0 1080.0 L 1920.0 0.0 L 0.0 0.0 Z M 0.0 1080.0 " fill="#000000"></path><g opacity="0.45"><g><clipPath id="clip-612"><path d="M 0.0 0.0 L 1920.0 0.0 L 1920.0 1080.0 L 0.0 1080.0 Z M 0.0 0.0 "></path></clipPath><g clip-path="url(#clip-612)"><image xlink:href="../../58DB20D7-1B94-44ED-A37D-F05C7B5F6132/assets/4367F7A0500B21B4F1D55A6486B03E80.png" width="545.00" height="769.00" transform="matrix(3.58, 0.00, -0.00, -3.58, -15.0, 2008.0)"></image></g></g></g><text xml:space="preserve" font-family="Helvetica-Bold" font-weight="bold" font-size="90.0" fill="#FEFFFF" transform="matrix(1.00, 0.00, -0.00, -1.00, 538.0, 629.0)">1</text><text xml:space="preserve" font-family="Helvetica-Bold" font-weight="bold" font-size="90.0" fill="#FEFFFF" transform="matrix(1.00, 0.00, -0.00, -1.00, 588.1, 629.0)">.</text><text xml:space="preserve" font-family="Helvetica" font-size="52.0" fill="#FEFFFF" transform="matrix(1.00, 0.00, -0.00, -1.00, 538.0, 505.0)">T</text><text xml:space="preserve" font-family="Helvetica" font-size="52.0" fill="#FEFFFF" transform="matrix(1.00, 0.00, -0.00, -1.00, 569.8, 505.0)">h</text><text xml:space="preserve" font-family="Helvetica" font-size="52.0" fill="#FEFFFF" transform="matrix(1.00, 0.00, -0.00, -1.00, 598.7, 505.0)">e</text><text xml:space="preserve" font-family="Helvetica" font-size="52.0" fill="#FEFFFF" transform="matrix(1.00, 0.00, -0.00, -1.00, 627.6, 505.0)">r</text><text xml:space="preserve" font-family="Helvetica" font-size="52.0" fill="#FEFFFF" transform="matrix(1.00, 0.00, -0.00, -1.00, 644.9, 505.0)">e</text><text xml:space="preserve" font-family="Helvetica" font-size="52.0" fill="#FEFFFF" transform="matrix(1.00, 0.00, -0.00, -1.00, 673.9, 505.0)"> </text><text xml:space="preserve" font-family="Helvetica" font-size="52.0" fill="#FEFFFF" transform="matrix(1.00, 0.00, -0.00, -1.00, 688.3, 505.0)">i</text><text xml:space="preserve" font-family="Helvetica" font-size="52.0" fill="#FEFFFF" transform="matrix(1.00, 0.00, -0.00, -1.00, 699.9, 505.0)">s</text><text xml:space="preserve" font-family="Helvetica" font-size="52.0" fill="#FEFFFF" transform="matrix(1.00, 0.00, -0.00, -1.00, 725.9, 505.0)"> </text><text xml:space="preserve" font-family="Helvetica" font-size="52.0" fill="#FEFFFF" transform="matrix(1.00, 0.00, -0.00, -1.00, 740.3, 505.0)">a</text><text xml:space="preserve" font-family="Helvetica" font-size="52.0" fill="#FEFFFF" transform="matrix(1.00, 0.00, -0.00, -1.00, 769.2, 505.0)">n</text><text xml:space="preserve" font-family="Helvetica" font-size="52.0" fill="#FEFFFF" transform="matrix(1.00, 0.00, -0.00, -1.00, 798.2, 505.0)"> </text><text xml:space="preserve" font-family="Helvetica" font-size="52.0" fill="#FEFFFF" transform="matrix(1.00, 0.00, -0.00, -1.00, 812.6, 505.0)">o</text><text xml:space="preserve" font-family="Helvetica" font-size="52.0" fill="#FEFFFF" transform="matrix(1.00, 0.00, -0.00, -1.00, 841.5, 505.0)">p</text><text xml:space="preserve" font-family="Helvetica" font-size="52.0" fill="#FEFFFF" transform="matrix(1.00, 0.00, -0.00, -1.00, 870.5, 505.0)">p</text><text xml:space="preserve" font-family="Helvetica" font-size="52.0" fill="#FEFFFF" transform="matrix(1.00, 0.00, -0.00, -1.00, 899.4, 505.0)">o</text><text xml:space="preserve" font-family="Helvetica" font-size="52.0" fill="#FEFFFF" transform="matrix(1.00, 0.00, -0.00, -1.00, 928.3, 505.0)">r</text><text xml:space="preserve" font-family="Helvetica" font-size="52.0" fill="#FEFFFF" transform="matrix(1.00, 0.00, -0.00, -1.00, 945.6, 505.0)">t</text><text xml:space="preserve" font-family="Helvetica" font-size="52.0" fill="#FEFFFF" transform="matrix(1.00, 0.00, -0.00, -1.00, 960.1, 505.0)">u</text><text xml:space="preserve" font-family="Helvetica" font-size="52.0" fill="#FEFFFF" transform="matrix(1.00, 0.00, -0.00, -1.00, 989.0, 505.0)">n</text><text xml:space="preserve" font-family="Helvetica" font-size="52.0" fill="#FEFFFF" transform="matrix(1.00, 0.00, -0.00, -1.00, 1017.9, 505.0)">i</text><text xml:space="preserve" font-family="Helvetica" font-size="52.0" fill="#FEFFFF" transform="matrix(1.00, 0.00, -0.00, -1.00, 1029.5, 505.0)">t</text><text xml:space="preserve" font-family="Helvetica" font-size="52.0" fill="#FEFFFF" transform="matrix(1.00, 0.00, -0.00, -1.00, 1043.9, 505.0)">y</text><text xml:space="preserve" font-family="Helvetica" font-size="52.0" fill="#FEFFFF" transform="matrix(1.00, 0.00, -0.00, -1.00, 1069.9, 505.0)"> </text><text xml:space="preserve" font-family="Helvetica" font-size="52.0" fill="#FEFFFF" transform="matrix(1.00, 0.00, -0.00, -1.00, 1084.4, 505.0)">f</text><text xml:space="preserve" font-family="Helvetica" font-size="52.0" fill="#FEFFFF" transform="matrix(1.00, 0.00, -0.00, -1.00, 1098.8, 505.0)">o</text><text xml:space="preserve" font-family="Helvetica" font-size="52.0" fill="#FEFFFF" transform="matrix(1.00, 0.00, -0.00, -1.00, 1127.7, 505.0)">r</text><text xml:space="preserve" font-family="Helvetica" font-size="52.0" fill="#FEFFFF" transform="matrix(1.00, 0.00, -0.00, -1.00, 1145.1, 505.0)"> </text><text xml:space="preserve" font-family="Helvetica" font-size="52.0" fill="#FEFFFF" transform="matrix(1.00, 0.00, -0.00, -1.00, 1159.5, 505.0)">u</text><text xml:space="preserve" font-family="Helvetica" font-size="52.0" fill="#FEFFFF" transform="matrix(1.00, 0.00, -0.00, -1.00, 1188.4, 505.0)">s</text><text xml:space="preserve" font-family="Helvetica" font-size="52.0" fill="#FEFFFF" transform="matrix(1.00, 0.00, -0.00, -1.00, 1214.4, 505.0)"> </text><text xml:space="preserve" font-family="Helvetica" font-size="52.0" fill="#FEFFFF" transform="matrix(1.00, 0.00, -0.00, -1.00, 1228.9, 505.0)">t</text><text xml:space="preserve" font-family="Helvetica" font-size="52.0" fill="#FEFFFF" transform="matrix(1.00, 0.00, -0.00, -1.00, 1243.3, 505.0)">o</text><text xml:space="preserve" font-family="Helvetica" font-size="52.0" fill="#FEFFFF" transform="matrix(1.00, 0.00, -0.00, -1.00, 1272.2, 505.0)"> </text><text xml:space="preserve" font-family="Helvetica" font-size="52.0" fill="#FEFFFF" transform="matrix(1.00, 0.00, -0.00, -1.00, 1286.7, 505.0)">b</text><text xml:space="preserve" font-family="Helvetica" font-size="52.0" fill="#FEFFFF" transform="matrix(1.00, 0.00, -0.00, -1.00, 1315.6, 505.0)">u</text><text xml:space="preserve" font-family="Helvetica" font-size="52.0" fill="#FEFFFF" transform="matrix(1.00, 0.00, -0.00, -1.00, 1344.5, 505.0)">i</text><text xml:space="preserve" font-family="Helvetica" font-size="52.0" fill="#FEFFFF" transform="matrix(1.00, 0.00, -0.00, -1.00, 1356.1, 505.0)">l</text><text xml:space="preserve" font-family="Helvetica" font-size="52.0" fill="#FEFFFF" transform="matrix(1.00, 0.00, -0.00, -1.00, 1367.6, 505.0)">d</text><text xml:space="preserve" font-family="Helvetica" font-size="52.0" fill="#FEFFFF" transform="matrix(1.00, 0.00, -0.00, -1.00, 1396.6, 505.0)"> </text><text xml:space="preserve" font-family="Helvetica" font-size="52.0" fill="#FEFFFF" transform="matrix(1.00, 0.00, -0.00, -1.00, 1411.0, 505.0)">o</text><text xml:space="preserve" font-family="Helvetica" font-size="52.0" fill="#FEFFFF" transform="matrix(1.00, 0.00, -0.00, -1.00, 1439.9, 505.0)">f</text><text xml:space="preserve" font-family="Helvetica" font-size="52.0" fill="#FEFFFF" transform="matrix(1.00, 0.00, -0.00, -1.00, 1453.5, 505.0)">f</text><text xml:space="preserve" font-family="Helvetica" font-size="52.0" fill="#FEFFFF" transform="matrix(1.00, 0.00, -0.00, -1.00, 1467.9, 505.0)"> </text><text xml:space="preserve" font-family="Helvetica" font-size="52.0" fill="#FEFFFF" transform="matrix(1.00, 0.00, -0.00, -1.00, 1482.3, 505.0)">o</text><text xml:space="preserve" font-family="Helvetica" font-size="52.0" fill="#FEFFFF" transform="matrix(1.00, 0.00, -0.00, -1.00, 1511.3, 505.0)">f</text><text xml:space="preserve" font-family="Helvetica" font-size="52.0" fill="#FEFFFF" transform="matrix(1.00, 0.00, -0.00, -1.00, 1525.7, 505.0)"> </text><text xml:space="preserve" font-family="Helvetica" font-size="52.0" fill="#FEFFFF" transform="matrix(1.00, 0.00, -0.00, -1.00, 538.0, 443.0)">ï¬</text><text xml:space="preserve" font-family="Helvetica" font-size="52.0" fill="#FEFFFF" transform="matrix(1.00, 0.00, -0.00, -1.00, 564.0, 443.0)">r</text><text xml:space="preserve" font-family="Helvetica" font-size="52.0" fill="#FEFFFF" transform="matrix(1.00, 0.00, -0.00, -1.00, 581.3, 443.0)">m</text><text xml:space="preserve" font-family="Helvetica" font-size="52.0" fill="#FEFFFF" transform="matrix(1.00, 0.00, -0.00, -1.00, 624.6, 443.0)">s</text><text xml:space="preserve" font-family="Helvetica" font-size="52.0" fill="#FEFFFF" transform="matrix(1.00, 0.00, -0.00, -1.00, 650.6, 443.0)"> </text><text xml:space="preserve" font-family="Helvetica" font-size="52.0" fill="#FEFFFF" transform="matrix(1.00, 0.00, -0.00, -1.00, 665.1, 443.0)">w</text><text xml:space="preserve" font-family="Helvetica" font-size="52.0" fill="#FEFFFF" transform="matrix(1.00, 0.00, -0.00, -1.00, 702.6, 443.0)">h</text><text xml:space="preserve" font-family="Helvetica" font-size="52.0" fill="#FEFFFF" transform="matrix(1.00, 0.00, -0.00, -1.00, 731.6, 443.0)">o</text><text xml:space="preserve" font-family="Helvetica" font-size="52.0" fill="#FEFFFF" transform="matrix(1.00, 0.00, -0.00, -1.00, 760.5, 443.0)"> </text><text xml:space="preserve" font-family="Helvetica" font-size="52.0" fill="#FEFFFF" transform="matrix(1.00, 0.00, -0.00, -1.00, 774.9, 443.0)">a</text><text xml:space="preserve" font-family="Helvetica" font-size="52.0" fill="#FEFFFF" transform="matrix(1.00, 0.00, -0.00, -1.00, 803.9, 443.0)">r</text><text xml:space="preserve" font-family="Helvetica" font-size="52.0" fill="#FEFFFF" transform="matrix(1.00, 0.00, -0.00, -1.00, 821.2, 443.0)">e</text><text xml:space="preserve" font-family="Helvetica" font-size="52.0" fill="#FEFFFF" transform="matrix(1.00, 0.00, -0.00, -1.00, 850.1, 443.0)"> </text><text xml:space="preserve" font-family="Helvetica" font-size="52.0" fill="#FEFFFF" transform="matrix(1.00, 0.00, -0.00, -1.00, 864.5, 443.0)">p</text><text xml:space="preserve" font-family="Helvetica" font-size="52.0" fill="#FEFFFF" transform="matrix(1.00, 0.00, -0.00, -1.00, 893.5, 443.0)">r</text><text xml:space="preserve" font-family="Helvetica" font-size="52.0" fill="#FEFFFF" transform="matrix(1.00, 0.00, -0.00, -1.00, 910.8, 443.0)">a</text><text xml:space="preserve" font-family="Helvetica" font-size="52.0" fill="#FEFFFF" transform="matrix(1.00, 0.00, -0.00, -1.00, 939.7, 443.0)">c</text><text xml:space="preserve" font-family="Helvetica" font-size="52.0" fill="#FEFFFF" transform="matrix(1.00, 0.00, -0.00, -1.00, 965.7, 443.0)">t</text><text xml:space="preserve" font-family="Helvetica" font-size="52.0" fill="#FEFFFF" transform="matrix(1.00, 0.00, -0.00, -1.00, 980.2, 443.0)">i</text><text xml:space="preserve" font-family="Helvetica" font-size="52.0" fill="#FEFFFF" transform="matrix(1.00, 0.00, -0.00, -1.00, 991.7, 443.0)">c</text><text xml:space="preserve" font-family="Helvetica" font-size="52.0" fill="#FEFFFF" transform="matrix(1.00, 0.00, -0.00, -1.00, 1017.7, 443.0)">i</text><text xml:space="preserve" font-family="Helvetica" font-size="52.0" fill="#FEFFFF" transform="matrix(1.00, 0.00, -0.00, -1.00, 1029.3, 443.0)">n</text><text xml:space="preserve" font-family="Helvetica" font-size="52.0" fill="#FEFFFF" transform="matrix(1.00, 0.00, -0.00, -1.00, 1058.2, 443.0)">g</text><text xml:space="preserve" font-family="Helvetica" font-size="52.0" fill="#FEFFFF" transform="matrix(1.00, 0.00, -0.00, -1.00, 1087.1, 443.0)"> </text><text xml:space="preserve" font-family="Helvetica" font-size="52.0" fill="#FEFFFF" transform="matrix(1.00, 0.00, -0.00, -1.00, 1101.6, 443.0)">n</text><text xml:space="preserve" font-family="Helvetica" font-size="52.0" fill="#FEFFFF" transform="matrix(1.00, 0.00, -0.00, -1.00, 1130.5, 443.0)">o</text><text xml:space="preserve" font-family="Helvetica" font-size="52.0" fill="#FEFFFF" transform="matrix(1.00, 0.00, -0.00, -1.00, 1159.4, 443.0)">n</text><text xml:space="preserve" font-family="Helvetica" font-size="52.0" fill="#FEFFFF" transform="matrix(1.00, 0.00, -0.00, -1.00, 1188.4, 443.0)"> </text><text xml:space="preserve" font-family="Helvetica" font-size="52.0" fill="#FEFFFF" transform="matrix(1.00, 0.00, -0.00, -1.00, 1202.8, 443.0)">t</text><text xml:space="preserve" font-family="Helvetica" font-size="52.0" fill="#FEFFFF" transform="matrix(1.00, 0.00, -0.00, -1.00, 1217.2, 443.0)">r</text><text xml:space="preserve" font-family="Helvetica" font-size="52.0" fill="#FEFFFF" transform="matrix(1.00, 0.00, -0.00, -1.00, 1234.6, 443.0)">a</text><text xml:space="preserve" font-family="Helvetica" font-size="52.0" fill="#FEFFFF" transform="matrix(1.00, 0.00, -0.00, -1.00, 1263.5, 443.0)">d</text><text xml:space="preserve" font-family="Helvetica" font-size="52.0" fill="#FEFFFF" transform="matrix(1.00, 0.00, -0.00, -1.00, 1292.4, 443.0)">i</text><text xml:space="preserve" font-family="Helvetica" font-size="52.0" fill="#FEFFFF" transform="matrix(1.00, 0.00, -0.00, -1.00, 1304.0, 443.0)">t</text><text xml:space="preserve" font-family="Helvetica" font-size="52.0" fill="#FEFFFF" transform="matrix(1.00, 0.00, -0.00, -1.00, 1318.4, 443.0)">i</text><text xml:space="preserve" font-family="Helvetica" font-size="52.0" fill="#FEFFFF" transform="matrix(1.00, 0.00, -0.00, -1.00, 1330.0, 443.0)">o</text><text xml:space="preserve" font-family="Helvetica" font-size="52.0" fill="#FEFFFF" transform="matrix(1.00, 0.00, -0.00, -1.00, 1358.9, 443.0)">n</text><text xml:space="preserve" font-family="Helvetica" font-size="52.0" fill="#FEFFFF" transform="matrix(1.00, 0.00, -0.00, -1.00, 1387.8, 443.0)">a</text><text xml:space="preserve" font-family="Helvetica" font-size="52.0" fill="#FEFFFF" transform="matrix(1.00, 0.00, -0.00, -1.00, 1416.8, 443.0)">l</text><text xml:space="preserve" font-family="Helvetica" font-size="52.0" fill="#FEFFFF" transform="matrix(1.00, 0.00, -0.00, -1.00, 1428.3, 443.0)"> </text><text xml:space="preserve" font-family="Helvetica" font-size="52.0" fill="#FEFFFF" transform="matrix(1.00, 0.00, -0.00, -1.00, 1442.8, 443.0)">s</text><text xml:space="preserve" font-family="Helvetica" font-size="52.0" fill="#FEFFFF" transform="matrix(1.00, 0.00, -0.00, -1.00, 1468.8, 443.0)">e</text><text xml:space="preserve" font-family="Helvetica" font-size="52.0" fill="#FEFFFF" transform="matrix(1.00, 0.00, -0.00, -1.00, 1497.7, 443.0)">r</text><text xml:space="preserve" font-family="Helvetica" font-size="52.0" fill="#FEFFFF" transform="matrix(1.00, 0.00, -0.00, -1.00, 1515.0, 443.0)">v</text><text xml:space="preserve" font-family="Helvetica" font-size="52.0" fill="#FEFFFF" transform="matrix(1.00, 0.00, -0.00, -1.00, 1541.0, 443.0)">i</text><text xml:space="preserve" font-family="Helvetica" font-size="52.0" fill="#FEFFFF" transform="matrix(1.00, 0.00, -0.00, -1.00, 1552.6, 443.0)">c</text><text xml:space="preserve" font-family="Helvetica" font-size="52.0" fill="#FEFFFF" transform="matrix(1.00, 0.00, -0.00, -1.00, 1578.6, 443.0)">e</text><text xml:space="preserve" font-family="Helvetica" font-size="52.0" fill="#FEFFFF" transform="matrix(1.00, 0.00, -0.00, -1.00, 1607.5, 443.0)"> </text><text xml:space="preserve" font-family="Helvetica" font-size="52.0" fill="#FEFFFF" transform="matrix(1.00, 0.00, -0.00, -1.00, 538.0, 381.0)">o</text><text xml:space="preserve" font-family="Helvetica" font-size="52.0" fill="#FEFFFF" transform="matrix(1.00, 0.00, -0.00, -1.00, 566.9, 381.0)">f</text><text xml:space="preserve" font-family="Helvetica" font-size="52.0" fill="#FEFFFF" transform="matrix(1.00, 0.00, -0.00, -1.00, 580.5, 381.0)">f</text><text xml:space="preserve" font-family="Helvetica" font-size="52.0" fill="#FEFFFF" transform="matrix(1.00, 0.00, -0.00, -1.00, 594.9, 381.0)">e</text><text xml:space="preserve" font-family="Helvetica" font-size="52.0" fill="#FEFFFF" transform="matrix(1.00, 0.00, -0.00, -1.00, 623.8, 381.0)">r</text><text xml:space="preserve" font-family="Helvetica" font-size="52.0" fill="#FEFFFF" transform="matrix(1.00, 0.00, -0.00, -1.00, 641.1, 381.0)">i</text><text xml:space="preserve" font-family="Helvetica" font-size="52.0" fill="#FEFFFF" transform="matrix(1.00, 0.00, -0.00, -1.00, 652.7, 381.0)">n</text><text xml:space="preserve" font-family="Helvetica" font-size="52.0" fill="#FEFFFF" transform="matrix(1.00, 0.00, -0.00, -1.00, 681.6, 381.0)">g</text><text xml:space="preserve" font-family="Helvetica" font-size="52.0" fill="#FEFFFF" transform="matrix(1.00, 0.00, -0.00, -1.00, 710.6, 381.0)">s</text><text xml:space="preserve" font-family="Helvetica" font-size="52.0" fill="#FEFFFF" transform="matrix(1.00, 0.00, -0.00, -1.00, 736.6, 381.0)"> </text><text xml:space="preserve" font-family="Helvetica" font-size="52.0" fill="#FEFFFF" transform="matrix(1.00, 0.00, -0.00, -1.00, 751.0, 381.0)">a</text><text xml:space="preserve" font-family="Helvetica" font-size="52.0" fill="#FEFFFF" transform="matrix(1.00, 0.00, -0.00, -1.00, 779.9, 381.0)">n</text><text xml:space="preserve" font-family="Helvetica" font-size="52.0" fill="#FEFFFF" transform="matrix(1.00, 0.00, -0.00, -1.00, 808.9, 381.0)">d</text><text xml:space="preserve" font-family="Helvetica" font-size="52.0" fill="#FEFFFF" transform="matrix(1.00, 0.00, -0.00, -1.00, 837.8, 381.0)"> </text><text xml:space="preserve" font-family="Helvetica" font-size="52.0" fill="#FEFFFF" transform="matrix(1.00, 0.00, -0.00, -1.00, 852.2, 381.0)">i</text><text xml:space="preserve" font-family="Helvetica" font-size="52.0" fill="#FEFFFF" transform="matrix(1.00, 0.00, -0.00, -1.00, 863.8, 381.0)">n</text><text xml:space="preserve" font-family="Helvetica" font-size="52.0" fill="#FEFFFF" transform="matrix(1.00, 0.00, -0.00, -1.00, 892.7, 381.0)">n</text><text xml:space="preserve" font-family="Helvetica" font-size="52.0" fill="#FEFFFF" transform="matrix(1.00, 0.00, -0.00, -1.00, 921.7, 381.0)">o</text><text xml:space="preserve" font-family="Helvetica" font-size="52.0" fill="#FEFFFF" transform="matrix(1.00, 0.00, -0.00, -1.00, 950.6, 381.0)">v</text><text xml:space="preserve" font-family="Helvetica" font-size="52.0" fill="#FEFFFF" transform="matrix(1.00, 0.00, -0.00, -1.00, 976.6, 381.0)">a</text><text xml:space="preserve" font-family="Helvetica" font-size="52.0" fill="#FEFFFF" transform="matrix(1.00, 0.00, -0.00, -1.00, 1005.5, 381.0)">t</text><text xml:space="preserve" font-family="Helvetica" font-size="52.0" fill="#FEFFFF" transform="matrix(1.00, 0.00, -0.00, -1.00, 1020.0, 381.0)">e</text><text xml:space="preserve" font-family="Helvetica" font-size="52.0" fill="#FEFFFF" transform="matrix(1.00, 0.00, -0.00, -1.00, 1048.9, 381.0)"> </text><text xml:space="preserve" font-family="Helvetica" font-size="52.0" fill="#FEFFFF" transform="matrix(1.00, 0.00, -0.00, -1.00, 1063.3, 381.0)">o</text><text xml:space="preserve" font-family="Helvetica" font-size="52.0" fill="#FEFFFF" transform="matrix(1.00, 0.00, -0.00, -1.00, 1092.2, 381.0)">n</text><text xml:space="preserve" font-family="Helvetica" font-size="52.0" fill="#FEFFFF" transform="matrix(1.00, 0.00, -0.00, -1.00, 1121.2, 381.0)"> </text><text xml:space="preserve" font-family="Helvetica" font-size="52.0" fill="#FEFFFF" transform="matrix(1.00, 0.00, -0.00, -1.00, 1135.6, 381.0)">t</text><text xml:space="preserve" font-family="Helvetica" font-size="52.0" fill="#FEFFFF" transform="matrix(1.00, 0.00, -0.00, -1.00, 1150.1, 381.0)">h</text><text xml:space="preserve" font-family="Helvetica" font-size="52.0" fill="#FEFFFF" transform="matrix(1.00, 0.00, -0.00, -1.00, 1179.0, 381.0)">o</text><text xml:space="preserve" font-family="Helvetica" font-size="52.0" fill="#FEFFFF" transform="matrix(1.00, 0.00, -0.00, -1.00, 1207.9, 381.0)">s</text><text xml:space="preserve" font-family="Helvetica" font-size="52.0" fill="#FEFFFF" transform="matrix(1.00, 0.00, -0.00, -1.00, 1233.9, 381.0)">e</text><text xml:space="preserve" font-family="Helvetica" font-size="52.0" fill="#FEFFFF" transform="matrix(1.00, 0.00, -0.00, -1.00, 1262.8, 381.0)"> </text><text xml:space="preserve" font-family="Helvetica" font-size="52.0" fill="#FEFFFF" transform="matrix(1.00, 0.00, -0.00, -1.00, 1277.3, 381.0)">m</text><text xml:space="preserve" font-family="Helvetica" font-size="52.0" fill="#FEFFFF" transform="matrix(1.00, 0.00, -0.00, -1.00, 1320.6, 381.0)">o</text><text xml:space="preserve" font-family="Helvetica" font-size="52.0" fill="#FEFFFF" transform="matrix(1.00, 0.00, -0.00, -1.00, 1349.5, 381.0)">d</text><text xml:space="preserve" font-family="Helvetica" font-size="52.0" fill="#FEFFFF" transform="matrix(1.00, 0.00, -0.00, -1.00, 1378.5, 381.0)">e</text><text xml:space="preserve" font-family="Helvetica" font-size="52.0" fill="#FEFFFF" transform="matrix(1.00, 0.00, -0.00, -1.00, 1407.4, 381.0)">l</text><text xml:space="preserve" font-family="Helvetica" font-size="52.0" fill="#FEFFFF" transform="matrix(1.00, 0.00, -0.00, -1.00, 1419.0, 381.0)">s</text><text xml:space="preserve" font-family="Helvetica" font-size="52.0" fill="#FEFFFF" transform="matrix(1.00, 0.00, -0.00, -1.00, 1445.0, 381.0)">.</text></g></svg>