<?xml version="1.0" encoding="UTF-8" standalone="no"?><svg xmlns="http://www.w3.org/2000/svg" xmlns:xlink="http://www.w3.org/1999/xlink" clip-rule="evenodd" stroke-miterlimit="4.00" viewBox="0 0 1920 1080"><desc>SVG generated by Keynote</desc><defs></defs><g transform="matrix(1.00, 0.00, -0.00, -1.00, 0.0, 1080.0)"><path d="M 0.0 1080.0 L 1920.0 1080.0 L 1920.0 0.0 L 0.0 0.0 Z M 0.0 1080.0 " fill="#000000"></path><path d="M 518.0 803.0 C 547.3 773.7 547.3 726.3 518.0 697.0 C 488.7 667.7 441.3 667.7 412.0 697.0 C 382.7 726.3 382.7 773.7 412.0 803.0 C 441.3 832.3 488.7 832.3 518.0 803.0 " fill="#E7B983"></path><path d="M 128.0 22.0 C 157.3 51.3 157.3 98.7 128.0 128.0 C 98.7 157.3 51.3 157.3 22.0 128.0 C -7.3 98.7 -7.3 51.3 22.0 22.0 C 51.3 -7.3 98.7 -7.3 128.0 22.0 " fill="none" stroke="#E6C889" stroke-width="2.00" transform="matrix(1.00, 0.00, 0.00, -1.00, 588.0, 825.0)"></path><path d="M 128.0 22.0 C 157.3 51.3 157.3 98.7 128.0 128.0 C 98.7 157.3 51.3 157.3 22.0 128.0 C -7.3 98.7 -7.3 51.3 22.0 22.0 C 51.3 -7.3 98.7 -7.3 128.0 22.0 " fill="none" stroke="#E6C889" stroke-width="2.00" transform="matrix(1.00, 0.00, 0.00, -1.00, 786.0, 825.0)"></path><path d="M 128.0 22.0 C 157.3 51.3 157.3 98.7 128.0 128.0 C 98.7 157.3 51.3 157.3 22.0 128.0 C -7.3 98.7 -7.3 51.3 22.0 22.0 C 51.3 -7.3 98.7 -7.3 128.0 22.0 " fill="none" stroke="#E6C889" stroke-width="2.00" transform="matrix(1.00, 0.00, 0.00, -1.00, 984.0, 825.0)"></path><path d="M 518.0 605.0 C 547.3 575.7 547.3 528.3 518.0 499.0 C 488.7 469.7 441.3 469.7 412.0 499.0 C 382.7 528.3 382.7 575.7 412.0 605.0 C 441.3 634.3 488.7 634.3 518.0 605.0 " fill="#E7B983"></path><path d="M 128.0 22.0 C 157.3 51.3 157.3 98.7 128.0 128.0 C 98.7 157.3 51.3 157.3 22.0 128.0 C -7.3 98.7 -7.3 51.3 22.0 22.0 C 51.3 -7.3 98.7 -7.3 128.0 22.0 " fill="none" stroke="#E6C889" stroke-width="2.00" transform="matrix(1.00, 0.00, 0.00, -1.00, 390.0, 429.0)"></path><path d="M 128.0 22.0 C 157.3 51.3 157.3 98.7 128.0 128.0 C 98.7 157.3 51.3 157.3 22.0 128.0 C -7.3 98.7 -7.3 51.3 22.0 22.0 C 51.3 -7.3 98.7 -7.3 128.0 22.0 " fill="none" stroke="#E6C889" stroke-width="2.00" transform="matrix(1.00, 0.00, 0.00, -1.00, 588.0, 627.0)"></path><path d="M 128.0 22.0 C 157.3 51.3 157.3 98.7 128.0 128.0 C 98.7 157.3 51.3 157.3 22.0 128.0 C -7.3 98.7 -7.3 51.3 22.0 22.0 C 51.3 -7.3 98.7 -7.3 128.0 22.0 " fill="none" stroke="#E6C889" stroke-width="2.00" transform="matrix(1.00, 0.00, 0.00, -1.00, 588.0, 429.0)"></path><path d="M 128.0 22.0 C 157.3 51.3 157.3 98.7 128.0 128.0 C 98.7 157.3 51.3 157.3 22.0 128.0 C -7.3 98.7 -7.3 51.3 22.0 22.0 C 51.3 -7.3 98.7 -7.3 128.0 22.0 " fill="none" stroke="#E6C889" stroke-width="2.00" transform="matrix(1.00, 0.00, 0.00, -1.00, 786.0, 627.0)"></path><path d="M 128.0 22.0 C 157.3 51.3 157.3 98.7 128.0 128.0 C 98.7 157.3 51.3 157.3 22.0 128.0 C -7.3 98.7 -7.3 51.3 22.0 22.0 C 51.3 -7.3 98.7 -7.3 128.0 22.0 " fill="none" stroke="#E6C889" stroke-width="2.00" transform="matrix(1.00, 0.00, 0.00, -1.00, 984.0, 627.0)"></path><path d="M 128.0 22.0 C 157.3 51.3 157.3 98.7 128.0 128.0 C 98.7 157.3 51.3 157.3 22.0 128.0 C -7.3 98.7 -7.3 51.3 22.0 22.0 C 51.3 -7.3 98.7 -7.3 128.0 22.0 " fill="none" stroke="#E6C889" stroke-width="2.00" transform="matrix(1.00, 0.00, 0.00, -1.00, 786.0, 429.0)"></path><path d="M 128.0 22.0 C 157.3 51.3 157.3 98.7 128.0 128.0 C 98.7 157.3 51.3 157.3 22.0 128.0 C -7.3 98.7 -7.3 51.3 22.0 22.0 C 51.3 -7.3 98.7 -7.3 128.0 22.0 " fill="none" stroke="#E6C889" stroke-width="2.00" transform="matrix(1.00, 0.00, 0.00, -1.00, 984.0, 429.0)"></path><path d="M 128.0 22.0 C 157.3 51.3 157.3 98.7 128.0 128.0 C 98.7 157.3 51.3 157.3 22.0 128.0 C -7.3 98.7 -7.3 51.3 22.0 22.0 C 51.3 -7.3 98.7 -7.3 128.0 22.0 " fill="none" stroke="#E6C889" stroke-width="2.00" transform="matrix(1.00, 0.00, 0.00, -1.00, 984.0, 231.0)"></path><path d="M 128.0 22.0 C 157.3 51.3 157.3 98.7 128.0 128.0 C 98.7 157.3 51.3 157.3 22.0 128.0 C -7.3 98.7 -7.3 51.3 22.0 22.0 C 51.3 -7.3 98.7 -7.3 128.0 22.0 " fill="none" stroke="#E6C889" stroke-width="2.00" transform="matrix(1.00, 0.00, 0.00, -1.00, 786.0, 231.0)"></path><path d="M 128.0 22.0 C 157.3 51.3 157.3 98.7 128.0 128.0 C 98.7 157.3 51.3 157.3 22.0 128.0 C -7.3 98.7 -7.3 51.3 22.0 22.0 C 51.3 -7.3 98.7 -7.3 128.0 22.0 " fill="none" stroke="#E6C889" stroke-width="2.00" transform="matrix(1.00, 0.00, 0.00, -1.00, 588.0, 231.0)"></path><path d="M 128.0 22.0 C 157.3 51.3 157.3 98.7 128.0 128.0 C 98.7 157.3 51.3 157.3 22.0 128.0 C -7.3 98.7 -7.3 51.3 22.0 22.0 C 51.3 -7.3 98.7 -7.3 128.0 22.0 " fill="none" stroke="#E6C889" stroke-width="2.00" transform="matrix(1.00, 0.00, 0.00, -1.00, 390.0, 231.0)"></path><path d="M 128.0 22.0 C 157.3 51.3 157.3 98.7 128.0 128.0 C 98.7 157.3 51.3 157.3 22.0 128.0 C -7.3 98.7 -7.3 51.3 22.0 22.0 C 51.3 -7.3 98.7 -7.3 128.0 22.0 " fill="none" stroke="#E6C889" stroke-width="2.00" transform="matrix(1.00, 0.00, 0.00, -1.00, 1182.0, 825.0)"></path><path d="M 128.0 22.0 C 157.3 51.3 157.3 98.7 128.0 128.0 C 98.7 157.3 51.3 157.3 22.0 128.0 C -7.3 98.7 -7.3 51.3 22.0 22.0 C 51.3 -7.3 98.7 -7.3 128.0 22.0 " fill="none" stroke="#E6C889" stroke-width="2.00" transform="matrix(1.00, 0.00, 0.00, -1.00, 1182.0, 627.0)"></path><path d="M 128.0 22.0 C 157.3 51.3 157.3 98.7 128.0 128.0 C 98.7 157.3 51.3 157.3 22.0 128.0 C -7.3 98.7 -7.3 51.3 22.0 22.0 C 51.3 -7.3 98.7 -7.3 128.0 22.0 " fill="none" stroke="#E6C889" stroke-width="2.00" transform="matrix(1.00, 0.00, 0.00, -1.00, 1182.0, 429.0)"></path><path d="M 128.0 22.0 C 157.3 51.3 157.3 98.7 128.0 128.0 C 98.7 157.3 51.3 157.3 22.0 128.0 C -7.3 98.7 -7.3 51.3 22.0 22.0 C 51.3 -7.3 98.7 -7.3 128.0 22.0 " fill="none" stroke="#E6C889" stroke-width="2.00" transform="matrix(1.00, 0.00, 0.00, -1.00, 1182.0, 231.0)"></path><path d="M 128.0 22.0 C 157.3 51.3 157.3 98.7 128.0 128.0 C 98.7 157.3 51.3 157.3 22.0 128.0 C -7.3 98.7 -7.3 51.3 22.0 22.0 C 51.3 -7.3 98.7 -7.3 128.0 22.0 " fill="none" stroke="#E6C889" stroke-width="2.00" transform="matrix(1.00, 0.00, 0.00, -1.00, 1380.0, 825.0)"></path><path d="M 128.0 22.0 C 157.3 51.3 157.3 98.7 128.0 128.0 C 98.7 157.3 51.3 157.3 22.0 128.0 C -7.3 98.7 -7.3 51.3 22.0 22.0 C 51.3 -7.3 98.7 -7.3 128.0 22.0 " fill="none" stroke="#E6C889" stroke-width="2.00" transform="matrix(1.00, 0.00, 0.00, -1.00, 1380.0, 627.0)"></path><path d="M 128.0 22.0 C 157.3 51.3 157.3 98.7 128.0 128.0 C 98.7 157.3 51.3 157.3 22.0 128.0 C -7.3 98.7 -7.3 51.3 22.0 22.0 C 51.3 -7.3 98.7 -7.3 128.0 22.0 " fill="none" stroke="#E6C889" stroke-width="2.00" transform="matrix(1.00, 0.00, 0.00, -1.00, 1380.0, 429.0)"></path><path d="M 128.0 22.0 C 157.3 51.3 157.3 98.7 128.0 128.0 C 98.7 157.3 51.3 157.3 22.0 128.0 C -7.3 98.7 -7.3 51.3 22.0 22.0 C 51.3 -7.3 98.7 -7.3 128.0 22.0 " fill="none" stroke="#E6C889" stroke-width="2.00" transform="matrix(1.00, 0.00, 0.00, -1.00, 1380.0, 231.0)"></path><text xml:space="preserve" font-family="Helvetica-Bold" font-weight="bold" font-size="90.0" fill="#FEFFFF" transform="matrix(1.00, 0.00, -0.00, -1.00, 397.0, 910.0)">N</text><text xml:space="preserve" font-family="Helvetica-Bold" font-weight="bold" font-size="90.0" fill="#FEFFFF" transform="matrix(1.00, 0.00, -0.00, -1.00, 462.0, 910.0)">o</text><text xml:space="preserve" font-family="Helvetica-Bold" font-weight="bold" font-size="90.0" fill="#FEFFFF" transform="matrix(1.00, 0.00, -0.00, -1.00, 517.0, 910.0)">n</text><text xml:space="preserve" font-family="Helvetica-Bold" font-weight="bold" font-size="90.0" fill="#FEFFFF" transform="matrix(1.00, 0.00, -0.00, -1.00, 571.9, 910.0)">-</text><text xml:space="preserve" font-family="Helvetica-Bold" font-weight="bold" font-size="90.0" fill="#FEFFFF" transform="matrix(1.00, 0.00, -0.00, -1.00, 601.9, 910.0)">P</text><text xml:space="preserve" font-family="Helvetica-Bold" font-weight="bold" font-size="90.0" fill="#FEFFFF" transform="matrix(1.00, 0.00, -0.00, -1.00, 661.9, 910.0)">r</text><text xml:space="preserve" font-family="Helvetica-Bold" font-weight="bold" font-size="90.0" fill="#FEFFFF" transform="matrix(1.00, 0.00, -0.00, -1.00, 697.0, 910.0)">o</text><text xml:space="preserve" font-family="Helvetica-Bold" font-weight="bold" font-size="90.0" fill="#FEFFFF" transform="matrix(1.00, 0.00, -0.00, -1.00, 751.9, 910.0)">ï¬</text><text xml:space="preserve" font-family="Helvetica-Bold" font-weight="bold" font-size="90.0" fill="#FEFFFF" transform="matrix(1.00, 0.00, -0.00, -1.00, 806.9, 910.0)">t</text><text xml:space="preserve" font-family="Helvetica-Bold" font-weight="bold" font-size="90.0" fill="#FEFFFF" transform="matrix(1.00, 0.00, -0.00, -1.00, 836.9, 910.0)">s</text></g></svg>