<svg xmlns="http://www.w3.org/2000/svg" xmlns:xlink="http://www.w3.org/1999/xlink" stroke-miterlimit="4" clip-rule="evenodd" viewBox="0 0 1920 1080"><desc>SVG generated by Keynote</desc><g transform="matrix(1.00, 0.00, -0.00, -1.00, 0.0, 1080.0)"><path fill="#000" d="M 0.0 1080.0 L 1920.0 1080.0 L 1920.0 0.0 L 0.0 0.0 Z M 0.0 1080.0"/><text fill="#FEFFFF" font-family="Helvetica-Bold" font-size="90" font-weight="bold" transform="matrix(1.00, 0.00, -0.00, -1.00, 559.0, 631.0)" xml:space="preserve">C</text><text fill="#FEFFFF" font-family="Helvetica-Bold" font-size="90" font-weight="bold" transform="matrix(1.00, 0.00, -0.00, -1.00, 624.0, 631.0)" xml:space="preserve">l</text><text fill="#FEFFFF" font-family="Helvetica-Bold" font-size="90" font-weight="bold" transform="matrix(1.00, 0.00, -0.00, -1.00, 649.0, 631.0)" xml:space="preserve">a</text><text fill="#FEFFFF" font-family="Helvetica-Bold" font-size="90" font-weight="bold" transform="matrix(1.00, 0.00, -0.00, -1.00, 699.1, 631.0)" xml:space="preserve">r</text><text fill="#FEFFFF" font-family="Helvetica-Bold" font-size="90" font-weight="bold" transform="matrix(1.00, 0.00, -0.00, -1.00, 734.1, 631.0)" xml:space="preserve">k</text><text fill="#FEFFFF" font-family="Helvetica-Bold" font-size="90" font-weight="bold" transform="matrix(1.00, 0.00, -0.00, -1.00, 809.2, 631.0)" xml:space="preserve">S</text><text fill="#FEFFFF" font-family="Helvetica-Bold" font-size="90" font-weight="bold" transform="matrix(1.00, 0.00, -0.00, -1.00, 869.2, 631.0)" xml:space="preserve">c</text><text fill="#FEFFFF" font-family="Helvetica-Bold" font-size="90" font-weight="bold" transform="matrix(1.00, 0.00, -0.00, -1.00, 919.3, 631.0)" xml:space="preserve">h</text><text fill="#FEFFFF" font-family="Helvetica-Bold" font-size="90" font-weight="bold" transform="matrix(1.00, 0.00, -0.00, -1.00, 974.2, 631.0)" xml:space="preserve">e</text><text fill="#FEFFFF" font-family="Helvetica-Bold" font-size="90" font-weight="bold" transform="matrix(1.00, 0.00, -0.00, -1.00, 1024.3, 631.0)" xml:space="preserve">f</text><text fill="#FEFFFF" font-family="Helvetica-Bold" font-size="90" font-weight="bold" transform="matrix(1.00, 0.00, -0.00, -1.00, 1054.3, 631.0)" xml:space="preserve">f</text><text fill="#FEFFFF" font-family="Helvetica-Bold" font-size="90" font-weight="bold" transform="matrix(1.00, 0.00, -0.00, -1.00, 1084.2, 631.0)" xml:space="preserve">y</text><text fill="#FEFFFF" font-family="Helvetica-Light" font-size="45" transform="matrix(1.00, 0.00, -0.00, -1.00, 559.0, 567.0)" xml:space="preserve">C</text><text fill="#FEFFFF" font-family="Helvetica-Light" font-size="45" transform="matrix(1.00, 0.00, -0.00, -1.00, 591.5, 567.0)" xml:space="preserve">u</text><text fill="#FEFFFF" font-family="Helvetica-Light" font-size="45" transform="matrix(1.00, 0.00, -0.00, -1.00, 616.5, 567.0)" xml:space="preserve">r</text><text fill="#FEFFFF" font-family="Helvetica-Light" font-size="45" transform="matrix(1.00, 0.00, -0.00, -1.00, 631.5, 567.0)" xml:space="preserve">r</text><text fill="#FEFFFF" font-family="Helvetica-Light" font-size="45" transform="matrix(1.00, 0.00, -0.00, -1.00, 645.7, 567.0)" xml:space="preserve">e</text><text fill="#FEFFFF" font-family="Helvetica-Light" font-size="45" transform="matrix(1.00, 0.00, -0.00, -1.00, 670.7, 567.0)" xml:space="preserve">n</text><text fill="#FEFFFF" font-family="Helvetica-Light" font-size="45" transform="matrix(1.00, 0.00, -0.00, -1.00, 695.7, 567.0)" xml:space="preserve">t</text><text fill="#FEFFFF" font-family="Helvetica-Light" font-size="45" transform="matrix(1.00, 0.00, -0.00, -1.00, 720.7, 567.0)" xml:space="preserve">/</text><text fill="#FEFFFF" font-family="Helvetica-Light" font-size="45" transform="matrix(1.00, 0.00, -0.00, -1.00, 745.8, 567.0)" xml:space="preserve">I</text><text fill="#FEFFFF" font-family="Helvetica-Light" font-size="45" transform="matrix(1.00, 0.00, -0.00, -1.00, 758.3, 567.0)" xml:space="preserve">D</text><text fill="#FEFFFF" font-family="Helvetica-Light" font-size="45" transform="matrix(1.00, 0.00, -0.00, -1.00, 790.8, 567.0)" xml:space="preserve">E</text><text fill="#FEFFFF" font-family="Helvetica-Light" font-size="45" transform="matrix(1.00, 0.00, -0.00, -1.00, 818.2, 567.0)" xml:space="preserve">O</text><image width="217" height="217" transform="matrix(1.00, 0.00, -0.00, -1.00, 341.0, 913.0)" xlink:href="../../BAC20B6A-0E56-4C29-A7A7-407CCAC8A498/assets/633A71AABFE3012B0FFDE48A4EA86603.png"/></g></svg>