<svg xmlns="http://www.w3.org/2000/svg" xmlns:xlink="http://www.w3.org/1999/xlink" stroke-miterlimit="4" clip-rule="evenodd" viewBox="0 0 1920 1080"><desc>SVG generated by Keynote</desc><g transform="matrix(1.00, 0.00, -0.00, -1.00, 0.0, 1080.0)"><path fill="#000" d="M 0.0 1080.0 L 1920.0 1080.0 L 1920.0 0.0 L 0.0 0.0 Z M 0.0 1080.0"/><image width="1152" height="768" transform="matrix(1.67, 0.00, -0.00, -1.67, -2.0, 1279.0)" xlink:href="../../A9A322D7-27AA-481D-8C4C-57EC4AF6A7A5/assets/EF7199D7522323AF0B3D2C45D884D7BD.jpeg"/><text fill="#FEFFFF" font-family="Helvetica-Bold" font-size="150" font-weight="bold" transform="matrix(1.00, 0.00, -0.00, -1.00, 538.0, 571.0)" xml:space="preserve">A</text><text fill="#FEFFFF" font-family="Helvetica-Bold" font-size="150" font-weight="bold" transform="matrix(1.00, 0.00, -0.00, -1.00, 646.4, 571.0)" xml:space="preserve">b</text><text fill="#FEFFFF" font-family="Helvetica-Bold" font-size="150" font-weight="bold" transform="matrix(1.00, 0.00, -0.00, -1.00, 738.0, 571.0)" xml:space="preserve">o</text><text fill="#FEFFFF" font-family="Helvetica-Bold" font-size="150" font-weight="bold" transform="matrix(1.00, 0.00, -0.00, -1.00, 829.5, 571.0)" xml:space="preserve">u</text><text fill="#FEFFFF" font-family="Helvetica-Bold" font-size="150" font-weight="bold" transform="matrix(1.00, 0.00, -0.00, -1.00, 921.1, 571.0)" xml:space="preserve">t</text><text fill="#FEFFFF" font-family="Helvetica-Bold" font-size="150" font-weight="bold" transform="matrix(1.00, 0.00, -0.00, -1.00, 1012.7, 571.0)" xml:space="preserve">u</text><text fill="#FEFFFF" font-family="Helvetica-Bold" font-size="150" font-weight="bold" transform="matrix(1.00, 0.00, -0.00, -1.00, 1104.3, 571.0)" xml:space="preserve">s</text><g><clipPath id="clip-576"><path d="M 1681.0 385.0 L 1739.0 385.0 L 1739.0 297.0 L 1681.0 297.0 Z M 1680.8 385.3"/></clipPath><g clip-path="url(#clip-576)"><image width="390" height="436" transform="matrix(0.54, 0.00, -0.00, -0.53, 1621.0, 417.0)" xlink:href="../../09807E17-4CAA-4F91-85A8-2D0BD88F0379/assets/372227200589E76C84FD2DE59A4B7D2A.png"/></g></g></g></svg>