<?xml version="1.0" encoding="UTF-8" standalone="no"?><svg xmlns="http://www.w3.org/2000/svg" xmlns:xlink="http://www.w3.org/1999/xlink" clip-rule="evenodd" stroke-miterlimit="4.00" viewBox="0 0 1920 1080"><desc>SVG generated by Keynote</desc><defs></defs><g transform="matrix(1.00, 0.00, -0.00, -1.00, 0.0, 1080.0)"><path d="M 0.0 1080.0 L 1920.0 1080.0 L 1920.0 0.0 L 0.0 0.0 Z M 0.0 1080.0 " fill="#000000"></path><g opacity="0.55"><g><clipPath id="clip-570"><path d="M 0.0 0.0 L 1920.0 0.0 L 1920.0 1080.0 L 0.0 1080.0 Z M 0.0 0.0 "></path></clipPath><g clip-path="url(#clip-570)"><image xlink:href="../../5A4EE441-4393-4371-A79A-1609BE92222C/assets/545E85248E634D9B7061F9283A942042.png" width="1023.00" height="685.00" transform="matrix(1.89, 0.00, -0.00, -1.89, -7.0, 1088.0)"></image></g></g></g><text xml:space="preserve" font-family="Helvetica-Bold" font-weight="bold" font-size="150.0" fill="#FEFFFF" transform="matrix(1.00, 0.00, -0.00, -1.00, 538.0, 571.0)">M</text><text xml:space="preserve" font-family="Helvetica-Bold" font-weight="bold" font-size="150.0" fill="#FEFFFF" transform="matrix(1.00, 0.00, -0.00, -1.00, 663.0, 571.0)">a</text><text xml:space="preserve" font-family="Helvetica-Bold" font-weight="bold" font-size="150.0" fill="#FEFFFF" transform="matrix(1.00, 0.00, -0.00, -1.00, 746.4, 571.0)">r</text><text xml:space="preserve" font-family="Helvetica-Bold" font-weight="bold" font-size="150.0" fill="#FEFFFF" transform="matrix(1.00, 0.00, -0.00, -1.00, 804.8, 571.0)">k</text><text xml:space="preserve" font-family="Helvetica-Bold" font-weight="bold" font-size="150.0" fill="#FEFFFF" transform="matrix(1.00, 0.00, -0.00, -1.00, 888.3, 571.0)">e</text><text xml:space="preserve" font-family="Helvetica-Bold" font-weight="bold" font-size="150.0" fill="#FEFFFF" transform="matrix(1.00, 0.00, -0.00, -1.00, 971.7, 571.0)">t</text><text xml:space="preserve" font-family="Helvetica-Bold" font-weight="bold" font-size="150.0" fill="#FEFFFF" transform="matrix(1.00, 0.00, -0.00, -1.00, 1021.7, 571.0)">s</text></g></svg>