<?xml version="1.0" encoding="UTF-8" standalone="no"?><svg xmlns="http://www.w3.org/2000/svg" xmlns:xlink="http://www.w3.org/1999/xlink" clip-rule="evenodd" stroke-miterlimit="4.00" viewBox="0 0 1920 1080"><desc>SVG generated by Keynote</desc><defs></defs><g transform="matrix(1.00, 0.00, -0.00, -1.00, 0.0, 1080.0)"><path d="M 0.0 1080.0 L 1920.0 1080.0 L 1920.0 0.0 L 0.0 0.0 Z M 0.0 1080.0 " fill="#FEFFFF"></path><g><clipPath id="clip-65"><path d="M 50.0 52.0 L 154.0 52.0 L 154.0 -1.0 L 50.0 -1.0 Z M 50.4 52.4 "></path></clipPath><g clip-path="url(#clip-65)"><image xlink:href="../../4F9A92A2-2DC6-4691-97F8-9F75BE53396F/assets/B22C448CED7C82A0C99889D0AD879A76.png" width="104.00" height="104.00" transform="matrix(1.00, 0.00, -0.00, -0.99, 50.0, 77.0)"></image></g></g><text xml:space="preserve" font-family="OpenSans-Bold" font-weight="bold" font-size="30.0" fill="#A6AAA8" transform="matrix(1.00, 0.00, -0.00, -1.00, 54.0, 1014.0)">B</text><text xml:space="preserve" font-family="OpenSans-Bold" font-weight="bold" font-size="30.0" fill="#A6AAA8" transform="matrix(1.00, 0.00, -0.00, -1.00, 74.2, 1014.0)">R</text><text xml:space="preserve" font-family="OpenSans-Bold" font-weight="bold" font-size="30.0" fill="#A6AAA8" transform="matrix(1.00, 0.00, -0.00, -1.00, 94.0, 1014.0)">E</text><text xml:space="preserve" font-family="OpenSans-Bold" font-weight="bold" font-size="30.0" fill="#A6AAA8" transform="matrix(1.00, 0.00, -0.00, -1.00, 110.8, 1014.0)">A</text><text xml:space="preserve" font-family="OpenSans-Bold" font-weight="bold" font-size="30.0" fill="#A6AAA8" transform="matrix(1.00, 0.00, -0.00, -1.00, 131.4, 1014.0)">K</text><text xml:space="preserve" font-family="OpenSans-Bold" font-weight="bold" font-size="30.0" fill="#A6AAA8" transform="matrix(1.00, 0.00, -0.00, -1.00, 151.4, 1014.0)">D</text><text xml:space="preserve" font-family="OpenSans-Bold" font-weight="bold" font-size="30.0" fill="#A6AAA8" transform="matrix(1.00, 0.00, -0.00, -1.00, 173.6, 1014.0)">O</text><text xml:space="preserve" font-family="OpenSans-Bold" font-weight="bold" font-size="30.0" fill="#A6AAA8" transform="matrix(1.00, 0.00, -0.00, -1.00, 197.1, 1014.0)">W</text><text xml:space="preserve" font-family="OpenSans-Bold" font-weight="bold" font-size="30.0" fill="#A6AAA8" transform="matrix(1.00, 0.00, -0.00, -1.00, 226.1, 1014.0)">N</text><text xml:space="preserve" font-family="OpenSans-Bold" font-weight="bold" font-size="85.0" fill="#52575F" transform="matrix(1.00, 0.00, -0.00, -1.00, 54.0, 885.0)">E</text><text xml:space="preserve" font-family="OpenSans-Bold" font-weight="bold" font-size="85.0" fill="#52575F" transform="matrix(1.00, 0.00, -0.00, -1.00, 101.6, 885.0)">m</text><text xml:space="preserve" font-family="OpenSans-Bold" font-weight="bold" font-size="85.0" fill="#52575F" transform="matrix(1.00, 0.00, -0.00, -1.00, 185.1, 885.0)">b</text><text xml:space="preserve" font-family="OpenSans-Bold" font-weight="bold" font-size="85.0" fill="#52575F" transform="matrix(1.00, 0.00, -0.00, -1.00, 238.9, 885.0)">e</text><text xml:space="preserve" font-family="OpenSans-Bold" font-weight="bold" font-size="85.0" fill="#52575F" transform="matrix(1.00, 0.00, -0.00, -1.00, 289.1, 885.0)">d</text><text xml:space="preserve" font-family="OpenSans-Bold" font-weight="bold" font-size="85.0" fill="#52575F" transform="matrix(1.00, 0.00, -0.00, -1.00, 342.9, 885.0)">d</text><text xml:space="preserve" font-family="OpenSans-Bold" font-weight="bold" font-size="85.0" fill="#52575F" transform="matrix(1.00, 0.00, -0.00, -1.00, 396.7, 885.0)">i</text><text xml:space="preserve" font-family="OpenSans-Bold" font-weight="bold" font-size="85.0" fill="#52575F" transform="matrix(1.00, 0.00, -0.00, -1.00, 422.7, 885.0)">n</text><text xml:space="preserve" font-family="OpenSans-Bold" font-weight="bold" font-size="85.0" fill="#52575F" transform="matrix(1.00, 0.00, -0.00, -1.00, 478.5, 885.0)">g</text><text xml:space="preserve" font-family="OpenSans-Bold" font-weight="bold" font-size="85.0" fill="#52575F" transform="matrix(1.00, 0.00, -0.00, -1.00, 526.6, 885.0)"> </text><text xml:space="preserve" font-family="OpenSans-Light" font-size="85.0" fill="#52575F" transform="matrix(1.00, 0.00, -0.00, -1.00, 54.0, 769.0)">E</text><text xml:space="preserve" font-family="OpenSans-Light" font-size="85.0" fill="#52575F" transform="matrix(1.00, 0.00, -0.00, -1.00, 100.9, 769.0)">m</text><text xml:space="preserve" font-family="OpenSans-Light" font-size="85.0" fill="#52575F" transform="matrix(1.00, 0.00, -0.00, -1.00, 175.9, 769.0)">b</text><text xml:space="preserve" font-family="OpenSans-Light" font-size="85.0" fill="#52575F" transform="matrix(1.00, 0.00, -0.00, -1.00, 226.5, 769.0)">e</text><text xml:space="preserve" font-family="OpenSans-Light" font-size="85.0" fill="#52575F" transform="matrix(1.00, 0.00, -0.00, -1.00, 273.1, 769.0)">d</text><text xml:space="preserve" font-family="OpenSans-Light" font-size="85.0" fill="#52575F" transform="matrix(1.00, 0.00, -0.00, -1.00, 323.8, 769.0)">d</text><text xml:space="preserve" font-family="OpenSans-Light" font-size="85.0" fill="#52575F" transform="matrix(1.00, 0.00, -0.00, -1.00, 374.4, 769.0)">i</text><text xml:space="preserve" font-family="OpenSans-Light" font-size="85.0" fill="#52575F" transform="matrix(1.00, 0.00, -0.00, -1.00, 393.6, 769.0)">n</text><text xml:space="preserve" font-family="OpenSans-Light" font-size="85.0" fill="#52575F" transform="matrix(1.00, 0.00, -0.00, -1.00, 443.7, 769.0)">g</text><text xml:space="preserve" font-family="OpenSans-Light" font-size="85.0" fill="#52575F" transform="matrix(1.00, 0.00, -0.00, -1.00, 488.2, 769.0)"> </text><text xml:space="preserve" font-family="OpenSans-Light" font-size="85.0" fill="#52575F" transform="matrix(1.00, 0.00, -0.00, -1.00, 510.7, 769.0)">o</text><text xml:space="preserve" font-family="OpenSans-Light" font-size="85.0" fill="#52575F" transform="matrix(1.00, 0.00, -0.00, -1.00, 560.5, 769.0)">u</text><text xml:space="preserve" font-family="OpenSans-Light" font-size="85.0" fill="#52575F" transform="matrix(1.00, 0.00, -0.00, -1.00, 610.6, 769.0)">r</text><text xml:space="preserve" font-family="OpenSans-Light" font-size="85.0" fill="#52575F" transform="matrix(1.00, 0.00, -0.00, -1.00, 643.7, 769.0)">s</text><text xml:space="preserve" font-family="OpenSans-Light" font-size="85.0" fill="#52575F" transform="matrix(1.00, 0.00, -0.00, -1.00, 683.3, 769.0)">e</text><text xml:space="preserve" font-family="OpenSans-Light" font-size="85.0" fill="#52575F" transform="matrix(1.00, 0.00, -0.00, -1.00, 729.9, 769.0)">l</text><text xml:space="preserve" font-family="OpenSans-Light" font-size="85.0" fill="#52575F" transform="matrix(1.00, 0.00, -0.00, -1.00, 749.1, 769.0)">v</text><text xml:space="preserve" font-family="OpenSans-Light" font-size="85.0" fill="#52575F" transform="matrix(1.00, 0.00, -0.00, -1.00, 788.1, 769.0)">e</text><text xml:space="preserve" font-family="OpenSans-Light" font-size="85.0" fill="#52575F" transform="matrix(1.00, 0.00, -0.00, -1.00, 834.8, 769.0)">s</text><text xml:space="preserve" font-family="OpenSans-Light" font-size="85.0" fill="#52575F" transform="matrix(1.00, 0.00, -0.00, -1.00, 874.4, 769.0)"> </text><text xml:space="preserve" font-family="OpenSans-Light" font-size="85.0" fill="#52575F" transform="matrix(1.00, 0.00, -0.00, -1.00, 896.9, 769.0)">i</text><text xml:space="preserve" font-family="OpenSans-Light" font-size="85.0" fill="#52575F" transform="matrix(1.00, 0.00, -0.00, -1.00, 916.1, 769.0)">n</text><text xml:space="preserve" font-family="OpenSans-Light" font-size="85.0" fill="#52575F" transform="matrix(1.00, 0.00, -0.00, -1.00, 966.2, 769.0)">t</text><text xml:space="preserve" font-family="OpenSans-Light" font-size="85.0" fill="#52575F" transform="matrix(1.00, 0.00, -0.00, -1.00, 994.7, 769.0)">o</text><text xml:space="preserve" font-family="OpenSans-Light" font-size="85.0" fill="#52575F" transform="matrix(1.00, 0.00, -0.00, -1.00, 1044.5, 769.0)"> </text><text xml:space="preserve" font-family="OpenSans-Light" font-size="85.0" fill="#52575F" transform="matrix(1.00, 0.00, -0.00, -1.00, 54.0, 653.0)">t</text><text xml:space="preserve" font-family="OpenSans-Light" font-size="85.0" fill="#52575F" transform="matrix(1.00, 0.00, -0.00, -1.00, 87.5, 653.0)">h</text><text xml:space="preserve" font-family="OpenSans-Light" font-size="85.0" fill="#52575F" transform="matrix(1.00, 0.00, -0.00, -1.00, 142.6, 653.0)">e</text><text xml:space="preserve" font-family="OpenSans-Light" font-size="85.0" fill="#52575F" transform="matrix(1.00, 0.00, -0.00, -1.00, 189.2, 653.0)"> </text><text xml:space="preserve" font-family="OpenSans-Light" font-size="85.0" fill="#52575F" transform="matrix(1.00, 0.00, -0.00, -1.00, 256.2, 653.0)">c</text><text xml:space="preserve" font-family="OpenSans-Light" font-size="85.0" fill="#52575F" transform="matrix(1.00, 0.00, -0.00, -1.00, 301.6, 653.0)">l</text><text xml:space="preserve" font-family="OpenSans-Light" font-size="85.0" fill="#52575F" transform="matrix(1.00, 0.00, -0.00, -1.00, 325.8, 653.0)">i</text><text xml:space="preserve" font-family="OpenSans-Light" font-size="85.0" fill="#52575F" transform="matrix(1.00, 0.00, -0.00, -1.00, 350.0, 653.0)">e</text><text xml:space="preserve" font-family="OpenSans-Light" font-size="85.0" fill="#52575F" transform="matrix(1.00, 0.00, -0.00, -1.00, 401.7, 653.0)">n</text><text xml:space="preserve" font-family="OpenSans-Light" font-size="85.0" fill="#52575F" transform="matrix(1.00, 0.00, -0.00, -1.00, 456.8, 653.0)">t</text><text xml:space="preserve" font-family="OpenSans-Light" font-size="85.0" fill="#52575F" transform="matrix(1.00, 0.00, -0.00, -1.00, 490.2, 653.0)">s</text><text xml:space="preserve" font-family="OpenSans-Light" font-size="85.0" fill="#52575F" transform="matrix(1.00, 0.00, -0.00, -1.00, 529.8, 653.0)"> </text><text xml:space="preserve" font-family="OpenSans-Light" font-size="85.0" fill="#52575F" transform="matrix(1.00, 0.00, -0.00, -1.00, 596.8, 653.0)">w</text><text xml:space="preserve" font-family="OpenSans-Light" font-size="85.0" fill="#52575F" transform="matrix(1.00, 0.00, -0.00, -1.00, 663.3, 653.0)">o</text><text xml:space="preserve" font-family="OpenSans-Light" font-size="85.0" fill="#52575F" transform="matrix(1.00, 0.00, -0.00, -1.00, 718.1, 653.0)">r</text><text xml:space="preserve" font-family="OpenSans-Light" font-size="85.0" fill="#52575F" transform="matrix(1.00, 0.00, -0.00, -1.00, 756.2, 653.0)">k</text><text xml:space="preserve" font-family="OpenSans-Light" font-size="85.0" fill="#52575F" transform="matrix(1.00, 0.00, -0.00, -1.00, 802.3, 653.0)">s</text><text xml:space="preserve" font-family="OpenSans-Light" font-size="85.0" fill="#52575F" transform="matrix(1.00, 0.00, -0.00, -1.00, 846.9, 653.0)">p</text><text xml:space="preserve" font-family="OpenSans-Light" font-size="85.0" fill="#52575F" transform="matrix(1.00, 0.00, -0.00, -1.00, 902.4, 653.0)">a</text><text xml:space="preserve" font-family="OpenSans-Light" font-size="85.0" fill="#52575F" transform="matrix(1.00, 0.00, -0.00, -1.00, 952.5, 653.0)">c</text><text xml:space="preserve" font-family="OpenSans-Light" font-size="85.0" fill="#52575F" transform="matrix(1.00, 0.00, -0.00, -1.00, 997.8, 653.0)">e</text><text xml:space="preserve" font-family="OpenSans-Light" font-size="85.0" fill="#52575F" transform="matrix(1.00, 0.00, -0.00, -1.00, 1044.5, 653.0)"> </text><text xml:space="preserve" font-family="OpenSans-Light" font-size="85.0" fill="#52575F" transform="matrix(1.00, 0.00, -0.00, -1.00, 54.0, 537.0)">a</text><text xml:space="preserve" font-family="OpenSans-Light" font-size="85.0" fill="#52575F" transform="matrix(1.00, 0.00, -0.00, -1.00, 99.0, 537.0)">c</text><text xml:space="preserve" font-family="OpenSans-Light" font-size="85.0" fill="#52575F" transform="matrix(1.00, 0.00, -0.00, -1.00, 139.4, 537.0)">t</text><text xml:space="preserve" font-family="OpenSans-Light" font-size="85.0" fill="#52575F" transform="matrix(1.00, 0.00, -0.00, -1.00, 167.9, 537.0)">i</text><text xml:space="preserve" font-family="OpenSans-Light" font-size="85.0" fill="#52575F" transform="matrix(1.00, 0.00, -0.00, -1.00, 187.1, 537.0)">n</text><text xml:space="preserve" font-family="OpenSans-Light" font-size="85.0" fill="#52575F" transform="matrix(1.00, 0.00, -0.00, -1.00, 237.2, 537.0)">g</text><text xml:space="preserve" font-family="OpenSans-Light" font-size="85.0" fill="#52575F" transform="matrix(1.00, 0.00, -0.00, -1.00, 281.7, 537.0)"> </text><text xml:space="preserve" font-family="OpenSans-Light" font-size="85.0" fill="#52575F" transform="matrix(1.00, 0.00, -0.00, -1.00, 309.0, 537.0)">a</text><text xml:space="preserve" font-family="OpenSans-Light" font-size="85.0" fill="#52575F" transform="matrix(1.00, 0.00, -0.00, -1.00, 354.0, 537.0)">s</text><text xml:space="preserve" font-family="OpenSans-Light" font-size="85.0" fill="#52575F" transform="matrix(1.00, 0.00, -0.00, -1.00, 393.6, 537.0)"> </text><text xml:space="preserve" font-family="OpenSans-Light" font-size="85.0" fill="#52575F" transform="matrix(1.00, 0.00, -0.00, -1.00, 420.9, 537.0)">a</text><text xml:space="preserve" font-family="OpenSans-Light" font-size="85.0" fill="#52575F" transform="matrix(1.00, 0.00, -0.00, -1.00, 465.9, 537.0)"> </text><text xml:space="preserve" font-family="OpenSans-Light" font-size="85.0" fill="#52575F" transform="matrix(1.00, 0.00, -0.00, -1.00, 493.2, 537.0)">h</text><text xml:space="preserve" font-family="OpenSans-Light" font-size="85.0" fill="#52575F" transform="matrix(1.00, 0.00, -0.00, -1.00, 543.4, 537.0)">i</text><text xml:space="preserve" font-family="OpenSans-Light" font-size="85.0" fill="#52575F" transform="matrix(1.00, 0.00, -0.00, -1.00, 562.6, 537.0)">g</text><text xml:space="preserve" font-family="OpenSans-Light" font-size="85.0" fill="#52575F" transform="matrix(1.00, 0.00, -0.00, -1.00, 607.0, 537.0)">h</text><text xml:space="preserve" font-family="OpenSans-Light" font-size="85.0" fill="#52575F" transform="matrix(1.00, 0.00, -0.00, -1.00, 657.2, 537.0)">l</text><text xml:space="preserve" font-family="OpenSans-Light" font-size="85.0" fill="#52575F" transform="matrix(1.00, 0.00, -0.00, -1.00, 676.4, 537.0)">y</text><text xml:space="preserve" font-family="OpenSans-Light" font-size="85.0" fill="#52575F" transform="matrix(1.00, 0.00, -0.00, -1.00, 715.4, 537.0)"> </text><text xml:space="preserve" font-family="OpenSans-Light" font-size="85.0" fill="#52575F" transform="matrix(1.00, 0.00, -0.00, -1.00, 742.7, 537.0)">e</text><text xml:space="preserve" font-family="OpenSans-Light" font-size="85.0" fill="#52575F" transform="matrix(1.00, 0.00, -0.00, -1.00, 789.3, 537.0)">ﬃ</text><text xml:space="preserve" font-family="OpenSans-Light" font-size="85.0" fill="#52575F" transform="matrix(1.00, 0.00, -0.00, -1.00, 859.6, 537.0)">c</text><text xml:space="preserve" font-family="OpenSans-Light" font-size="85.0" fill="#52575F" transform="matrix(1.00, 0.00, -0.00, -1.00, 900.0, 537.0)">i</text><text xml:space="preserve" font-family="OpenSans-Light" font-size="85.0" fill="#52575F" transform="matrix(1.00, 0.00, -0.00, -1.00, 919.2, 537.0)">e</text><text xml:space="preserve" font-family="OpenSans-Light" font-size="85.0" fill="#52575F" transform="matrix(1.00, 0.00, -0.00, -1.00, 965.8, 537.0)">n</text><text xml:space="preserve" font-family="OpenSans-Light" font-size="85.0" fill="#52575F" transform="matrix(1.00, 0.00, -0.00, -1.00, 1016.0, 537.0)">t</text><text xml:space="preserve" font-family="OpenSans-Light" font-size="85.0" fill="#52575F" transform="matrix(1.00, 0.00, -0.00, -1.00, 1044.4, 537.0)"> </text><text xml:space="preserve" font-family="OpenSans-Light" font-size="85.0" fill="#52575F" transform="matrix(1.00, 0.00, -0.00, -1.00, 54.0, 421.0)">a</text><text xml:space="preserve" font-family="OpenSans-Light" font-size="85.0" fill="#52575F" transform="matrix(1.00, 0.00, -0.00, -1.00, 99.0, 421.0)">n</text><text xml:space="preserve" font-family="OpenSans-Light" font-size="85.0" fill="#52575F" transform="matrix(1.00, 0.00, -0.00, -1.00, 149.1, 421.0)">d</text><text xml:space="preserve" font-family="OpenSans-Light" font-size="85.0" fill="#52575F" transform="matrix(1.00, 0.00, -0.00, -1.00, 199.7, 421.0)"> </text><text xml:space="preserve" font-family="OpenSans-Light" font-size="85.0" fill="#52575F" transform="matrix(1.00, 0.00, -0.00, -1.00, 243.3, 421.0)">ﬂ</text><text xml:space="preserve" font-family="OpenSans-Light" font-size="85.0" fill="#52575F" transform="matrix(1.00, 0.00, -0.00, -1.00, 288.0, 421.0)">e</text><text xml:space="preserve" font-family="OpenSans-Light" font-size="85.0" fill="#52575F" transform="matrix(1.00, 0.00, -0.00, -1.00, 332.9, 421.0)">x</text><text xml:space="preserve" font-family="OpenSans-Light" font-size="85.0" fill="#52575F" transform="matrix(1.00, 0.00, -0.00, -1.00, 375.2, 421.0)">i</text><text xml:space="preserve" font-family="OpenSans-Light" font-size="85.0" fill="#52575F" transform="matrix(1.00, 0.00, -0.00, -1.00, 394.5, 421.0)">b</text><text xml:space="preserve" font-family="OpenSans-Light" font-size="85.0" fill="#52575F" transform="matrix(1.00, 0.00, -0.00, -1.00, 445.1, 421.0)">l</text><text xml:space="preserve" font-family="OpenSans-Light" font-size="85.0" fill="#52575F" transform="matrix(1.00, 0.00, -0.00, -1.00, 464.3, 421.0)">e</text><text xml:space="preserve" font-family="OpenSans-Light" font-size="85.0" fill="#52575F" transform="matrix(1.00, 0.00, -0.00, -1.00, 510.9, 421.0)"> </text><text xml:space="preserve" font-family="OpenSans-Light" font-size="85.0" fill="#52575F" transform="matrix(1.00, 0.00, -0.00, -1.00, 554.4, 421.0)">e</text><text xml:space="preserve" font-family="OpenSans-Light" font-size="85.0" fill="#52575F" transform="matrix(1.00, 0.00, -0.00, -1.00, 599.4, 421.0)">x</text><text xml:space="preserve" font-family="OpenSans-Light" font-size="85.0" fill="#52575F" transform="matrix(1.00, 0.00, -0.00, -1.00, 641.7, 421.0)">t</text><text xml:space="preserve" font-family="OpenSans-Light" font-size="85.0" fill="#52575F" transform="matrix(1.00, 0.00, -0.00, -1.00, 670.2, 421.0)">e</text><text xml:space="preserve" font-family="OpenSans-Light" font-size="85.0" fill="#52575F" transform="matrix(1.00, 0.00, -0.00, -1.00, 716.8, 421.0)">n</text><text xml:space="preserve" font-family="OpenSans-Light" font-size="85.0" fill="#52575F" transform="matrix(1.00, 0.00, -0.00, -1.00, 766.9, 421.0)">s</text><text xml:space="preserve" font-family="OpenSans-Light" font-size="85.0" fill="#52575F" transform="matrix(1.00, 0.00, -0.00, -1.00, 806.5, 421.0)">i</text><text xml:space="preserve" font-family="OpenSans-Light" font-size="85.0" fill="#52575F" transform="matrix(1.00, 0.00, -0.00, -1.00, 825.7, 421.0)">o</text><text xml:space="preserve" font-family="OpenSans-Light" font-size="85.0" fill="#52575F" transform="matrix(1.00, 0.00, -0.00, -1.00, 875.5, 421.0)">n</text><text xml:space="preserve" font-family="OpenSans-Light" font-size="85.0" fill="#52575F" transform="matrix(1.00, 0.00, -0.00, -1.00, 925.7, 421.0)"> </text><text xml:space="preserve" font-family="OpenSans-Light" font-size="85.0" fill="#52575F" transform="matrix(1.00, 0.00, -0.00, -1.00, 969.2, 421.0)">o</text><text xml:space="preserve" font-family="OpenSans-Light" font-size="85.0" fill="#52575F" transform="matrix(1.00, 0.00, -0.00, -1.00, 1019.0, 421.0)">f</text><text xml:space="preserve" font-family="OpenSans-Light" font-size="85.0" fill="#52575F" transform="matrix(1.00, 0.00, -0.00, -1.00, 1044.4, 421.0)"> </text><text xml:space="preserve" font-family="OpenSans-Light" font-size="85.0" fill="#52575F" transform="matrix(1.00, 0.00, -0.00, -1.00, 54.0, 305.0)">t</text><text xml:space="preserve" font-family="OpenSans-Light" font-size="85.0" fill="#52575F" transform="matrix(1.00, 0.00, -0.00, -1.00, 82.5, 305.0)">h</text><text xml:space="preserve" font-family="OpenSans-Light" font-size="85.0" fill="#52575F" transform="matrix(1.00, 0.00, -0.00, -1.00, 132.6, 305.0)">e</text><text xml:space="preserve" font-family="OpenSans-Light" font-size="85.0" fill="#52575F" transform="matrix(1.00, 0.00, -0.00, -1.00, 179.2, 305.0)"> </text><text xml:space="preserve" font-family="OpenSans-Light" font-size="85.0" fill="#52575F" transform="matrix(1.00, 0.00, -0.00, -1.00, 201.3, 305.0)">c</text><text xml:space="preserve" font-family="OpenSans-Light" font-size="85.0" fill="#52575F" transform="matrix(1.00, 0.00, -0.00, -1.00, 241.7, 305.0)">l</text><text xml:space="preserve" font-family="OpenSans-Light" font-size="85.0" fill="#52575F" transform="matrix(1.00, 0.00, -0.00, -1.00, 260.9, 305.0)">i</text><text xml:space="preserve" font-family="OpenSans-Light" font-size="85.0" fill="#52575F" transform="matrix(1.00, 0.00, -0.00, -1.00, 280.1, 305.0)">e</text><text xml:space="preserve" font-family="OpenSans-Light" font-size="85.0" fill="#52575F" transform="matrix(1.00, 0.00, -0.00, -1.00, 326.8, 305.0)">n</text><text xml:space="preserve" font-family="OpenSans-Light" font-size="85.0" fill="#52575F" transform="matrix(1.00, 0.00, -0.00, -1.00, 376.9, 305.0)">t</text><text xml:space="preserve" font-family="OpenSans-Light" font-size="85.0" fill="#52575F" transform="matrix(1.00, 0.00, -0.00, -1.00, 405.4, 305.0)">s</text><text xml:space="preserve" font-family="OpenSans-Light" font-size="85.0" fill="#52575F" transform="matrix(1.00, 0.00, -0.00, -1.00, 444.9, 305.0)"> </text><text xml:space="preserve" font-family="OpenSans-Light" font-size="85.0" fill="#52575F" transform="matrix(1.00, 0.00, -0.00, -1.00, 467.0, 305.0)">t</text><text xml:space="preserve" font-family="OpenSans-Light" font-size="85.0" fill="#52575F" transform="matrix(1.00, 0.00, -0.00, -1.00, 495.5, 305.0)">e</text><text xml:space="preserve" font-family="OpenSans-Light" font-size="85.0" fill="#52575F" transform="matrix(1.00, 0.00, -0.00, -1.00, 542.1, 305.0)">a</text><text xml:space="preserve" font-family="OpenSans-Light" font-size="85.0" fill="#52575F" transform="matrix(1.00, 0.00, -0.00, -1.00, 587.1, 305.0)">m</text><text xml:space="preserve" font-family="OpenSans-Light" font-size="85.0" fill="#52575F" transform="matrix(1.00, 0.00, -0.00, -1.00, 662.3, 305.0)">.</text><g><clipPath id="clip-66"><path d="M 1303.0 719.0 L 1450.0 719.0 L 1450.0 558.0 L 1303.0 558.0 Z M 1303.3 718.6 "></path></clipPath><g clip-path="url(#clip-66)"><g><clipPath id="clip-67"><path d="M 1303.3 558.4 L 1449.5 558.4 L 1449.5 718.6 L 1303.3 718.6 Z M 1303.3 558.4 "></path></clipPath><g clip-path="url(#clip-67)"><g opacity="0.12"><g><clipPath id="clip-68"><path d="M 1303.0 558.0 L 1450.0 558.0 L 1450.0 719.0 L 1303.0 719.0 Z M 1303.0 558.0 "></path></clipPath><g clip-path="url(#clip-68)"><path d="M 1369.8 719.0 L 1349.0 698.1 L 1408.4 638.5 L 1349.0 578.9 L 1369.8 558.0 L 1450.0 638.5 Z M 1228.2 719.0 L 1148.0 638.5 L 1228.2 558.0 L 1249.0 578.9 L 1189.6 638.5 L 1249.0 698.1 Z M 1228.2 719.0 " fill="#000000"></path></g></g></g></g></g></g></g><g><clipPath id="clip-69"><path d="M 1321.0 715.0 L 1175.0 715.0 L 1175.0 555.0 L 1321.0 555.0 Z M 1321.1 714.9 "></path></clipPath><g clip-path="url(#clip-69)"><g><clipPath id="clip-70"><path d="M 1175.0 555.0 L 1321.1 555.0 L 1321.1 714.9 L 1175.0 714.9 Z M 1175.0 555.0 "></path></clipPath><g clip-path="url(#clip-70)"><g opacity="0.12"><g><clipPath id="clip-71"><path d="M 1175.0 555.0 L 1321.0 555.0 L 1321.0 715.0 L 1175.0 715.0 Z M 1175.0 555.0 "></path></clipPath><g clip-path="url(#clip-71)"><path d="M 1255.2 715.0 L 1276.0 694.2 L 1216.6 635.0 L 1276.0 575.7 L 1255.2 555.0 L 1175.0 635.0 Z M 1396.8 715.0 L 1477.0 635.0 L 1396.8 555.0 L 1376.0 575.7 L 1435.4 635.0 L 1376.0 694.3 Z M 1396.8 715.0 " fill="#000000"></path></g></g></g></g></g></g></g><g><clipPath id="clip-72"><path d="M 1608.0 719.0 L 1754.0 719.0 L 1754.0 558.0 L 1608.0 558.0 Z M 1607.9 718.6 "></path></clipPath><g clip-path="url(#clip-72)"><g><clipPath id="clip-73"><path d="M 1607.9 558.4 L 1754.0 558.4 L 1754.0 718.6 L 1607.9 718.6 Z M 1607.9 558.4 "></path></clipPath><g clip-path="url(#clip-73)"><g opacity="0.12"><g><clipPath id="clip-74"><path d="M 1608.0 558.0 L 1754.0 558.0 L 1754.0 719.0 L 1608.0 719.0 Z M 1608.0 558.0 "></path></clipPath><g clip-path="url(#clip-74)"><path d="M 1674.1 719.0 L 1653.4 698.1 L 1712.5 638.5 L 1653.4 578.9 L 1674.1 558.0 L 1754.0 638.5 Z M 1532.9 719.0 L 1453.0 638.5 L 1532.9 558.0 L 1553.6 578.9 L 1494.4 638.5 L 1553.6 698.1 Z M 1532.9 719.0 " fill="#000000"></path></g></g></g></g></g></g></g><g><clipPath id="clip-75"><path d="M 1626.0 715.0 L 1480.0 715.0 L 1480.0 555.0 L 1626.0 555.0 Z M 1625.8 714.9 "></path></clipPath><g clip-path="url(#clip-75)"><g><clipPath id="clip-76"><path d="M 1480.0 555.0 L 1625.8 555.0 L 1625.8 714.9 L 1480.0 714.9 Z M 1480.0 555.0 "></path></clipPath><g clip-path="url(#clip-76)"><g opacity="0.12"><g><clipPath id="clip-77"><path d="M 1480.0 555.0 L 1626.0 555.0 L 1626.0 715.0 L 1480.0 715.0 Z M 1480.0 555.0 "></path></clipPath><g clip-path="url(#clip-77)"><path d="M 1559.9 715.0 L 1580.6 694.2 L 1521.5 635.0 L 1580.6 575.7 L 1559.9 555.0 L 1480.0 635.0 Z M 1701.1 715.0 L 1781.0 635.0 L 1701.1 555.0 L 1680.4 575.7 L 1739.6 635.0 L 1680.4 694.3 Z M 1701.1 715.0 " fill="#000000"></path></g></g></g></g></g></g></g><g><clipPath id="clip-78"><path d="M 1913.0 719.0 L 2059.0 719.0 L 2059.0 558.0 L 1913.0 558.0 Z M 1912.6 718.6 "></path></clipPath><g clip-path="url(#clip-78)"><g><clipPath id="clip-79"><path d="M 1912.6 558.4 L 2058.9 558.4 L 2058.9 718.6 L 1912.6 718.6 Z M 1912.6 558.4 "></path></clipPath><g clip-path="url(#clip-79)"><g opacity="0.12"><g><clipPath id="clip-80"><path d="M 1913.0 558.0 L 1920.0 558.0 L 1920.0 719.0 L 1913.0 719.0 Z M 1913.0 558.0 "></path></clipPath><g clip-path="url(#clip-80)"><path d="M 1978.8 719.0 L 1958.0 698.1 L 2017.4 638.5 L 1958.0 578.9 L 1978.8 558.0 L 2059.0 638.5 Z M 1837.2 719.0 L 1757.0 638.5 L 1837.2 558.0 L 1858.0 578.9 L 1798.6 638.5 L 1858.0 698.1 Z M 1837.2 719.0 " fill="#000000"></path></g></g></g></g></g></g></g><g><clipPath id="clip-81"><path d="M 1930.0 715.0 L 1784.0 715.0 L 1784.0 555.0 L 1930.0 555.0 Z M 1930.5 714.9 "></path></clipPath><g clip-path="url(#clip-81)"><g><clipPath id="clip-82"><path d="M 1784.2 555.0 L 1930.5 555.0 L 1930.5 714.9 L 1784.2 714.9 Z M 1784.2 555.0 "></path></clipPath><g clip-path="url(#clip-82)"><g opacity="0.12"><g><clipPath id="clip-83"><path d="M 1784.0 555.0 L 1920.0 555.0 L 1920.0 715.0 L 1784.0 715.0 Z M 1784.0 555.0 "></path></clipPath><g clip-path="url(#clip-83)"><path d="M 1864.2 715.0 L 1885.0 694.2 L 1825.6 635.0 L 1885.0 575.7 L 1864.2 555.0 L 1784.0 635.0 Z M 2005.8 715.0 L 2086.0 635.0 L 2005.8 555.0 L 1985.0 575.7 L 2044.4 635.0 L 1985.0 694.3 Z M 2005.8 715.0 " fill="#000000"></path></g></g></g></g></g></g></g><g><clipPath id="clip-84"><path d="M 1103.0 235.0 L 1250.0 235.0 L 1250.0 74.0 L 1103.0 74.0 Z M 1103.3 234.6 "></path></clipPath><g clip-path="url(#clip-84)"><g><clipPath id="clip-85"><path d="M 1103.3 74.4 L 1249.5 74.4 L 1249.5 234.6 L 1103.3 234.6 Z M 1103.3 74.4 "></path></clipPath><g clip-path="url(#clip-85)"><g opacity="0.12"><g><clipPath id="clip-86"><path d="M 1103.0 74.0 L 1250.0 74.0 L 1250.0 235.0 L 1103.0 235.0 Z M 1103.0 74.0 "></path></clipPath><g clip-path="url(#clip-86)"><path d="M 1169.8 235.0 L 1149.0 214.1 L 1208.4 154.5 L 1149.0 94.9 L 1169.8 74.0 L 1250.0 154.5 Z M 1028.2 235.0 L 948.0 154.5 L 1028.2 74.0 L 1049.0 94.9 L 989.6 154.5 L 1049.0 214.1 Z M 1028.2 235.0 " fill="#000000"></path></g></g></g></g></g></g></g><g><clipPath id="clip-87"><path d="M 1121.0 231.0 L 975.0 231.0 L 975.0 71.0 L 1121.0 71.0 Z M 1121.1 230.9 "></path></clipPath><g clip-path="url(#clip-87)"><g><clipPath id="clip-88"><path d="M 975.0 71.0 L 1121.1 71.0 L 1121.1 230.9 L 975.0 230.9 Z M 975.0 71.0 "></path></clipPath><g clip-path="url(#clip-88)"><g opacity="0.12"><g><clipPath id="clip-89"><path d="M 975.0 71.0 L 1121.0 71.0 L 1121.0 231.0 L 975.0 231.0 Z M 975.0 71.0 "></path></clipPath><g clip-path="url(#clip-89)"><path d="M 1055.2 231.0 L 1076.0 210.2 L 1016.6 151.0 L 1076.0 91.7 L 1055.2 71.0 L 975.0 151.0 Z M 1196.8 231.0 L 1277.0 151.0 L 1196.8 71.0 L 1176.0 91.7 L 1235.4 151.0 L 1176.0 210.3 Z M 1196.8 231.0 " fill="#000000"></path></g></g></g></g></g></g></g><g><clipPath id="clip-90"><path d="M 1408.0 235.0 L 1554.0 235.0 L 1554.0 74.0 L 1408.0 74.0 Z M 1407.9 234.6 "></path></clipPath><g clip-path="url(#clip-90)"><g><clipPath id="clip-91"><path d="M 1407.9 74.4 L 1554.0 74.4 L 1554.0 234.6 L 1407.9 234.6 Z M 1407.9 74.4 "></path></clipPath><g clip-path="url(#clip-91)"><g opacity="0.12"><g><clipPath id="clip-92"><path d="M 1408.0 74.0 L 1554.0 74.0 L 1554.0 235.0 L 1408.0 235.0 Z M 1408.0 74.0 "></path></clipPath><g clip-path="url(#clip-92)"><path d="M 1473.8 235.0 L 1453.0 214.1 L 1512.4 154.5 L 1453.0 94.9 L 1473.8 74.0 L 1554.0 154.5 Z M 1332.2 235.0 L 1252.0 154.5 L 1332.2 74.0 L 1353.0 94.9 L 1293.6 154.5 L 1353.0 214.1 Z M 1332.2 235.0 " fill="#000000"></path></g></g></g></g></g></g></g><g><clipPath id="clip-93"><path d="M 1426.0 231.0 L 1280.0 231.0 L 1280.0 71.0 L 1426.0 71.0 Z M 1425.8 230.9 "></path></clipPath><g clip-path="url(#clip-93)"><g><clipPath id="clip-94"><path d="M 1280.0 71.0 L 1425.8 71.0 L 1425.8 230.9 L 1280.0 230.9 Z M 1280.0 71.0 "></path></clipPath><g clip-path="url(#clip-94)"><g opacity="0.12"><g><clipPath id="clip-95"><path d="M 1280.0 71.0 L 1426.0 71.0 L 1426.0 231.0 L 1280.0 231.0 Z M 1280.0 71.0 "></path></clipPath><g clip-path="url(#clip-95)"><path d="M 1359.9 231.0 L 1380.6 210.2 L 1321.5 151.0 L 1380.6 91.7 L 1359.9 71.0 L 1280.0 151.0 Z M 1501.1 231.0 L 1581.0 151.0 L 1501.1 71.0 L 1480.4 91.7 L 1539.6 151.0 L 1480.4 210.3 Z M 1501.1 231.0 " fill="#000000"></path></g></g></g></g></g></g></g><g><clipPath id="clip-96"><path d="M 1713.0 235.0 L 1859.0 235.0 L 1859.0 74.0 L 1713.0 74.0 Z M 1712.6 234.6 "></path></clipPath><g clip-path="url(#clip-96)"><g><clipPath id="clip-97"><path d="M 1712.6 74.4 L 1858.9 74.4 L 1858.9 234.6 L 1712.6 234.6 Z M 1712.6 74.4 "></path></clipPath><g clip-path="url(#clip-97)"><g opacity="0.12"><g><clipPath id="clip-98"><path d="M 1713.0 74.0 L 1859.0 74.0 L 1859.0 235.0 L 1713.0 235.0 Z M 1713.0 74.0 "></path></clipPath><g clip-path="url(#clip-98)"><path d="M 1778.8 235.0 L 1758.0 214.1 L 1817.4 154.5 L 1758.0 94.9 L 1778.8 74.0 L 1859.0 154.5 Z M 1637.2 235.0 L 1557.0 154.5 L 1637.2 74.0 L 1658.0 94.9 L 1598.6 154.5 L 1658.0 214.1 Z M 1637.2 235.0 " fill="#000000"></path></g></g></g></g></g></g></g><g><clipPath id="clip-99"><path d="M 1730.0 231.0 L 1584.0 231.0 L 1584.0 71.0 L 1730.0 71.0 Z M 1730.4 230.9 "></path></clipPath><g clip-path="url(#clip-99)"><g><clipPath id="clip-100"><path d="M 1584.2 71.0 L 1730.4 71.0 L 1730.4 230.9 L 1584.2 230.9 Z M 1584.2 71.0 "></path></clipPath><g clip-path="url(#clip-100)"><g opacity="0.12"><g><clipPath id="clip-101"><path d="M 1584.0 71.0 L 1730.0 71.0 L 1730.0 231.0 L 1584.0 231.0 Z M 1584.0 71.0 "></path></clipPath><g clip-path="url(#clip-101)"><path d="M 1664.2 231.0 L 1685.0 210.2 L 1625.6 151.0 L 1685.0 91.7 L 1664.2 71.0 L 1584.0 151.0 Z M 1805.8 231.0 L 1886.0 151.0 L 1805.8 71.0 L 1785.0 91.7 L 1844.4 151.0 L 1785.0 210.3 Z M 1805.8 231.0 " fill="#000000"></path></g></g></g></g></g></g></g></g></svg>