<?xml version="1.0" encoding="UTF-8" standalone="no"?><svg xmlns="http://www.w3.org/2000/svg" xmlns:xlink="http://www.w3.org/1999/xlink" clip-rule="evenodd" stroke-miterlimit="4.00" viewBox="0 0 1920 1080"><desc>SVG generated by Keynote</desc><defs></defs><g transform="matrix(1.00, 0.00, -0.00, -1.00, 0.0, 1080.0)"><path d="M 0.0 1080.0 L 1920.0 1080.0 L 1920.0 0.0 L 0.0 0.0 Z M 0.0 1080.0 " fill="#00D0C0"></path><g opacity="0.70"><g><clipPath id="clip-63"><path d="M 0.0 0.0 L 1920.0 0.0 L 1920.0 1080.0 L 0.0 1080.0 Z M 0.0 0.0 "></path></clipPath><g clip-path="url(#clip-63)"><image xlink:href="../../D2786465-8DBD-44AC-B19B-B85BC026CD7A/assets/5432A229A722B1D91962AB70678B30EA.png" width="960.00" height="529.00" transform="matrix(2.09, 0.00, -0.00, -2.09, -42.0, 1093.0)"></image></g></g></g><text xml:space="preserve" font-family="OpenSans-Light" font-size="250.0" fill="#FEFFFE" transform="matrix(1.00, 0.00, -0.00, -1.00, 54.0, 626.0)">B</text><text xml:space="preserve" font-family="OpenSans-Light" font-size="250.0" fill="#FEFFFE" transform="matrix(1.00, 0.00, -0.00, -1.00, 210.7, 626.0)">r</text><text xml:space="preserve" font-family="OpenSans-Light" font-size="250.0" fill="#FEFFFE" transform="matrix(1.00, 0.00, -0.00, -1.00, 303.1, 626.0)">e</text><text xml:space="preserve" font-family="OpenSans-Light" font-size="250.0" fill="#FEFFFE" transform="matrix(1.00, 0.00, -0.00, -1.00, 440.2, 626.0)">a</text><text xml:space="preserve" font-family="OpenSans-Light" font-size="250.0" fill="#FEFFFE" transform="matrix(1.00, 0.00, -0.00, -1.00, 572.6, 626.0)">k</text><text xml:space="preserve" font-family="OpenSans-Light" font-size="250.0" fill="#FEFFFE" transform="matrix(1.00, 0.00, -0.00, -1.00, 688.6, 626.0)">d</text><text xml:space="preserve" font-family="OpenSans-Light" font-size="250.0" fill="#FEFFFE" transform="matrix(1.00, 0.00, -0.00, -1.00, 837.4, 626.0)">o</text><text xml:space="preserve" font-family="OpenSans-Light" font-size="250.0" fill="#FEFFFE" transform="matrix(1.00, 0.00, -0.00, -1.00, 978.9, 626.0)">w</text><text xml:space="preserve" font-family="OpenSans-Light" font-size="250.0" fill="#FEFFFE" transform="matrix(1.00, 0.00, -0.00, -1.00, 1159.7, 626.0)">n</text><g><clipPath id="clip-64"><path d="M 50.0 52.0 L 154.0 52.0 L 154.0 -1.0 L 50.0 -1.0 Z M 50.4 52.4 "></path></clipPath><g clip-path="url(#clip-64)"><image xlink:href="../../4F9A92A2-2DC6-4691-97F8-9F75BE53396F/assets/B22C448CED7C82A0C99889D0AD879A76.png" width="104.00" height="104.00" transform="matrix(1.00, 0.00, -0.00, -0.99, 50.0, 77.0)"></image></g></g></g></svg>