<?xml version="1.0" encoding="UTF-8" standalone="no"?><svg xmlns="http://www.w3.org/2000/svg" xmlns:xlink="http://www.w3.org/1999/xlink" clip-rule="evenodd" stroke-miterlimit="4.00" viewBox="0 0 1920 1080"><desc>SVG generated by Keynote</desc><defs></defs><g transform="matrix(1.00, 0.00, -0.00, -1.00, 0.0, 1080.0)"><path d="M 0.0 1080.0 L 1920.0 1080.0 L 1920.0 0.0 L 0.0 0.0 Z M 0.0 1080.0 " fill="#000000"></path><text xml:space="preserve" font-family="Helvetica-Bold" font-weight="bold" font-size="90.0" fill="#FEFFFF" transform="matrix(1.00, 0.00, -0.00, -1.00, 559.0, 631.0)">L</text><text xml:space="preserve" font-family="Helvetica-Bold" font-weight="bold" font-size="90.0" fill="#FEFFFF" transform="matrix(1.00, 0.00, -0.00, -1.00, 614.0, 631.0)">a</text><text xml:space="preserve" font-family="Helvetica-Bold" font-weight="bold" font-size="90.0" fill="#FEFFFF" transform="matrix(1.00, 0.00, -0.00, -1.00, 664.0, 631.0)">n</text><text xml:space="preserve" font-family="Helvetica-Bold" font-weight="bold" font-size="90.0" fill="#FEFFFF" transform="matrix(1.00, 0.00, -0.00, -1.00, 719.0, 631.0)">a</text><text xml:space="preserve" font-family="Helvetica-Bold" font-weight="bold" font-size="90.0" fill="#FEFFFF" transform="matrix(1.00, 0.00, -0.00, -1.00, 769.0, 631.0)"> </text><text xml:space="preserve" font-family="Helvetica-Bold" font-weight="bold" font-size="90.0" fill="#FEFFFF" transform="matrix(1.00, 0.00, -0.00, -1.00, 794.0, 631.0)">C</text><text xml:space="preserve" font-family="Helvetica-Bold" font-weight="bold" font-size="90.0" fill="#FEFFFF" transform="matrix(1.00, 0.00, -0.00, -1.00, 859.0, 631.0)">h</text><text xml:space="preserve" font-family="Helvetica-Bold" font-weight="bold" font-size="90.0" fill="#FEFFFF" transform="matrix(1.00, 0.00, -0.00, -1.00, 913.9, 631.0)">o</text><text xml:space="preserve" font-family="Helvetica-Bold" font-weight="bold" font-size="90.0" fill="#FEFFFF" transform="matrix(1.00, 0.00, -0.00, -1.00, 968.9, 631.0)">i</text><text xml:space="preserve" font-family="Helvetica-Light" font-size="45.0" fill="#FEFFFF" transform="matrix(1.00, 0.00, -0.00, -1.00, 559.0, 567.0)">C</text><text xml:space="preserve" font-family="Helvetica-Light" font-size="45.0" fill="#FEFFFF" transform="matrix(1.00, 0.00, -0.00, -1.00, 591.5, 567.0)">u</text><text xml:space="preserve" font-family="Helvetica-Light" font-size="45.0" fill="#FEFFFF" transform="matrix(1.00, 0.00, -0.00, -1.00, 616.5, 567.0)">r</text><text xml:space="preserve" font-family="Helvetica-Light" font-size="45.0" fill="#FEFFFF" transform="matrix(1.00, 0.00, -0.00, -1.00, 631.5, 567.0)">r</text><text xml:space="preserve" font-family="Helvetica-Light" font-size="45.0" fill="#FEFFFF" transform="matrix(1.00, 0.00, -0.00, -1.00, 645.7, 567.0)">e</text><text xml:space="preserve" font-family="Helvetica-Light" font-size="45.0" fill="#FEFFFF" transform="matrix(1.00, 0.00, -0.00, -1.00, 670.7, 567.0)">n</text><text xml:space="preserve" font-family="Helvetica-Light" font-size="45.0" fill="#FEFFFF" transform="matrix(1.00, 0.00, -0.00, -1.00, 695.7, 567.0)">t</text><text xml:space="preserve" font-family="Helvetica-Light" font-size="45.0" fill="#FEFFFF" transform="matrix(1.00, 0.00, -0.00, -1.00, 708.2, 567.0)"> </text><text xml:space="preserve" font-family="Helvetica-Light" font-size="45.0" fill="#FEFFFF" transform="matrix(1.00, 0.00, -0.00, -1.00, 720.7, 567.0)">/</text><text xml:space="preserve" font-family="Helvetica-Light" font-size="45.0" fill="#FEFFFF" transform="matrix(1.00, 0.00, -0.00, -1.00, 733.2, 567.0)"> </text><text xml:space="preserve" font-family="Helvetica-Light" font-size="45.0" fill="#FEFFFF" transform="matrix(1.00, 0.00, -0.00, -1.00, 745.8, 567.0)">S</text><text xml:space="preserve" font-family="Helvetica-Light" font-size="45.0" fill="#FEFFFF" transform="matrix(1.00, 0.00, -0.00, -1.00, 773.2, 567.0)">o</text><text xml:space="preserve" font-family="Helvetica-Light" font-size="45.0" fill="#FEFFFF" transform="matrix(1.00, 0.00, -0.00, -1.00, 798.3, 567.0)">l</text><text xml:space="preserve" font-family="Helvetica-Light" font-size="45.0" fill="#FEFFFF" transform="matrix(1.00, 0.00, -0.00, -1.00, 808.3, 567.0)">v</text><text xml:space="preserve" font-family="Helvetica-Light" font-size="45.0" fill="#FEFFFF" transform="matrix(1.00, 0.00, -0.00, -1.00, 830.8, 567.0)"> </text><text xml:space="preserve" font-family="Helvetica-Light" font-size="45.0" fill="#FEFFFF" transform="matrix(1.00, 0.00, -0.00, -1.00, 843.3, 567.0)">D</text><text xml:space="preserve" font-family="Helvetica-Light" font-size="45.0" fill="#FEFFFF" transform="matrix(1.00, 0.00, -0.00, -1.00, 875.8, 567.0)">e</text><text xml:space="preserve" font-family="Helvetica-Light" font-size="45.0" fill="#FEFFFF" transform="matrix(1.00, 0.00, -0.00, -1.00, 900.8, 567.0)">s</text><text xml:space="preserve" font-family="Helvetica-Light" font-size="45.0" fill="#FEFFFF" transform="matrix(1.00, 0.00, -0.00, -1.00, 923.3, 567.0)">i</text><text xml:space="preserve" font-family="Helvetica-Light" font-size="45.0" fill="#FEFFFF" transform="matrix(1.00, 0.00, -0.00, -1.00, 933.3, 567.0)">g</text><text xml:space="preserve" font-family="Helvetica-Light" font-size="45.0" fill="#FEFFFF" transform="matrix(1.00, 0.00, -0.00, -1.00, 960.8, 567.0)">n</text><text xml:space="preserve" font-family="Helvetica-Light" font-size="45.0" fill="#FEFFFF" transform="matrix(1.00, 0.00, -0.00, -1.00, 985.8, 567.0)"> </text><text xml:space="preserve" font-family="Helvetica-Light" font-size="45.0" fill="#FEFFFF" transform="matrix(1.00, 0.00, -0.00, -1.00, 559.0, 513.0)">P</text><text xml:space="preserve" font-family="Helvetica-Light" font-size="45.0" fill="#FEFFFF" transform="matrix(1.00, 0.00, -0.00, -1.00, 586.5, 513.0)">a</text><text xml:space="preserve" font-family="Helvetica-Light" font-size="45.0" fill="#FEFFFF" transform="matrix(1.00, 0.00, -0.00, -1.00, 611.5, 513.0)">s</text><text xml:space="preserve" font-family="Helvetica-Light" font-size="45.0" fill="#FEFFFF" transform="matrix(1.00, 0.00, -0.00, -1.00, 634.0, 513.0)">t</text><text xml:space="preserve" font-family="Helvetica-Light" font-size="45.0" fill="#FEFFFF" transform="matrix(1.00, 0.00, -0.00, -1.00, 646.5, 513.0)">/</text><text xml:space="preserve" font-family="Helvetica-Light" font-size="45.0" fill="#FEFFFF" transform="matrix(1.00, 0.00, -0.00, -1.00, 659.0, 513.0)"> </text><text xml:space="preserve" font-family="Helvetica-Light" font-size="45.0" fill="#FEFFFF" transform="matrix(1.00, 0.00, -0.00, -1.00, 671.5, 513.0)">C</text><text xml:space="preserve" font-family="Helvetica-Light" font-size="45.0" fill="#FEFFFF" transform="matrix(1.00, 0.00, -0.00, -1.00, 704.0, 513.0)">a</text><text xml:space="preserve" font-family="Helvetica-Light" font-size="45.0" fill="#FEFFFF" transform="matrix(1.00, 0.00, -0.00, -1.00, 729.1, 513.0)">i</text><text xml:space="preserve" font-family="Helvetica-Light" font-size="45.0" fill="#FEFFFF" transform="matrix(1.00, 0.00, -0.00, -1.00, 739.0, 513.0)">n</text><text xml:space="preserve" font-family="Helvetica-Light" font-size="45.0" fill="#FEFFFF" transform="matrix(1.00, 0.00, -0.00, -1.00, 764.1, 513.0)">k</text><text xml:space="preserve" font-family="Helvetica-Light" font-size="45.0" fill="#FEFFFF" transform="matrix(1.00, 0.00, -0.00, -1.00, 786.6, 513.0)">a</text><text xml:space="preserve" font-family="Helvetica-Light" font-size="45.0" fill="#FEFFFF" transform="matrix(1.00, 0.00, -0.00, -1.00, 811.6, 513.0)">d</text><text xml:space="preserve" font-family="Helvetica-Light" font-size="45.0" fill="#FEFFFF" transform="matrix(1.00, 0.00, -0.00, -1.00, 839.1, 513.0)">e</text><text xml:space="preserve" font-family="Helvetica-Light" font-size="45.0" fill="#FEFFFF" transform="matrix(1.00, 0.00, -0.00, -1.00, 864.1, 513.0)">,</text><text xml:space="preserve" font-family="Helvetica-Light" font-size="45.0" fill="#FEFFFF" transform="matrix(1.00, 0.00, -0.00, -1.00, 876.6, 513.0)"> </text><text xml:space="preserve" font-family="Helvetica-Light" font-size="45.0" fill="#FEFFFF" transform="matrix(1.00, 0.00, -0.00, -1.00, 889.1, 513.0)">A</text><text xml:space="preserve" font-family="Helvetica-Light" font-size="45.0" fill="#FEFFFF" transform="matrix(1.00, 0.00, -0.00, -1.00, 919.1, 513.0)">d</text><text xml:space="preserve" font-family="Helvetica-Light" font-size="45.0" fill="#FEFFFF" transform="matrix(1.00, 0.00, -0.00, -1.00, 946.6, 513.0)">a</text><text xml:space="preserve" font-family="Helvetica-Light" font-size="45.0" fill="#FEFFFF" transform="matrix(1.00, 0.00, -0.00, -1.00, 971.6, 513.0)">p</text><text xml:space="preserve" font-family="Helvetica-Light" font-size="45.0" fill="#FEFFFF" transform="matrix(1.00, 0.00, -0.00, -1.00, 999.1, 513.0)">t</text><text xml:space="preserve" font-family="Helvetica-Light" font-size="45.0" fill="#FEFFFF" transform="matrix(1.00, 0.00, -0.00, -1.00, 1011.7, 513.0)">i</text><text xml:space="preserve" font-family="Helvetica-Light" font-size="45.0" fill="#FEFFFF" transform="matrix(1.00, 0.00, -0.00, -1.00, 1021.6, 513.0)">v</text><text xml:space="preserve" font-family="Helvetica-Light" font-size="45.0" fill="#FEFFFF" transform="matrix(1.00, 0.00, -0.00, -1.00, 1044.1, 513.0)">e</text><text xml:space="preserve" font-family="Helvetica-Light" font-size="45.0" fill="#FEFFFF" transform="matrix(1.00, 0.00, -0.00, -1.00, 1069.2, 513.0)"> </text><text xml:space="preserve" font-family="Helvetica-Light" font-size="45.0" fill="#FEFFFF" transform="matrix(1.00, 0.00, -0.00, -1.00, 1081.7, 513.0)">P</text><text xml:space="preserve" font-family="Helvetica-Light" font-size="45.0" fill="#FEFFFF" transform="matrix(1.00, 0.00, -0.00, -1.00, 1109.2, 513.0)">a</text><text xml:space="preserve" font-family="Helvetica-Light" font-size="45.0" fill="#FEFFFF" transform="matrix(1.00, 0.00, -0.00, -1.00, 1134.2, 513.0)">t</text><text xml:space="preserve" font-family="Helvetica-Light" font-size="45.0" fill="#FEFFFF" transform="matrix(1.00, 0.00, -0.00, -1.00, 1146.7, 513.0)">h</text></g></svg>