<?xml version="1.0" encoding="UTF-8" standalone="no"?><svg xmlns="http://www.w3.org/2000/svg" xmlns:xlink="http://www.w3.org/1999/xlink" clip-rule="evenodd" stroke-miterlimit="4.00" viewBox="0 0 1920 1080"><desc>SVG generated by Keynote</desc><defs></defs><g transform="matrix(1.00, 0.00, -0.00, -1.00, 0.0, 1080.0)"><path d="M 0.0 1080.0 L 1920.0 1080.0 L 1920.0 0.0 L 0.0 0.0 Z M 0.0 1080.0 " fill="#00D0C0"></path><g opacity="0.70"><g><clipPath id="clip-275"><path d="M 0.0 0.0 L 1920.0 0.0 L 1920.0 1080.0 L 0.0 1080.0 Z M 0.0 0.0 "></path></clipPath><g clip-path="url(#clip-275)"><image xlink:href="../../D2786465-8DBD-44AC-B19B-B85BC026CD7A/assets/5432A229A722B1D91962AB70678B30EA.png" width="960.00" height="529.00" transform="matrix(2.09, 0.00, -0.00, -2.09, -42.0, 1093.0)"></image></g></g></g><text xml:space="preserve" font-family="OpenSans-Light" font-size="250.0" fill="#FEFFFE" transform="matrix(1.00, 0.00, -0.00, -1.00, 54.0, 626.0)">W</text><text xml:space="preserve" font-family="OpenSans-Light" font-size="250.0" fill="#FEFFFE" transform="matrix(1.00, 0.00, -0.00, -1.00, 277.0, 626.0)">h</text><text xml:space="preserve" font-family="OpenSans-Light" font-size="250.0" fill="#FEFFFE" transform="matrix(1.00, 0.00, -0.00, -1.00, 424.5, 626.0)">y</text><text xml:space="preserve" font-family="OpenSans-Light" font-size="250.0" fill="#FEFFFE" transform="matrix(1.00, 0.00, -0.00, -1.00, 539.2, 626.0)"> </text><text xml:space="preserve" font-family="OpenSans-Light" font-size="250.0" fill="#FEFFFE" transform="matrix(1.00, 0.00, -0.00, -1.00, 54.0, 354.0)">U</text><text xml:space="preserve" font-family="OpenSans-Light" font-size="250.0" fill="#FEFFFE" transform="matrix(1.00, 0.00, -0.00, -1.00, 233.9, 354.0)">s</text><g><clipPath id="clip-276"><path d="M 50.0 52.0 L 154.0 52.0 L 154.0 -1.0 L 50.0 -1.0 Z M 50.4 52.4 "></path></clipPath><g clip-path="url(#clip-276)"><image xlink:href="../../4F9A92A2-2DC6-4691-97F8-9F75BE53396F/assets/B22C448CED7C82A0C99889D0AD879A76.png" width="104.00" height="104.00" transform="matrix(1.00, 0.00, -0.00, -0.99, 50.0, 77.0)"></image></g></g></g></svg>