<svg xmlns="http://www.w3.org/2000/svg" xmlns:xlink="http://www.w3.org/1999/xlink" stroke-miterlimit="4" clip-rule="evenodd" viewBox="0 0 1920 1080"><desc>SVG generated by Keynote</desc><g transform="matrix(1.00, 0.00, -0.00, -1.00, 0.0, 1080.0)"><path fill="#FEFFFF" d="M 0.0 1080.0 L 1920.0 1080.0 L 1920.0 0.0 L 0.0 0.0 Z M 0.0 1080.0"/><image width="1025" height="768" transform="matrix(1.89, 0.00, -0.00, -1.89, -5.0, 1211.0)" xlink:href="../../4905F571-0901-4895-8507-57F18F793252/assets/B3B4DB649DB1397083271E4D7E2AA09D.jpeg"/><g><clipPath id="clip-386"><path d="M 50.0 52.0 L 154.0 52.0 L 154.0 -1.0 L 50.0 -1.0 Z M 50.4 52.4"/></clipPath><g clip-path="url(#clip-386)"><image width="104" height="104" transform="matrix(1.00, 0.00, -0.00, -0.99, 50.0, 77.0)" xlink:href="../../4F9A92A2-2DC6-4691-97F8-9F75BE53396F/assets/B22C448CED7C82A0C99889D0AD879A76.png"/></g></g><text fill="#FEFFFE" font-family="OpenSans-Bold" font-size="30" font-weight="bold" transform="matrix(1.00, 0.00, -0.00, -1.00, 54.0, 1014.0)" xml:space="preserve">W</text><text fill="#FEFFFE" font-family="OpenSans-Bold" font-size="30" font-weight="bold" transform="matrix(1.00, 0.00, -0.00, -1.00, 82.7, 1014.0)" xml:space="preserve">O</text><text fill="#FEFFFE" font-family="OpenSans-Bold" font-size="30" font-weight="bold" transform="matrix(1.00, 0.00, -0.00, -1.00, 106.6, 1014.0)" xml:space="preserve">R</text><text fill="#FEFFFE" font-family="OpenSans-Bold" font-size="30" font-weight="bold" transform="matrix(1.00, 0.00, -0.00, -1.00, 126.4, 1014.0)" xml:space="preserve">K</text><text fill="#FEFFFE" font-family="OpenSans-Bold" font-size="30" font-weight="bold" transform="matrix(1.00, 0.00, -0.00, -1.00, 146.3, 1014.0)" xml:space="preserve">S</text><text fill="#FEFFFE" font-family="OpenSans-Bold" font-size="30" font-weight="bold" transform="matrix(1.00, 0.00, -0.00, -1.00, 162.8, 1014.0)" xml:space="preserve">H</text><text fill="#FEFFFE" font-family="OpenSans-Bold" font-size="30" font-weight="bold" transform="matrix(1.00, 0.00, -0.00, -1.00, 185.8, 1014.0)" xml:space="preserve">O</text><text fill="#FEFFFE" font-family="OpenSans-Bold" font-size="30" font-weight="bold" transform="matrix(1.00, 0.00, -0.00, -1.00, 209.7, 1014.0)" xml:space="preserve">P</text><text fill="#FEFFFE" font-family="OpenSans-Bold" font-size="30" font-weight="bold" transform="matrix(1.00, 0.00, -0.00, -1.00, 228.5, 1014.0)" xml:space="preserve">S</text></g></svg>