<?xml version="1.0" encoding="UTF-8" standalone="no"?><svg xmlns="http://www.w3.org/2000/svg" xmlns:xlink="http://www.w3.org/1999/xlink" clip-rule="evenodd" stroke-miterlimit="4.00" viewBox="0 0 1920 1080"><desc>SVG generated by Keynote</desc><defs></defs><g transform="matrix(1.00, 0.00, -0.00, -1.00, 0.0, 1080.0)"><path d="M 0.0 1080.0 L 1920.0 1080.0 L 1920.0 0.0 L 0.0 0.0 Z M 0.0 1080.0 " fill="#FEFFFF"></path><g><clipPath id="clip-28"><path d="M 50.0 52.0 L 154.0 52.0 L 154.0 -1.0 L 50.0 -1.0 Z M 50.4 52.4 "></path></clipPath><g clip-path="url(#clip-28)"><image xlink:href="../../4F9A92A2-2DC6-4691-97F8-9F75BE53396F/assets/B22C448CED7C82A0C99889D0AD879A76.png" width="104.00" height="104.00" transform="matrix(1.00, 0.00, -0.00, -0.99, 50.0, 77.0)"></image></g></g><text xml:space="preserve" font-family="OpenSans-Bold" font-weight="bold" font-size="30.0" fill="#A6AAA8" transform="matrix(1.00, 0.00, -0.00, -1.00, 54.0, 1014.0)">I</text><text xml:space="preserve" font-family="OpenSans-Bold" font-weight="bold" font-size="30.0" fill="#A6AAA8" transform="matrix(1.00, 0.00, -0.00, -1.00, 63.9, 1014.0)">N</text><text xml:space="preserve" font-family="OpenSans-Bold" font-weight="bold" font-size="30.0" fill="#A6AAA8" transform="matrix(1.00, 0.00, -0.00, -1.00, 88.3, 1014.0)">T</text><text xml:space="preserve" font-family="OpenSans-Bold" font-weight="bold" font-size="30.0" fill="#A6AAA8" transform="matrix(1.00, 0.00, -0.00, -1.00, 105.7, 1014.0)">R</text><text xml:space="preserve" font-family="OpenSans-Bold" font-weight="bold" font-size="30.0" fill="#A6AAA8" transform="matrix(1.00, 0.00, -0.00, -1.00, 125.5, 1014.0)">O</text><image xlink:href="../../5929B03F-3530-4957-8C06-FC14F496CA82/assets/D780482F3C291F073D17DBF947C96DDD.png" width="401.00" height="401.00" transform="matrix(1.00, 0.00, -0.00, -1.00, 266.0, 899.0)"></image><image xlink:href="../../5929B03F-3530-4957-8C06-FC14F496CA82/assets/34F99AB7CC127E0E12AE0B95ADA3AA6D.png" width="231.00" height="228.00" transform="matrix(1.00, 0.00, -0.00, -1.00, 810.0, 823.0)"></image><image xlink:href="../../5929B03F-3530-4957-8C06-FC14F496CA82/assets/872127E30FB5AB0504D89A19FCCB0BAC.png" width="385.00" height="254.00" transform="matrix(1.00, 0.00, -0.00, -1.00, 299.0, 506.0)"></image><image xlink:href="../../5929B03F-3530-4957-8C06-FC14F496CA82/assets/0B140853814460F898B19292DB0D674A.png" width="439.00" height="132.00" transform="matrix(1.00, 0.00, -0.00, -1.00, 1167.0, 418.0)"></image><image xlink:href="../../5929B03F-3530-4957-8C06-FC14F496CA82/assets/3F8D64019B80484F07DE9285F9DCD508.png" width="337.00" height="238.00" transform="matrix(1.00, 0.00, -0.00, -1.00, 1219.0, 828.0)"></image><image xlink:href="../../5929B03F-3530-4957-8C06-FC14F496CA82/assets/475192ABBC7F4E1EFA7408423A8793B6.png" width="268.00" height="268.00" transform="matrix(1.00, 0.00, -0.00, -1.00, 792.0, 489.0)"></image></g></svg>