<svg xmlns="http://www.w3.org/2000/svg" xmlns:xlink="http://www.w3.org/1999/xlink" stroke-miterlimit="4" clip-rule="evenodd" viewBox="0 0 1920 1080"><desc>SVG generated by Keynote</desc><g transform="matrix(1.00, 0.00, -0.00, -1.00, 0.0, 1080.0)"><path fill="#FEFFFF" d="M 0.0 1080.0 L 1920.0 1080.0 L 1920.0 0.0 L 0.0 0.0 Z M 0.0 1080.0"/><g><clipPath id="clip-29"><path d="M 50.0 52.0 L 154.0 52.0 L 154.0 -1.0 L 50.0 -1.0 Z M 50.4 52.4"/></clipPath><g clip-path="url(#clip-29)"><image width="104" height="104" transform="matrix(1.00, 0.00, -0.00, -0.99, 50.0, 77.0)" xlink:href="../../4F9A92A2-2DC6-4691-97F8-9F75BE53396F/assets/B22C448CED7C82A0C99889D0AD879A76.png"/></g></g><image width="675" height="769" transform="matrix(1.41, 0.00, -0.00, -1.40, 1973.0, 1080.0)" xlink:href="DA9ECC8D8AB6D040D8613F323D7A6822.jpeg"/><text fill="#A6AAA8" font-family="OpenSans-Bold" font-size="30" font-weight="bold" transform="matrix(1.00, 0.00, -0.00, -1.00, 54.0, 1014.0)" xml:space="preserve">I</text><text fill="#A6AAA8" font-family="OpenSans-Bold" font-size="30" font-weight="bold" transform="matrix(1.00, 0.00, -0.00, -1.00, 63.9, 1014.0)" xml:space="preserve">N</text><text fill="#A6AAA8" font-family="OpenSans-Bold" font-size="30" font-weight="bold" transform="matrix(1.00, 0.00, -0.00, -1.00, 88.3, 1014.0)" xml:space="preserve">T</text><text fill="#A6AAA8" font-family="OpenSans-Bold" font-size="30" font-weight="bold" transform="matrix(1.00, 0.00, -0.00, -1.00, 105.7, 1014.0)" xml:space="preserve">R</text><text fill="#A6AAA8" font-family="OpenSans-Bold" font-size="30" font-weight="bold" transform="matrix(1.00, 0.00, -0.00, -1.00, 125.5, 1014.0)" xml:space="preserve">O</text><text fill="#52575F" font-family="OpenSans-Bold" font-size="165" font-weight="bold" transform="matrix(1.00, 0.00, -0.00, -1.00, 54.0, 800.0)" xml:space="preserve">2</text><text fill="#52575F" font-family="OpenSans-Bold" font-size="165" font-weight="bold" transform="matrix(1.00, 0.00, -0.00, -1.00, 148.1, 800.0)" xml:space="preserve">6</text><text fill="#52575F" font-family="OpenSans-Light" font-size="165" transform="matrix(1.00, 0.00, -0.00, -1.00, 285.2, 800.0)" xml:space="preserve">B</text><text fill="#52575F" font-family="OpenSans-Light" font-size="165" transform="matrix(1.00, 0.00, -0.00, -1.00, 388.7, 800.0)" xml:space="preserve">u</text><text fill="#52575F" font-family="OpenSans-Light" font-size="165" transform="matrix(1.00, 0.00, -0.00, -1.00, 486.0, 800.0)" xml:space="preserve">s</text><text fill="#52575F" font-family="OpenSans-Light" font-size="165" transform="matrix(1.00, 0.00, -0.00, -1.00, 562.8, 800.0)" xml:space="preserve">i</text><text fill="#52575F" font-family="OpenSans-Light" font-size="165" transform="matrix(1.00, 0.00, -0.00, -1.00, 600.1, 800.0)" xml:space="preserve">n</text><text fill="#52575F" font-family="OpenSans-Light" font-size="165" transform="matrix(1.00, 0.00, -0.00, -1.00, 697.4, 800.0)" xml:space="preserve">e</text><text fill="#52575F" font-family="OpenSans-Light" font-size="165" transform="matrix(1.00, 0.00, -0.00, -1.00, 787.9, 800.0)" xml:space="preserve">s</text><text fill="#52575F" font-family="OpenSans-Light" font-size="165" transform="matrix(1.00, 0.00, -0.00, -1.00, 864.8, 800.0)" xml:space="preserve">s</text><text fill="#52575F" font-family="OpenSans-Light" font-size="165" transform="matrix(1.00, 0.00, -0.00, -1.00, 941.6, 800.0)" xml:space="preserve">e</text><text fill="#52575F" font-family="OpenSans-Light" font-size="165" transform="matrix(1.00, 0.00, -0.00, -1.00, 1032.1, 800.0)" xml:space="preserve">s</text><path fill="none" stroke="#DCDDE0" stroke-width="3" d="M 0.0 0.0 L 1775.0 0.0" transform="matrix(1.00, 0.00, 0.00, -1.00, 58.0, 707.3)"/><image width="567" height="213" transform="matrix(1.00, 0.00, -0.00, -1.00, -1.0, 650.0)" xlink:href="FA1494D184309C6E1D12B516EFF5733A.png"/><image width="374" height="204" transform="matrix(1.00, 0.00, -0.00, -1.00, 436.0, 356.0)" xlink:href="20BC29824194ED2553F20AB565DD1364.jpeg"/><image width="439" height="132" transform="matrix(0.91, 0.00, -0.00, -0.91, 991.0, 294.0)" xlink:href="../../5929B03F-3530-4957-8C06-FC14F496CA82/assets/0B140853814460F898B19292DB0D674A.png"/><image width="163" height="132" transform="matrix(0.99, 0.00, -0.00, -1.00, 1168.0, 594.0)" xlink:href="5253144E3C8E48375B6F6DB1C707250F.png"/><image width="291" height="177" transform="matrix(1.00, 0.00, -0.00, -1.00, 1538.0, 617.0)" xlink:href="0D150D1601209B74C9E347AB732074FE.png"/><image width="357" height="93" transform="matrix(1.00, 0.00, -0.00, -1.01, 661.0, 575.0)" xlink:href="6A33D947DD7E1D94E509FFE8410AD75B.png"/><image width="204" height="177" transform="matrix(1.00, 0.00, -0.00, -0.99, 52.0, 361.0)" xlink:href="9191737FB78557B0BAE5F3AD3626C812.png"/><image width="449" height="346" transform="matrix(1.00, 0.00, -0.00, -1.00, 1443.0, 430.0)" xlink:href="4294F52B1B7FC5DE456EF3E3D4543529.png"/></g></svg>