<?xml version="1.0" encoding="UTF-8" standalone="no"?><svg xmlns="http://www.w3.org/2000/svg" xmlns:xlink="http://www.w3.org/1999/xlink" clip-rule="evenodd" stroke-miterlimit="4.00" viewBox="0 0 1920 1080"><desc>SVG generated by Keynote</desc><defs></defs><g transform="matrix(1.00, 0.00, -0.00, -1.00, 0.0, 1080.0)"><path d="M 0.0 1080.0 L 1920.0 1080.0 L 1920.0 0.0 L 0.0 0.0 Z M 0.0 1080.0 " fill="#FEFFFF"></path><g><clipPath id="clip-29"><path d="M 50.0 52.0 L 154.0 52.0 L 154.0 -1.0 L 50.0 -1.0 Z M 50.4 52.4 "></path></clipPath><g clip-path="url(#clip-29)"><image xlink:href="../../4F9A92A2-2DC6-4691-97F8-9F75BE53396F/assets/B22C448CED7C82A0C99889D0AD879A76.png" width="104.00" height="104.00" transform="matrix(1.00, 0.00, -0.00, -0.99, 50.0, 77.0)"></image></g></g><image xlink:href="DA9ECC8D8AB6D040D8613F323D7A6822.jpeg" width="675.00" height="769.00" transform="matrix(1.41, 0.00, -0.00, -1.40, 1973.0, 1080.0)"></image><text xml:space="preserve" font-family="OpenSans-Bold" font-weight="bold" font-size="30.0" fill="#A6AAA8" transform="matrix(1.00, 0.00, -0.00, -1.00, 54.0, 1014.0)">I</text><text xml:space="preserve" font-family="OpenSans-Bold" font-weight="bold" font-size="30.0" fill="#A6AAA8" transform="matrix(1.00, 0.00, -0.00, -1.00, 63.9, 1014.0)">N</text><text xml:space="preserve" font-family="OpenSans-Bold" font-weight="bold" font-size="30.0" fill="#A6AAA8" transform="matrix(1.00, 0.00, -0.00, -1.00, 88.3, 1014.0)">T</text><text xml:space="preserve" font-family="OpenSans-Bold" font-weight="bold" font-size="30.0" fill="#A6AAA8" transform="matrix(1.00, 0.00, -0.00, -1.00, 105.7, 1014.0)">R</text><text xml:space="preserve" font-family="OpenSans-Bold" font-weight="bold" font-size="30.0" fill="#A6AAA8" transform="matrix(1.00, 0.00, -0.00, -1.00, 125.5, 1014.0)">O</text><text xml:space="preserve" font-family="OpenSans-Bold" font-weight="bold" font-size="165.0" fill="#52575F" transform="matrix(1.00, 0.00, -0.00, -1.00, 54.0, 800.0)">2</text><text xml:space="preserve" font-family="OpenSans-Bold" font-weight="bold" font-size="165.0" fill="#52575F" transform="matrix(1.00, 0.00, -0.00, -1.00, 148.1, 800.0)">6</text><text xml:space="preserve" font-family="OpenSans-Bold" font-weight="bold" font-size="165.0" fill="#52575F" transform="matrix(1.00, 0.00, -0.00, -1.00, 242.3, 800.0)"> </text><text xml:space="preserve" font-family="OpenSans-Light" font-size="165.0" fill="#52575F" transform="matrix(1.00, 0.00, -0.00, -1.00, 285.2, 800.0)">B</text><text xml:space="preserve" font-family="OpenSans-Light" font-size="165.0" fill="#52575F" transform="matrix(1.00, 0.00, -0.00, -1.00, 388.7, 800.0)">u</text><text xml:space="preserve" font-family="OpenSans-Light" font-size="165.0" fill="#52575F" transform="matrix(1.00, 0.00, -0.00, -1.00, 486.0, 800.0)">s</text><text xml:space="preserve" font-family="OpenSans-Light" font-size="165.0" fill="#52575F" transform="matrix(1.00, 0.00, -0.00, -1.00, 562.8, 800.0)">i</text><text xml:space="preserve" font-family="OpenSans-Light" font-size="165.0" fill="#52575F" transform="matrix(1.00, 0.00, -0.00, -1.00, 600.1, 800.0)">n</text><text xml:space="preserve" font-family="OpenSans-Light" font-size="165.0" fill="#52575F" transform="matrix(1.00, 0.00, -0.00, -1.00, 697.4, 800.0)">e</text><text xml:space="preserve" font-family="OpenSans-Light" font-size="165.0" fill="#52575F" transform="matrix(1.00, 0.00, -0.00, -1.00, 787.9, 800.0)">s</text><text xml:space="preserve" font-family="OpenSans-Light" font-size="165.0" fill="#52575F" transform="matrix(1.00, 0.00, -0.00, -1.00, 864.8, 800.0)">s</text><text xml:space="preserve" font-family="OpenSans-Light" font-size="165.0" fill="#52575F" transform="matrix(1.00, 0.00, -0.00, -1.00, 941.6, 800.0)">e</text><text xml:space="preserve" font-family="OpenSans-Light" font-size="165.0" fill="#52575F" transform="matrix(1.00, 0.00, -0.00, -1.00, 1032.1, 800.0)">s</text><path d="M 0.0 0.0 L 1775.0 0.0 " fill="none" stroke="#DCDDE0" stroke-width="3.00" transform="matrix(1.00, 0.00, 0.00, -1.00, 58.0, 707.3)"></path><image xlink:href="FA1494D184309C6E1D12B516EFF5733A.png" width="567.00" height="213.00" transform="matrix(1.00, 0.00, -0.00, -1.00, -1.0, 650.0)"></image><image xlink:href="20BC29824194ED2553F20AB565DD1364.jpeg" width="374.00" height="204.00" transform="matrix(1.00, 0.00, -0.00, -1.00, 436.0, 356.0)"></image><image xlink:href="../../5929B03F-3530-4957-8C06-FC14F496CA82/assets/0B140853814460F898B19292DB0D674A.png" width="439.00" height="132.00" transform="matrix(0.91, 0.00, -0.00, -0.91, 991.0, 294.0)"></image><image xlink:href="5253144E3C8E48375B6F6DB1C707250F.png" width="163.00" height="132.00" transform="matrix(0.99, 0.00, -0.00, -1.00, 1168.0, 594.0)"></image><image xlink:href="0D150D1601209B74C9E347AB732074FE.png" width="291.00" height="177.00" transform="matrix(1.00, 0.00, -0.00, -1.00, 1538.0, 617.0)"></image><image xlink:href="6A33D947DD7E1D94E509FFE8410AD75B.png" width="357.00" height="93.00" transform="matrix(1.00, 0.00, -0.00, -1.01, 661.0, 575.0)"></image><image xlink:href="9191737FB78557B0BAE5F3AD3626C812.png" width="204.00" height="177.00" transform="matrix(1.00, 0.00, -0.00, -0.99, 52.0, 361.0)"></image><image xlink:href="4294F52B1B7FC5DE456EF3E3D4543529.png" width="449.00" height="346.00" transform="matrix(1.00, 0.00, -0.00, -1.00, 1443.0, 430.0)"></image></g></svg>