<svg xmlns="http://www.w3.org/2000/svg" xmlns:xlink="http://www.w3.org/1999/xlink" stroke-miterlimit="4" clip-rule="evenodd" viewBox="0 0 1920 1080"><desc>SVG generated by Keynote</desc><g transform="matrix(1.00, 0.00, -0.00, -1.00, 0.0, 1080.0)"><path fill="#FEFFFF" d="M 0.0 1080.0 L 1920.0 1080.0 L 1920.0 0.0 L 0.0 0.0 Z M 0.0 1080.0"/><image width="810" height="539" transform="matrix(2.38, 0.00, -0.00, -2.38, -3.0, 927.0)" xlink:href="../../3CFA3691-B5E6-4547-849A-6C646FBF9711/assets/CBDC2BC1114754A020F0F55EEFBB303F.png"/><text fill="#52575F" font-family="OpenSans-Light" font-size="250" transform="matrix(1.00, 0.00, -0.00, -1.00, 54.0, 626.0)" xml:space="preserve">Q</text><text fill="#52575F" font-family="OpenSans-Light" font-size="250" transform="matrix(1.00, 0.00, -0.00, -1.00, 245.1, 626.0)" xml:space="preserve">u</text><text fill="#52575F" font-family="OpenSans-Light" font-size="250" transform="matrix(1.00, 0.00, -0.00, -1.00, 392.5, 626.0)" xml:space="preserve">e</text><text fill="#52575F" font-family="OpenSans-Light" font-size="250" transform="matrix(1.00, 0.00, -0.00, -1.00, 529.7, 626.0)" xml:space="preserve">s</text><text fill="#52575F" font-family="OpenSans-Light" font-size="250" transform="matrix(1.00, 0.00, -0.00, -1.00, 646.1, 626.0)" xml:space="preserve">t</text><text fill="#52575F" font-family="OpenSans-Light" font-size="250" transform="matrix(1.00, 0.00, -0.00, -1.00, 729.8, 626.0)" xml:space="preserve">i</text><text fill="#52575F" font-family="OpenSans-Light" font-size="250" transform="matrix(1.00, 0.00, -0.00, -1.00, 786.3, 626.0)" xml:space="preserve">o</text><text fill="#52575F" font-family="OpenSans-Light" font-size="250" transform="matrix(1.00, 0.00, -0.00, -1.00, 932.8, 626.0)" xml:space="preserve">n</text><text fill="#52575F" font-family="OpenSans-Light" font-size="250" transform="matrix(1.00, 0.00, -0.00, -1.00, 1080.2, 626.0)" xml:space="preserve">s</text><text fill="#52575F" font-family="OpenSans-Light" font-size="250" transform="matrix(1.00, 0.00, -0.00, -1.00, 1196.6, 626.0)" xml:space="preserve">?</text><g><clipPath id="clip-412"><path d="M 50.0 52.0 L 154.0 52.0 L 154.0 -1.0 L 50.0 -1.0 Z M 50.4 52.4"/></clipPath><g clip-path="url(#clip-412)"><image width="104" height="104" transform="matrix(1.00, 0.00, -0.00, -0.99, 50.0, 77.0)" xlink:href="../../4F9A92A2-2DC6-4691-97F8-9F75BE53396F/assets/B22C448CED7C82A0C99889D0AD879A76.png"/></g></g></g></svg>