<svg xmlns="http://www.w3.org/2000/svg" xmlns:xlink="http://www.w3.org/1999/xlink" stroke-miterlimit="4" clip-rule="evenodd" viewBox="0 0 1920 1080"><desc>SVG generated by Keynote</desc><g transform="matrix(1.00, 0.00, -0.00, -1.00, 0.0, 1080.0)"><path fill="#000" d="M 0.0 1080.0 L 1920.0 1080.0 L 1920.0 0.0 L 0.0 0.0 Z M 0.0 1080.0"/><image width="1280" height="720" transform="matrix(1.68, 0.00, -0.00, -1.68, 0.0, 1086.0)" xlink:href="../../FD07B97B-B618-46B9-8411-E891208C7A13/assets/E55CB6F7CE05F3F2C8A152E104DA487F.jpeg"/><text fill="#FEFFFF" font-family="Helvetica-Bold" font-size="90" font-weight="bold" transform="matrix(1.00, 0.00, -0.00, -1.00, 538.0, 629.0)" xml:space="preserve">P</text><text fill="#FEFFFF" font-family="Helvetica-Bold" font-size="90" font-weight="bold" transform="matrix(1.00, 0.00, -0.00, -1.00, 598.0, 629.0)" xml:space="preserve">o</text><text fill="#FEFFFF" font-family="Helvetica-Bold" font-size="90" font-weight="bold" transform="matrix(1.00, 0.00, -0.00, -1.00, 653.0, 629.0)" xml:space="preserve">s</text><text fill="#FEFFFF" font-family="Helvetica-Bold" font-size="90" font-weight="bold" transform="matrix(1.00, 0.00, -0.00, -1.00, 703.1, 629.0)" xml:space="preserve">t</text><text fill="#FEFFFF" font-family="Helvetica-Bold" font-size="90" font-weight="bold" transform="matrix(1.00, 0.00, -0.00, -1.00, 758.0, 629.0)" xml:space="preserve">L</text><text fill="#FEFFFF" font-family="Helvetica-Bold" font-size="90" font-weight="bold" transform="matrix(1.00, 0.00, -0.00, -1.00, 813.0, 629.0)" xml:space="preserve">a</text><text fill="#FEFFFF" font-family="Helvetica-Bold" font-size="90" font-weight="bold" transform="matrix(1.00, 0.00, -0.00, -1.00, 863.0, 629.0)" xml:space="preserve">u</text><text fill="#FEFFFF" font-family="Helvetica-Bold" font-size="90" font-weight="bold" transform="matrix(1.00, 0.00, -0.00, -1.00, 918.0, 629.0)" xml:space="preserve">n</text><text fill="#FEFFFF" font-family="Helvetica-Bold" font-size="90" font-weight="bold" transform="matrix(1.00, 0.00, -0.00, -1.00, 973.0, 629.0)" xml:space="preserve">c</text><text fill="#FEFFFF" font-family="Helvetica-Bold" font-size="90" font-weight="bold" transform="matrix(1.00, 0.00, -0.00, -1.00, 1023.0, 629.0)" xml:space="preserve">h</text><text fill="#FEFFFF" font-family="Helvetica-Bold" font-size="90" font-weight="bold" transform="matrix(1.00, 0.00, -0.00, -1.00, 1103.0, 629.0)" xml:space="preserve">S</text><text fill="#FEFFFF" font-family="Helvetica-Bold" font-size="90" font-weight="bold" transform="matrix(1.00, 0.00, -0.00, -1.00, 1163.0, 629.0)" xml:space="preserve">t</text><text fill="#FEFFFF" font-family="Helvetica-Bold" font-size="90" font-weight="bold" transform="matrix(1.00, 0.00, -0.00, -1.00, 1193.0, 629.0)" xml:space="preserve">a</text><text fill="#FEFFFF" font-family="Helvetica-Bold" font-size="90" font-weight="bold" transform="matrix(1.00, 0.00, -0.00, -1.00, 1243.0, 629.0)" xml:space="preserve">r</text><text fill="#FEFFFF" font-family="Helvetica-Bold" font-size="90" font-weight="bold" transform="matrix(1.00, 0.00, -0.00, -1.00, 1278.1, 629.0)" xml:space="preserve">t</text><text fill="#FEFFFF" font-family="Helvetica-Bold" font-size="90" font-weight="bold" transform="matrix(1.00, 0.00, -0.00, -1.00, 1308.1, 629.0)" xml:space="preserve">u</text><text fill="#FEFFFF" font-family="Helvetica-Bold" font-size="90" font-weight="bold" transform="matrix(1.00, 0.00, -0.00, -1.00, 1363.0, 629.0)" xml:space="preserve">p</text><text fill="#FEFFFF" font-family="Helvetica-Bold" font-size="90" font-weight="bold" transform="matrix(1.00, 0.00, -0.00, -1.00, 1418.0, 629.0)" xml:space="preserve">s</text></g></svg>