<svg xmlns="http://www.w3.org/2000/svg" xmlns:xlink="http://www.w3.org/1999/xlink" stroke-miterlimit="4" clip-rule="evenodd" viewBox="0 0 1920 1080"><desc>SVG generated by Keynote</desc><g transform="matrix(1.00, 0.00, -0.00, -1.00, 0.0, 1080.0)"><path fill="#FEFFFF" d="M 0.0 1080.0 L 1920.0 1080.0 L 1920.0 0.0 L 0.0 0.0 Z M 0.0 1080.0"/><image width="451" height="327" transform="matrix(1.00, 0.00, -0.00, -1.00, -100.0, 790.0)" xlink:href="../../95B1A7D9-ABF7-4911-87AC-46CB992C9B36/assets/96156F1A5932620F0ED1A236D810ABEC.jpeg"/><g><clipPath id="clip-346"><path d="M 50.0 52.0 L 154.0 52.0 L 154.0 -1.0 L 50.0 -1.0 Z M 50.4 52.4"/></clipPath><g clip-path="url(#clip-346)"><image width="104" height="104" transform="matrix(1.00, 0.00, -0.00, -0.99, 50.0, 77.0)" xlink:href="../../4F9A92A2-2DC6-4691-97F8-9F75BE53396F/assets/B22C448CED7C82A0C99889D0AD879A76.png"/></g></g><text fill="#A6AAA8" font-family="OpenSans-Bold" font-size="30" font-weight="bold" transform="matrix(1.00, 0.00, -0.00, -1.00, 54.0, 1014.0)" xml:space="preserve">V</text><text fill="#A6AAA8" font-family="OpenSans-Bold" font-size="30" font-weight="bold" transform="matrix(1.00, 0.00, -0.00, -1.00, 72.3, 1014.0)" xml:space="preserve">A</text><text fill="#A6AAA8" font-family="OpenSans-Bold" font-size="30" font-weight="bold" transform="matrix(1.00, 0.00, -0.00, -1.00, 93.0, 1014.0)" xml:space="preserve">L</text><text fill="#A6AAA8" font-family="OpenSans-Bold" font-size="30" font-weight="bold" transform="matrix(1.00, 0.00, -0.00, -1.00, 109.9, 1014.0)" xml:space="preserve">I</text><text fill="#A6AAA8" font-family="OpenSans-Bold" font-size="30" font-weight="bold" transform="matrix(1.00, 0.00, -0.00, -1.00, 119.9, 1014.0)" xml:space="preserve">D</text><text fill="#A6AAA8" font-family="OpenSans-Bold" font-size="30" font-weight="bold" transform="matrix(1.00, 0.00, -0.00, -1.00, 141.5, 1014.0)" xml:space="preserve">A</text><text fill="#A6AAA8" font-family="OpenSans-Bold" font-size="30" font-weight="bold" transform="matrix(1.00, 0.00, -0.00, -1.00, 160.1, 1014.0)" xml:space="preserve">T</text><text fill="#A6AAA8" font-family="OpenSans-Bold" font-size="30" font-weight="bold" transform="matrix(1.00, 0.00, -0.00, -1.00, 177.4, 1014.0)" xml:space="preserve">I</text><text fill="#A6AAA8" font-family="OpenSans-Bold" font-size="30" font-weight="bold" transform="matrix(1.00, 0.00, -0.00, -1.00, 187.4, 1014.0)" xml:space="preserve">O</text><text fill="#A6AAA8" font-family="OpenSans-Bold" font-size="30" font-weight="bold" transform="matrix(1.00, 0.00, -0.00, -1.00, 211.2, 1014.0)" xml:space="preserve">N</text><image width="163" height="132" transform="matrix(0.99, 0.00, -0.00, -1.00, 50.0, 917.0)" xlink:href="../../44CDB6CA-22C4-4C7E-9169-77206C966AAE/assets/5253144E3C8E48375B6F6DB1C707250F.png"/><text fill="#52575F" font-family="OpenSans-Light" font-size="65" transform="matrix(1.00, 0.00, -0.00, -1.00, 284.0, 826.0)" xml:space="preserve">G</text><text fill="#52575F" font-family="OpenSans-Light" font-size="65" transform="matrix(1.00, 0.00, -0.00, -1.00, 331.0, 826.0)" xml:space="preserve">r</text><text fill="#52575F" font-family="OpenSans-Light" font-size="65" transform="matrix(1.00, 0.00, -0.00, -1.00, 355.0, 826.0)" xml:space="preserve">o</text><text fill="#52575F" font-family="OpenSans-Light" font-size="65" transform="matrix(1.00, 0.00, -0.00, -1.00, 391.8, 826.0)" xml:space="preserve">w</text><text fill="#52575F" font-family="OpenSans-Light" font-size="65" transform="matrix(1.00, 0.00, -0.00, -1.00, 438.8, 826.0)" xml:space="preserve">t</text><text fill="#52575F" font-family="OpenSans-Light" font-size="65" transform="matrix(1.00, 0.00, -0.00, -1.00, 460.6, 826.0)" xml:space="preserve">h</text><text fill="#52575F" font-family="OpenSans-Light" font-size="65" transform="matrix(1.00, 0.00, -0.00, -1.00, 515.8, 826.0)" xml:space="preserve">u</text><text fill="#52575F" font-family="OpenSans-Light" font-size="65" transform="matrix(1.00, 0.00, -0.00, -1.00, 554.1, 826.0)" xml:space="preserve">p</text><text fill="#52575F" font-family="OpenSans-Light" font-size="65" transform="matrix(1.00, 0.00, -0.00, -1.00, 609.7, 826.0)" xml:space="preserve">4</text><text fill="#52575F" font-family="OpenSans-Light" font-size="65" transform="matrix(1.00, 0.00, -0.00, -1.00, 646.8, 826.0)" xml:space="preserve">3</text><text fill="#52575F" font-family="OpenSans-Light" font-size="65" transform="matrix(1.00, 0.00, -0.00, -1.00, 683.9, 826.0)" xml:space="preserve">0</text><text fill="#52575F" font-family="OpenSans-Light" font-size="65" transform="matrix(1.00, 0.00, -0.00, -1.00, 720.9, 826.0)" xml:space="preserve">0</text><text fill="#52575F" font-family="OpenSans-Light" font-size="65" transform="matrix(1.00, 0.00, -0.00, -1.00, 758.0, 826.0)" xml:space="preserve">%</text><text fill="#52575F" font-family="OpenSans-Light" font-size="65" transform="matrix(1.00, 0.00, -0.00, -1.00, 827.4, 826.0)" xml:space="preserve">u</text><text fill="#52575F" font-family="OpenSans-Light" font-size="65" transform="matrix(1.00, 0.00, -0.00, -1.00, 865.7, 826.0)" xml:space="preserve">p</text><text fill="#52575F" font-family="OpenSans-Light" font-size="65" transform="matrix(1.00, 0.00, -0.00, -1.00, 921.3, 826.0)" xml:space="preserve">2</text><text fill="#52575F" font-family="OpenSans-Light" font-size="65" transform="matrix(1.00, 0.00, -0.00, -1.00, 958.4, 826.0)" xml:space="preserve">6</text><text fill="#52575F" font-family="OpenSans-Light" font-size="65" transform="matrix(1.00, 0.00, -0.00, -1.00, 995.5, 826.0)" xml:space="preserve">4</text><text fill="#52575F" font-family="OpenSans-Light" font-size="65" transform="matrix(1.00, 0.00, -0.00, -1.00, 1049.4, 826.0)" xml:space="preserve">p</text><text fill="#52575F" font-family="OpenSans-Light" font-size="65" transform="matrix(1.00, 0.00, -0.00, -1.00, 1088.1, 826.0)" xml:space="preserve">r</text><text fill="#52575F" font-family="OpenSans-Light" font-size="65" transform="matrix(1.00, 0.00, -0.00, -1.00, 1112.1, 826.0)" xml:space="preserve">o</text><text fill="#52575F" font-family="OpenSans-Light" font-size="65" transform="matrix(1.00, 0.00, -0.00, -1.00, 1150.2, 826.0)" xml:space="preserve">ï¬</text><text fill="#52575F" font-family="OpenSans-Light" font-size="65" transform="matrix(1.00, 0.00, -0.00, -1.00, 1184.4, 826.0)" xml:space="preserve">l</text><text fill="#52575F" font-family="OpenSans-Light" font-size="65" transform="matrix(1.00, 0.00, -0.00, -1.00, 1199.1, 826.0)" xml:space="preserve">e</text><text fill="#52575F" font-family="OpenSans-Light" font-size="65" transform="matrix(1.00, 0.00, -0.00, -1.00, 1251.6, 826.0)" xml:space="preserve">a</text><text fill="#52575F" font-family="OpenSans-Light" font-size="65" transform="matrix(1.00, 0.00, -0.00, -1.00, 1286.0, 826.0)" xml:space="preserve">n</text><text fill="#52575F" font-family="OpenSans-Light" font-size="65" transform="matrix(1.00, 0.00, -0.00, -1.00, 1324.4, 826.0)" xml:space="preserve">d</text><text fill="#52575F" font-family="OpenSans-Light" font-size="65" transform="matrix(1.00, 0.00, -0.00, -1.00, 1379.9, 826.0)" xml:space="preserve">1</text><text fill="#52575F" font-family="OpenSans-Light" font-size="65" transform="matrix(1.00, 0.00, -0.00, -1.00, 1417.0, 826.0)" xml:space="preserve">6</text><text fill="#52575F" font-family="OpenSans-Light" font-size="65" transform="matrix(1.00, 0.00, -0.00, -1.00, 1454.1, 826.0)" xml:space="preserve">8</text><text fill="#52575F" font-family="OpenSans-Light" font-size="65" transform="matrix(1.00, 0.00, -0.00, -1.00, 1508.1, 826.0)" xml:space="preserve">i</text><text fill="#52575F" font-family="OpenSans-Light" font-size="65" transform="matrix(1.00, 0.00, -0.00, -1.00, 1522.8, 826.0)" xml:space="preserve">m</text><text fill="#52575F" font-family="OpenSans-Light" font-size="65" transform="matrix(1.00, 0.00, -0.00, -1.00, 1580.1, 826.0)" xml:space="preserve">p</text><text fill="#52575F" font-family="OpenSans-Light" font-size="65" transform="matrix(1.00, 0.00, -0.00, -1.00, 1618.8, 826.0)" xml:space="preserve">r</text><text fill="#52575F" font-family="OpenSans-Light" font-size="65" transform="matrix(1.00, 0.00, -0.00, -1.00, 1642.8, 826.0)" xml:space="preserve">e</text><text fill="#52575F" font-family="OpenSans-Light" font-size="65" transform="matrix(1.00, 0.00, -0.00, -1.00, 1678.5, 826.0)" xml:space="preserve">s</text><text fill="#52575F" font-family="OpenSans-Light" font-size="65" transform="matrix(1.00, 0.00, -0.00, -1.00, 1708.8, 826.0)" xml:space="preserve">s</text><text fill="#52575F" font-family="OpenSans-Light" font-size="65" transform="matrix(1.00, 0.00, -0.00, -1.00, 1739.0, 826.0)" xml:space="preserve">i</text><text fill="#52575F" font-family="OpenSans-Light" font-size="65" transform="matrix(1.00, 0.00, -0.00, -1.00, 1753.7, 826.0)" xml:space="preserve">o</text><text fill="#52575F" font-family="OpenSans-Light" font-size="65" transform="matrix(1.00, 0.00, -0.00, -1.00, 1791.8, 826.0)" xml:space="preserve">n</text><text fill="#52575F" font-family="OpenSans-Light" font-size="65" transform="matrix(1.00, 0.00, -0.00, -1.00, 1830.1, 826.0)" xml:space="preserve">s</text><image width="163" height="163" transform="matrix(0.99, 0.00, -0.00, -0.99, 50.0, 483.0)" xlink:href="../../95B1A7D9-ABF7-4911-87AC-46CB992C9B36/assets/C393B06510FD96788ED4764BFB68B48A.png"/><text fill="#52575F" font-family="OpenSans-Light" font-size="65" transform="matrix(1.00, 0.00, -0.00, -1.00, 284.0, 601.0)" xml:space="preserve">1</text><text fill="#52575F" font-family="OpenSans-Light" font-size="65" transform="matrix(1.00, 0.00, -0.00, -1.00, 321.1, 601.0)" xml:space="preserve">7</text><text fill="#52575F" font-family="OpenSans-Light" font-size="65" transform="matrix(1.00, 0.00, -0.00, -1.00, 358.2, 601.0)" xml:space="preserve">2</text><text fill="#52575F" font-family="OpenSans-Light" font-size="65" transform="matrix(1.00, 0.00, -0.00, -1.00, 412.1, 601.0)" xml:space="preserve">v</text><text fill="#52575F" font-family="OpenSans-Light" font-size="65" transform="matrix(1.00, 0.00, -0.00, -1.00, 442.0, 601.0)" xml:space="preserve">i</text><text fill="#52575F" font-family="OpenSans-Light" font-size="65" transform="matrix(1.00, 0.00, -0.00, -1.00, 456.7, 601.0)" xml:space="preserve">e</text><text fill="#52575F" font-family="OpenSans-Light" font-size="65" transform="matrix(1.00, 0.00, -0.00, -1.00, 491.0, 601.0)" xml:space="preserve">w</text><text fill="#52575F" font-family="OpenSans-Light" font-size="65" transform="matrix(1.00, 0.00, -0.00, -1.00, 538.0, 601.0)" xml:space="preserve">s</text><text fill="#52575F" font-family="OpenSans-Light" font-size="65" transform="matrix(1.00, 0.00, -0.00, -1.00, 585.2, 601.0)" xml:space="preserve">/</text><text fill="#52575F" font-family="OpenSans-Light" font-size="65" transform="matrix(1.00, 0.00, -0.00, -1.00, 624.2, 601.0)" xml:space="preserve">1</text><text fill="#52575F" font-family="OpenSans-Light" font-size="65" transform="matrix(1.00, 0.00, -0.00, -1.00, 661.3, 601.0)" xml:space="preserve">1</text><text fill="#52575F" font-family="OpenSans-Light" font-size="65" transform="matrix(1.00, 0.00, -0.00, -1.00, 698.4, 601.0)" xml:space="preserve">0</text><text fill="#52575F" font-family="OpenSans-Light" font-size="65" transform="matrix(1.00, 0.00, -0.00, -1.00, 752.3, 601.0)" xml:space="preserve">r</text><text fill="#52575F" font-family="OpenSans-Light" font-size="65" transform="matrix(1.00, 0.00, -0.00, -1.00, 776.3, 601.0)" xml:space="preserve">e</text><text fill="#52575F" font-family="OpenSans-Light" font-size="65" transform="matrix(1.00, 0.00, -0.00, -1.00, 812.0, 601.0)" xml:space="preserve">a</text><text fill="#52575F" font-family="OpenSans-Light" font-size="65" transform="matrix(1.00, 0.00, -0.00, -1.00, 846.4, 601.0)" xml:space="preserve">d</text><text fill="#52575F" font-family="OpenSans-Light" font-size="65" transform="matrix(1.00, 0.00, -0.00, -1.00, 885.1, 601.0)" xml:space="preserve">s</text><text fill="#52575F" font-family="OpenSans-Light" font-size="65" transform="matrix(1.00, 0.00, -0.00, -1.00, 284.0, 377.0)" xml:space="preserve">7</text><text fill="#52575F" font-family="OpenSans-Light" font-size="65" transform="matrix(1.00, 0.00, -0.00, -1.00, 321.1, 377.0)" xml:space="preserve">6</text><text fill="#52575F" font-family="OpenSans-Light" font-size="65" transform="matrix(1.00, 0.00, -0.00, -1.00, 375.0, 377.0)" xml:space="preserve">l</text><text fill="#52575F" font-family="OpenSans-Light" font-size="65" transform="matrix(1.00, 0.00, -0.00, -1.00, 389.7, 377.0)" xml:space="preserve">i</text><text fill="#52575F" font-family="OpenSans-Light" font-size="65" transform="matrix(1.00, 0.00, -0.00, -1.00, 404.4, 377.0)" xml:space="preserve">k</text><text fill="#52575F" font-family="OpenSans-Light" font-size="65" transform="matrix(1.00, 0.00, -0.00, -1.00, 434.6, 377.0)" xml:space="preserve">e</text><text fill="#52575F" font-family="OpenSans-Light" font-size="65" transform="matrix(1.00, 0.00, -0.00, -1.00, 470.2, 377.0)" xml:space="preserve">s</text><text fill="#52575F" font-family="OpenSans-Light" font-size="65" transform="matrix(1.00, 0.00, -0.00, -1.00, 517.4, 377.0)" xml:space="preserve">+</text><text fill="#52575F" font-family="OpenSans-Light" font-size="65" transform="matrix(1.00, 0.00, -0.00, -1.00, 571.3, 377.0)" xml:space="preserve">1</text><text fill="#52575F" font-family="OpenSans-Light" font-size="65" transform="matrix(1.00, 0.00, -0.00, -1.00, 608.4, 377.0)" xml:space="preserve">1</text><text fill="#52575F" font-family="OpenSans-Light" font-size="65" transform="matrix(1.00, 0.00, -0.00, -1.00, 662.5, 377.0)" xml:space="preserve">F</text><text fill="#52575F" font-family="OpenSans-Light" font-size="65" transform="matrix(1.00, 0.00, -0.00, -1.00, 695.2, 377.0)" xml:space="preserve">o</text><text fill="#52575F" font-family="OpenSans-Light" font-size="65" transform="matrix(1.00, 0.00, -0.00, -1.00, 733.2, 377.0)" xml:space="preserve">l</text><text fill="#52575F" font-family="OpenSans-Light" font-size="65" transform="matrix(1.00, 0.00, -0.00, -1.00, 748.0, 377.0)" xml:space="preserve">l</text><text fill="#52575F" font-family="OpenSans-Light" font-size="65" transform="matrix(1.00, 0.00, -0.00, -1.00, 762.7, 377.0)" xml:space="preserve">o</text><text fill="#52575F" font-family="OpenSans-Light" font-size="65" transform="matrix(1.00, 0.00, -0.00, -1.00, 799.4, 377.0)" xml:space="preserve">w</text><text fill="#52575F" font-family="OpenSans-Light" font-size="65" transform="matrix(1.00, 0.00, -0.00, -1.00, 846.4, 377.0)" xml:space="preserve">e</text><text fill="#52575F" font-family="OpenSans-Light" font-size="65" transform="matrix(1.00, 0.00, -0.00, -1.00, 882.1, 377.0)" xml:space="preserve">r</text><text fill="#52575F" font-family="OpenSans-Light" font-size="65" transform="matrix(1.00, 0.00, -0.00, -1.00, 907.4, 377.0)" xml:space="preserve">s</text><image width="267" height="267" transform="matrix(1.00, 0.00, -0.00, -1.00, -2.0, 320.0)" xlink:href="../../95B1A7D9-ABF7-4911-87AC-46CB992C9B36/assets/C454451834683DA268CF2F2B183F686C.png"/><text fill="#52575F" font-family="OpenSans-Light" font-size="65" transform="matrix(1.00, 0.00, -0.00, -1.00, 284.0, 162.0)" xml:space="preserve">1</text><text fill="#52575F" font-family="OpenSans-Light" font-size="65" transform="matrix(1.00, 0.00, -0.00, -1.00, 321.1, 162.0)" xml:space="preserve">5</text><text fill="#52575F" font-family="OpenSans-Light" font-size="65" transform="matrix(1.00, 0.00, -0.00, -1.00, 358.2, 162.0)" xml:space="preserve">7</text><text fill="#52575F" font-family="OpenSans-Light" font-size="65" transform="matrix(1.00, 0.00, -0.00, -1.00, 412.1, 162.0)" xml:space="preserve">V</text><text fill="#52575F" font-family="OpenSans-Light" font-size="65" transform="matrix(1.00, 0.00, -0.00, -1.00, 449.6, 162.0)" xml:space="preserve">i</text><text fill="#52575F" font-family="OpenSans-Light" font-size="65" transform="matrix(1.00, 0.00, -0.00, -1.00, 464.3, 162.0)" xml:space="preserve">e</text><text fill="#52575F" font-family="OpenSans-Light" font-size="65" transform="matrix(1.00, 0.00, -0.00, -1.00, 498.7, 162.0)" xml:space="preserve">w</text><text fill="#52575F" font-family="OpenSans-Light" font-size="65" transform="matrix(1.00, 0.00, -0.00, -1.00, 545.7, 162.0)" xml:space="preserve">s</text></g></svg>