<?xml version="1.0" encoding="UTF-8" standalone="no"?><svg xmlns="http://www.w3.org/2000/svg" xmlns:xlink="http://www.w3.org/1999/xlink" clip-rule="evenodd" stroke-miterlimit="4.00" viewBox="0 0 1920 1080"><desc>SVG generated by Keynote</desc><defs></defs><g transform="matrix(1.00, 0.00, -0.00, -1.00, 0.0, 1080.0)"><path d="M 0.0 1080.0 L 1920.0 1080.0 L 1920.0 0.0 L 0.0 0.0 Z M 0.0 1080.0 " fill="#FEFFFF"></path><image xlink:href="../../95B1A7D9-ABF7-4911-87AC-46CB992C9B36/assets/96156F1A5932620F0ED1A236D810ABEC.jpeg" width="451.00" height="327.00" transform="matrix(1.00, 0.00, -0.00, -1.00, -100.0, 790.0)"></image><g><clipPath id="clip-346"><path d="M 50.0 52.0 L 154.0 52.0 L 154.0 -1.0 L 50.0 -1.0 Z M 50.4 52.4 "></path></clipPath><g clip-path="url(#clip-346)"><image xlink:href="../../4F9A92A2-2DC6-4691-97F8-9F75BE53396F/assets/B22C448CED7C82A0C99889D0AD879A76.png" width="104.00" height="104.00" transform="matrix(1.00, 0.00, -0.00, -0.99, 50.0, 77.0)"></image></g></g><text xml:space="preserve" font-family="OpenSans-Bold" font-weight="bold" font-size="30.0" fill="#A6AAA8" transform="matrix(1.00, 0.00, -0.00, -1.00, 54.0, 1014.0)">V</text><text xml:space="preserve" font-family="OpenSans-Bold" font-weight="bold" font-size="30.0" fill="#A6AAA8" transform="matrix(1.00, 0.00, -0.00, -1.00, 72.3, 1014.0)">A</text><text xml:space="preserve" font-family="OpenSans-Bold" font-weight="bold" font-size="30.0" fill="#A6AAA8" transform="matrix(1.00, 0.00, -0.00, -1.00, 93.0, 1014.0)">L</text><text xml:space="preserve" font-family="OpenSans-Bold" font-weight="bold" font-size="30.0" fill="#A6AAA8" transform="matrix(1.00, 0.00, -0.00, -1.00, 109.9, 1014.0)">I</text><text xml:space="preserve" font-family="OpenSans-Bold" font-weight="bold" font-size="30.0" fill="#A6AAA8" transform="matrix(1.00, 0.00, -0.00, -1.00, 119.9, 1014.0)">D</text><text xml:space="preserve" font-family="OpenSans-Bold" font-weight="bold" font-size="30.0" fill="#A6AAA8" transform="matrix(1.00, 0.00, -0.00, -1.00, 141.5, 1014.0)">A</text><text xml:space="preserve" font-family="OpenSans-Bold" font-weight="bold" font-size="30.0" fill="#A6AAA8" transform="matrix(1.00, 0.00, -0.00, -1.00, 160.1, 1014.0)">T</text><text xml:space="preserve" font-family="OpenSans-Bold" font-weight="bold" font-size="30.0" fill="#A6AAA8" transform="matrix(1.00, 0.00, -0.00, -1.00, 177.4, 1014.0)">I</text><text xml:space="preserve" font-family="OpenSans-Bold" font-weight="bold" font-size="30.0" fill="#A6AAA8" transform="matrix(1.00, 0.00, -0.00, -1.00, 187.4, 1014.0)">O</text><text xml:space="preserve" font-family="OpenSans-Bold" font-weight="bold" font-size="30.0" fill="#A6AAA8" transform="matrix(1.00, 0.00, -0.00, -1.00, 211.2, 1014.0)">N</text><image xlink:href="../../44CDB6CA-22C4-4C7E-9169-77206C966AAE/assets/5253144E3C8E48375B6F6DB1C707250F.png" width="163.00" height="132.00" transform="matrix(0.99, 0.00, -0.00, -1.00, 50.0, 917.0)"></image><text xml:space="preserve" font-family="OpenSans-Light" font-size="65.0" fill="#52575F" transform="matrix(1.00, 0.00, -0.00, -1.00, 284.0, 826.0)">G</text><text xml:space="preserve" font-family="OpenSans-Light" font-size="65.0" fill="#52575F" transform="matrix(1.00, 0.00, -0.00, -1.00, 331.0, 826.0)">r</text><text xml:space="preserve" font-family="OpenSans-Light" font-size="65.0" fill="#52575F" transform="matrix(1.00, 0.00, -0.00, -1.00, 355.0, 826.0)">o</text><text xml:space="preserve" font-family="OpenSans-Light" font-size="65.0" fill="#52575F" transform="matrix(1.00, 0.00, -0.00, -1.00, 391.8, 826.0)">w</text><text xml:space="preserve" font-family="OpenSans-Light" font-size="65.0" fill="#52575F" transform="matrix(1.00, 0.00, -0.00, -1.00, 438.8, 826.0)">t</text><text xml:space="preserve" font-family="OpenSans-Light" font-size="65.0" fill="#52575F" transform="matrix(1.00, 0.00, -0.00, -1.00, 460.6, 826.0)">h</text><text xml:space="preserve" font-family="OpenSans-Light" font-size="65.0" fill="#52575F" transform="matrix(1.00, 0.00, -0.00, -1.00, 498.9, 826.0)"> </text><text xml:space="preserve" font-family="OpenSans-Light" font-size="65.0" fill="#52575F" transform="matrix(1.00, 0.00, -0.00, -1.00, 515.8, 826.0)">u</text><text xml:space="preserve" font-family="OpenSans-Light" font-size="65.0" fill="#52575F" transform="matrix(1.00, 0.00, -0.00, -1.00, 554.1, 826.0)">p</text><text xml:space="preserve" font-family="OpenSans-Light" font-size="65.0" fill="#52575F" transform="matrix(1.00, 0.00, -0.00, -1.00, 592.8, 826.0)"> </text><text xml:space="preserve" font-family="OpenSans-Light" font-size="65.0" fill="#52575F" transform="matrix(1.00, 0.00, -0.00, -1.00, 609.7, 826.0)">4</text><text xml:space="preserve" font-family="OpenSans-Light" font-size="65.0" fill="#52575F" transform="matrix(1.00, 0.00, -0.00, -1.00, 646.8, 826.0)">3</text><text xml:space="preserve" font-family="OpenSans-Light" font-size="65.0" fill="#52575F" transform="matrix(1.00, 0.00, -0.00, -1.00, 683.9, 826.0)">0</text><text xml:space="preserve" font-family="OpenSans-Light" font-size="65.0" fill="#52575F" transform="matrix(1.00, 0.00, -0.00, -1.00, 720.9, 826.0)">0</text><text xml:space="preserve" font-family="OpenSans-Light" font-size="65.0" fill="#52575F" transform="matrix(1.00, 0.00, -0.00, -1.00, 758.0, 826.0)">%</text><text xml:space="preserve" font-family="OpenSans-Light" font-size="65.0" fill="#52575F" transform="matrix(1.00, 0.00, -0.00, -1.00, 810.5, 826.0)"> </text><text xml:space="preserve" font-family="OpenSans-Light" font-size="65.0" fill="#52575F" transform="matrix(1.00, 0.00, -0.00, -1.00, 827.4, 826.0)">u</text><text xml:space="preserve" font-family="OpenSans-Light" font-size="65.0" fill="#52575F" transform="matrix(1.00, 0.00, -0.00, -1.00, 865.7, 826.0)">p</text><text xml:space="preserve" font-family="OpenSans-Light" font-size="65.0" fill="#52575F" transform="matrix(1.00, 0.00, -0.00, -1.00, 904.4, 826.0)"> </text><text xml:space="preserve" font-family="OpenSans-Light" font-size="65.0" fill="#52575F" transform="matrix(1.00, 0.00, -0.00, -1.00, 921.3, 826.0)">2</text><text xml:space="preserve" font-family="OpenSans-Light" font-size="65.0" fill="#52575F" transform="matrix(1.00, 0.00, -0.00, -1.00, 958.4, 826.0)">6</text><text xml:space="preserve" font-family="OpenSans-Light" font-size="65.0" fill="#52575F" transform="matrix(1.00, 0.00, -0.00, -1.00, 995.5, 826.0)">4</text><text xml:space="preserve" font-family="OpenSans-Light" font-size="65.0" fill="#52575F" transform="matrix(1.00, 0.00, -0.00, -1.00, 1032.5, 826.0)"> </text><text xml:space="preserve" font-family="OpenSans-Light" font-size="65.0" fill="#52575F" transform="matrix(1.00, 0.00, -0.00, -1.00, 1049.4, 826.0)">p</text><text xml:space="preserve" font-family="OpenSans-Light" font-size="65.0" fill="#52575F" transform="matrix(1.00, 0.00, -0.00, -1.00, 1088.1, 826.0)">r</text><text xml:space="preserve" font-family="OpenSans-Light" font-size="65.0" fill="#52575F" transform="matrix(1.00, 0.00, -0.00, -1.00, 1112.1, 826.0)">o</text><text xml:space="preserve" font-family="OpenSans-Light" font-size="65.0" fill="#52575F" transform="matrix(1.00, 0.00, -0.00, -1.00, 1150.2, 826.0)">ï¬</text><text xml:space="preserve" font-family="OpenSans-Light" font-size="65.0" fill="#52575F" transform="matrix(1.00, 0.00, -0.00, -1.00, 1184.4, 826.0)">l</text><text xml:space="preserve" font-family="OpenSans-Light" font-size="65.0" fill="#52575F" transform="matrix(1.00, 0.00, -0.00, -1.00, 1199.1, 826.0)">e</text><text xml:space="preserve" font-family="OpenSans-Light" font-size="65.0" fill="#52575F" transform="matrix(1.00, 0.00, -0.00, -1.00, 1234.7, 826.0)"> </text><text xml:space="preserve" font-family="OpenSans-Light" font-size="65.0" fill="#52575F" transform="matrix(1.00, 0.00, -0.00, -1.00, 1251.6, 826.0)">a</text><text xml:space="preserve" font-family="OpenSans-Light" font-size="65.0" fill="#52575F" transform="matrix(1.00, 0.00, -0.00, -1.00, 1286.0, 826.0)">n</text><text xml:space="preserve" font-family="OpenSans-Light" font-size="65.0" fill="#52575F" transform="matrix(1.00, 0.00, -0.00, -1.00, 1324.4, 826.0)">d</text><text xml:space="preserve" font-family="OpenSans-Light" font-size="65.0" fill="#52575F" transform="matrix(1.00, 0.00, -0.00, -1.00, 1363.1, 826.0)"> </text><text xml:space="preserve" font-family="OpenSans-Light" font-size="65.0" fill="#52575F" transform="matrix(1.00, 0.00, -0.00, -1.00, 1379.9, 826.0)">1</text><text xml:space="preserve" font-family="OpenSans-Light" font-size="65.0" fill="#52575F" transform="matrix(1.00, 0.00, -0.00, -1.00, 1417.0, 826.0)">6</text><text xml:space="preserve" font-family="OpenSans-Light" font-size="65.0" fill="#52575F" transform="matrix(1.00, 0.00, -0.00, -1.00, 1454.1, 826.0)">8</text><text xml:space="preserve" font-family="OpenSans-Light" font-size="65.0" fill="#52575F" transform="matrix(1.00, 0.00, -0.00, -1.00, 1491.2, 826.0)"> </text><text xml:space="preserve" font-family="OpenSans-Light" font-size="65.0" fill="#52575F" transform="matrix(1.00, 0.00, -0.00, -1.00, 1508.1, 826.0)">i</text><text xml:space="preserve" font-family="OpenSans-Light" font-size="65.0" fill="#52575F" transform="matrix(1.00, 0.00, -0.00, -1.00, 1522.8, 826.0)">m</text><text xml:space="preserve" font-family="OpenSans-Light" font-size="65.0" fill="#52575F" transform="matrix(1.00, 0.00, -0.00, -1.00, 1580.1, 826.0)">p</text><text xml:space="preserve" font-family="OpenSans-Light" font-size="65.0" fill="#52575F" transform="matrix(1.00, 0.00, -0.00, -1.00, 1618.8, 826.0)">r</text><text xml:space="preserve" font-family="OpenSans-Light" font-size="65.0" fill="#52575F" transform="matrix(1.00, 0.00, -0.00, -1.00, 1642.8, 826.0)">e</text><text xml:space="preserve" font-family="OpenSans-Light" font-size="65.0" fill="#52575F" transform="matrix(1.00, 0.00, -0.00, -1.00, 1678.5, 826.0)">s</text><text xml:space="preserve" font-family="OpenSans-Light" font-size="65.0" fill="#52575F" transform="matrix(1.00, 0.00, -0.00, -1.00, 1708.8, 826.0)">s</text><text xml:space="preserve" font-family="OpenSans-Light" font-size="65.0" fill="#52575F" transform="matrix(1.00, 0.00, -0.00, -1.00, 1739.0, 826.0)">i</text><text xml:space="preserve" font-family="OpenSans-Light" font-size="65.0" fill="#52575F" transform="matrix(1.00, 0.00, -0.00, -1.00, 1753.7, 826.0)">o</text><text xml:space="preserve" font-family="OpenSans-Light" font-size="65.0" fill="#52575F" transform="matrix(1.00, 0.00, -0.00, -1.00, 1791.8, 826.0)">n</text><text xml:space="preserve" font-family="OpenSans-Light" font-size="65.0" fill="#52575F" transform="matrix(1.00, 0.00, -0.00, -1.00, 1830.1, 826.0)">s</text><image xlink:href="../../95B1A7D9-ABF7-4911-87AC-46CB992C9B36/assets/C393B06510FD96788ED4764BFB68B48A.png" width="163.00" height="163.00" transform="matrix(0.99, 0.00, -0.00, -0.99, 50.0, 483.0)"></image><text xml:space="preserve" font-family="OpenSans-Light" font-size="65.0" fill="#52575F" transform="matrix(1.00, 0.00, -0.00, -1.00, 284.0, 601.0)">1</text><text xml:space="preserve" font-family="OpenSans-Light" font-size="65.0" fill="#52575F" transform="matrix(1.00, 0.00, -0.00, -1.00, 321.1, 601.0)">7</text><text xml:space="preserve" font-family="OpenSans-Light" font-size="65.0" fill="#52575F" transform="matrix(1.00, 0.00, -0.00, -1.00, 358.2, 601.0)">2</text><text xml:space="preserve" font-family="OpenSans-Light" font-size="65.0" fill="#52575F" transform="matrix(1.00, 0.00, -0.00, -1.00, 395.3, 601.0)"> </text><text xml:space="preserve" font-family="OpenSans-Light" font-size="65.0" fill="#52575F" transform="matrix(1.00, 0.00, -0.00, -1.00, 412.1, 601.0)">v</text><text xml:space="preserve" font-family="OpenSans-Light" font-size="65.0" fill="#52575F" transform="matrix(1.00, 0.00, -0.00, -1.00, 442.0, 601.0)">i</text><text xml:space="preserve" font-family="OpenSans-Light" font-size="65.0" fill="#52575F" transform="matrix(1.00, 0.00, -0.00, -1.00, 456.7, 601.0)">e</text><text xml:space="preserve" font-family="OpenSans-Light" font-size="65.0" fill="#52575F" transform="matrix(1.00, 0.00, -0.00, -1.00, 491.0, 601.0)">w</text><text xml:space="preserve" font-family="OpenSans-Light" font-size="65.0" fill="#52575F" transform="matrix(1.00, 0.00, -0.00, -1.00, 538.0, 601.0)">s</text><text xml:space="preserve" font-family="OpenSans-Light" font-size="65.0" fill="#52575F" transform="matrix(1.00, 0.00, -0.00, -1.00, 568.3, 601.0)"> </text><text xml:space="preserve" font-family="OpenSans-Light" font-size="65.0" fill="#52575F" transform="matrix(1.00, 0.00, -0.00, -1.00, 585.2, 601.0)">/</text><text xml:space="preserve" font-family="OpenSans-Light" font-size="65.0" fill="#52575F" transform="matrix(1.00, 0.00, -0.00, -1.00, 607.3, 601.0)"> </text><text xml:space="preserve" font-family="OpenSans-Light" font-size="65.0" fill="#52575F" transform="matrix(1.00, 0.00, -0.00, -1.00, 624.2, 601.0)">1</text><text xml:space="preserve" font-family="OpenSans-Light" font-size="65.0" fill="#52575F" transform="matrix(1.00, 0.00, -0.00, -1.00, 661.3, 601.0)">1</text><text xml:space="preserve" font-family="OpenSans-Light" font-size="65.0" fill="#52575F" transform="matrix(1.00, 0.00, -0.00, -1.00, 698.4, 601.0)">0</text><text xml:space="preserve" font-family="OpenSans-Light" font-size="65.0" fill="#52575F" transform="matrix(1.00, 0.00, -0.00, -1.00, 735.5, 601.0)"> </text><text xml:space="preserve" font-family="OpenSans-Light" font-size="65.0" fill="#52575F" transform="matrix(1.00, 0.00, -0.00, -1.00, 752.3, 601.0)">r</text><text xml:space="preserve" font-family="OpenSans-Light" font-size="65.0" fill="#52575F" transform="matrix(1.00, 0.00, -0.00, -1.00, 776.3, 601.0)">e</text><text xml:space="preserve" font-family="OpenSans-Light" font-size="65.0" fill="#52575F" transform="matrix(1.00, 0.00, -0.00, -1.00, 812.0, 601.0)">a</text><text xml:space="preserve" font-family="OpenSans-Light" font-size="65.0" fill="#52575F" transform="matrix(1.00, 0.00, -0.00, -1.00, 846.4, 601.0)">d</text><text xml:space="preserve" font-family="OpenSans-Light" font-size="65.0" fill="#52575F" transform="matrix(1.00, 0.00, -0.00, -1.00, 885.1, 601.0)">s</text><text xml:space="preserve" font-family="OpenSans-Light" font-size="65.0" fill="#52575F" transform="matrix(1.00, 0.00, -0.00, -1.00, 284.0, 377.0)">7</text><text xml:space="preserve" font-family="OpenSans-Light" font-size="65.0" fill="#52575F" transform="matrix(1.00, 0.00, -0.00, -1.00, 321.1, 377.0)">6</text><text xml:space="preserve" font-family="OpenSans-Light" font-size="65.0" fill="#52575F" transform="matrix(1.00, 0.00, -0.00, -1.00, 358.2, 377.0)"> </text><text xml:space="preserve" font-family="OpenSans-Light" font-size="65.0" fill="#52575F" transform="matrix(1.00, 0.00, -0.00, -1.00, 375.0, 377.0)">l</text><text xml:space="preserve" font-family="OpenSans-Light" font-size="65.0" fill="#52575F" transform="matrix(1.00, 0.00, -0.00, -1.00, 389.7, 377.0)">i</text><text xml:space="preserve" font-family="OpenSans-Light" font-size="65.0" fill="#52575F" transform="matrix(1.00, 0.00, -0.00, -1.00, 404.4, 377.0)">k</text><text xml:space="preserve" font-family="OpenSans-Light" font-size="65.0" fill="#52575F" transform="matrix(1.00, 0.00, -0.00, -1.00, 434.6, 377.0)">e</text><text xml:space="preserve" font-family="OpenSans-Light" font-size="65.0" fill="#52575F" transform="matrix(1.00, 0.00, -0.00, -1.00, 470.2, 377.0)">s</text><text xml:space="preserve" font-family="OpenSans-Light" font-size="65.0" fill="#52575F" transform="matrix(1.00, 0.00, -0.00, -1.00, 500.5, 377.0)"> </text><text xml:space="preserve" font-family="OpenSans-Light" font-size="65.0" fill="#52575F" transform="matrix(1.00, 0.00, -0.00, -1.00, 517.4, 377.0)">+</text><text xml:space="preserve" font-family="OpenSans-Light" font-size="65.0" fill="#52575F" transform="matrix(1.00, 0.00, -0.00, -1.00, 554.4, 377.0)"> </text><text xml:space="preserve" font-family="OpenSans-Light" font-size="65.0" fill="#52575F" transform="matrix(1.00, 0.00, -0.00, -1.00, 571.3, 377.0)">1</text><text xml:space="preserve" font-family="OpenSans-Light" font-size="65.0" fill="#52575F" transform="matrix(1.00, 0.00, -0.00, -1.00, 608.4, 377.0)">1</text><text xml:space="preserve" font-family="OpenSans-Light" font-size="65.0" fill="#52575F" transform="matrix(1.00, 0.00, -0.00, -1.00, 645.5, 377.0)"> </text><text xml:space="preserve" font-family="OpenSans-Light" font-size="65.0" fill="#52575F" transform="matrix(1.00, 0.00, -0.00, -1.00, 662.5, 377.0)">F</text><text xml:space="preserve" font-family="OpenSans-Light" font-size="65.0" fill="#52575F" transform="matrix(1.00, 0.00, -0.00, -1.00, 695.2, 377.0)">o</text><text xml:space="preserve" font-family="OpenSans-Light" font-size="65.0" fill="#52575F" transform="matrix(1.00, 0.00, -0.00, -1.00, 733.2, 377.0)">l</text><text xml:space="preserve" font-family="OpenSans-Light" font-size="65.0" fill="#52575F" transform="matrix(1.00, 0.00, -0.00, -1.00, 748.0, 377.0)">l</text><text xml:space="preserve" font-family="OpenSans-Light" font-size="65.0" fill="#52575F" transform="matrix(1.00, 0.00, -0.00, -1.00, 762.7, 377.0)">o</text><text xml:space="preserve" font-family="OpenSans-Light" font-size="65.0" fill="#52575F" transform="matrix(1.00, 0.00, -0.00, -1.00, 799.4, 377.0)">w</text><text xml:space="preserve" font-family="OpenSans-Light" font-size="65.0" fill="#52575F" transform="matrix(1.00, 0.00, -0.00, -1.00, 846.4, 377.0)">e</text><text xml:space="preserve" font-family="OpenSans-Light" font-size="65.0" fill="#52575F" transform="matrix(1.00, 0.00, -0.00, -1.00, 882.1, 377.0)">r</text><text xml:space="preserve" font-family="OpenSans-Light" font-size="65.0" fill="#52575F" transform="matrix(1.00, 0.00, -0.00, -1.00, 907.4, 377.0)">s</text><image xlink:href="../../95B1A7D9-ABF7-4911-87AC-46CB992C9B36/assets/C454451834683DA268CF2F2B183F686C.png" width="267.00" height="267.00" transform="matrix(1.00, 0.00, -0.00, -1.00, -2.0, 320.0)"></image><text xml:space="preserve" font-family="OpenSans-Light" font-size="65.0" fill="#52575F" transform="matrix(1.00, 0.00, -0.00, -1.00, 284.0, 162.0)">1</text><text xml:space="preserve" font-family="OpenSans-Light" font-size="65.0" fill="#52575F" transform="matrix(1.00, 0.00, -0.00, -1.00, 321.1, 162.0)">5</text><text xml:space="preserve" font-family="OpenSans-Light" font-size="65.0" fill="#52575F" transform="matrix(1.00, 0.00, -0.00, -1.00, 358.2, 162.0)">7</text><text xml:space="preserve" font-family="OpenSans-Light" font-size="65.0" fill="#52575F" transform="matrix(1.00, 0.00, -0.00, -1.00, 395.3, 162.0)"> </text><text xml:space="preserve" font-family="OpenSans-Light" font-size="65.0" fill="#52575F" transform="matrix(1.00, 0.00, -0.00, -1.00, 412.1, 162.0)">V</text><text xml:space="preserve" font-family="OpenSans-Light" font-size="65.0" fill="#52575F" transform="matrix(1.00, 0.00, -0.00, -1.00, 449.6, 162.0)">i</text><text xml:space="preserve" font-family="OpenSans-Light" font-size="65.0" fill="#52575F" transform="matrix(1.00, 0.00, -0.00, -1.00, 464.3, 162.0)">e</text><text xml:space="preserve" font-family="OpenSans-Light" font-size="65.0" fill="#52575F" transform="matrix(1.00, 0.00, -0.00, -1.00, 498.7, 162.0)">w</text><text xml:space="preserve" font-family="OpenSans-Light" font-size="65.0" fill="#52575F" transform="matrix(1.00, 0.00, -0.00, -1.00, 545.7, 162.0)">s</text></g></svg>