<svg xmlns="http://www.w3.org/2000/svg" xmlns:xlink="http://www.w3.org/1999/xlink" stroke-miterlimit="4" clip-rule="evenodd" viewBox="0 0 1920 1080"><desc>SVG generated by Keynote</desc><g transform="matrix(1.00, 0.00, -0.00, -1.00, 0.0, 1080.0)"><path fill="#FEFFFF" d="M 0.0 1080.0 L 1920.0 1080.0 L 1920.0 0.0 L 0.0 0.0 Z M 0.0 1080.0"/><g><clipPath id="clip-347"><path d="M 50.0 52.0 L 154.0 52.0 L 154.0 -1.0 L 50.0 -1.0 Z M 50.4 52.4"/></clipPath><g clip-path="url(#clip-347)"><image width="104" height="104" transform="matrix(1.00, 0.00, -0.00, -0.99, 50.0, 77.0)" xlink:href="../../4F9A92A2-2DC6-4691-97F8-9F75BE53396F/assets/B22C448CED7C82A0C99889D0AD879A76.png"/></g></g><text fill="#A6AAA8" font-family="OpenSans-Bold" font-size="30" font-weight="bold" transform="matrix(1.00, 0.00, -0.00, -1.00, 54.0, 1014.0)" xml:space="preserve">V</text><text fill="#A6AAA8" font-family="OpenSans-Bold" font-size="30" font-weight="bold" transform="matrix(1.00, 0.00, -0.00, -1.00, 72.3, 1014.0)" xml:space="preserve">A</text><text fill="#A6AAA8" font-family="OpenSans-Bold" font-size="30" font-weight="bold" transform="matrix(1.00, 0.00, -0.00, -1.00, 93.0, 1014.0)" xml:space="preserve">L</text><text fill="#A6AAA8" font-family="OpenSans-Bold" font-size="30" font-weight="bold" transform="matrix(1.00, 0.00, -0.00, -1.00, 109.9, 1014.0)" xml:space="preserve">I</text><text fill="#A6AAA8" font-family="OpenSans-Bold" font-size="30" font-weight="bold" transform="matrix(1.00, 0.00, -0.00, -1.00, 119.9, 1014.0)" xml:space="preserve">D</text><text fill="#A6AAA8" font-family="OpenSans-Bold" font-size="30" font-weight="bold" transform="matrix(1.00, 0.00, -0.00, -1.00, 141.5, 1014.0)" xml:space="preserve">A</text><text fill="#A6AAA8" font-family="OpenSans-Bold" font-size="30" font-weight="bold" transform="matrix(1.00, 0.00, -0.00, -1.00, 160.1, 1014.0)" xml:space="preserve">T</text><text fill="#A6AAA8" font-family="OpenSans-Bold" font-size="30" font-weight="bold" transform="matrix(1.00, 0.00, -0.00, -1.00, 177.4, 1014.0)" xml:space="preserve">I</text><text fill="#A6AAA8" font-family="OpenSans-Bold" font-size="30" font-weight="bold" transform="matrix(1.00, 0.00, -0.00, -1.00, 187.4, 1014.0)" xml:space="preserve">O</text><text fill="#A6AAA8" font-family="OpenSans-Bold" font-size="30" font-weight="bold" transform="matrix(1.00, 0.00, -0.00, -1.00, 211.2, 1014.0)" xml:space="preserve">N</text><text fill="#52575F" font-family="OpenSans-Bold" font-size="165" font-weight="bold" transform="matrix(1.00, 0.00, -0.00, -1.00, 54.0, 800.0)" xml:space="preserve">1</text><text fill="#52575F" font-family="OpenSans-Bold" font-size="165" font-weight="bold" transform="matrix(1.00, 0.00, -0.00, -1.00, 148.1, 800.0)" xml:space="preserve">2</text><text fill="#52575F" font-family="OpenSans-Light" font-size="165" transform="matrix(1.00, 0.00, -0.00, -1.00, 285.2, 800.0)" xml:space="preserve">V</text><text fill="#52575F" font-family="OpenSans-Light" font-size="165" transform="matrix(1.00, 0.00, -0.00, -1.00, 377.2, 800.0)" xml:space="preserve">a</text><text fill="#52575F" font-family="OpenSans-Light" font-size="165" transform="matrix(1.00, 0.00, -0.00, -1.00, 464.6, 800.0)" xml:space="preserve">l</text><text fill="#52575F" font-family="OpenSans-Light" font-size="165" transform="matrix(1.00, 0.00, -0.00, -1.00, 501.9, 800.0)" xml:space="preserve">i</text><text fill="#52575F" font-family="OpenSans-Light" font-size="165" transform="matrix(1.00, 0.00, -0.00, -1.00, 539.2, 800.0)" xml:space="preserve">d</text><text fill="#52575F" font-family="OpenSans-Light" font-size="165" transform="matrix(1.00, 0.00, -0.00, -1.00, 637.4, 800.0)" xml:space="preserve">a</text><text fill="#52575F" font-family="OpenSans-Light" font-size="165" transform="matrix(1.00, 0.00, -0.00, -1.00, 724.8, 800.0)" xml:space="preserve">t</text><text fill="#52575F" font-family="OpenSans-Light" font-size="165" transform="matrix(1.00, 0.00, -0.00, -1.00, 780.1, 800.0)" xml:space="preserve">i</text><text fill="#52575F" font-family="OpenSans-Light" font-size="165" transform="matrix(1.00, 0.00, -0.00, -1.00, 817.4, 800.0)" xml:space="preserve">o</text><text fill="#52575F" font-family="OpenSans-Light" font-size="165" transform="matrix(1.00, 0.00, -0.00, -1.00, 914.1, 800.0)" xml:space="preserve">n</text><text fill="#52575F" font-family="OpenSans-Light" font-size="165" transform="matrix(1.00, 0.00, -0.00, -1.00, 1054.2, 800.0)" xml:space="preserve">i</text><text fill="#52575F" font-family="OpenSans-Light" font-size="165" transform="matrix(1.00, 0.00, -0.00, -1.00, 1091.5, 800.0)" xml:space="preserve">n</text><text fill="#52575F" font-family="OpenSans-Light" font-size="165" transform="matrix(1.00, 0.00, -0.00, -1.00, 1188.8, 800.0)" xml:space="preserve">t</text><text fill="#52575F" font-family="OpenSans-Light" font-size="165" transform="matrix(1.00, 0.00, -0.00, -1.00, 1244.1, 800.0)" xml:space="preserve">e</text><text fill="#52575F" font-family="OpenSans-Light" font-size="165" transform="matrix(1.00, 0.00, -0.00, -1.00, 1334.6, 800.0)" xml:space="preserve">r</text><text fill="#52575F" font-family="OpenSans-Light" font-size="165" transform="matrix(1.00, 0.00, -0.00, -1.00, 1398.8, 800.0)" xml:space="preserve">v</text><text fill="#52575F" font-family="OpenSans-Light" font-size="165" transform="matrix(1.00, 0.00, -0.00, -1.00, 1474.6, 800.0)" xml:space="preserve">i</text><text fill="#52575F" font-family="OpenSans-Light" font-size="165" transform="matrix(1.00, 0.00, -0.00, -1.00, 1511.9, 800.0)" xml:space="preserve">e</text><text fill="#52575F" font-family="OpenSans-Light" font-size="165" transform="matrix(1.00, 0.00, -0.00, -1.00, 1599.1, 800.0)" xml:space="preserve">w</text><text fill="#52575F" font-family="OpenSans-Light" font-size="165" transform="matrix(1.00, 0.00, -0.00, -1.00, 1718.4, 800.0)" xml:space="preserve">s</text><path fill="none" stroke="#DCDDE0" stroke-width="3" d="M 0.0 0.0 L 1775.0 0.0" transform="matrix(1.00, 0.00, 0.00, -1.00, 58.0, 707.3)"/><image width="615" height="117" transform="matrix(1.00, 0.00, -0.00, -1.00, 126.0, 253.0)" xlink:href="BA3DBF4882E0DE765BFD0BA839CC1D2A.png"/><image width="70" height="70" transform="matrix(3.47, 0.00, -0.00, -3.47, 958.0, 622.0)" xlink:href="7FD514BEB4EAFA5680787D1538F935FC.png"/><image width="261" height="212" transform="matrix(1.00, 0.00, -0.00, -1.00, 1510.0, 295.0)" xlink:href="8AB5D5DEA18C2A755E3DE6FAD9DE38B8.png"/><image width="173" height="213" transform="matrix(1.01, 0.00, -0.00, -1.00, 1530.0, 607.0)" xlink:href="DFDD63682DB09BE4C1F837293E21D2D3.jpeg"/><image width="213" height="213" transform="matrix(1.00, 0.00, -0.00, -1.00, 973.0, 301.0)" xlink:href="3E7B9261E556895F8650E7E65E04D6B3.jpeg"/><image width="334" height="160" transform="matrix(1.84, 0.00, -0.00, -1.84, 63.0, 648.0)" xlink:href="BBE1B25D2819D09B13044390C4949611.png"/></g></svg>