<?xml version="1.0" encoding="UTF-8" standalone="no"?><svg xmlns="http://www.w3.org/2000/svg" xmlns:xlink="http://www.w3.org/1999/xlink" clip-rule="evenodd" stroke-miterlimit="4.00" viewBox="0 0 1920 1080"><desc>SVG generated by Keynote</desc><defs></defs><g transform="matrix(1.00, 0.00, -0.00, -1.00, 0.0, 1080.0)"><path d="M 0.0 1080.0 L 1920.0 1080.0 L 1920.0 0.0 L 0.0 0.0 Z M 0.0 1080.0 " fill="#FEFFFF"></path><g><clipPath id="clip-351"><path d="M 50.0 52.0 L 154.0 52.0 L 154.0 -1.0 L 50.0 -1.0 Z M 50.4 52.4 "></path></clipPath><g clip-path="url(#clip-351)"><image xlink:href="../../4F9A92A2-2DC6-4691-97F8-9F75BE53396F/assets/B22C448CED7C82A0C99889D0AD879A76.png" width="104.00" height="104.00" transform="matrix(1.00, 0.00, -0.00, -0.99, 50.0, 77.0)"></image></g></g><text xml:space="preserve" font-family="OpenSans-Bold" font-weight="bold" font-size="30.0" fill="#A6AAA8" transform="matrix(1.00, 0.00, -0.00, -1.00, 54.0, 1014.0)">V</text><text xml:space="preserve" font-family="OpenSans-Bold" font-weight="bold" font-size="30.0" fill="#A6AAA8" transform="matrix(1.00, 0.00, -0.00, -1.00, 72.3, 1014.0)">A</text><text xml:space="preserve" font-family="OpenSans-Bold" font-weight="bold" font-size="30.0" fill="#A6AAA8" transform="matrix(1.00, 0.00, -0.00, -1.00, 93.0, 1014.0)">L</text><text xml:space="preserve" font-family="OpenSans-Bold" font-weight="bold" font-size="30.0" fill="#A6AAA8" transform="matrix(1.00, 0.00, -0.00, -1.00, 109.9, 1014.0)">I</text><text xml:space="preserve" font-family="OpenSans-Bold" font-weight="bold" font-size="30.0" fill="#A6AAA8" transform="matrix(1.00, 0.00, -0.00, -1.00, 119.9, 1014.0)">D</text><text xml:space="preserve" font-family="OpenSans-Bold" font-weight="bold" font-size="30.0" fill="#A6AAA8" transform="matrix(1.00, 0.00, -0.00, -1.00, 141.5, 1014.0)">A</text><text xml:space="preserve" font-family="OpenSans-Bold" font-weight="bold" font-size="30.0" fill="#A6AAA8" transform="matrix(1.00, 0.00, -0.00, -1.00, 160.1, 1014.0)">T</text><text xml:space="preserve" font-family="OpenSans-Bold" font-weight="bold" font-size="30.0" fill="#A6AAA8" transform="matrix(1.00, 0.00, -0.00, -1.00, 177.4, 1014.0)">I</text><text xml:space="preserve" font-family="OpenSans-Bold" font-weight="bold" font-size="30.0" fill="#A6AAA8" transform="matrix(1.00, 0.00, -0.00, -1.00, 187.4, 1014.0)">O</text><text xml:space="preserve" font-family="OpenSans-Bold" font-weight="bold" font-size="30.0" fill="#A6AAA8" transform="matrix(1.00, 0.00, -0.00, -1.00, 211.2, 1014.0)">N</text><image xlink:href="D51D501AFE0F5B516CB2969E1FDC109C.png" width="619.00" height="162.00" transform="matrix(1.00, 0.00, -0.00, -1.00, 163.0, 637.0)"></image><image xlink:href="../../CA157EF8-693A-4906-85DA-401BB957338F/assets/7FD514BEB4EAFA5680787D1538F935FC.png" width="70.00" height="70.00" transform="matrix(6.14, 0.00, -0.00, -6.14, 1274.0, 755.0)"></image><g opacity="0.12"><g><clipPath id="clip-352"><path d="M 1029.2 490.8 L 1093.6 557.0 L 1027.5 621.4 L 963.0 555.3 Z M 1029.2 490.8 "></path></clipPath><g clip-path="url(#clip-352)"><g><clipPath id="clip-353"><path d="M 961.0 489.0 L 1095.0 489.0 L 1095.0 623.0 L 961.0 623.0 Z M 961.0 489.0 "></path></clipPath><g clip-path="url(#clip-353)"><path d="M 1019.1 612.8 L 1019.7 564.5 L 971.4 563.8 L 971.6 546.9 L 1020.0 547.5 L 1020.6 499.2 L 1037.5 499.4 L 1036.9 547.8 L 1085.3 548.4 L 1085.0 565.3 L 1036.7 564.7 L 1036.1 613.0 Z M 1019.1 612.8 " fill="#000000"></path></g></g></g></g></g></g></svg>