<?xml version="1.0" encoding="UTF-8" standalone="no"?><svg xmlns="http://www.w3.org/2000/svg" xmlns:xlink="http://www.w3.org/1999/xlink" clip-rule="evenodd" stroke-miterlimit="4.00" viewBox="0 0 1920 1080"><desc>SVG generated by Keynote</desc><defs></defs><g transform="matrix(1.00, 0.00, -0.00, -1.00, 0.0, 1080.0)"><path d="M 0.0 1080.0 L 1920.0 1080.0 L 1920.0 0.0 L 0.0 0.0 Z M 0.0 1080.0 " fill="#000000"></path><g opacity="0.60"><g><clipPath id="clip-441"><path d="M 864.0 138.0 L 1667.0 138.0 L 1667.0 941.0 L 864.0 941.0 Z M 864.0 138.0 "></path></clipPath><g clip-path="url(#clip-441)"><path d="M 1547.8 822.8 C 1704.1 666.6 1704.1 413.4 1547.8 257.2 C 1391.6 100.9 1138.4 100.9 982.2 257.2 C 825.9 413.4 825.9 666.6 982.2 822.8 C 1138.4 979.1 1391.6 979.1 1547.8 822.8 " fill="#DCDDE0"></path></g></g></g><g opacity="0.60"><g><clipPath id="clip-442"><path d="M 253.0 138.0 L 1056.0 138.0 L 1056.0 941.0 L 253.0 941.0 Z M 253.0 138.0 "></path></clipPath><g clip-path="url(#clip-442)"><path d="M 936.8 822.8 C 1093.1 666.6 1093.1 413.4 936.8 257.2 C 780.6 100.9 527.4 100.9 371.2 257.2 C 214.9 413.4 214.9 666.6 371.2 822.8 C 527.4 979.1 780.6 979.1 936.8 822.8 " fill="#DCDDE0"></path></g></g></g><text xml:space="preserve" font-family="Helvetica-Bold" font-weight="bold" font-size="55.0" fill="#FEFFFF" transform="matrix(1.00, 0.00, -0.00, -1.00, 489.0, 520.0)">C</text><text xml:space="preserve" font-family="Helvetica-Bold" font-weight="bold" font-size="55.0" fill="#FEFFFF" transform="matrix(1.00, 0.00, -0.00, -1.00, 528.7, 520.0)">o</text><text xml:space="preserve" font-family="Helvetica-Bold" font-weight="bold" font-size="55.0" fill="#FEFFFF" transform="matrix(1.00, 0.00, -0.00, -1.00, 562.3, 520.0)">n</text><text xml:space="preserve" font-family="Helvetica-Bold" font-weight="bold" font-size="55.0" fill="#FEFFFF" transform="matrix(1.00, 0.00, -0.00, -1.00, 595.9, 520.0)">s</text><text xml:space="preserve" font-family="Helvetica-Bold" font-weight="bold" font-size="55.0" fill="#FEFFFF" transform="matrix(1.00, 0.00, -0.00, -1.00, 626.5, 520.0)">u</text><text xml:space="preserve" font-family="Helvetica-Bold" font-weight="bold" font-size="55.0" fill="#FEFFFF" transform="matrix(1.00, 0.00, -0.00, -1.00, 660.1, 520.0)">l</text><text xml:space="preserve" font-family="Helvetica-Bold" font-weight="bold" font-size="55.0" fill="#FEFFFF" transform="matrix(1.00, 0.00, -0.00, -1.00, 675.4, 520.0)">t</text><text xml:space="preserve" font-family="Helvetica-Bold" font-weight="bold" font-size="55.0" fill="#FEFFFF" transform="matrix(1.00, 0.00, -0.00, -1.00, 693.7, 520.0)">a</text><text xml:space="preserve" font-family="Helvetica-Bold" font-weight="bold" font-size="55.0" fill="#FEFFFF" transform="matrix(1.00, 0.00, -0.00, -1.00, 724.3, 520.0)">n</text><text xml:space="preserve" font-family="Helvetica-Bold" font-weight="bold" font-size="55.0" fill="#FEFFFF" transform="matrix(1.00, 0.00, -0.00, -1.00, 757.9, 520.0)">c</text><text xml:space="preserve" font-family="Helvetica-Bold" font-weight="bold" font-size="55.0" fill="#FEFFFF" transform="matrix(1.00, 0.00, -0.00, -1.00, 788.5, 520.0)">y</text><text xml:space="preserve" font-family="Helvetica-Bold" font-weight="bold" font-size="55.0" fill="#FEFFFF" transform="matrix(1.00, 0.00, -0.00, -1.00, 1189.0, 520.0)">C</text><text xml:space="preserve" font-family="Helvetica-Bold" font-weight="bold" font-size="55.0" fill="#FEFFFF" transform="matrix(1.00, 0.00, -0.00, -1.00, 1228.7, 520.0)">l</text><text xml:space="preserve" font-family="Helvetica-Bold" font-weight="bold" font-size="55.0" fill="#FEFFFF" transform="matrix(1.00, 0.00, -0.00, -1.00, 1244.0, 520.0)">i</text><text xml:space="preserve" font-family="Helvetica-Bold" font-weight="bold" font-size="55.0" fill="#FEFFFF" transform="matrix(1.00, 0.00, -0.00, -1.00, 1259.3, 520.0)">e</text><text xml:space="preserve" font-family="Helvetica-Bold" font-weight="bold" font-size="55.0" fill="#FEFFFF" transform="matrix(1.00, 0.00, -0.00, -1.00, 1289.9, 520.0)">n</text><text xml:space="preserve" font-family="Helvetica-Bold" font-weight="bold" font-size="55.0" fill="#FEFFFF" transform="matrix(1.00, 0.00, -0.00, -1.00, 1323.5, 520.0)">t</text></g></svg>