<?xml version="1.0" encoding="UTF-8" standalone="no"?><svg xmlns="http://www.w3.org/2000/svg" xmlns:xlink="http://www.w3.org/1999/xlink" clip-rule="evenodd" stroke-miterlimit="4.00" viewBox="0 0 1920 1080"><desc>SVG generated by Keynote</desc><defs></defs><g transform="matrix(1.00, 0.00, -0.00, -1.00, 0.0, 1080.0)"><path d="M 0.0 1080.0 L 1920.0 1080.0 L 1920.0 0.0 L 0.0 0.0 Z M 0.0 1080.0 " fill="#FEFFFF"></path><g><clipPath id="clip-12"><path d="M 0.0 1080.0 L 1920.0 1080.0 L 1920.0 0.0 L 0.0 0.0 Z M 0.0 1080.0 "></path></clipPath><g clip-path="url(#clip-12)"><image xlink:href="../../85821A1E-B5C3-477C-ACCB-FCFD318D6963/assets/A7926B7FF639D5FD019D47B31E13B2E7.jpeg" width="1160.00" height="730.00" transform="matrix(1.66, 0.00, -0.00, -1.65, 0.0, 1144.0)"></image></g></g><g><clipPath id="clip-13"><path d="M 50.0 52.0 L 154.0 52.0 L 154.0 -1.0 L 50.0 -1.0 Z M 50.4 52.4 "></path></clipPath><g clip-path="url(#clip-13)"><image xlink:href="../../4F9A92A2-2DC6-4691-97F8-9F75BE53396F/assets/B22C448CED7C82A0C99889D0AD879A76.png" width="104.00" height="104.00" transform="matrix(1.00, 0.00, -0.00, -0.99, 50.0, 77.0)"></image></g></g><g opacity="0.50"><g><clipPath id="clip-14"><path d="M 50.0 996.0 L 236.0 996.0 L 236.0 1050.0 L 50.0 1050.0 Z M 50.0 996.0 "></path></clipPath><g clip-path="url(#clip-14)"><text xml:space="preserve" font-family="OpenSans-Bold" font-weight="bold" font-size="30.0" fill="#FEFFFE" transform="matrix(1.00, 0.00, -0.00, -1.00, 54.0, 1014.0)">I</text><text xml:space="preserve" font-family="OpenSans-Bold" font-weight="bold" font-size="30.0" fill="#FEFFFE" transform="matrix(1.00, 0.00, -0.00, -1.00, 63.9, 1014.0)">N</text><text xml:space="preserve" font-family="OpenSans-Bold" font-weight="bold" font-size="30.0" fill="#FEFFFE" transform="matrix(1.00, 0.00, -0.00, -1.00, 88.3, 1014.0)">T</text><text xml:space="preserve" font-family="OpenSans-Bold" font-weight="bold" font-size="30.0" fill="#FEFFFE" transform="matrix(1.00, 0.00, -0.00, -1.00, 105.7, 1014.0)">R</text><text xml:space="preserve" font-family="OpenSans-Bold" font-weight="bold" font-size="30.0" fill="#FEFFFE" transform="matrix(1.00, 0.00, -0.00, -1.00, 125.5, 1014.0)">O</text></g></g></g></g></svg>