<?xml version="1.0" encoding="UTF-8" standalone="no"?><svg xmlns="http://www.w3.org/2000/svg" xmlns:xlink="http://www.w3.org/1999/xlink" clip-rule="evenodd" stroke-miterlimit="4.00" viewBox="0 0 1920 1080"><desc>SVG generated by Keynote</desc><defs></defs><g transform="matrix(1.00, 0.00, -0.00, -1.00, 0.0, 1080.0)"><path d="M 0.0 1080.0 L 1920.0 1080.0 L 1920.0 0.0 L 0.0 0.0 Z M 0.0 1080.0 " fill="#000000"></path><g opacity="0.55"><g><clipPath id="clip-532"><path d="M 0.0 0.0 L 1920.0 0.0 L 1920.0 1080.0 L 0.0 1080.0 Z M 0.0 0.0 "></path></clipPath><g clip-path="url(#clip-532)"><image xlink:href="../../1FAC98D6-8179-49F2-A50E-6C594E4872AE/assets/8801444DCBEFACCD69B58BF4BC3E9321.png" width="1152.00" height="767.00" transform="matrix(1.66, 0.00, -0.00, -1.67, 1.0, 1099.0)"></image></g></g></g><text xml:space="preserve" font-family="Helvetica-Bold" font-weight="bold" font-size="90.0" fill="#FEFFFF" transform="matrix(1.00, 0.00, -0.00, -1.00, 538.0, 629.0)">V</text><text xml:space="preserve" font-family="Helvetica-Bold" font-weight="bold" font-size="90.0" fill="#FEFFFF" transform="matrix(1.00, 0.00, -0.00, -1.00, 593.1, 629.0)">a</text><text xml:space="preserve" font-family="Helvetica-Bold" font-weight="bold" font-size="90.0" fill="#FEFFFF" transform="matrix(1.00, 0.00, -0.00, -1.00, 643.2, 629.0)">l</text><text xml:space="preserve" font-family="Helvetica-Bold" font-weight="bold" font-size="90.0" fill="#FEFFFF" transform="matrix(1.00, 0.00, -0.00, -1.00, 668.2, 629.0)">u</text><text xml:space="preserve" font-family="Helvetica-Bold" font-weight="bold" font-size="90.0" fill="#FEFFFF" transform="matrix(1.00, 0.00, -0.00, -1.00, 723.2, 629.0)">e</text></g></svg>