<?xml version="1.0" encoding="UTF-8" standalone="no"?><svg xmlns="http://www.w3.org/2000/svg" xmlns:xlink="http://www.w3.org/1999/xlink" clip-rule="evenodd" stroke-miterlimit="4.00" viewBox="0 0 1920 1080"><desc>SVG generated by Keynote</desc><defs></defs><g transform="matrix(1.00, 0.00, -0.00, -1.00, 0.0, 1080.0)"><path d="M 0.0 1080.0 L 1920.0 1080.0 L 1920.0 0.0 L 0.0 0.0 Z M 0.0 1080.0 " fill="#FEFFFF"></path><g><clipPath id="clip-307"><path d="M 50.0 52.0 L 154.0 52.0 L 154.0 -1.0 L 50.0 -1.0 Z M 50.4 52.4 "></path></clipPath><g clip-path="url(#clip-307)"><image xlink:href="../../4F9A92A2-2DC6-4691-97F8-9F75BE53396F/assets/B22C448CED7C82A0C99889D0AD879A76.png" width="104.00" height="104.00" transform="matrix(1.00, 0.00, -0.00, -0.99, 50.0, 77.0)"></image></g></g><text xml:space="preserve" font-family="OpenSans-Bold" font-weight="bold" font-size="30.0" fill="#A6AAA8" transform="matrix(1.00, 0.00, -0.00, -1.00, 54.0, 1014.0)">T</text><text xml:space="preserve" font-family="OpenSans-Bold" font-weight="bold" font-size="30.0" fill="#A6AAA8" transform="matrix(1.00, 0.00, -0.00, -1.00, 71.4, 1014.0)">H</text><text xml:space="preserve" font-family="OpenSans-Bold" font-weight="bold" font-size="30.0" fill="#A6AAA8" transform="matrix(1.00, 0.00, -0.00, -1.00, 94.3, 1014.0)">E</text><text xml:space="preserve" font-family="OpenSans-Bold" font-weight="bold" font-size="30.0" fill="#A6AAA8" transform="matrix(1.00, 0.00, -0.00, -1.00, 111.1, 1014.0)"> </text><text xml:space="preserve" font-family="OpenSans-Bold" font-weight="bold" font-size="30.0" fill="#A6AAA8" transform="matrix(1.00, 0.00, -0.00, -1.00, 118.9, 1014.0)">T</text><text xml:space="preserve" font-family="OpenSans-Bold" font-weight="bold" font-size="30.0" fill="#A6AAA8" transform="matrix(1.00, 0.00, -0.00, -1.00, 136.3, 1014.0)">E</text><text xml:space="preserve" font-family="OpenSans-Bold" font-weight="bold" font-size="30.0" fill="#A6AAA8" transform="matrix(1.00, 0.00, -0.00, -1.00, 153.1, 1014.0)">A</text><text xml:space="preserve" font-family="OpenSans-Bold" font-weight="bold" font-size="30.0" fill="#A6AAA8" transform="matrix(1.00, 0.00, -0.00, -1.00, 173.8, 1014.0)">M</text><g><clipPath id="clip-308"><path d="M 50.0 930.0 L 438.0 930.0 L 438.0 542.0 L 50.0 542.0 Z M 50.2 930.0 "></path></clipPath><g clip-path="url(#clip-308)"><image xlink:href="977F591AA0E5F2724F7B97AEB642A3DD.png" width="387.00" height="388.00" transform="matrix(1.00, 0.00, -0.00, -1.00, 50.0, 930.0)"></image></g></g><g><clipPath id="clip-309"><path d="M 524.0 930.0 L 912.0 930.0 L 912.0 542.0 L 524.0 542.0 Z M 524.3 930.0 "></path></clipPath><g clip-path="url(#clip-309)"><image xlink:href="CCECE06E0F291B3BB993166303955329.jpeg" width="388.00" height="388.00" transform="matrix(1.00, 0.00, -0.00, -1.00, 524.0, 930.0)"></image></g></g><g><clipPath id="clip-310"><path d="M 998.0 930.0 L 1386.0 930.0 L 1386.0 542.0 L 998.0 542.0 Z M 998.4 930.0 "></path></clipPath><g clip-path="url(#clip-310)"><image xlink:href="C43D54220D448B77B15B0567FC737207.jpeg" width="388.00" height="388.00" transform="matrix(1.00, 0.00, -0.00, -1.00, 998.0, 930.0)"></image></g></g><g><clipPath id="clip-311"><path d="M 1472.0 930.0 L 1860.0 930.0 L 1860.0 542.0 L 1472.0 542.0 Z M 1472.5 930.0 "></path></clipPath><g clip-path="url(#clip-311)"><image xlink:href="67A48EF78F0EED9F44461ACEF92AC151.png" width="304.00" height="304.00" transform="matrix(1.28, 0.00, -0.00, -1.28, 1472.0, 877.0)"></image></g></g><text xml:space="preserve" font-family="OpenSans-Bold" font-weight="bold" font-size="30.0" fill="#A6AAA8" transform="matrix(1.00, 0.00, -0.00, -1.00, 54.0, 474.0)">A</text><text xml:space="preserve" font-family="OpenSans-Bold" font-weight="bold" font-size="30.0" fill="#A6AAA8" transform="matrix(1.00, 0.00, -0.00, -1.00, 74.7, 474.0)">D</text><text xml:space="preserve" font-family="OpenSans-Bold" font-weight="bold" font-size="30.0" fill="#A6AAA8" transform="matrix(1.00, 0.00, -0.00, -1.00, 96.3, 474.0)">A</text><text xml:space="preserve" font-family="OpenSans-Bold" font-weight="bold" font-size="30.0" fill="#A6AAA8" transform="matrix(1.00, 0.00, -0.00, -1.00, 117.0, 474.0)">M</text><text xml:space="preserve" font-family="OpenSans-Bold" font-weight="bold" font-size="30.0" fill="#A6AAA8" transform="matrix(1.00, 0.00, -0.00, -1.00, 145.3, 474.0)"> </text><text xml:space="preserve" font-family="OpenSans-Bold" font-weight="bold" font-size="30.0" fill="#A6AAA8" transform="matrix(1.00, 0.00, -0.00, -1.00, 153.1, 474.0)">L</text><text xml:space="preserve" font-family="OpenSans-Bold" font-weight="bold" font-size="30.0" fill="#A6AAA8" transform="matrix(1.00, 0.00, -0.00, -1.00, 169.7, 474.0)">U</text><text xml:space="preserve" font-family="OpenSans-Bold" font-weight="bold" font-size="30.0" fill="#A6AAA8" transform="matrix(1.00, 0.00, -0.00, -1.00, 192.4, 474.0)">K</text><text xml:space="preserve" font-family="OpenSans-Bold" font-weight="bold" font-size="30.0" fill="#A6AAA8" transform="matrix(1.00, 0.00, -0.00, -1.00, 212.3, 474.0)">A</text><text xml:space="preserve" font-family="OpenSans-Bold" font-weight="bold" font-size="30.0" fill="#A6AAA8" transform="matrix(1.00, 0.00, -0.00, -1.00, 233.0, 474.0)">S</text><text xml:space="preserve" font-family="OpenSans-Bold" font-weight="bold" font-size="30.0" fill="#A6AAA8" transform="matrix(1.00, 0.00, -0.00, -1.00, 249.5, 474.0)">I</text><text xml:space="preserve" font-family="OpenSans-Bold" font-weight="bold" font-size="30.0" fill="#A6AAA8" transform="matrix(1.00, 0.00, -0.00, -1.00, 259.4, 474.0)">C</text><text xml:space="preserve" font-family="OpenSans-Bold" font-weight="bold" font-size="30.0" fill="#A6AAA8" transform="matrix(1.00, 0.00, -0.00, -1.00, 528.0, 474.0)">B</text><text xml:space="preserve" font-family="OpenSans-Bold" font-weight="bold" font-size="30.0" fill="#A6AAA8" transform="matrix(1.00, 0.00, -0.00, -1.00, 548.2, 474.0)">R</text><text xml:space="preserve" font-family="OpenSans-Bold" font-weight="bold" font-size="30.0" fill="#A6AAA8" transform="matrix(1.00, 0.00, -0.00, -1.00, 568.0, 474.0)">E</text><text xml:space="preserve" font-family="OpenSans-Bold" font-weight="bold" font-size="30.0" fill="#A6AAA8" transform="matrix(1.00, 0.00, -0.00, -1.00, 584.8, 474.0)">T</text><text xml:space="preserve" font-family="OpenSans-Bold" font-weight="bold" font-size="30.0" fill="#A6AAA8" transform="matrix(1.00, 0.00, -0.00, -1.00, 602.7, 474.0)">T</text><text xml:space="preserve" font-family="OpenSans-Bold" font-weight="bold" font-size="30.0" fill="#A6AAA8" transform="matrix(1.00, 0.00, -0.00, -1.00, 620.1, 474.0)"> </text><text xml:space="preserve" font-family="OpenSans-Bold" font-weight="bold" font-size="30.0" fill="#A6AAA8" transform="matrix(1.00, 0.00, -0.00, -1.00, 627.9, 474.0)">K</text><text xml:space="preserve" font-family="OpenSans-Bold" font-weight="bold" font-size="30.0" fill="#A6AAA8" transform="matrix(1.00, 0.00, -0.00, -1.00, 647.8, 474.0)">I</text><text xml:space="preserve" font-family="OpenSans-Bold" font-weight="bold" font-size="30.0" fill="#A6AAA8" transform="matrix(1.00, 0.00, -0.00, -1.00, 657.7, 474.0)">L</text><text xml:space="preserve" font-family="OpenSans-Bold" font-weight="bold" font-size="30.0" fill="#A6AAA8" transform="matrix(1.00, 0.00, -0.00, -1.00, 674.7, 474.0)">L</text><text xml:space="preserve" font-family="OpenSans-Bold" font-weight="bold" font-size="30.0" fill="#A6AAA8" transform="matrix(1.00, 0.00, -0.00, -1.00, 691.0, 474.0)">O</text><text xml:space="preserve" font-family="OpenSans-Bold" font-weight="bold" font-size="30.0" fill="#A6AAA8" transform="matrix(1.00, 0.00, -0.00, -1.00, 714.9, 474.0)">R</text><text xml:space="preserve" font-family="OpenSans-Bold" font-weight="bold" font-size="30.0" fill="#A6AAA8" transform="matrix(1.00, 0.00, -0.00, -1.00, 734.7, 474.0)">A</text><text xml:space="preserve" font-family="OpenSans-Bold" font-weight="bold" font-size="30.0" fill="#A6AAA8" transform="matrix(1.00, 0.00, -0.00, -1.00, 755.4, 474.0)">N</text><text xml:space="preserve" font-family="OpenSans-Bold" font-weight="bold" font-size="30.0" fill="#A6AAA8" transform="matrix(1.00, 0.00, -0.00, -1.00, 1002.0, 474.0)">A</text><text xml:space="preserve" font-family="OpenSans-Bold" font-weight="bold" font-size="30.0" fill="#A6AAA8" transform="matrix(1.00, 0.00, -0.00, -1.00, 1022.1, 474.0)">C</text><text xml:space="preserve" font-family="OpenSans-Bold" font-weight="bold" font-size="30.0" fill="#A6AAA8" transform="matrix(1.00, 0.00, -0.00, -1.00, 1040.6, 474.0)">C</text><text xml:space="preserve" font-family="OpenSans-Bold" font-weight="bold" font-size="30.0" fill="#A6AAA8" transform="matrix(1.00, 0.00, -0.00, -1.00, 1059.1, 474.0)">O</text><text xml:space="preserve" font-family="OpenSans-Bold" font-weight="bold" font-size="30.0" fill="#A6AAA8" transform="matrix(1.00, 0.00, -0.00, -1.00, 1083.0, 474.0)">U</text><text xml:space="preserve" font-family="OpenSans-Bold" font-weight="bold" font-size="30.0" fill="#A6AAA8" transform="matrix(1.00, 0.00, -0.00, -1.00, 1105.7, 474.0)">N</text><text xml:space="preserve" font-family="OpenSans-Bold" font-weight="bold" font-size="30.0" fill="#A6AAA8" transform="matrix(1.00, 0.00, -0.00, -1.00, 1130.1, 474.0)">T</text><text xml:space="preserve" font-family="OpenSans-Bold" font-weight="bold" font-size="30.0" fill="#A6AAA8" transform="matrix(1.00, 0.00, -0.00, -1.00, 1145.4, 474.0)">A</text><text xml:space="preserve" font-family="OpenSans-Bold" font-weight="bold" font-size="30.0" fill="#A6AAA8" transform="matrix(1.00, 0.00, -0.00, -1.00, 1166.1, 474.0)">N</text><text xml:space="preserve" font-family="OpenSans-Bold" font-weight="bold" font-size="30.0" fill="#A6AAA8" transform="matrix(1.00, 0.00, -0.00, -1.00, 1190.4, 474.0)">T</text><text xml:space="preserve" font-family="OpenSans-Bold" font-weight="bold" font-size="30.0" fill="#A6AAA8" transform="matrix(1.00, 0.00, -0.00, -1.00, 1477.0, 474.0)">L</text><text xml:space="preserve" font-family="OpenSans-Bold" font-weight="bold" font-size="30.0" fill="#A6AAA8" transform="matrix(1.00, 0.00, -0.00, -1.00, 1493.9, 474.0)">A</text><text xml:space="preserve" font-family="OpenSans-Bold" font-weight="bold" font-size="30.0" fill="#A6AAA8" transform="matrix(1.00, 0.00, -0.00, -1.00, 1513.4, 474.0)">W</text><text xml:space="preserve" font-family="OpenSans-Bold" font-weight="bold" font-size="30.0" fill="#A6AAA8" transform="matrix(1.00, 0.00, -0.00, -1.00, 1542.4, 474.0)">Y</text><text xml:space="preserve" font-family="OpenSans-Bold" font-weight="bold" font-size="30.0" fill="#A6AAA8" transform="matrix(1.00, 0.00, -0.00, -1.00, 1561.2, 474.0)">E</text><text xml:space="preserve" font-family="OpenSans-Bold" font-weight="bold" font-size="30.0" fill="#A6AAA8" transform="matrix(1.00, 0.00, -0.00, -1.00, 1578.0, 474.0)">R</text><text xml:space="preserve" font-family="OpenSans-Light" font-size="35.0" fill="#52575F" transform="matrix(1.00, 0.00, -0.00, -1.00, 54.0, 403.0)">D</text><text xml:space="preserve" font-family="OpenSans-Light" font-size="35.0" fill="#52575F" transform="matrix(1.00, 0.00, -0.00, -1.00, 78.7, 403.0)">e</text><text xml:space="preserve" font-family="OpenSans-Light" font-size="35.0" fill="#52575F" transform="matrix(1.00, 0.00, -0.00, -1.00, 97.9, 403.0)">s</text><text xml:space="preserve" font-family="OpenSans-Light" font-size="35.0" fill="#52575F" transform="matrix(1.00, 0.00, -0.00, -1.00, 114.2, 403.0)">i</text><text xml:space="preserve" font-family="OpenSans-Light" font-size="35.0" fill="#52575F" transform="matrix(1.00, 0.00, -0.00, -1.00, 122.2, 403.0)">g</text><text xml:space="preserve" font-family="OpenSans-Light" font-size="35.0" fill="#52575F" transform="matrix(1.00, 0.00, -0.00, -1.00, 140.5, 403.0)">n</text><text xml:space="preserve" font-family="OpenSans-Light" font-size="35.0" fill="#52575F" transform="matrix(1.00, 0.00, -0.00, -1.00, 161.1, 403.0)">e</text><text xml:space="preserve" font-family="OpenSans-Light" font-size="35.0" fill="#52575F" transform="matrix(1.00, 0.00, -0.00, -1.00, 180.3, 403.0)">r</text><text xml:space="preserve" font-family="OpenSans-Light" font-size="35.0" fill="#52575F" transform="matrix(1.00, 0.00, -0.00, -1.00, 193.9, 403.0)">/</text><text xml:space="preserve" font-family="OpenSans-Light" font-size="35.0" fill="#52575F" transform="matrix(1.00, 0.00, -0.00, -1.00, 205.9, 403.0)">M</text><text xml:space="preserve" font-family="OpenSans-Light" font-size="35.0" fill="#52575F" transform="matrix(1.00, 0.00, -0.00, -1.00, 236.1, 403.0)">a</text><text xml:space="preserve" font-family="OpenSans-Light" font-size="35.0" fill="#52575F" transform="matrix(1.00, 0.00, -0.00, -1.00, 254.6, 403.0)">k</text><text xml:space="preserve" font-family="OpenSans-Light" font-size="35.0" fill="#52575F" transform="matrix(1.00, 0.00, -0.00, -1.00, 270.9, 403.0)">e</text><text xml:space="preserve" font-family="OpenSans-Light" font-size="35.0" fill="#52575F" transform="matrix(1.00, 0.00, -0.00, -1.00, 290.1, 403.0)">r</text><text xml:space="preserve" font-family="OpenSans-Light" font-size="35.0" fill="#52575F" transform="matrix(1.00, 0.00, -0.00, -1.00, 303.7, 403.0)"> </text><text xml:space="preserve" font-family="OpenSans-Light" font-size="35.0" fill="#52575F" transform="matrix(1.00, 0.00, -0.00, -1.00, 54.0, 356.0)">“</text><text xml:space="preserve" font-family="OpenSans-Light" font-size="35.0" fill="#52575F" transform="matrix(1.00, 0.00, -0.00, -1.00, 64.5, 356.0)">H</text><text xml:space="preserve" font-family="OpenSans-Light" font-size="35.0" fill="#52575F" transform="matrix(1.00, 0.00, -0.00, -1.00, 89.7, 356.0)">u</text><text xml:space="preserve" font-family="OpenSans-Light" font-size="35.0" fill="#52575F" transform="matrix(1.00, 0.00, -0.00, -1.00, 110.3, 356.0)">m</text><text xml:space="preserve" font-family="OpenSans-Light" font-size="35.0" fill="#52575F" transform="matrix(1.00, 0.00, -0.00, -1.00, 141.2, 356.0)">a</text><text xml:space="preserve" font-family="OpenSans-Light" font-size="35.0" fill="#52575F" transform="matrix(1.00, 0.00, -0.00, -1.00, 159.7, 356.0)">n</text><text xml:space="preserve" font-family="OpenSans-Light" font-size="35.0" fill="#52575F" transform="matrix(1.00, 0.00, -0.00, -1.00, 180.4, 356.0)"> </text><text xml:space="preserve" font-family="OpenSans-Light" font-size="35.0" fill="#52575F" transform="matrix(1.00, 0.00, -0.00, -1.00, 189.4, 356.0)">W</text><text xml:space="preserve" font-family="OpenSans-Light" font-size="35.0" fill="#52575F" transform="matrix(1.00, 0.00, -0.00, -1.00, 220.7, 356.0)">i</text><text xml:space="preserve" font-family="OpenSans-Light" font-size="35.0" fill="#52575F" transform="matrix(1.00, 0.00, -0.00, -1.00, 228.6, 356.0)">k</text><text xml:space="preserve" font-family="OpenSans-Light" font-size="35.0" fill="#52575F" transform="matrix(1.00, 0.00, -0.00, -1.00, 245.5, 356.0)">i</text><text xml:space="preserve" font-family="OpenSans-Light" font-size="35.0" fill="#52575F" transform="matrix(1.00, 0.00, -0.00, -1.00, 253.4, 356.0)">p</text><text xml:space="preserve" font-family="OpenSans-Light" font-size="35.0" fill="#52575F" transform="matrix(1.00, 0.00, -0.00, -1.00, 274.2, 356.0)">e</text><text xml:space="preserve" font-family="OpenSans-Light" font-size="35.0" fill="#52575F" transform="matrix(1.00, 0.00, -0.00, -1.00, 293.4, 356.0)">d</text><text xml:space="preserve" font-family="OpenSans-Light" font-size="35.0" fill="#52575F" transform="matrix(1.00, 0.00, -0.00, -1.00, 314.2, 356.0)">i</text><text xml:space="preserve" font-family="OpenSans-Light" font-size="35.0" fill="#52575F" transform="matrix(1.00, 0.00, -0.00, -1.00, 322.2, 356.0)">a</text><text xml:space="preserve" font-family="OpenSans-Light" font-size="35.0" fill="#52575F" transform="matrix(1.00, 0.00, -0.00, -1.00, 340.7, 356.0)">.</text><text xml:space="preserve" font-family="OpenSans-Light" font-size="35.0" fill="#52575F" transform="matrix(1.00, 0.00, -0.00, -1.00, 349.0, 356.0)">”</text><text xml:space="preserve" font-family="OpenSans-Light" font-size="35.0" fill="#52575F" transform="matrix(1.00, 0.00, -0.00, -1.00, 528.0, 403.0)">D</text><text xml:space="preserve" font-family="OpenSans-Light" font-size="35.0" fill="#52575F" transform="matrix(1.00, 0.00, -0.00, -1.00, 552.7, 403.0)">e</text><text xml:space="preserve" font-family="OpenSans-Light" font-size="35.0" fill="#52575F" transform="matrix(1.00, 0.00, -0.00, -1.00, 571.9, 403.0)">s</text><text xml:space="preserve" font-family="OpenSans-Light" font-size="35.0" fill="#52575F" transform="matrix(1.00, 0.00, -0.00, -1.00, 588.2, 403.0)">i</text><text xml:space="preserve" font-family="OpenSans-Light" font-size="35.0" fill="#52575F" transform="matrix(1.00, 0.00, -0.00, -1.00, 596.1, 403.0)">g</text><text xml:space="preserve" font-family="OpenSans-Light" font-size="35.0" fill="#52575F" transform="matrix(1.00, 0.00, -0.00, -1.00, 614.4, 403.0)">n</text><text xml:space="preserve" font-family="OpenSans-Light" font-size="35.0" fill="#52575F" transform="matrix(1.00, 0.00, -0.00, -1.00, 635.1, 403.0)">e</text><text xml:space="preserve" font-family="OpenSans-Light" font-size="35.0" fill="#52575F" transform="matrix(1.00, 0.00, -0.00, -1.00, 654.3, 403.0)">r</text><text xml:space="preserve" font-family="OpenSans-Light" font-size="35.0" fill="#52575F" transform="matrix(1.00, 0.00, -0.00, -1.00, 667.9, 403.0)">,</text><text xml:space="preserve" font-family="OpenSans-Light" font-size="35.0" fill="#52575F" transform="matrix(1.00, 0.00, -0.00, -1.00, 675.4, 403.0)"> </text><text xml:space="preserve" font-family="OpenSans-Light" font-size="35.0" fill="#52575F" transform="matrix(1.00, 0.00, -0.00, -1.00, 684.5, 403.0)">S</text><text xml:space="preserve" font-family="OpenSans-Light" font-size="35.0" fill="#52575F" transform="matrix(1.00, 0.00, -0.00, -1.00, 703.6, 403.0)">t</text><text xml:space="preserve" font-family="OpenSans-Light" font-size="35.0" fill="#52575F" transform="matrix(1.00, 0.00, -0.00, -1.00, 715.3, 403.0)">o</text><text xml:space="preserve" font-family="OpenSans-Light" font-size="35.0" fill="#52575F" transform="matrix(1.00, 0.00, -0.00, -1.00, 735.8, 403.0)">r</text><text xml:space="preserve" font-family="OpenSans-Light" font-size="35.0" fill="#52575F" transform="matrix(1.00, 0.00, -0.00, -1.00, 749.4, 403.0)">y</text><text xml:space="preserve" font-family="OpenSans-Light" font-size="35.0" fill="#52575F" transform="matrix(1.00, 0.00, -0.00, -1.00, 765.5, 403.0)">t</text><text xml:space="preserve" font-family="OpenSans-Light" font-size="35.0" fill="#52575F" transform="matrix(1.00, 0.00, -0.00, -1.00, 777.2, 403.0)">e</text><text xml:space="preserve" font-family="OpenSans-Light" font-size="35.0" fill="#52575F" transform="matrix(1.00, 0.00, -0.00, -1.00, 796.4, 403.0)">l</text><text xml:space="preserve" font-family="OpenSans-Light" font-size="35.0" fill="#52575F" transform="matrix(1.00, 0.00, -0.00, -1.00, 804.3, 403.0)">l</text><text xml:space="preserve" font-family="OpenSans-Light" font-size="35.0" fill="#52575F" transform="matrix(1.00, 0.00, -0.00, -1.00, 812.2, 403.0)">e</text><text xml:space="preserve" font-family="OpenSans-Light" font-size="35.0" fill="#52575F" transform="matrix(1.00, 0.00, -0.00, -1.00, 831.4, 403.0)">r</text><text xml:space="preserve" font-family="OpenSans-Light" font-size="35.0" fill="#52575F" transform="matrix(1.00, 0.00, -0.00, -1.00, 845.1, 403.0)"> </text><text xml:space="preserve" font-family="OpenSans-Light" font-size="35.0" fill="#52575F" transform="matrix(1.00, 0.00, -0.00, -1.00, 528.0, 356.0)">a</text><text xml:space="preserve" font-family="OpenSans-Light" font-size="35.0" fill="#52575F" transform="matrix(1.00, 0.00, -0.00, -1.00, 546.5, 356.0)">n</text><text xml:space="preserve" font-family="OpenSans-Light" font-size="35.0" fill="#52575F" transform="matrix(1.00, 0.00, -0.00, -1.00, 567.2, 356.0)">d</text><text xml:space="preserve" font-family="OpenSans-Light" font-size="35.0" fill="#52575F" transform="matrix(1.00, 0.00, -0.00, -1.00, 588.0, 356.0)"> </text><text xml:space="preserve" font-family="OpenSans-Light" font-size="35.0" fill="#52575F" transform="matrix(1.00, 0.00, -0.00, -1.00, 597.1, 356.0)">“</text><text xml:space="preserve" font-family="OpenSans-Light" font-size="35.0" fill="#52575F" transform="matrix(1.00, 0.00, -0.00, -1.00, 607.6, 356.0)">B</text><text xml:space="preserve" font-family="OpenSans-Light" font-size="35.0" fill="#52575F" transform="matrix(1.00, 0.00, -0.00, -1.00, 629.5, 356.0)">r</text><text xml:space="preserve" font-family="OpenSans-Light" font-size="35.0" fill="#52575F" transform="matrix(1.00, 0.00, -0.00, -1.00, 642.5, 356.0)">a</text><text xml:space="preserve" font-family="OpenSans-Light" font-size="35.0" fill="#52575F" transform="matrix(1.00, 0.00, -0.00, -1.00, 661.0, 356.0)">n</text><text xml:space="preserve" font-family="OpenSans-Light" font-size="35.0" fill="#52575F" transform="matrix(1.00, 0.00, -0.00, -1.00, 681.6, 356.0)">d</text><text xml:space="preserve" font-family="OpenSans-Light" font-size="35.0" fill="#52575F" transform="matrix(1.00, 0.00, -0.00, -1.00, 702.5, 356.0)"> </text><text xml:space="preserve" font-family="OpenSans-Light" font-size="35.0" fill="#52575F" transform="matrix(1.00, 0.00, -0.00, -1.00, 711.5, 356.0)">G</text><text xml:space="preserve" font-family="OpenSans-Light" font-size="35.0" fill="#52575F" transform="matrix(1.00, 0.00, -0.00, -1.00, 736.9, 356.0)">u</text><text xml:space="preserve" font-family="OpenSans-Light" font-size="35.0" fill="#52575F" transform="matrix(1.00, 0.00, -0.00, -1.00, 757.5, 356.0)">r</text><text xml:space="preserve" font-family="OpenSans-Light" font-size="35.0" fill="#52575F" transform="matrix(1.00, 0.00, -0.00, -1.00, 771.1, 356.0)">u</text><text xml:space="preserve" font-family="OpenSans-Light" font-size="35.0" fill="#52575F" transform="matrix(1.00, 0.00, -0.00, -1.00, 791.8, 356.0)">.</text><text xml:space="preserve" font-family="OpenSans-Light" font-size="35.0" fill="#52575F" transform="matrix(1.00, 0.00, -0.00, -1.00, 800.1, 356.0)">”</text><text xml:space="preserve" font-family="OpenSans-Light" font-size="35.0" fill="#52575F" transform="matrix(1.00, 0.00, -0.00, -1.00, 1003.0, 403.0)">H</text><text xml:space="preserve" font-family="OpenSans-Light" font-size="35.0" fill="#52575F" transform="matrix(1.00, 0.00, -0.00, -1.00, 1028.2, 403.0)">e</text><text xml:space="preserve" font-family="OpenSans-Light" font-size="35.0" fill="#52575F" transform="matrix(1.00, 0.00, -0.00, -1.00, 1047.4, 403.0)">l</text><text xml:space="preserve" font-family="OpenSans-Light" font-size="35.0" fill="#52575F" transform="matrix(1.00, 0.00, -0.00, -1.00, 1055.3, 403.0)">p</text><text xml:space="preserve" font-family="OpenSans-Light" font-size="35.0" fill="#52575F" transform="matrix(1.00, 0.00, -0.00, -1.00, 1076.1, 403.0)">s</text><text xml:space="preserve" font-family="OpenSans-Light" font-size="35.0" fill="#52575F" transform="matrix(1.00, 0.00, -0.00, -1.00, 1092.4, 403.0)"> </text><text xml:space="preserve" font-family="OpenSans-Light" font-size="35.0" fill="#52575F" transform="matrix(1.00, 0.00, -0.00, -1.00, 1101.5, 403.0)">w</text><text xml:space="preserve" font-family="OpenSans-Light" font-size="35.0" fill="#52575F" transform="matrix(1.00, 0.00, -0.00, -1.00, 1126.8, 403.0)">i</text><text xml:space="preserve" font-family="OpenSans-Light" font-size="35.0" fill="#52575F" transform="matrix(1.00, 0.00, -0.00, -1.00, 1134.7, 403.0)">t</text><text xml:space="preserve" font-family="OpenSans-Light" font-size="35.0" fill="#52575F" transform="matrix(1.00, 0.00, -0.00, -1.00, 1146.5, 403.0)">h</text><text xml:space="preserve" font-family="OpenSans-Light" font-size="35.0" fill="#52575F" transform="matrix(1.00, 0.00, -0.00, -1.00, 1167.1, 403.0)"> </text><text xml:space="preserve" font-family="OpenSans-Light" font-size="35.0" fill="#52575F" transform="matrix(1.00, 0.00, -0.00, -1.00, 1176.2, 403.0)">b</text><text xml:space="preserve" font-family="OpenSans-Light" font-size="35.0" fill="#52575F" transform="matrix(1.00, 0.00, -0.00, -1.00, 1197.0, 403.0)">i</text><text xml:space="preserve" font-family="OpenSans-Light" font-size="35.0" fill="#52575F" transform="matrix(1.00, 0.00, -0.00, -1.00, 1205.0, 403.0)">l</text><text xml:space="preserve" font-family="OpenSans-Light" font-size="35.0" fill="#52575F" transform="matrix(1.00, 0.00, -0.00, -1.00, 1212.9, 403.0)">l</text><text xml:space="preserve" font-family="OpenSans-Light" font-size="35.0" fill="#52575F" transform="matrix(1.00, 0.00, -0.00, -1.00, 1220.8, 403.0)">i</text><text xml:space="preserve" font-family="OpenSans-Light" font-size="35.0" fill="#52575F" transform="matrix(1.00, 0.00, -0.00, -1.00, 1228.7, 403.0)">n</text><text xml:space="preserve" font-family="OpenSans-Light" font-size="35.0" fill="#52575F" transform="matrix(1.00, 0.00, -0.00, -1.00, 1249.3, 403.0)">g</text><text xml:space="preserve" font-family="OpenSans-Light" font-size="35.0" fill="#52575F" transform="matrix(1.00, 0.00, -0.00, -1.00, 1267.6, 403.0)">,</text><text xml:space="preserve" font-family="OpenSans-Light" font-size="35.0" fill="#52575F" transform="matrix(1.00, 0.00, -0.00, -1.00, 1275.1, 403.0)"> </text><text xml:space="preserve" font-family="OpenSans-Light" font-size="35.0" fill="#52575F" transform="matrix(1.00, 0.00, -0.00, -1.00, 1284.2, 403.0)">t</text><text xml:space="preserve" font-family="OpenSans-Light" font-size="35.0" fill="#52575F" transform="matrix(1.00, 0.00, -0.00, -1.00, 1296.0, 403.0)">a</text><text xml:space="preserve" font-family="OpenSans-Light" font-size="35.0" fill="#52575F" transform="matrix(1.00, 0.00, -0.00, -1.00, 1314.5, 403.0)">x</text><text xml:space="preserve" font-family="OpenSans-Light" font-size="35.0" fill="#52575F" transform="matrix(1.00, 0.00, -0.00, -1.00, 1331.2, 403.0)">e</text><text xml:space="preserve" font-family="OpenSans-Light" font-size="35.0" fill="#52575F" transform="matrix(1.00, 0.00, -0.00, -1.00, 1350.4, 403.0)">s</text><text xml:space="preserve" font-family="OpenSans-Light" font-size="35.0" fill="#52575F" transform="matrix(1.00, 0.00, -0.00, -1.00, 1366.7, 403.0)">,</text><text xml:space="preserve" font-family="OpenSans-Light" font-size="35.0" fill="#52575F" transform="matrix(1.00, 0.00, -0.00, -1.00, 1374.2, 403.0)"> </text><text xml:space="preserve" font-family="OpenSans-Light" font-size="35.0" fill="#52575F" transform="matrix(1.00, 0.00, -0.00, -1.00, 1003.0, 356.0)">ﬁ</text><text xml:space="preserve" font-family="OpenSans-Light" font-size="35.0" fill="#52575F" transform="matrix(1.00, 0.00, -0.00, -1.00, 1021.4, 356.0)">n</text><text xml:space="preserve" font-family="OpenSans-Light" font-size="35.0" fill="#52575F" transform="matrix(1.00, 0.00, -0.00, -1.00, 1042.0, 356.0)">a</text><text xml:space="preserve" font-family="OpenSans-Light" font-size="35.0" fill="#52575F" transform="matrix(1.00, 0.00, -0.00, -1.00, 1060.6, 356.0)">n</text><text xml:space="preserve" font-family="OpenSans-Light" font-size="35.0" fill="#52575F" transform="matrix(1.00, 0.00, -0.00, -1.00, 1081.2, 356.0)">c</text><text xml:space="preserve" font-family="OpenSans-Light" font-size="35.0" fill="#52575F" transform="matrix(1.00, 0.00, -0.00, -1.00, 1097.8, 356.0)">i</text><text xml:space="preserve" font-family="OpenSans-Light" font-size="35.0" fill="#52575F" transform="matrix(1.00, 0.00, -0.00, -1.00, 1105.8, 356.0)">a</text><text xml:space="preserve" font-family="OpenSans-Light" font-size="35.0" fill="#52575F" transform="matrix(1.00, 0.00, -0.00, -1.00, 1124.3, 356.0)">l</text><text xml:space="preserve" font-family="OpenSans-Light" font-size="35.0" fill="#52575F" transform="matrix(1.00, 0.00, -0.00, -1.00, 1132.2, 356.0)"> </text><text xml:space="preserve" font-family="OpenSans-Light" font-size="35.0" fill="#52575F" transform="matrix(1.00, 0.00, -0.00, -1.00, 1141.3, 356.0)">w</text><text xml:space="preserve" font-family="OpenSans-Light" font-size="35.0" fill="#52575F" transform="matrix(1.00, 0.00, -0.00, -1.00, 1166.6, 356.0)">o</text><text xml:space="preserve" font-family="OpenSans-Light" font-size="35.0" fill="#52575F" transform="matrix(1.00, 0.00, -0.00, -1.00, 1187.1, 356.0)">r</text><text xml:space="preserve" font-family="OpenSans-Light" font-size="35.0" fill="#52575F" transform="matrix(1.00, 0.00, -0.00, -1.00, 1200.7, 356.0)">k</text><text xml:space="preserve" font-family="OpenSans-Light" font-size="35.0" fill="#52575F" transform="matrix(1.00, 0.00, -0.00, -1.00, 1217.7, 356.0)">.</text><text xml:space="preserve" font-family="OpenSans-Light" font-size="35.0" fill="#52575F" transform="matrix(1.00, 0.00, -0.00, -1.00, 1477.0, 403.0)">H</text><text xml:space="preserve" font-family="OpenSans-Light" font-size="35.0" fill="#52575F" transform="matrix(1.00, 0.00, -0.00, -1.00, 1502.2, 403.0)">e</text><text xml:space="preserve" font-family="OpenSans-Light" font-size="35.0" fill="#52575F" transform="matrix(1.00, 0.00, -0.00, -1.00, 1521.4, 403.0)">l</text><text xml:space="preserve" font-family="OpenSans-Light" font-size="35.0" fill="#52575F" transform="matrix(1.00, 0.00, -0.00, -1.00, 1529.3, 403.0)">p</text><text xml:space="preserve" font-family="OpenSans-Light" font-size="35.0" fill="#52575F" transform="matrix(1.00, 0.00, -0.00, -1.00, 1550.1, 403.0)">s</text><text xml:space="preserve" font-family="OpenSans-Light" font-size="35.0" fill="#52575F" transform="matrix(1.00, 0.00, -0.00, -1.00, 1566.4, 403.0)"> </text><text xml:space="preserve" font-family="OpenSans-Light" font-size="35.0" fill="#52575F" transform="matrix(1.00, 0.00, -0.00, -1.00, 1575.5, 403.0)">u</text><text xml:space="preserve" font-family="OpenSans-Light" font-size="35.0" fill="#52575F" transform="matrix(1.00, 0.00, -0.00, -1.00, 1596.2, 403.0)">s</text><text xml:space="preserve" font-family="OpenSans-Light" font-size="35.0" fill="#52575F" transform="matrix(1.00, 0.00, -0.00, -1.00, 1612.5, 403.0)"> </text><text xml:space="preserve" font-family="OpenSans-Light" font-size="35.0" fill="#52575F" transform="matrix(1.00, 0.00, -0.00, -1.00, 1621.5, 403.0)">w</text><text xml:space="preserve" font-family="OpenSans-Light" font-size="35.0" fill="#52575F" transform="matrix(1.00, 0.00, -0.00, -1.00, 1646.9, 403.0)">i</text><text xml:space="preserve" font-family="OpenSans-Light" font-size="35.0" fill="#52575F" transform="matrix(1.00, 0.00, -0.00, -1.00, 1654.8, 403.0)">t</text><text xml:space="preserve" font-family="OpenSans-Light" font-size="35.0" fill="#52575F" transform="matrix(1.00, 0.00, -0.00, -1.00, 1666.5, 403.0)">h</text><text xml:space="preserve" font-family="OpenSans-Light" font-size="35.0" fill="#52575F" transform="matrix(1.00, 0.00, -0.00, -1.00, 1687.1, 403.0)"> </text><text xml:space="preserve" font-family="OpenSans-Light" font-size="35.0" fill="#52575F" transform="matrix(1.00, 0.00, -0.00, -1.00, 1696.2, 403.0)">b</text><text xml:space="preserve" font-family="OpenSans-Light" font-size="35.0" fill="#52575F" transform="matrix(1.00, 0.00, -0.00, -1.00, 1717.1, 403.0)">u</text><text xml:space="preserve" font-family="OpenSans-Light" font-size="35.0" fill="#52575F" transform="matrix(1.00, 0.00, -0.00, -1.00, 1737.7, 403.0)">s</text><text xml:space="preserve" font-family="OpenSans-Light" font-size="35.0" fill="#52575F" transform="matrix(1.00, 0.00, -0.00, -1.00, 1754.0, 403.0)">i</text><text xml:space="preserve" font-family="OpenSans-Light" font-size="35.0" fill="#52575F" transform="matrix(1.00, 0.00, -0.00, -1.00, 1761.9, 403.0)">n</text><text xml:space="preserve" font-family="OpenSans-Light" font-size="35.0" fill="#52575F" transform="matrix(1.00, 0.00, -0.00, -1.00, 1782.5, 403.0)">e</text><text xml:space="preserve" font-family="OpenSans-Light" font-size="35.0" fill="#52575F" transform="matrix(1.00, 0.00, -0.00, -1.00, 1801.7, 403.0)">s</text><text xml:space="preserve" font-family="OpenSans-Light" font-size="35.0" fill="#52575F" transform="matrix(1.00, 0.00, -0.00, -1.00, 1818.0, 403.0)">s</text><text xml:space="preserve" font-family="OpenSans-Light" font-size="35.0" fill="#52575F" transform="matrix(1.00, 0.00, -0.00, -1.00, 1834.3, 403.0)"> </text><text xml:space="preserve" font-family="OpenSans-Light" font-size="35.0" fill="#52575F" transform="matrix(1.00, 0.00, -0.00, -1.00, 1477.0, 356.0)">a</text><text xml:space="preserve" font-family="OpenSans-Light" font-size="35.0" fill="#52575F" transform="matrix(1.00, 0.00, -0.00, -1.00, 1495.5, 356.0)">n</text><text xml:space="preserve" font-family="OpenSans-Light" font-size="35.0" fill="#52575F" transform="matrix(1.00, 0.00, -0.00, -1.00, 1516.2, 356.0)">d</text><text xml:space="preserve" font-family="OpenSans-Light" font-size="35.0" fill="#52575F" transform="matrix(1.00, 0.00, -0.00, -1.00, 1537.0, 356.0)"> </text><text xml:space="preserve" font-family="OpenSans-Light" font-size="35.0" fill="#52575F" transform="matrix(1.00, 0.00, -0.00, -1.00, 1546.1, 356.0)">l</text><text xml:space="preserve" font-family="OpenSans-Light" font-size="35.0" fill="#52575F" transform="matrix(1.00, 0.00, -0.00, -1.00, 1554.0, 356.0)">e</text><text xml:space="preserve" font-family="OpenSans-Light" font-size="35.0" fill="#52575F" transform="matrix(1.00, 0.00, -0.00, -1.00, 1573.2, 356.0)">g</text><text xml:space="preserve" font-family="OpenSans-Light" font-size="35.0" fill="#52575F" transform="matrix(1.00, 0.00, -0.00, -1.00, 1591.5, 356.0)">a</text><text xml:space="preserve" font-family="OpenSans-Light" font-size="35.0" fill="#52575F" transform="matrix(1.00, 0.00, -0.00, -1.00, 1610.0, 356.0)">l</text><text xml:space="preserve" font-family="OpenSans-Light" font-size="35.0" fill="#52575F" transform="matrix(1.00, 0.00, -0.00, -1.00, 1617.9, 356.0)"> </text><text xml:space="preserve" font-family="OpenSans-Light" font-size="35.0" fill="#52575F" transform="matrix(1.00, 0.00, -0.00, -1.00, 1627.0, 356.0)">w</text><text xml:space="preserve" font-family="OpenSans-Light" font-size="35.0" fill="#52575F" transform="matrix(1.00, 0.00, -0.00, -1.00, 1652.3, 356.0)">o</text><text xml:space="preserve" font-family="OpenSans-Light" font-size="35.0" fill="#52575F" transform="matrix(1.00, 0.00, -0.00, -1.00, 1672.8, 356.0)">r</text><text xml:space="preserve" font-family="OpenSans-Light" font-size="35.0" fill="#52575F" transform="matrix(1.00, 0.00, -0.00, -1.00, 1686.4, 356.0)">k</text><text xml:space="preserve" font-family="OpenSans-Light" font-size="35.0" fill="#52575F" transform="matrix(1.00, 0.00, -0.00, -1.00, 1703.4, 356.0)">.</text></g></svg>