<svg xmlns="http://www.w3.org/2000/svg" xmlns:xlink="http://www.w3.org/1999/xlink" stroke-miterlimit="4" clip-rule="evenodd" viewBox="0 0 1920 1080"><desc>SVG generated by Keynote</desc><g transform="matrix(1.00, 0.00, -0.00, -1.00, 0.0, 1080.0)"><path fill="#000" d="M 0.0 1080.0 L 1920.0 1080.0 L 1920.0 0.0 L 0.0 0.0 Z M 0.0 1080.0"/><image width="1152" height="768" transform="matrix(2.59, 0.00, -0.00, -2.59, -24.0, 1582.0)" xlink:href="../../CB4550A7-3296-4EB8-A9A2-1F378210240D/assets/ECC48E20BCE197D5C375B758909F60DA.jpeg"/><text fill="#FEFFFF" font-family="Helvetica-Bold" font-size="150" font-weight="bold" transform="matrix(1.00, 0.00, -0.00, -1.00, 538.0, 571.0)" xml:space="preserve">W</text><text fill="#FEFFFF" font-family="Helvetica-Bold" font-size="150" font-weight="bold" transform="matrix(1.00, 0.00, -0.00, -1.00, 679.5, 571.0)" xml:space="preserve">h</text><text fill="#FEFFFF" font-family="Helvetica-Bold" font-size="150" font-weight="bold" transform="matrix(1.00, 0.00, -0.00, -1.00, 771.1, 571.0)" xml:space="preserve">a</text><text fill="#FEFFFF" font-family="Helvetica-Bold" font-size="150" font-weight="bold" transform="matrix(1.00, 0.00, -0.00, -1.00, 854.6, 571.0)" xml:space="preserve">t</text><text fill="#FEFFFF" font-family="Helvetica-Bold" font-size="150" font-weight="bold" transform="matrix(1.00, 0.00, -0.00, -1.00, 946.2, 571.0)" xml:space="preserve">w</text><text fill="#FEFFFF" font-family="Helvetica-Bold" font-size="150" font-weight="bold" transform="matrix(1.00, 0.00, -0.00, -1.00, 1062.8, 571.0)" xml:space="preserve">e</text><text fill="#FEFFFF" font-family="Helvetica-Bold" font-size="150" font-weight="bold" transform="matrix(1.00, 0.00, -0.00, -1.00, 538.0, 391.0)" xml:space="preserve">f</text><text fill="#FEFFFF" font-family="Helvetica-Bold" font-size="150" font-weight="bold" transform="matrix(1.00, 0.00, -0.00, -1.00, 588.0, 391.0)" xml:space="preserve">o</text><text fill="#FEFFFF" font-family="Helvetica-Bold" font-size="150" font-weight="bold" transform="matrix(1.00, 0.00, -0.00, -1.00, 679.5, 391.0)" xml:space="preserve">u</text><text fill="#FEFFFF" font-family="Helvetica-Bold" font-size="150" font-weight="bold" transform="matrix(1.00, 0.00, -0.00, -1.00, 771.1, 391.0)" xml:space="preserve">n</text><text fill="#FEFFFF" font-family="Helvetica-Bold" font-size="150" font-weight="bold" transform="matrix(1.00, 0.00, -0.00, -1.00, 862.7, 391.0)" xml:space="preserve">d</text></g></svg>