<?xml version="1.0" encoding="UTF-8" standalone="no"?><svg xmlns="http://www.w3.org/2000/svg" xmlns:xlink="http://www.w3.org/1999/xlink" clip-rule="evenodd" stroke-miterlimit="4.00" viewBox="0 0 1920 1080"><desc>SVG generated by Keynote</desc><defs></defs><g transform="matrix(1.00, 0.00, -0.00, -1.00, 0.0, 1080.0)"><path d="M 0.0 1080.0 L 1920.0 1080.0 L 1920.0 0.0 L 0.0 0.0 Z M 0.0 1080.0 " fill="#000000"></path><g opacity="0.56"><g><clipPath id="clip-571"><path d="M 0.0 0.0 L 1920.0 0.0 L 1920.0 1080.0 L 0.0 1080.0 Z M 0.0 0.0 "></path></clipPath><g clip-path="url(#clip-571)"><image xlink:href="1AF89FD1C5DCC669C9F634CE4FB4AC7D.jpeg" width="1366.00" height="505.00" transform="matrix(2.16, 0.00, -0.00, -2.16, -577.0, 1088.0)"></image></g></g></g><text xml:space="preserve" font-family="Helvetica-Bold" font-weight="bold" font-size="150.0" fill="#FEFFFF" transform="matrix(1.00, 0.00, -0.00, -1.00, 538.0, 571.0)">N</text><text xml:space="preserve" font-family="Helvetica-Bold" font-weight="bold" font-size="150.0" fill="#FEFFFF" transform="matrix(1.00, 0.00, -0.00, -1.00, 646.4, 571.0)">e</text><text xml:space="preserve" font-family="Helvetica-Bold" font-weight="bold" font-size="150.0" fill="#FEFFFF" transform="matrix(1.00, 0.00, -0.00, -1.00, 729.8, 571.0)">x</text><text xml:space="preserve" font-family="Helvetica-Bold" font-weight="bold" font-size="150.0" fill="#FEFFFF" transform="matrix(1.00, 0.00, -0.00, -1.00, 813.3, 571.0)">t</text><text xml:space="preserve" font-family="Helvetica-Bold" font-weight="bold" font-size="150.0" fill="#FEFFFF" transform="matrix(1.00, 0.00, -0.00, -1.00, 863.2, 571.0)"> </text><text xml:space="preserve" font-family="Helvetica-Bold" font-weight="bold" font-size="150.0" fill="#FEFFFF" transform="matrix(1.00, 0.00, -0.00, -1.00, 904.9, 571.0)">S</text><text xml:space="preserve" font-family="Helvetica-Bold" font-weight="bold" font-size="150.0" fill="#FEFFFF" transform="matrix(1.00, 0.00, -0.00, -1.00, 1004.9, 571.0)">t</text><text xml:space="preserve" font-family="Helvetica-Bold" font-weight="bold" font-size="150.0" fill="#FEFFFF" transform="matrix(1.00, 0.00, -0.00, -1.00, 1054.9, 571.0)">e</text><text xml:space="preserve" font-family="Helvetica-Bold" font-weight="bold" font-size="150.0" fill="#FEFFFF" transform="matrix(1.00, 0.00, -0.00, -1.00, 1138.3, 571.0)">p</text><text xml:space="preserve" font-family="Helvetica-Bold" font-weight="bold" font-size="150.0" fill="#FEFFFF" transform="matrix(1.00, 0.00, -0.00, -1.00, 1229.9, 571.0)">s</text><text xml:space="preserve" font-family="Helvetica" font-size="60.0" fill="#FEFFFF" transform="matrix(1.00, 0.00, -0.00, -1.00, 538.0, 478.0)">/</text><text xml:space="preserve" font-family="Helvetica" font-size="60.0" fill="#FEFFFF" transform="matrix(1.00, 0.00, -0.00, -1.00, 554.7, 478.0)"> </text><text xml:space="preserve" font-family="Helvetica" font-size="60.0" fill="#FEFFFF" transform="matrix(1.00, 0.00, -0.00, -1.00, 571.3, 478.0)">B</text><text xml:space="preserve" font-family="Helvetica" font-size="60.0" fill="#FEFFFF" transform="matrix(1.00, 0.00, -0.00, -1.00, 611.3, 478.0)">u</text><text xml:space="preserve" font-family="Helvetica" font-size="60.0" fill="#FEFFFF" transform="matrix(1.00, 0.00, -0.00, -1.00, 644.7, 478.0)">i</text><text xml:space="preserve" font-family="Helvetica" font-size="60.0" fill="#FEFFFF" transform="matrix(1.00, 0.00, -0.00, -1.00, 658.1, 478.0)">l</text><text xml:space="preserve" font-family="Helvetica" font-size="60.0" fill="#FEFFFF" transform="matrix(1.00, 0.00, -0.00, -1.00, 671.4, 478.0)">d</text><text xml:space="preserve" font-family="Helvetica" font-size="60.0" fill="#FEFFFF" transform="matrix(1.00, 0.00, -0.00, -1.00, 704.8, 478.0)"> </text><text xml:space="preserve" font-family="Helvetica" font-size="60.0" fill="#FEFFFF" transform="matrix(1.00, 0.00, -0.00, -1.00, 721.4, 478.0)">a</text><text xml:space="preserve" font-family="Helvetica" font-size="60.0" fill="#FEFFFF" transform="matrix(1.00, 0.00, -0.00, -1.00, 754.8, 478.0)">n</text><text xml:space="preserve" font-family="Helvetica" font-size="60.0" fill="#FEFFFF" transform="matrix(1.00, 0.00, -0.00, -1.00, 788.2, 478.0)"> </text><text xml:space="preserve" font-family="Helvetica" font-size="60.0" fill="#FEFFFF" transform="matrix(1.00, 0.00, -0.00, -1.00, 804.9, 478.0)">a</text><text xml:space="preserve" font-family="Helvetica" font-size="60.0" fill="#FEFFFF" transform="matrix(1.00, 0.00, -0.00, -1.00, 838.2, 478.0)">u</text><text xml:space="preserve" font-family="Helvetica" font-size="60.0" fill="#FEFFFF" transform="matrix(1.00, 0.00, -0.00, -1.00, 871.6, 478.0)">d</text><text xml:space="preserve" font-family="Helvetica" font-size="60.0" fill="#FEFFFF" transform="matrix(1.00, 0.00, -0.00, -1.00, 905.0, 478.0)">i</text><text xml:space="preserve" font-family="Helvetica" font-size="60.0" fill="#FEFFFF" transform="matrix(1.00, 0.00, -0.00, -1.00, 918.3, 478.0)">e</text><text xml:space="preserve" font-family="Helvetica" font-size="60.0" fill="#FEFFFF" transform="matrix(1.00, 0.00, -0.00, -1.00, 951.7, 478.0)">n</text><text xml:space="preserve" font-family="Helvetica" font-size="60.0" fill="#FEFFFF" transform="matrix(1.00, 0.00, -0.00, -1.00, 985.1, 478.0)">c</text><text xml:space="preserve" font-family="Helvetica" font-size="60.0" fill="#FEFFFF" transform="matrix(1.00, 0.00, -0.00, -1.00, 1015.1, 478.0)">e</text><text xml:space="preserve" font-family="Helvetica" font-size="60.0" fill="#FEFFFF" transform="matrix(1.00, 0.00, -0.00, -1.00, 538.0, 406.0)">/</text><text xml:space="preserve" font-family="Helvetica" font-size="60.0" fill="#FEFFFF" transform="matrix(1.00, 0.00, -0.00, -1.00, 554.7, 406.0)"> </text><text xml:space="preserve" font-family="Helvetica" font-size="60.0" fill="#FEFFFF" transform="matrix(1.00, 0.00, -0.00, -1.00, 571.3, 406.0)">C</text><text xml:space="preserve" font-family="Helvetica" font-size="60.0" fill="#FEFFFF" transform="matrix(1.00, 0.00, -0.00, -1.00, 614.7, 406.0)">o</text><text xml:space="preserve" font-family="Helvetica" font-size="60.0" fill="#FEFFFF" transform="matrix(1.00, 0.00, -0.00, -1.00, 648.0, 406.0)">d</text><text xml:space="preserve" font-family="Helvetica" font-size="60.0" fill="#FEFFFF" transform="matrix(1.00, 0.00, -0.00, -1.00, 681.4, 406.0)">e</text><text xml:space="preserve" font-family="Helvetica" font-size="60.0" fill="#FEFFFF" transform="matrix(1.00, 0.00, -0.00, -1.00, 714.8, 406.0)"> </text><text xml:space="preserve" font-family="Helvetica" font-size="60.0" fill="#FEFFFF" transform="matrix(1.00, 0.00, -0.00, -1.00, 731.5, 406.0)">o</text><text xml:space="preserve" font-family="Helvetica" font-size="60.0" fill="#FEFFFF" transform="matrix(1.00, 0.00, -0.00, -1.00, 764.8, 406.0)">u</text><text xml:space="preserve" font-family="Helvetica" font-size="60.0" fill="#FEFFFF" transform="matrix(1.00, 0.00, -0.00, -1.00, 798.2, 406.0)">r</text><text xml:space="preserve" font-family="Helvetica" font-size="60.0" fill="#FEFFFF" transform="matrix(1.00, 0.00, -0.00, -1.00, 818.2, 406.0)"> </text><text xml:space="preserve" font-family="Helvetica" font-size="60.0" fill="#FEFFFF" transform="matrix(1.00, 0.00, -0.00, -1.00, 834.9, 406.0)">l</text><text xml:space="preserve" font-family="Helvetica" font-size="60.0" fill="#FEFFFF" transform="matrix(1.00, 0.00, -0.00, -1.00, 848.2, 406.0)">a</text><text xml:space="preserve" font-family="Helvetica" font-size="60.0" fill="#FEFFFF" transform="matrix(1.00, 0.00, -0.00, -1.00, 881.6, 406.0)">n</text><text xml:space="preserve" font-family="Helvetica" font-size="60.0" fill="#FEFFFF" transform="matrix(1.00, 0.00, -0.00, -1.00, 915.0, 406.0)">d</text><text xml:space="preserve" font-family="Helvetica" font-size="60.0" fill="#FEFFFF" transform="matrix(1.00, 0.00, -0.00, -1.00, 948.3, 406.0)">i</text><text xml:space="preserve" font-family="Helvetica" font-size="60.0" fill="#FEFFFF" transform="matrix(1.00, 0.00, -0.00, -1.00, 961.7, 406.0)">n</text><text xml:space="preserve" font-family="Helvetica" font-size="60.0" fill="#FEFFFF" transform="matrix(1.00, 0.00, -0.00, -1.00, 995.1, 406.0)">g</text><text xml:space="preserve" font-family="Helvetica" font-size="60.0" fill="#FEFFFF" transform="matrix(1.00, 0.00, -0.00, -1.00, 1028.4, 406.0)"> </text><text xml:space="preserve" font-family="Helvetica" font-size="60.0" fill="#FEFFFF" transform="matrix(1.00, 0.00, -0.00, -1.00, 1045.1, 406.0)">p</text><text xml:space="preserve" font-family="Helvetica" font-size="60.0" fill="#FEFFFF" transform="matrix(1.00, 0.00, -0.00, -1.00, 1078.5, 406.0)">a</text><text xml:space="preserve" font-family="Helvetica" font-size="60.0" fill="#FEFFFF" transform="matrix(1.00, 0.00, -0.00, -1.00, 1111.9, 406.0)">g</text><text xml:space="preserve" font-family="Helvetica" font-size="60.0" fill="#FEFFFF" transform="matrix(1.00, 0.00, -0.00, -1.00, 1145.3, 406.0)">e</text><text xml:space="preserve" font-family="Helvetica" font-size="60.0" fill="#FEFFFF" transform="matrix(1.00, 0.00, -0.00, -1.00, 538.0, 334.0)">/</text><text xml:space="preserve" font-family="Helvetica" font-size="60.0" fill="#FEFFFF" transform="matrix(1.00, 0.00, -0.00, -1.00, 554.7, 334.0)"> </text><text xml:space="preserve" font-family="Helvetica" font-size="60.0" fill="#FEFFFF" transform="matrix(1.00, 0.00, -0.00, -1.00, 571.3, 334.0)">C</text><text xml:space="preserve" font-family="Helvetica" font-size="60.0" fill="#FEFFFF" transform="matrix(1.00, 0.00, -0.00, -1.00, 614.7, 334.0)">o</text><text xml:space="preserve" font-family="Helvetica" font-size="60.0" fill="#FEFFFF" transform="matrix(1.00, 0.00, -0.00, -1.00, 648.0, 334.0)">n</text><text xml:space="preserve" font-family="Helvetica" font-size="60.0" fill="#FEFFFF" transform="matrix(1.00, 0.00, -0.00, -1.00, 681.4, 334.0)">d</text><text xml:space="preserve" font-family="Helvetica" font-size="60.0" fill="#FEFFFF" transform="matrix(1.00, 0.00, -0.00, -1.00, 714.8, 334.0)">u</text><text xml:space="preserve" font-family="Helvetica" font-size="60.0" fill="#FEFFFF" transform="matrix(1.00, 0.00, -0.00, -1.00, 748.2, 334.0)">c</text><text xml:space="preserve" font-family="Helvetica" font-size="60.0" fill="#FEFFFF" transform="matrix(1.00, 0.00, -0.00, -1.00, 778.2, 334.0)">t</text><text xml:space="preserve" font-family="Helvetica" font-size="60.0" fill="#FEFFFF" transform="matrix(1.00, 0.00, -0.00, -1.00, 794.8, 334.0)"> </text><text xml:space="preserve" font-family="Helvetica" font-size="60.0" fill="#FEFFFF" transform="matrix(1.00, 0.00, -0.00, -1.00, 811.5, 334.0)">u</text><text xml:space="preserve" font-family="Helvetica" font-size="60.0" fill="#FEFFFF" transform="matrix(1.00, 0.00, -0.00, -1.00, 844.9, 334.0)">s</text><text xml:space="preserve" font-family="Helvetica" font-size="60.0" fill="#FEFFFF" transform="matrix(1.00, 0.00, -0.00, -1.00, 874.9, 334.0)">e</text><text xml:space="preserve" font-family="Helvetica" font-size="60.0" fill="#FEFFFF" transform="matrix(1.00, 0.00, -0.00, -1.00, 908.3, 334.0)">r</text><text xml:space="preserve" font-family="Helvetica" font-size="60.0" fill="#FEFFFF" transform="matrix(1.00, 0.00, -0.00, -1.00, 928.2, 334.0)"> </text><text xml:space="preserve" font-family="Helvetica" font-size="60.0" fill="#FEFFFF" transform="matrix(1.00, 0.00, -0.00, -1.00, 944.9, 334.0)">v</text><text xml:space="preserve" font-family="Helvetica" font-size="60.0" fill="#FEFFFF" transform="matrix(1.00, 0.00, -0.00, -1.00, 974.9, 334.0)">a</text><text xml:space="preserve" font-family="Helvetica" font-size="60.0" fill="#FEFFFF" transform="matrix(1.00, 0.00, -0.00, -1.00, 1008.3, 334.0)">l</text><text xml:space="preserve" font-family="Helvetica" font-size="60.0" fill="#FEFFFF" transform="matrix(1.00, 0.00, -0.00, -1.00, 1021.6, 334.0)">i</text><text xml:space="preserve" font-family="Helvetica" font-size="60.0" fill="#FEFFFF" transform="matrix(1.00, 0.00, -0.00, -1.00, 1035.0, 334.0)">d</text><text xml:space="preserve" font-family="Helvetica" font-size="60.0" fill="#FEFFFF" transform="matrix(1.00, 0.00, -0.00, -1.00, 1068.3, 334.0)">a</text><text xml:space="preserve" font-family="Helvetica" font-size="60.0" fill="#FEFFFF" transform="matrix(1.00, 0.00, -0.00, -1.00, 1101.7, 334.0)">t</text><text xml:space="preserve" font-family="Helvetica" font-size="60.0" fill="#FEFFFF" transform="matrix(1.00, 0.00, -0.00, -1.00, 1118.4, 334.0)">i</text><text xml:space="preserve" font-family="Helvetica" font-size="60.0" fill="#FEFFFF" transform="matrix(1.00, 0.00, -0.00, -1.00, 1131.7, 334.0)">o</text><text xml:space="preserve" font-family="Helvetica" font-size="60.0" fill="#FEFFFF" transform="matrix(1.00, 0.00, -0.00, -1.00, 1165.1, 334.0)">n</text><text xml:space="preserve" font-family="Helvetica" font-size="60.0" fill="#FEFFFF" transform="matrix(1.00, 0.00, -0.00, -1.00, 1198.5, 334.0)">s</text></g></svg>