<?xml version="1.0" encoding="UTF-8" standalone="no"?><svg xmlns="http://www.w3.org/2000/svg" xmlns:xlink="http://www.w3.org/1999/xlink" clip-rule="evenodd" stroke-miterlimit="4.00" viewBox="0 0 1920 1080"><desc>SVG generated by Keynote</desc><defs></defs><g transform="matrix(1.00, 0.00, -0.00, -1.00, 0.0, 1080.0)"><path d="M 0.0 1080.0 L 1920.0 1080.0 L 1920.0 0.0 L 0.0 0.0 Z M 0.0 1080.0 " fill="#000000"></path><g opacity="0.56"><g><clipPath id="clip-589"><path d="M 2384.0 1167.0 L -58.0 1167.0 L -58.0 -87.0 L 2384.0 -87.0 Z M 2383.9 1166.7 "></path></clipPath><g clip-path="url(#clip-589)"><g><clipPath id="clip-590"><path d="M 0.0 0.0 L 1920.0 0.0 L 1920.0 1080.0 L 0.0 1080.0 Z M 0.0 0.0 "></path></clipPath><g clip-path="url(#clip-590)"><image xlink:href="../../F65886F7-98AC-440C-9639-140449AA54D5/assets/1224F12796F9DC66B7522862CC6B2369.jpeg" width="1366.00" height="701.00" transform="matrix(-1.79, 0.00, 0.00, -1.79, 2384.0, 1167.0)"></image></g></g></g></g></g><text xml:space="preserve" font-family="Helvetica-Bold" font-weight="bold" font-size="150.0" fill="#FEFFFF" transform="matrix(1.00, 0.00, -0.00, -1.00, 538.0, 571.0)">W</text><text xml:space="preserve" font-family="Helvetica-Bold" font-weight="bold" font-size="150.0" fill="#FEFFFF" transform="matrix(1.00, 0.00, -0.00, -1.00, 679.5, 571.0)">h</text><text xml:space="preserve" font-family="Helvetica-Bold" font-weight="bold" font-size="150.0" fill="#FEFFFF" transform="matrix(1.00, 0.00, -0.00, -1.00, 771.1, 571.0)">a</text><text xml:space="preserve" font-family="Helvetica-Bold" font-weight="bold" font-size="150.0" fill="#FEFFFF" transform="matrix(1.00, 0.00, -0.00, -1.00, 854.6, 571.0)">t</text><text xml:space="preserve" font-family="Helvetica-Bold" font-weight="bold" font-size="150.0" fill="#FEFFFF" transform="matrix(1.00, 0.00, -0.00, -1.00, 904.5, 571.0)"> </text><text xml:space="preserve" font-family="Helvetica-Bold" font-weight="bold" font-size="150.0" fill="#FEFFFF" transform="matrix(1.00, 0.00, -0.00, -1.00, 946.2, 571.0)">w</text><text xml:space="preserve" font-family="Helvetica-Bold" font-weight="bold" font-size="150.0" fill="#FEFFFF" transform="matrix(1.00, 0.00, -0.00, -1.00, 1062.8, 571.0)">e</text><text xml:space="preserve" font-family="Helvetica-Bold" font-weight="bold" font-size="150.0" fill="#FEFFFF" transform="matrix(1.00, 0.00, -0.00, -1.00, 1146.3, 571.0)"> </text><text xml:space="preserve" font-family="Helvetica-Bold" font-weight="bold" font-size="150.0" fill="#FEFFFF" transform="matrix(1.00, 0.00, -0.00, -1.00, 538.0, 391.0)">d</text><text xml:space="preserve" font-family="Helvetica-Bold" font-weight="bold" font-size="150.0" fill="#FEFFFF" transform="matrix(1.00, 0.00, -0.00, -1.00, 629.6, 391.0)">i</text><text xml:space="preserve" font-family="Helvetica-Bold" font-weight="bold" font-size="150.0" fill="#FEFFFF" transform="matrix(1.00, 0.00, -0.00, -1.00, 671.2, 391.0)">d</text></g></svg>