<svg xmlns="http://www.w3.org/2000/svg" xmlns:xlink="http://www.w3.org/1999/xlink" stroke-miterlimit="4" clip-rule="evenodd" viewBox="0 0 1920 1080"><desc>SVG generated by Keynote</desc><g><path fill="#000" d="M 0.0 1080.0 L 1920.0 1080.0 L 1920.0 0.0 L 0.0 0.0 Z M 0.0 1080.0" transform="matrix(1.00, 0.00, -0.00, -1.00, 0.0, 1080.0)"/><g opacity=".56"><g transform="matrix(1.00, 0.00, -0.00, -1.00, 0.0, 1080.0)"><clipPath id="clip-589"><path d="M 2384.0 1167.0 L -58.0 1167.0 L -58.0 -87.0 L 2384.0 -87.0 Z M 2383.9 1166.7"/></clipPath><g clip-path="url(#clip-589)"><g><clipPath id="clip-590"><path d="M 0.0 0.0 L 1920.0 0.0 L 1920.0 1080.0 L 0.0 1080.0 Z M 0.0 0.0"/></clipPath><g clip-path="url(#clip-590)"><image width="1366" height="701" transform="matrix(-1.79, 0.00, 0.00, -1.79, 2384.0, 1167.0)" xlink:href="../../F65886F7-98AC-440C-9639-140449AA54D5/assets/1224F12796F9DC66B7522862CC6B2369.jpeg"/></g></g></g></g></g><text fill="#FEFFFF" font-family="Helvetica-Bold" font-size="150" font-weight="bold" transform="matrix(1.00, 0.00, -0.00, -1.00, 0.0, 1080.0) matrix(1.00, 0.00, -0.00, -1.00, 538.0, 571.0)" xml:space="preserve">W</text><text fill="#FEFFFF" font-family="Helvetica-Bold" font-size="150" font-weight="bold" transform="matrix(1.00, 0.00, -0.00, -1.00, 0.0, 1080.0) matrix(1.00, 0.00, -0.00, -1.00, 679.5, 571.0)" xml:space="preserve">h</text><text fill="#FEFFFF" font-family="Helvetica-Bold" font-size="150" font-weight="bold" transform="matrix(1.00, 0.00, -0.00, -1.00, 0.0, 1080.0) matrix(1.00, 0.00, -0.00, -1.00, 771.1, 571.0)" xml:space="preserve">a</text><text fill="#FEFFFF" font-family="Helvetica-Bold" font-size="150" font-weight="bold" transform="matrix(1.00, 0.00, -0.00, -1.00, 0.0, 1080.0) matrix(1.00, 0.00, -0.00, -1.00, 854.6, 571.0)" xml:space="preserve">t</text><text fill="#FEFFFF" font-family="Helvetica-Bold" font-size="150" font-weight="bold" transform="matrix(1.00, 0.00, -0.00, -1.00, 0.0, 1080.0) matrix(1.00, 0.00, -0.00, -1.00, 946.2, 571.0)" xml:space="preserve">w</text><text fill="#FEFFFF" font-family="Helvetica-Bold" font-size="150" font-weight="bold" transform="matrix(1.00, 0.00, -0.00, -1.00, 0.0, 1080.0) matrix(1.00, 0.00, -0.00, -1.00, 1062.8, 571.0)" xml:space="preserve">e</text><text fill="#FEFFFF" font-family="Helvetica-Bold" font-size="150" font-weight="bold" transform="matrix(1.00, 0.00, -0.00, -1.00, 0.0, 1080.0) matrix(1.00, 0.00, -0.00, -1.00, 538.0, 391.0)" xml:space="preserve">d</text><text fill="#FEFFFF" font-family="Helvetica-Bold" font-size="150" font-weight="bold" transform="matrix(1.00, 0.00, -0.00, -1.00, 0.0, 1080.0) matrix(1.00, 0.00, -0.00, -1.00, 629.6, 391.0)" xml:space="preserve">i</text><text fill="#FEFFFF" font-family="Helvetica-Bold" font-size="150" font-weight="bold" transform="matrix(1.00, 0.00, -0.00, -1.00, 0.0, 1080.0) matrix(1.00, 0.00, -0.00, -1.00, 671.2, 391.0)" xml:space="preserve">d</text></g></svg>