<?xml version="1.0" encoding="UTF-8" standalone="no"?><svg xmlns="http://www.w3.org/2000/svg" xmlns:xlink="http://www.w3.org/1999/xlink" clip-rule="evenodd" stroke-miterlimit="4.00" viewBox="0 0 1920 1080"><desc>SVG generated by Keynote</desc><defs></defs><g transform="matrix(1.00, 0.00, -0.00, -1.00, 0.0, 1080.0)"><path d="M 0.0 1080.0 L 1920.0 1080.0 L 1920.0 0.0 L 0.0 0.0 Z M 0.0 1080.0 " fill="#000000"></path><text xml:space="preserve" font-family="Helvetica-Bold" font-weight="bold" font-size="90.0" fill="#FEFFFF" transform="matrix(1.00, 0.00, -0.00, -1.00, 559.0, 631.0)">O</text><text xml:space="preserve" font-family="Helvetica-Bold" font-weight="bold" font-size="90.0" fill="#FEFFFF" transform="matrix(1.00, 0.00, -0.00, -1.00, 629.0, 631.0)">p</text><text xml:space="preserve" font-family="Helvetica-Bold" font-weight="bold" font-size="90.0" fill="#FEFFFF" transform="matrix(1.00, 0.00, -0.00, -1.00, 683.9, 631.0)">p</text><text xml:space="preserve" font-family="Helvetica-Bold" font-weight="bold" font-size="90.0" fill="#FEFFFF" transform="matrix(1.00, 0.00, -0.00, -1.00, 738.9, 631.0)">o</text><text xml:space="preserve" font-family="Helvetica-Bold" font-weight="bold" font-size="90.0" fill="#FEFFFF" transform="matrix(1.00, 0.00, -0.00, -1.00, 793.9, 631.0)">r</text><text xml:space="preserve" font-family="Helvetica-Bold" font-weight="bold" font-size="90.0" fill="#FEFFFF" transform="matrix(1.00, 0.00, -0.00, -1.00, 828.9, 631.0)">t</text><text xml:space="preserve" font-family="Helvetica-Bold" font-weight="bold" font-size="90.0" fill="#FEFFFF" transform="matrix(1.00, 0.00, -0.00, -1.00, 858.9, 631.0)">u</text><text xml:space="preserve" font-family="Helvetica-Bold" font-weight="bold" font-size="90.0" fill="#FEFFFF" transform="matrix(1.00, 0.00, -0.00, -1.00, 913.8, 631.0)">n</text><text xml:space="preserve" font-family="Helvetica-Bold" font-weight="bold" font-size="90.0" fill="#FEFFFF" transform="matrix(1.00, 0.00, -0.00, -1.00, 968.8, 631.0)">i</text><text xml:space="preserve" font-family="Helvetica-Bold" font-weight="bold" font-size="90.0" fill="#FEFFFF" transform="matrix(1.00, 0.00, -0.00, -1.00, 993.8, 631.0)">t</text><text xml:space="preserve" font-family="Helvetica-Bold" font-weight="bold" font-size="90.0" fill="#FEFFFF" transform="matrix(1.00, 0.00, -0.00, -1.00, 1023.7, 631.0)">y</text><text xml:space="preserve" font-family="Helvetica-Bold" font-weight="bold" font-size="90.0" fill="#FEFFFF" transform="matrix(1.00, 0.00, -0.00, -1.00, 1073.8, 631.0)"> </text><text xml:space="preserve" font-family="Helvetica-Bold" font-weight="bold" font-size="90.0" fill="#FEFFFF" transform="matrix(1.00, 0.00, -0.00, -1.00, 1098.8, 631.0)">a</text><text xml:space="preserve" font-family="Helvetica-Bold" font-weight="bold" font-size="90.0" fill="#FEFFFF" transform="matrix(1.00, 0.00, -0.00, -1.00, 1148.9, 631.0)">r</text><text xml:space="preserve" font-family="Helvetica-Bold" font-weight="bold" font-size="90.0" fill="#FEFFFF" transform="matrix(1.00, 0.00, -0.00, -1.00, 1183.9, 631.0)">e</text><text xml:space="preserve" font-family="Helvetica-Bold" font-weight="bold" font-size="90.0" fill="#FEFFFF" transform="matrix(1.00, 0.00, -0.00, -1.00, 1234.0, 631.0)">a</text><text xml:space="preserve" font-family="Helvetica-Bold" font-weight="bold" font-size="90.0" fill="#FEFFFF" transform="matrix(1.00, 0.00, -0.00, -1.00, 1284.1, 631.0)">s</text><text xml:space="preserve" font-family="Helvetica-Light" font-size="45.0" fill="#FEFFFF" transform="matrix(1.00, 0.00, -0.00, -1.00, 559.0, 567.0)">B</text><text xml:space="preserve" font-family="Helvetica-Light" font-size="45.0" fill="#FEFFFF" transform="matrix(1.00, 0.00, -0.00, -1.00, 589.0, 567.0)">u</text><text xml:space="preserve" font-family="Helvetica-Light" font-size="45.0" fill="#FEFFFF" transform="matrix(1.00, 0.00, -0.00, -1.00, 614.0, 567.0)">s</text><text xml:space="preserve" font-family="Helvetica-Light" font-size="45.0" fill="#FEFFFF" transform="matrix(1.00, 0.00, -0.00, -1.00, 636.5, 567.0)">i</text><text xml:space="preserve" font-family="Helvetica-Light" font-size="45.0" fill="#FEFFFF" transform="matrix(1.00, 0.00, -0.00, -1.00, 646.5, 567.0)">n</text><text xml:space="preserve" font-family="Helvetica-Light" font-size="45.0" fill="#FEFFFF" transform="matrix(1.00, 0.00, -0.00, -1.00, 671.5, 567.0)">e</text><text xml:space="preserve" font-family="Helvetica-Light" font-size="45.0" fill="#FEFFFF" transform="matrix(1.00, 0.00, -0.00, -1.00, 696.6, 567.0)">s</text><text xml:space="preserve" font-family="Helvetica-Light" font-size="45.0" fill="#FEFFFF" transform="matrix(1.00, 0.00, -0.00, -1.00, 719.1, 567.0)">s</text><text xml:space="preserve" font-family="Helvetica-Light" font-size="45.0" fill="#FEFFFF" transform="matrix(1.00, 0.00, -0.00, -1.00, 741.6, 567.0)"> </text><text xml:space="preserve" font-family="Helvetica-Light" font-size="45.0" fill="#FEFFFF" transform="matrix(1.00, 0.00, -0.00, -1.00, 559.0, 513.0)">C</text><text xml:space="preserve" font-family="Helvetica-Light" font-size="45.0" fill="#FEFFFF" transform="matrix(1.00, 0.00, -0.00, -1.00, 591.5, 513.0)">o</text><text xml:space="preserve" font-family="Helvetica-Light" font-size="45.0" fill="#FEFFFF" transform="matrix(1.00, 0.00, -0.00, -1.00, 616.5, 513.0)">m</text><text xml:space="preserve" font-family="Helvetica-Light" font-size="45.0" fill="#FEFFFF" transform="matrix(1.00, 0.00, -0.00, -1.00, 654.0, 513.0)">m</text><text xml:space="preserve" font-family="Helvetica-Light" font-size="45.0" fill="#FEFFFF" transform="matrix(1.00, 0.00, -0.00, -1.00, 691.5, 513.0)">u</text><text xml:space="preserve" font-family="Helvetica-Light" font-size="45.0" fill="#FEFFFF" transform="matrix(1.00, 0.00, -0.00, -1.00, 716.5, 513.0)">n</text><text xml:space="preserve" font-family="Helvetica-Light" font-size="45.0" fill="#FEFFFF" transform="matrix(1.00, 0.00, -0.00, -1.00, 741.5, 513.0)">i</text><text xml:space="preserve" font-family="Helvetica-Light" font-size="45.0" fill="#FEFFFF" transform="matrix(1.00, 0.00, -0.00, -1.00, 751.5, 513.0)">c</text><text xml:space="preserve" font-family="Helvetica-Light" font-size="45.0" fill="#FEFFFF" transform="matrix(1.00, 0.00, -0.00, -1.00, 776.5, 513.0)">a</text><text xml:space="preserve" font-family="Helvetica-Light" font-size="45.0" fill="#FEFFFF" transform="matrix(1.00, 0.00, -0.00, -1.00, 801.6, 513.0)">t</text><text xml:space="preserve" font-family="Helvetica-Light" font-size="45.0" fill="#FEFFFF" transform="matrix(1.00, 0.00, -0.00, -1.00, 814.1, 513.0)">i</text><text xml:space="preserve" font-family="Helvetica-Light" font-size="45.0" fill="#FEFFFF" transform="matrix(1.00, 0.00, -0.00, -1.00, 824.1, 513.0)">o</text><text xml:space="preserve" font-family="Helvetica-Light" font-size="45.0" fill="#FEFFFF" transform="matrix(1.00, 0.00, -0.00, -1.00, 849.1, 513.0)">n</text><text xml:space="preserve" font-family="Helvetica-Light" font-size="45.0" fill="#FEFFFF" transform="matrix(1.00, 0.00, -0.00, -1.00, 874.1, 513.0)"> </text><text xml:space="preserve" font-family="Helvetica-Light" font-size="45.0" fill="#FEFFFF" transform="matrix(1.00, 0.00, -0.00, -1.00, 886.6, 513.0)">w</text><text xml:space="preserve" font-family="Helvetica-Light" font-size="45.0" fill="#FEFFFF" transform="matrix(1.00, 0.00, -0.00, -1.00, 919.1, 513.0)">i</text><text xml:space="preserve" font-family="Helvetica-Light" font-size="45.0" fill="#FEFFFF" transform="matrix(1.00, 0.00, -0.00, -1.00, 929.1, 513.0)">t</text><text xml:space="preserve" font-family="Helvetica-Light" font-size="45.0" fill="#FEFFFF" transform="matrix(1.00, 0.00, -0.00, -1.00, 941.6, 513.0)">h</text><text xml:space="preserve" font-family="Helvetica-Light" font-size="45.0" fill="#FEFFFF" transform="matrix(1.00, 0.00, -0.00, -1.00, 966.6, 513.0)"> </text><text xml:space="preserve" font-family="Helvetica-Light" font-size="45.0" fill="#FEFFFF" transform="matrix(1.00, 0.00, -0.00, -1.00, 979.1, 513.0)">c</text><text xml:space="preserve" font-family="Helvetica-Light" font-size="45.0" fill="#FEFFFF" transform="matrix(1.00, 0.00, -0.00, -1.00, 1004.1, 513.0)">l</text><text xml:space="preserve" font-family="Helvetica-Light" font-size="45.0" fill="#FEFFFF" transform="matrix(1.00, 0.00, -0.00, -1.00, 1014.1, 513.0)">i</text><text xml:space="preserve" font-family="Helvetica-Light" font-size="45.0" fill="#FEFFFF" transform="matrix(1.00, 0.00, -0.00, -1.00, 1024.1, 513.0)">e</text><text xml:space="preserve" font-family="Helvetica-Light" font-size="45.0" fill="#FEFFFF" transform="matrix(1.00, 0.00, -0.00, -1.00, 1049.1, 513.0)">n</text><text xml:space="preserve" font-family="Helvetica-Light" font-size="45.0" fill="#FEFFFF" transform="matrix(1.00, 0.00, -0.00, -1.00, 1074.2, 513.0)">t</text><text xml:space="preserve" font-family="Helvetica-Light" font-size="45.0" fill="#FEFFFF" transform="matrix(1.00, 0.00, -0.00, -1.00, 1086.7, 513.0)">s</text><text xml:space="preserve" font-family="Helvetica-Light" font-size="45.0" fill="#FEFFFF" transform="matrix(1.00, 0.00, -0.00, -1.00, 1109.2, 513.0)"> </text><text xml:space="preserve" font-family="Helvetica-Light" font-size="45.0" fill="#FEFFFF" transform="matrix(1.00, 0.00, -0.00, -1.00, 559.0, 459.0)">I</text><text xml:space="preserve" font-family="Helvetica-Light" font-size="45.0" fill="#FEFFFF" transform="matrix(1.00, 0.00, -0.00, -1.00, 571.5, 459.0)">n</text><text xml:space="preserve" font-family="Helvetica-Light" font-size="45.0" fill="#FEFFFF" transform="matrix(1.00, 0.00, -0.00, -1.00, 596.5, 459.0)">t</text><text xml:space="preserve" font-family="Helvetica-Light" font-size="45.0" fill="#FEFFFF" transform="matrix(1.00, 0.00, -0.00, -1.00, 609.0, 459.0)">e</text><text xml:space="preserve" font-family="Helvetica-Light" font-size="45.0" fill="#FEFFFF" transform="matrix(1.00, 0.00, -0.00, -1.00, 634.1, 459.0)">r</text><text xml:space="preserve" font-family="Helvetica-Light" font-size="45.0" fill="#FEFFFF" transform="matrix(1.00, 0.00, -0.00, -1.00, 649.9, 459.0)">n</text><text xml:space="preserve" font-family="Helvetica-Light" font-size="45.0" fill="#FEFFFF" transform="matrix(1.00, 0.00, -0.00, -1.00, 674.9, 459.0)">a</text><text xml:space="preserve" font-family="Helvetica-Light" font-size="45.0" fill="#FEFFFF" transform="matrix(1.00, 0.00, -0.00, -1.00, 699.9, 459.0)">l</text><text xml:space="preserve" font-family="Helvetica-Light" font-size="45.0" fill="#FEFFFF" transform="matrix(1.00, 0.00, -0.00, -1.00, 709.9, 459.0)"> </text><text xml:space="preserve" font-family="Helvetica-Light" font-size="45.0" fill="#FEFFFF" transform="matrix(1.00, 0.00, -0.00, -1.00, 722.4, 459.0)">c</text><text xml:space="preserve" font-family="Helvetica-Light" font-size="45.0" fill="#FEFFFF" transform="matrix(1.00, 0.00, -0.00, -1.00, 747.4, 459.0)">o</text><text xml:space="preserve" font-family="Helvetica-Light" font-size="45.0" fill="#FEFFFF" transform="matrix(1.00, 0.00, -0.00, -1.00, 772.4, 459.0)">m</text><text xml:space="preserve" font-family="Helvetica-Light" font-size="45.0" fill="#FEFFFF" transform="matrix(1.00, 0.00, -0.00, -1.00, 809.9, 459.0)">m</text><text xml:space="preserve" font-family="Helvetica-Light" font-size="45.0" fill="#FEFFFF" transform="matrix(1.00, 0.00, -0.00, -1.00, 847.4, 459.0)">u</text><text xml:space="preserve" font-family="Helvetica-Light" font-size="45.0" fill="#FEFFFF" transform="matrix(1.00, 0.00, -0.00, -1.00, 872.4, 459.0)">n</text><text xml:space="preserve" font-family="Helvetica-Light" font-size="45.0" fill="#FEFFFF" transform="matrix(1.00, 0.00, -0.00, -1.00, 897.4, 459.0)">i</text><text xml:space="preserve" font-family="Helvetica-Light" font-size="45.0" fill="#FEFFFF" transform="matrix(1.00, 0.00, -0.00, -1.00, 907.4, 459.0)">c</text><text xml:space="preserve" font-family="Helvetica-Light" font-size="45.0" fill="#FEFFFF" transform="matrix(1.00, 0.00, -0.00, -1.00, 932.5, 459.0)">a</text><text xml:space="preserve" font-family="Helvetica-Light" font-size="45.0" fill="#FEFFFF" transform="matrix(1.00, 0.00, -0.00, -1.00, 957.5, 459.0)">t</text><text xml:space="preserve" font-family="Helvetica-Light" font-size="45.0" fill="#FEFFFF" transform="matrix(1.00, 0.00, -0.00, -1.00, 970.0, 459.0)">i</text><text xml:space="preserve" font-family="Helvetica-Light" font-size="45.0" fill="#FEFFFF" transform="matrix(1.00, 0.00, -0.00, -1.00, 980.0, 459.0)">o</text><text xml:space="preserve" font-family="Helvetica-Light" font-size="45.0" fill="#FEFFFF" transform="matrix(1.00, 0.00, -0.00, -1.00, 1005.0, 459.0)">n</text><text xml:space="preserve" font-family="Helvetica-Light" font-size="45.0" fill="#FEFFFF" transform="matrix(1.00, 0.00, -0.00, -1.00, 1030.0, 459.0)"> </text><text xml:space="preserve" font-family="Helvetica-Light" font-size="45.0" fill="#FEFFFF" transform="matrix(1.00, 0.00, -0.00, -1.00, 1042.5, 459.0)">&amp;</text><text xml:space="preserve" font-family="Helvetica-Light" font-size="45.0" fill="#FEFFFF" transform="matrix(1.00, 0.00, -0.00, -1.00, 1072.5, 459.0)"> </text><text xml:space="preserve" font-family="Helvetica-Light" font-size="45.0" fill="#FEFFFF" transform="matrix(1.00, 0.00, -0.00, -1.00, 1085.0, 459.0)">o</text><text xml:space="preserve" font-family="Helvetica-Light" font-size="45.0" fill="#FEFFFF" transform="matrix(1.00, 0.00, -0.00, -1.00, 1110.1, 459.0)">r</text><text xml:space="preserve" font-family="Helvetica-Light" font-size="45.0" fill="#FEFFFF" transform="matrix(1.00, 0.00, -0.00, -1.00, 1125.1, 459.0)">g</text><text xml:space="preserve" font-family="Helvetica-Light" font-size="45.0" fill="#FEFFFF" transform="matrix(1.00, 0.00, -0.00, -1.00, 1152.5, 459.0)">a</text><text xml:space="preserve" font-family="Helvetica-Light" font-size="45.0" fill="#FEFFFF" transform="matrix(1.00, 0.00, -0.00, -1.00, 1177.6, 459.0)">n</text><text xml:space="preserve" font-family="Helvetica-Light" font-size="45.0" fill="#FEFFFF" transform="matrix(1.00, 0.00, -0.00, -1.00, 1202.6, 459.0)">i</text><text xml:space="preserve" font-family="Helvetica-Light" font-size="45.0" fill="#FEFFFF" transform="matrix(1.00, 0.00, -0.00, -1.00, 1212.6, 459.0)">z</text><text xml:space="preserve" font-family="Helvetica-Light" font-size="45.0" fill="#FEFFFF" transform="matrix(1.00, 0.00, -0.00, -1.00, 1235.1, 459.0)">a</text><text xml:space="preserve" font-family="Helvetica-Light" font-size="45.0" fill="#FEFFFF" transform="matrix(1.00, 0.00, -0.00, -1.00, 1260.1, 459.0)">t</text><text xml:space="preserve" font-family="Helvetica-Light" font-size="45.0" fill="#FEFFFF" transform="matrix(1.00, 0.00, -0.00, -1.00, 1272.6, 459.0)">i</text><text xml:space="preserve" font-family="Helvetica-Light" font-size="45.0" fill="#FEFFFF" transform="matrix(1.00, 0.00, -0.00, -1.00, 1282.6, 459.0)">o</text><text xml:space="preserve" font-family="Helvetica-Light" font-size="45.0" fill="#FEFFFF" transform="matrix(1.00, 0.00, -0.00, -1.00, 1307.6, 459.0)">n</text><text xml:space="preserve" font-family="Helvetica-Light" font-size="45.0" fill="#FEFFFF" transform="matrix(1.00, 0.00, -0.00, -1.00, 1332.6, 459.0)"> </text></g></svg>