<svg xmlns="http://www.w3.org/2000/svg" xmlns:xlink="http://www.w3.org/1999/xlink" stroke-miterlimit="4" clip-rule="evenodd" viewBox="0 0 1920 1080"><desc>SVG generated by Keynote</desc><g transform="matrix(1.00, 0.00, -0.00, -1.00, 0.0, 1080.0)"><path fill="#FEFFFF" d="M 0.0 1080.0 L 1920.0 1080.0 L 1920.0 0.0 L 0.0 0.0 Z M 0.0 1080.0"/><g><clipPath id="clip-354"><path d="M 50.0 52.0 L 154.0 52.0 L 154.0 -1.0 L 50.0 -1.0 Z M 50.4 52.4"/></clipPath><g clip-path="url(#clip-354)"><image width="104" height="104" transform="matrix(1.00, 0.00, -0.00, -0.99, 50.0, 77.0)" xlink:href="../../4F9A92A2-2DC6-4691-97F8-9F75BE53396F/assets/B22C448CED7C82A0C99889D0AD879A76.png"/></g></g><text fill="#A6AAA8" font-family="OpenSans-Bold" font-size="30" font-weight="bold" transform="matrix(1.00, 0.00, -0.00, -1.00, 54.0, 1014.0)" xml:space="preserve">V</text><text fill="#A6AAA8" font-family="OpenSans-Bold" font-size="30" font-weight="bold" transform="matrix(1.00, 0.00, -0.00, -1.00, 72.3, 1014.0)" xml:space="preserve">A</text><text fill="#A6AAA8" font-family="OpenSans-Bold" font-size="30" font-weight="bold" transform="matrix(1.00, 0.00, -0.00, -1.00, 93.0, 1014.0)" xml:space="preserve">L</text><text fill="#A6AAA8" font-family="OpenSans-Bold" font-size="30" font-weight="bold" transform="matrix(1.00, 0.00, -0.00, -1.00, 109.9, 1014.0)" xml:space="preserve">I</text><text fill="#A6AAA8" font-family="OpenSans-Bold" font-size="30" font-weight="bold" transform="matrix(1.00, 0.00, -0.00, -1.00, 119.9, 1014.0)" xml:space="preserve">D</text><text fill="#A6AAA8" font-family="OpenSans-Bold" font-size="30" font-weight="bold" transform="matrix(1.00, 0.00, -0.00, -1.00, 141.5, 1014.0)" xml:space="preserve">A</text><text fill="#A6AAA8" font-family="OpenSans-Bold" font-size="30" font-weight="bold" transform="matrix(1.00, 0.00, -0.00, -1.00, 160.1, 1014.0)" xml:space="preserve">T</text><text fill="#A6AAA8" font-family="OpenSans-Bold" font-size="30" font-weight="bold" transform="matrix(1.00, 0.00, -0.00, -1.00, 177.4, 1014.0)" xml:space="preserve">I</text><text fill="#A6AAA8" font-family="OpenSans-Bold" font-size="30" font-weight="bold" transform="matrix(1.00, 0.00, -0.00, -1.00, 187.4, 1014.0)" xml:space="preserve">O</text><text fill="#A6AAA8" font-family="OpenSans-Bold" font-size="30" font-weight="bold" transform="matrix(1.00, 0.00, -0.00, -1.00, 211.2, 1014.0)" xml:space="preserve">N</text><image width="619" height="162" transform="matrix(1.00, 0.00, -0.00, -1.00, 163.0, 637.0)" xlink:href="../../B099CFAC-DD36-4DDF-8C9F-417C50A086CD/assets/D51D501AFE0F5B516CB2969E1FDC109C.png"/><image width="70" height="70" transform="matrix(6.14, 0.00, -0.00, -6.14, 1274.0, 755.0)" xlink:href="../../CA157EF8-693A-4906-85DA-401BB957338F/assets/7FD514BEB4EAFA5680787D1538F935FC.png"/><g opacity=".12"><g><clipPath id="clip-355"><path d="M 1029.2 490.8 L 1093.6 557.0 L 1027.5 621.4 L 963.0 555.3 Z M 1029.2 490.8"/></clipPath><g clip-path="url(#clip-355)"><g><clipPath id="clip-356"><path d="M 961.0 489.0 L 1095.0 489.0 L 1095.0 623.0 L 961.0 623.0 Z M 961.0 489.0"/></clipPath><g clip-path="url(#clip-356)"><path fill="#000" d="M 1019.1 612.8 L 1019.7 564.5 L 971.4 563.8 L 971.6 546.9 L 1020.0 547.5 L 1020.6 499.2 L 1037.5 499.4 L 1036.9 547.8 L 1085.3 548.4 L 1085.0 565.3 L 1036.7 564.7 L 1036.1 613.0 Z M 1019.1 612.8"/></g></g></g></g></g></g></svg>