<?xml version="1.0" encoding="UTF-8" standalone="no"?><svg xmlns="http://www.w3.org/2000/svg" xmlns:xlink="http://www.w3.org/1999/xlink" clip-rule="evenodd" stroke-miterlimit="4.00" viewBox="0 0 1920 1080"><desc>SVG generated by Keynote</desc><defs></defs><g transform="matrix(1.00, 0.00, -0.00, -1.00, 0.0, 1080.0)"><path d="M 0.0 1080.0 L 1920.0 1080.0 L 1920.0 0.0 L 0.0 0.0 Z M 0.0 1080.0 " fill="#FEFFFF"></path><g><clipPath id="clip-325"><path d="M 50.0 52.0 L 154.0 52.0 L 154.0 -1.0 L 50.0 -1.0 Z M 50.4 52.4 "></path></clipPath><g clip-path="url(#clip-325)"><image xlink:href="../../4F9A92A2-2DC6-4691-97F8-9F75BE53396F/assets/B22C448CED7C82A0C99889D0AD879A76.png" width="104.00" height="104.00" transform="matrix(1.00, 0.00, -0.00, -0.99, 50.0, 77.0)"></image></g></g><text xml:space="preserve" font-family="OpenSans-Bold" font-weight="bold" font-size="30.0" fill="#A6AAA8" transform="matrix(1.00, 0.00, -0.00, -1.00, 54.0, 1014.0)">W</text><text xml:space="preserve" font-family="OpenSans-Bold" font-weight="bold" font-size="30.0" fill="#A6AAA8" transform="matrix(1.00, 0.00, -0.00, -1.00, 83.0, 1014.0)">H</text><text xml:space="preserve" font-family="OpenSans-Bold" font-weight="bold" font-size="30.0" fill="#A6AAA8" transform="matrix(1.00, 0.00, -0.00, -1.00, 106.0, 1014.0)">Y</text><text xml:space="preserve" font-family="OpenSans-Bold" font-weight="bold" font-size="30.0" fill="#A6AAA8" transform="matrix(1.00, 0.00, -0.00, -1.00, 124.7, 1014.0)"> </text><text xml:space="preserve" font-family="OpenSans-Bold" font-weight="bold" font-size="30.0" fill="#A6AAA8" transform="matrix(1.00, 0.00, -0.00, -1.00, 132.5, 1014.0)">T</text><text xml:space="preserve" font-family="OpenSans-Bold" font-weight="bold" font-size="30.0" fill="#A6AAA8" transform="matrix(1.00, 0.00, -0.00, -1.00, 149.8, 1014.0)">H</text><text xml:space="preserve" font-family="OpenSans-Bold" font-weight="bold" font-size="30.0" fill="#A6AAA8" transform="matrix(1.00, 0.00, -0.00, -1.00, 172.8, 1014.0)">I</text><text xml:space="preserve" font-family="OpenSans-Bold" font-weight="bold" font-size="30.0" fill="#A6AAA8" transform="matrix(1.00, 0.00, -0.00, -1.00, 182.7, 1014.0)">S</text><text xml:space="preserve" font-family="OpenSans-Bold" font-weight="bold" font-size="30.0" fill="#A6AAA8" transform="matrix(1.00, 0.00, -0.00, -1.00, 199.2, 1014.0)"> </text><text xml:space="preserve" font-family="OpenSans-Bold" font-weight="bold" font-size="30.0" fill="#A6AAA8" transform="matrix(1.00, 0.00, -0.00, -1.00, 207.0, 1014.0)">M</text><text xml:space="preserve" font-family="OpenSans-Bold" font-weight="bold" font-size="30.0" fill="#A6AAA8" transform="matrix(1.00, 0.00, -0.00, -1.00, 235.3, 1014.0)">A</text><text xml:space="preserve" font-family="OpenSans-Bold" font-weight="bold" font-size="30.0" fill="#A6AAA8" transform="matrix(1.00, 0.00, -0.00, -1.00, 256.0, 1014.0)">R</text><text xml:space="preserve" font-family="OpenSans-Bold" font-weight="bold" font-size="30.0" fill="#A6AAA8" transform="matrix(1.00, 0.00, -0.00, -1.00, 275.8, 1014.0)">K</text><text xml:space="preserve" font-family="OpenSans-Bold" font-weight="bold" font-size="30.0" fill="#A6AAA8" transform="matrix(1.00, 0.00, -0.00, -1.00, 295.7, 1014.0)">E</text><text xml:space="preserve" font-family="OpenSans-Bold" font-weight="bold" font-size="30.0" fill="#A6AAA8" transform="matrix(1.00, 0.00, -0.00, -1.00, 312.6, 1014.0)">T</text><text xml:space="preserve" font-family="OpenSans-Bold" font-weight="bold" font-size="85.0" fill="#52575F" transform="matrix(1.00, 0.00, -0.00, -1.00, 54.0, 885.0)">B</text><text xml:space="preserve" font-family="OpenSans-Bold" font-weight="bold" font-size="85.0" fill="#52575F" transform="matrix(1.00, 0.00, -0.00, -1.00, 111.2, 885.0)">e</text><text xml:space="preserve" font-family="OpenSans-Bold" font-weight="bold" font-size="85.0" fill="#52575F" transform="matrix(1.00, 0.00, -0.00, -1.00, 161.5, 885.0)">c</text><text xml:space="preserve" font-family="OpenSans-Bold" font-weight="bold" font-size="85.0" fill="#52575F" transform="matrix(1.00, 0.00, -0.00, -1.00, 205.3, 885.0)">a</text><text xml:space="preserve" font-family="OpenSans-Bold" font-weight="bold" font-size="85.0" fill="#52575F" transform="matrix(1.00, 0.00, -0.00, -1.00, 256.7, 885.0)">u</text><text xml:space="preserve" font-family="OpenSans-Bold" font-weight="bold" font-size="85.0" fill="#52575F" transform="matrix(1.00, 0.00, -0.00, -1.00, 312.7, 885.0)">s</text><text xml:space="preserve" font-family="OpenSans-Bold" font-weight="bold" font-size="85.0" fill="#52575F" transform="matrix(1.00, 0.00, -0.00, -1.00, 355.0, 885.0)">e</text><text xml:space="preserve" font-family="OpenSans-Bold" font-weight="bold" font-size="85.0" fill="#52575F" transform="matrix(1.00, 0.00, -0.00, -1.00, 405.3, 885.0)"> </text><text xml:space="preserve" font-family="OpenSans-Bold" font-weight="bold" font-size="85.0" fill="#52575F" transform="matrix(1.00, 0.00, -0.00, -1.00, 469.9, 885.0)">s</text><text xml:space="preserve" font-family="OpenSans-Bold" font-weight="bold" font-size="85.0" fill="#52575F" transform="matrix(1.00, 0.00, -0.00, -1.00, 512.2, 885.0)">t</text><text xml:space="preserve" font-family="OpenSans-Bold" font-weight="bold" font-size="85.0" fill="#52575F" transform="matrix(1.00, 0.00, -0.00, -1.00, 549.2, 885.0)">a</text><text xml:space="preserve" font-family="OpenSans-Bold" font-weight="bold" font-size="85.0" fill="#52575F" transform="matrix(1.00, 0.00, -0.00, -1.00, 600.6, 885.0)">r</text><text xml:space="preserve" font-family="OpenSans-Bold" font-weight="bold" font-size="85.0" fill="#52575F" transform="matrix(1.00, 0.00, -0.00, -1.00, 639.3, 885.0)">t</text><text xml:space="preserve" font-family="OpenSans-Bold" font-weight="bold" font-size="85.0" fill="#52575F" transform="matrix(1.00, 0.00, -0.00, -1.00, 676.3, 885.0)">u</text><text xml:space="preserve" font-family="OpenSans-Bold" font-weight="bold" font-size="85.0" fill="#52575F" transform="matrix(1.00, 0.00, -0.00, -1.00, 732.3, 885.0)">p</text><text xml:space="preserve" font-family="OpenSans-Bold" font-weight="bold" font-size="85.0" fill="#52575F" transform="matrix(1.00, 0.00, -0.00, -1.00, 786.2, 885.0)">s</text><text xml:space="preserve" font-family="OpenSans-Bold" font-weight="bold" font-size="85.0" fill="#52575F" transform="matrix(1.00, 0.00, -0.00, -1.00, 828.4, 885.0)"> </text><text xml:space="preserve" font-family="OpenSans-Bold" font-weight="bold" font-size="85.0" fill="#52575F" transform="matrix(1.00, 0.00, -0.00, -1.00, 893.0, 885.0)">n</text><text xml:space="preserve" font-family="OpenSans-Bold" font-weight="bold" font-size="85.0" fill="#52575F" transform="matrix(1.00, 0.00, -0.00, -1.00, 949.0, 885.0)">e</text><text xml:space="preserve" font-family="OpenSans-Bold" font-weight="bold" font-size="85.0" fill="#52575F" transform="matrix(1.00, 0.00, -0.00, -1.00, 999.3, 885.0)">e</text><text xml:space="preserve" font-family="OpenSans-Bold" font-weight="bold" font-size="85.0" fill="#52575F" transform="matrix(1.00, 0.00, -0.00, -1.00, 1049.6, 885.0)">d</text><text xml:space="preserve" font-family="OpenSans-Bold" font-weight="bold" font-size="85.0" fill="#52575F" transform="matrix(1.00, 0.00, -0.00, -1.00, 1103.4, 885.0)"> </text><text xml:space="preserve" font-family="OpenSans-Bold" font-weight="bold" font-size="85.0" fill="#52575F" transform="matrix(1.00, 0.00, -0.00, -1.00, 54.0, 769.0)">d</text><text xml:space="preserve" font-family="OpenSans-Bold" font-weight="bold" font-size="85.0" fill="#52575F" transform="matrix(1.00, 0.00, -0.00, -1.00, 107.8, 769.0)">e</text><text xml:space="preserve" font-family="OpenSans-Bold" font-weight="bold" font-size="85.0" fill="#52575F" transform="matrix(1.00, 0.00, -0.00, -1.00, 158.0, 769.0)">s</text><text xml:space="preserve" font-family="OpenSans-Bold" font-weight="bold" font-size="85.0" fill="#52575F" transform="matrix(1.00, 0.00, -0.00, -1.00, 200.2, 769.0)">i</text><text xml:space="preserve" font-family="OpenSans-Bold" font-weight="bold" font-size="85.0" fill="#52575F" transform="matrix(1.00, 0.00, -0.00, -1.00, 226.2, 769.0)">g</text><text xml:space="preserve" font-family="OpenSans-Bold" font-weight="bold" font-size="85.0" fill="#52575F" transform="matrix(1.00, 0.00, -0.00, -1.00, 274.2, 769.0)">n</text><text xml:space="preserve" font-family="OpenSans-Bold" font-weight="bold" font-size="85.0" fill="#52575F" transform="matrix(1.00, 0.00, -0.00, -1.00, 330.1, 769.0)"> </text><text xml:space="preserve" font-family="OpenSans-Bold" font-weight="bold" font-size="85.0" fill="#52575F" transform="matrix(1.00, 0.00, -0.00, -1.00, 352.1, 769.0)">i</text><text xml:space="preserve" font-family="OpenSans-Bold" font-weight="bold" font-size="85.0" fill="#52575F" transform="matrix(1.00, 0.00, -0.00, -1.00, 378.1, 769.0)">n</text><text xml:space="preserve" font-family="OpenSans-Bold" font-weight="bold" font-size="85.0" fill="#52575F" transform="matrix(1.00, 0.00, -0.00, -1.00, 434.0, 769.0)"> </text><text xml:space="preserve" font-family="OpenSans-Bold" font-weight="bold" font-size="85.0" fill="#52575F" transform="matrix(1.00, 0.00, -0.00, -1.00, 456.0, 769.0)">o</text><text xml:space="preserve" font-family="OpenSans-Bold" font-weight="bold" font-size="85.0" fill="#52575F" transform="matrix(1.00, 0.00, -0.00, -1.00, 508.7, 769.0)">r</text><text xml:space="preserve" font-family="OpenSans-Bold" font-weight="bold" font-size="85.0" fill="#52575F" transform="matrix(1.00, 0.00, -0.00, -1.00, 545.6, 769.0)">d</text><text xml:space="preserve" font-family="OpenSans-Bold" font-weight="bold" font-size="85.0" fill="#52575F" transform="matrix(1.00, 0.00, -0.00, -1.00, 599.4, 769.0)">e</text><text xml:space="preserve" font-family="OpenSans-Bold" font-weight="bold" font-size="85.0" fill="#52575F" transform="matrix(1.00, 0.00, -0.00, -1.00, 649.6, 769.0)">r</text><text xml:space="preserve" font-family="OpenSans-Bold" font-weight="bold" font-size="85.0" fill="#52575F" transform="matrix(1.00, 0.00, -0.00, -1.00, 688.2, 769.0)"> </text><text xml:space="preserve" font-family="OpenSans-Bold" font-weight="bold" font-size="85.0" fill="#52575F" transform="matrix(1.00, 0.00, -0.00, -1.00, 710.2, 769.0)">t</text><text xml:space="preserve" font-family="OpenSans-Bold" font-weight="bold" font-size="85.0" fill="#52575F" transform="matrix(1.00, 0.00, -0.00, -1.00, 747.1, 769.0)">o</text><text xml:space="preserve" font-family="OpenSans-Bold" font-weight="bold" font-size="85.0" fill="#52575F" transform="matrix(1.00, 0.00, -0.00, -1.00, 799.8, 769.0)"> </text><text xml:space="preserve" font-family="OpenSans-Bold" font-weight="bold" font-size="85.0" fill="#52575F" transform="matrix(1.00, 0.00, -0.00, -1.00, 821.8, 769.0)">s</text><text xml:space="preserve" font-family="OpenSans-Bold" font-weight="bold" font-size="85.0" fill="#52575F" transform="matrix(1.00, 0.00, -0.00, -1.00, 864.1, 769.0)">c</text><text xml:space="preserve" font-family="OpenSans-Bold" font-weight="bold" font-size="85.0" fill="#52575F" transform="matrix(1.00, 0.00, -0.00, -1.00, 907.8, 769.0)">a</text><text xml:space="preserve" font-family="OpenSans-Bold" font-weight="bold" font-size="85.0" fill="#52575F" transform="matrix(1.00, 0.00, -0.00, -1.00, 959.2, 769.0)">l</text><text xml:space="preserve" font-family="OpenSans-Bold" font-weight="bold" font-size="85.0" fill="#52575F" transform="matrix(1.00, 0.00, -0.00, -1.00, 985.1, 769.0)">e</text><text xml:space="preserve" font-family="OpenSans-Bold" font-weight="bold" font-size="85.0" fill="#52575F" transform="matrix(1.00, 0.00, -0.00, -1.00, 1035.3, 769.0)">.</text><text xml:space="preserve" font-family="OpenSans-Bold" font-weight="bold" font-size="85.0" fill="#52575F" transform="matrix(1.00, 0.00, -0.00, -1.00, 1059.6, 769.0)"> </text><text xml:space="preserve" font-family="OpenSans-Light" font-size="45.0" fill="#52575F" transform="matrix(1.00, 0.00, -0.00, -1.00, 54.0, 580.0)">“</text><text xml:space="preserve" font-family="OpenSans-Light" font-size="45.0" fill="#52575F" transform="matrix(1.00, 0.00, -0.00, -1.00, 67.5, 580.0)">E</text><text xml:space="preserve" font-family="OpenSans-Light" font-size="45.0" fill="#52575F" transform="matrix(1.00, 0.00, -0.00, -1.00, 92.3, 580.0)">v</text><text xml:space="preserve" font-family="OpenSans-Light" font-size="45.0" fill="#52575F" transform="matrix(1.00, 0.00, -0.00, -1.00, 113.0, 580.0)">e</text><text xml:space="preserve" font-family="OpenSans-Light" font-size="45.0" fill="#52575F" transform="matrix(1.00, 0.00, -0.00, -1.00, 137.6, 580.0)">r</text><text xml:space="preserve" font-family="OpenSans-Light" font-size="45.0" fill="#52575F" transform="matrix(1.00, 0.00, -0.00, -1.00, 155.2, 580.0)">y</text><text xml:space="preserve" font-family="OpenSans-Light" font-size="45.0" fill="#52575F" transform="matrix(1.00, 0.00, -0.00, -1.00, 175.8, 580.0)"> </text><text xml:space="preserve" font-family="OpenSans-Light" font-size="45.0" fill="#52575F" transform="matrix(1.00, 0.00, -0.00, -1.00, 187.5, 580.0)">$</text><text xml:space="preserve" font-family="OpenSans-Light" font-size="45.0" fill="#52575F" transform="matrix(1.00, 0.00, -0.00, -1.00, 213.2, 580.0)">1</text><text xml:space="preserve" font-family="OpenSans-Light" font-size="45.0" fill="#52575F" transform="matrix(1.00, 0.00, -0.00, -1.00, 238.9, 580.0)"> </text><text xml:space="preserve" font-family="OpenSans-Light" font-size="45.0" fill="#52575F" transform="matrix(1.00, 0.00, -0.00, -1.00, 250.5, 580.0)">i</text><text xml:space="preserve" font-family="OpenSans-Light" font-size="45.0" fill="#52575F" transform="matrix(1.00, 0.00, -0.00, -1.00, 260.7, 580.0)">n</text><text xml:space="preserve" font-family="OpenSans-Light" font-size="45.0" fill="#52575F" transform="matrix(1.00, 0.00, -0.00, -1.00, 287.2, 580.0)">v</text><text xml:space="preserve" font-family="OpenSans-Light" font-size="45.0" fill="#52575F" transform="matrix(1.00, 0.00, -0.00, -1.00, 307.9, 580.0)">e</text><text xml:space="preserve" font-family="OpenSans-Light" font-size="45.0" fill="#52575F" transform="matrix(1.00, 0.00, -0.00, -1.00, 332.6, 580.0)">s</text><text xml:space="preserve" font-family="OpenSans-Light" font-size="45.0" fill="#52575F" transform="matrix(1.00, 0.00, -0.00, -1.00, 353.5, 580.0)">t</text><text xml:space="preserve" font-family="OpenSans-Light" font-size="45.0" fill="#52575F" transform="matrix(1.00, 0.00, -0.00, -1.00, 368.6, 580.0)">e</text><text xml:space="preserve" font-family="OpenSans-Light" font-size="45.0" fill="#52575F" transform="matrix(1.00, 0.00, -0.00, -1.00, 393.3, 580.0)">d</text><text xml:space="preserve" font-family="OpenSans-Light" font-size="45.0" fill="#52575F" transform="matrix(1.00, 0.00, -0.00, -1.00, 420.1, 580.0)"> </text><text xml:space="preserve" font-family="OpenSans-Light" font-size="45.0" fill="#52575F" transform="matrix(1.00, 0.00, -0.00, -1.00, 431.8, 580.0)">i</text><text xml:space="preserve" font-family="OpenSans-Light" font-size="45.0" fill="#52575F" transform="matrix(1.00, 0.00, -0.00, -1.00, 442.0, 580.0)">n</text><text xml:space="preserve" font-family="OpenSans-Light" font-size="45.0" fill="#52575F" transform="matrix(1.00, 0.00, -0.00, -1.00, 468.5, 580.0)"> </text><text xml:space="preserve" font-family="OpenSans-Light" font-size="45.0" fill="#52575F" transform="matrix(1.00, 0.00, -0.00, -1.00, 480.2, 580.0)">U</text><text xml:space="preserve" font-family="OpenSans-Light" font-size="45.0" fill="#52575F" transform="matrix(1.00, 0.00, -0.00, -1.00, 512.5, 580.0)">X</text><text xml:space="preserve" font-family="OpenSans-Light" font-size="45.0" fill="#52575F" transform="matrix(1.00, 0.00, -0.00, -1.00, 536.8, 580.0)"> </text><text xml:space="preserve" font-family="OpenSans-Light" font-size="45.0" fill="#52575F" transform="matrix(1.00, 0.00, -0.00, -1.00, 548.4, 580.0)">w</text><text xml:space="preserve" font-family="OpenSans-Light" font-size="45.0" fill="#52575F" transform="matrix(1.00, 0.00, -0.00, -1.00, 581.0, 580.0)">i</text><text xml:space="preserve" font-family="OpenSans-Light" font-size="45.0" fill="#52575F" transform="matrix(1.00, 0.00, -0.00, -1.00, 591.2, 580.0)">l</text><text xml:space="preserve" font-family="OpenSans-Light" font-size="45.0" fill="#52575F" transform="matrix(1.00, 0.00, -0.00, -1.00, 601.3, 580.0)">l</text><text xml:space="preserve" font-family="OpenSans-Light" font-size="45.0" fill="#52575F" transform="matrix(1.00, 0.00, -0.00, -1.00, 611.5, 580.0)"> </text><text xml:space="preserve" font-family="OpenSans-Light" font-size="45.0" fill="#52575F" transform="matrix(1.00, 0.00, -0.00, -1.00, 623.2, 580.0)">b</text><text xml:space="preserve" font-family="OpenSans-Light" font-size="45.0" fill="#52575F" transform="matrix(1.00, 0.00, -0.00, -1.00, 650.0, 580.0)">r</text><text xml:space="preserve" font-family="OpenSans-Light" font-size="45.0" fill="#52575F" transform="matrix(1.00, 0.00, -0.00, -1.00, 667.5, 580.0)">i</text><text xml:space="preserve" font-family="OpenSans-Light" font-size="45.0" fill="#52575F" transform="matrix(1.00, 0.00, -0.00, -1.00, 677.7, 580.0)">n</text><text xml:space="preserve" font-family="OpenSans-Light" font-size="45.0" fill="#52575F" transform="matrix(1.00, 0.00, -0.00, -1.00, 704.2, 580.0)">g</text><text xml:space="preserve" font-family="OpenSans-Light" font-size="45.0" fill="#52575F" transform="matrix(1.00, 0.00, -0.00, -1.00, 727.8, 580.0)"> </text><text xml:space="preserve" font-family="OpenSans-Light" font-size="45.0" fill="#52575F" transform="matrix(1.00, 0.00, -0.00, -1.00, 739.4, 580.0)">$</text><text xml:space="preserve" font-family="OpenSans-Light" font-size="45.0" fill="#52575F" transform="matrix(1.00, 0.00, -0.00, -1.00, 765.1, 580.0)">2</text><text xml:space="preserve" font-family="OpenSans-Light" font-size="45.0" fill="#52575F" transform="matrix(1.00, 0.00, -0.00, -1.00, 790.8, 580.0)">-</text><text xml:space="preserve" font-family="OpenSans-Light" font-size="45.0" fill="#52575F" transform="matrix(1.00, 0.00, -0.00, -1.00, 805.3, 580.0)">1</text><text xml:space="preserve" font-family="OpenSans-Light" font-size="45.0" fill="#52575F" transform="matrix(1.00, 0.00, -0.00, -1.00, 830.9, 580.0)">0</text><text xml:space="preserve" font-family="OpenSans-Light" font-size="45.0" fill="#52575F" transform="matrix(1.00, 0.00, -0.00, -1.00, 856.6, 580.0)">0</text><text xml:space="preserve" font-family="OpenSans-Light" font-size="45.0" fill="#52575F" transform="matrix(1.00, 0.00, -0.00, -1.00, 882.3, 580.0)"> </text><text xml:space="preserve" font-family="OpenSans-Light" font-size="45.0" fill="#52575F" transform="matrix(1.00, 0.00, -0.00, -1.00, 894.0, 580.0)">i</text><text xml:space="preserve" font-family="OpenSans-Light" font-size="45.0" fill="#52575F" transform="matrix(1.00, 0.00, -0.00, -1.00, 904.2, 580.0)">n</text><text xml:space="preserve" font-family="OpenSans-Light" font-size="45.0" fill="#52575F" transform="matrix(1.00, 0.00, -0.00, -1.00, 930.7, 580.0)"> </text><text xml:space="preserve" font-family="OpenSans-Light" font-size="45.0" fill="#52575F" transform="matrix(1.00, 0.00, -0.00, -1.00, 942.4, 580.0)">r</text><text xml:space="preserve" font-family="OpenSans-Light" font-size="45.0" fill="#52575F" transform="matrix(1.00, 0.00, -0.00, -1.00, 959.0, 580.0)">e</text><text xml:space="preserve" font-family="OpenSans-Light" font-size="45.0" fill="#52575F" transform="matrix(1.00, 0.00, -0.00, -1.00, 983.7, 580.0)">t</text><text xml:space="preserve" font-family="OpenSans-Light" font-size="45.0" fill="#52575F" transform="matrix(1.00, 0.00, -0.00, -1.00, 998.7, 580.0)">u</text><text xml:space="preserve" font-family="OpenSans-Light" font-size="45.0" fill="#52575F" transform="matrix(1.00, 0.00, -0.00, -1.00, 1025.3, 580.0)">r</text><text xml:space="preserve" font-family="OpenSans-Light" font-size="45.0" fill="#52575F" transform="matrix(1.00, 0.00, -0.00, -1.00, 1042.8, 580.0)">n</text><text xml:space="preserve" font-family="OpenSans-Light" font-size="45.0" fill="#52575F" transform="matrix(1.00, 0.00, -0.00, -1.00, 1069.3, 580.0)">.</text><text xml:space="preserve" font-family="OpenSans-Light" font-size="45.0" fill="#52575F" transform="matrix(1.00, 0.00, -0.00, -1.00, 1080.0, 580.0)">”</text><text xml:space="preserve" font-family="OpenSans-Light" font-size="45.0" fill="#52575F" transform="matrix(1.00, 0.00, -0.00, -1.00, 1093.5, 580.0)"> </text><text xml:space="preserve" font-family="OpenSans-Light" font-size="45.0" fill="#52575F" transform="matrix(1.00, 0.00, -0.00, -1.00, 54.0, 519.0)">-</text><text xml:space="preserve" font-family="OpenSans-Light" font-size="45.0" fill="#52575F" transform="matrix(1.00, 0.00, -0.00, -1.00, 68.5, 519.0)">u</text><text xml:space="preserve" font-family="OpenSans-Light" font-size="45.0" fill="#52575F" transform="matrix(1.00, 0.00, -0.00, -1.00, 95.0, 519.0)">x</text><text xml:space="preserve" font-family="OpenSans-Light" font-size="45.0" fill="#52575F" transform="matrix(1.00, 0.00, -0.00, -1.00, 116.5, 519.0)">d</text><text xml:space="preserve" font-family="OpenSans-Light" font-size="45.0" fill="#52575F" transform="matrix(1.00, 0.00, -0.00, -1.00, 143.3, 519.0)">e</text><text xml:space="preserve" font-family="OpenSans-Light" font-size="45.0" fill="#52575F" transform="matrix(1.00, 0.00, -0.00, -1.00, 168.0, 519.0)">s</text><text xml:space="preserve" font-family="OpenSans-Light" font-size="45.0" fill="#52575F" transform="matrix(1.00, 0.00, -0.00, -1.00, 188.9, 519.0)">i</text><text xml:space="preserve" font-family="OpenSans-Light" font-size="45.0" fill="#52575F" transform="matrix(1.00, 0.00, -0.00, -1.00, 199.1, 519.0)">g</text><text xml:space="preserve" font-family="OpenSans-Light" font-size="45.0" fill="#52575F" transform="matrix(1.00, 0.00, -0.00, -1.00, 222.6, 519.0)">n</text><text xml:space="preserve" font-family="OpenSans-Light" font-size="45.0" fill="#52575F" transform="matrix(1.00, 0.00, -0.00, -1.00, 249.2, 519.0)">.</text><text xml:space="preserve" font-family="OpenSans-Light" font-size="45.0" fill="#52575F" transform="matrix(1.00, 0.00, -0.00, -1.00, 259.8, 519.0)">c</text><text xml:space="preserve" font-family="OpenSans-Light" font-size="45.0" fill="#52575F" transform="matrix(1.00, 0.00, -0.00, -1.00, 281.2, 519.0)">c</text><g><clipPath id="clip-326"><path d="M 67.5 513.7 L 302.7 513.7 L 302.7 517.9 L 67.5 517.9 Z M 67.5 513.7 "></path></clipPath><g clip-path="url(#clip-326)"><path d="M 18.5 464.2 L 252.7 464.2 " fill="none" stroke="#52575F" stroke-width="2.24" stroke-miterlimit="0.00" transform="matrix(1.00, 0.00, 0.00, -1.00, 50.0, 980.0)"></path></g></g></g></svg>