<?xml version="1.0" encoding="UTF-8" standalone="no"?><svg xmlns="http://www.w3.org/2000/svg" xmlns:xlink="http://www.w3.org/1999/xlink" clip-rule="evenodd" stroke-miterlimit="4.00" viewBox="0 0 1920 1080"><desc>SVG generated by Keynote</desc><defs></defs><g transform="matrix(1.00, 0.00, -0.00, -1.00, 0.0, 1080.0)"><path d="M 0.0 1080.0 L 1920.0 1080.0 L 1920.0 0.0 L 0.0 0.0 Z M 0.0 1080.0 " fill="#FEFFFF"></path><g><clipPath id="clip-327"><path d="M 50.0 52.0 L 154.0 52.0 L 154.0 -1.0 L 50.0 -1.0 Z M 50.4 52.4 "></path></clipPath><g clip-path="url(#clip-327)"><image xlink:href="../../4F9A92A2-2DC6-4691-97F8-9F75BE53396F/assets/B22C448CED7C82A0C99889D0AD879A76.png" width="104.00" height="104.00" transform="matrix(1.00, 0.00, -0.00, -0.99, 50.0, 77.0)"></image></g></g><text xml:space="preserve" font-family="OpenSans-Bold" font-weight="bold" font-size="30.0" fill="#A6AAA8" transform="matrix(1.00, 0.00, -0.00, -1.00, 54.0, 1014.0)">W</text><text xml:space="preserve" font-family="OpenSans-Bold" font-weight="bold" font-size="30.0" fill="#A6AAA8" transform="matrix(1.00, 0.00, -0.00, -1.00, 83.0, 1014.0)">H</text><text xml:space="preserve" font-family="OpenSans-Bold" font-weight="bold" font-size="30.0" fill="#A6AAA8" transform="matrix(1.00, 0.00, -0.00, -1.00, 106.0, 1014.0)">Y</text><text xml:space="preserve" font-family="OpenSans-Bold" font-weight="bold" font-size="30.0" fill="#A6AAA8" transform="matrix(1.00, 0.00, -0.00, -1.00, 124.7, 1014.0)"> </text><text xml:space="preserve" font-family="OpenSans-Bold" font-weight="bold" font-size="30.0" fill="#A6AAA8" transform="matrix(1.00, 0.00, -0.00, -1.00, 132.5, 1014.0)">T</text><text xml:space="preserve" font-family="OpenSans-Bold" font-weight="bold" font-size="30.0" fill="#A6AAA8" transform="matrix(1.00, 0.00, -0.00, -1.00, 149.8, 1014.0)">H</text><text xml:space="preserve" font-family="OpenSans-Bold" font-weight="bold" font-size="30.0" fill="#A6AAA8" transform="matrix(1.00, 0.00, -0.00, -1.00, 172.8, 1014.0)">I</text><text xml:space="preserve" font-family="OpenSans-Bold" font-weight="bold" font-size="30.0" fill="#A6AAA8" transform="matrix(1.00, 0.00, -0.00, -1.00, 182.7, 1014.0)">S</text><text xml:space="preserve" font-family="OpenSans-Bold" font-weight="bold" font-size="30.0" fill="#A6AAA8" transform="matrix(1.00, 0.00, -0.00, -1.00, 199.2, 1014.0)"> </text><text xml:space="preserve" font-family="OpenSans-Bold" font-weight="bold" font-size="30.0" fill="#A6AAA8" transform="matrix(1.00, 0.00, -0.00, -1.00, 207.0, 1014.0)">M</text><text xml:space="preserve" font-family="OpenSans-Bold" font-weight="bold" font-size="30.0" fill="#A6AAA8" transform="matrix(1.00, 0.00, -0.00, -1.00, 235.3, 1014.0)">A</text><text xml:space="preserve" font-family="OpenSans-Bold" font-weight="bold" font-size="30.0" fill="#A6AAA8" transform="matrix(1.00, 0.00, -0.00, -1.00, 256.0, 1014.0)">R</text><text xml:space="preserve" font-family="OpenSans-Bold" font-weight="bold" font-size="30.0" fill="#A6AAA8" transform="matrix(1.00, 0.00, -0.00, -1.00, 275.8, 1014.0)">K</text><text xml:space="preserve" font-family="OpenSans-Bold" font-weight="bold" font-size="30.0" fill="#A6AAA8" transform="matrix(1.00, 0.00, -0.00, -1.00, 295.7, 1014.0)">E</text><text xml:space="preserve" font-family="OpenSans-Bold" font-weight="bold" font-size="30.0" fill="#A6AAA8" transform="matrix(1.00, 0.00, -0.00, -1.00, 312.6, 1014.0)">T</text><text xml:space="preserve" font-family="OpenSans-Bold" font-weight="bold" font-size="85.0" fill="#52575F" transform="matrix(1.00, 0.00, -0.00, -1.00, 54.0, 885.0)">B</text><text xml:space="preserve" font-family="OpenSans-Bold" font-weight="bold" font-size="85.0" fill="#52575F" transform="matrix(1.00, 0.00, -0.00, -1.00, 111.1, 885.0)">e</text><text xml:space="preserve" font-family="OpenSans-Bold" font-weight="bold" font-size="85.0" fill="#52575F" transform="matrix(1.00, 0.00, -0.00, -1.00, 161.3, 885.0)">c</text><text xml:space="preserve" font-family="OpenSans-Bold" font-weight="bold" font-size="85.0" fill="#52575F" transform="matrix(1.00, 0.00, -0.00, -1.00, 205.0, 885.0)">a</text><text xml:space="preserve" font-family="OpenSans-Bold" font-weight="bold" font-size="85.0" fill="#52575F" transform="matrix(1.00, 0.00, -0.00, -1.00, 256.4, 885.0)">u</text><text xml:space="preserve" font-family="OpenSans-Bold" font-weight="bold" font-size="85.0" fill="#52575F" transform="matrix(1.00, 0.00, -0.00, -1.00, 312.2, 885.0)">s</text><text xml:space="preserve" font-family="OpenSans-Bold" font-weight="bold" font-size="85.0" fill="#52575F" transform="matrix(1.00, 0.00, -0.00, -1.00, 354.5, 885.0)">e</text><text xml:space="preserve" font-family="OpenSans-Bold" font-weight="bold" font-size="85.0" fill="#52575F" transform="matrix(1.00, 0.00, -0.00, -1.00, 404.7, 885.0)"> </text><text xml:space="preserve" font-family="OpenSans-Bold" font-weight="bold" font-size="85.0" fill="#52575F" transform="matrix(1.00, 0.00, -0.00, -1.00, 426.8, 885.0)">s</text><text xml:space="preserve" font-family="OpenSans-Bold" font-weight="bold" font-size="85.0" fill="#52575F" transform="matrix(1.00, 0.00, -0.00, -1.00, 469.0, 885.0)">t</text><text xml:space="preserve" font-family="OpenSans-Bold" font-weight="bold" font-size="85.0" fill="#52575F" transform="matrix(1.00, 0.00, -0.00, -1.00, 505.9, 885.0)">a</text><text xml:space="preserve" font-family="OpenSans-Bold" font-weight="bold" font-size="85.0" fill="#52575F" transform="matrix(1.00, 0.00, -0.00, -1.00, 557.3, 885.0)">r</text><text xml:space="preserve" font-family="OpenSans-Bold" font-weight="bold" font-size="85.0" fill="#52575F" transform="matrix(1.00, 0.00, -0.00, -1.00, 595.9, 885.0)">t</text><text xml:space="preserve" font-family="OpenSans-Bold" font-weight="bold" font-size="85.0" fill="#52575F" transform="matrix(1.00, 0.00, -0.00, -1.00, 632.8, 885.0)">u</text><text xml:space="preserve" font-family="OpenSans-Bold" font-weight="bold" font-size="85.0" fill="#52575F" transform="matrix(1.00, 0.00, -0.00, -1.00, 688.7, 885.0)">p</text><text xml:space="preserve" font-family="OpenSans-Bold" font-weight="bold" font-size="85.0" fill="#52575F" transform="matrix(1.00, 0.00, -0.00, -1.00, 742.4, 885.0)">s</text><text xml:space="preserve" font-family="OpenSans-Bold" font-weight="bold" font-size="85.0" fill="#52575F" transform="matrix(1.00, 0.00, -0.00, -1.00, 784.7, 885.0)"> </text><text xml:space="preserve" font-family="OpenSans-Bold" font-weight="bold" font-size="85.0" fill="#52575F" transform="matrix(1.00, 0.00, -0.00, -1.00, 806.8, 885.0)">c</text><text xml:space="preserve" font-family="OpenSans-Bold" font-weight="bold" font-size="85.0" fill="#52575F" transform="matrix(1.00, 0.00, -0.00, -1.00, 850.5, 885.0)">a</text><text xml:space="preserve" font-family="OpenSans-Bold" font-weight="bold" font-size="85.0" fill="#52575F" transform="matrix(1.00, 0.00, -0.00, -1.00, 901.8, 885.0)">n</text><text xml:space="preserve" font-family="OpenSans-Bold" font-weight="bold" font-size="85.0" fill="#52575F" transform="matrix(1.00, 0.00, -0.00, -1.00, 956.9, 885.0)">’</text><text xml:space="preserve" font-family="OpenSans-Bold" font-weight="bold" font-size="85.0" fill="#52575F" transform="matrix(1.00, 0.00, -0.00, -1.00, 975.3, 885.0)">t</text><text xml:space="preserve" font-family="OpenSans-Bold" font-weight="bold" font-size="85.0" fill="#52575F" transform="matrix(1.00, 0.00, -0.00, -1.00, 1012.2, 885.0)"> </text><text xml:space="preserve" font-family="OpenSans-Bold" font-weight="bold" font-size="85.0" fill="#52575F" transform="matrix(1.00, 0.00, -0.00, -1.00, 54.0, 769.0)">t</text><text xml:space="preserve" font-family="OpenSans-Bold" font-weight="bold" font-size="85.0" fill="#52575F" transform="matrix(1.00, 0.00, -0.00, -1.00, 90.9, 769.0)">y</text><text xml:space="preserve" font-family="OpenSans-Bold" font-weight="bold" font-size="85.0" fill="#52575F" transform="matrix(1.00, 0.00, -0.00, -1.00, 139.2, 769.0)">p</text><text xml:space="preserve" font-family="OpenSans-Bold" font-weight="bold" font-size="85.0" fill="#52575F" transform="matrix(1.00, 0.00, -0.00, -1.00, 193.0, 769.0)">i</text><text xml:space="preserve" font-family="OpenSans-Bold" font-weight="bold" font-size="85.0" fill="#52575F" transform="matrix(1.00, 0.00, -0.00, -1.00, 219.0, 769.0)">c</text><text xml:space="preserve" font-family="OpenSans-Bold" font-weight="bold" font-size="85.0" fill="#52575F" transform="matrix(1.00, 0.00, -0.00, -1.00, 262.7, 769.0)">a</text><text xml:space="preserve" font-family="OpenSans-Bold" font-weight="bold" font-size="85.0" fill="#52575F" transform="matrix(1.00, 0.00, -0.00, -1.00, 314.0, 769.0)">l</text><text xml:space="preserve" font-family="OpenSans-Bold" font-weight="bold" font-size="85.0" fill="#52575F" transform="matrix(1.00, 0.00, -0.00, -1.00, 340.0, 769.0)">l</text><text xml:space="preserve" font-family="OpenSans-Bold" font-weight="bold" font-size="85.0" fill="#52575F" transform="matrix(1.00, 0.00, -0.00, -1.00, 365.9, 769.0)">y</text><text xml:space="preserve" font-family="OpenSans-Bold" font-weight="bold" font-size="85.0" fill="#52575F" transform="matrix(1.00, 0.00, -0.00, -1.00, 414.3, 769.0)"> </text><text xml:space="preserve" font-family="OpenSans-Bold" font-weight="bold" font-size="85.0" fill="#52575F" transform="matrix(1.00, 0.00, -0.00, -1.00, 436.3, 769.0)">a</text><text xml:space="preserve" font-family="OpenSans-Bold" font-weight="bold" font-size="85.0" fill="#52575F" transform="matrix(1.00, 0.00, -0.00, -1.00, 487.7, 769.0)">ﬀ</text><text xml:space="preserve" font-family="OpenSans-Bold" font-weight="bold" font-size="85.0" fill="#52575F" transform="matrix(1.00, 0.00, -0.00, -1.00, 553.5, 769.0)">o</text><text xml:space="preserve" font-family="OpenSans-Bold" font-weight="bold" font-size="85.0" fill="#52575F" transform="matrix(1.00, 0.00, -0.00, -1.00, 606.1, 769.0)">r</text><text xml:space="preserve" font-family="OpenSans-Bold" font-weight="bold" font-size="85.0" fill="#52575F" transform="matrix(1.00, 0.00, -0.00, -1.00, 643.0, 769.0)">d</text><text xml:space="preserve" font-family="OpenSans-Bold" font-weight="bold" font-size="85.0" fill="#52575F" transform="matrix(1.00, 0.00, -0.00, -1.00, 696.8, 769.0)"> </text><text xml:space="preserve" font-family="OpenSans-Bold" font-weight="bold" font-size="85.0" fill="#52575F" transform="matrix(1.00, 0.00, -0.00, -1.00, 54.0, 653.0)">c</text><text xml:space="preserve" font-family="OpenSans-Bold" font-weight="bold" font-size="85.0" fill="#52575F" transform="matrix(1.00, 0.00, -0.00, -1.00, 97.7, 653.0)">o</text><text xml:space="preserve" font-family="OpenSans-Bold" font-weight="bold" font-size="85.0" fill="#52575F" transform="matrix(1.00, 0.00, -0.00, -1.00, 150.4, 653.0)">n</text><text xml:space="preserve" font-family="OpenSans-Bold" font-weight="bold" font-size="85.0" fill="#52575F" transform="matrix(1.00, 0.00, -0.00, -1.00, 206.2, 653.0)">s</text><text xml:space="preserve" font-family="OpenSans-Bold" font-weight="bold" font-size="85.0" fill="#52575F" transform="matrix(1.00, 0.00, -0.00, -1.00, 248.5, 653.0)">u</text><text xml:space="preserve" font-family="OpenSans-Bold" font-weight="bold" font-size="85.0" fill="#52575F" transform="matrix(1.00, 0.00, -0.00, -1.00, 304.4, 653.0)">l</text><text xml:space="preserve" font-family="OpenSans-Bold" font-weight="bold" font-size="85.0" fill="#52575F" transform="matrix(1.00, 0.00, -0.00, -1.00, 330.3, 653.0)">t</text><text xml:space="preserve" font-family="OpenSans-Bold" font-weight="bold" font-size="85.0" fill="#52575F" transform="matrix(1.00, 0.00, -0.00, -1.00, 367.2, 653.0)">a</text><text xml:space="preserve" font-family="OpenSans-Bold" font-weight="bold" font-size="85.0" fill="#52575F" transform="matrix(1.00, 0.00, -0.00, -1.00, 418.6, 653.0)">n</text><text xml:space="preserve" font-family="OpenSans-Bold" font-weight="bold" font-size="85.0" fill="#52575F" transform="matrix(1.00, 0.00, -0.00, -1.00, 474.5, 653.0)">c</text><text xml:space="preserve" font-family="OpenSans-Bold" font-weight="bold" font-size="85.0" fill="#52575F" transform="matrix(1.00, 0.00, -0.00, -1.00, 518.2, 653.0)">y</text><text xml:space="preserve" font-family="OpenSans-Bold" font-weight="bold" font-size="85.0" fill="#52575F" transform="matrix(1.00, 0.00, -0.00, -1.00, 566.5, 653.0)"> </text><text xml:space="preserve" font-family="OpenSans-Bold" font-weight="bold" font-size="85.0" fill="#52575F" transform="matrix(1.00, 0.00, -0.00, -1.00, 588.6, 653.0)">r</text><text xml:space="preserve" font-family="OpenSans-Bold" font-weight="bold" font-size="85.0" fill="#52575F" transform="matrix(1.00, 0.00, -0.00, -1.00, 625.5, 653.0)">a</text><text xml:space="preserve" font-family="OpenSans-Bold" font-weight="bold" font-size="85.0" fill="#52575F" transform="matrix(1.00, 0.00, -0.00, -1.00, 676.8, 653.0)">t</text><text xml:space="preserve" font-family="OpenSans-Bold" font-weight="bold" font-size="85.0" fill="#52575F" transform="matrix(1.00, 0.00, -0.00, -1.00, 713.7, 653.0)">e</text><text xml:space="preserve" font-family="OpenSans-Bold" font-weight="bold" font-size="85.0" fill="#52575F" transform="matrix(1.00, 0.00, -0.00, -1.00, 763.9, 653.0)">s</text><text xml:space="preserve" font-family="OpenSans-Bold" font-weight="bold" font-size="85.0" fill="#52575F" transform="matrix(1.00, 0.00, -0.00, -1.00, 806.2, 653.0)">.</text><text xml:space="preserve" font-family="OpenSans-Bold" font-weight="bold" font-size="85.0" fill="#52575F" transform="matrix(1.00, 0.00, -0.00, -1.00, 830.3, 653.0)"> </text><text xml:space="preserve" font-family="OpenSans-Light" font-size="45.0" fill="#52575F" transform="matrix(1.00, 0.00, -0.00, -1.00, 54.0, 464.0)">“</text><text xml:space="preserve" font-family="OpenSans-Light" font-size="45.0" fill="#52575F" transform="matrix(1.00, 0.00, -0.00, -1.00, 68.4, 464.0)">W</text><text xml:space="preserve" font-family="OpenSans-Light" font-size="45.0" fill="#52575F" transform="matrix(1.00, 0.00, -0.00, -1.00, 107.6, 464.0)">e</text><text xml:space="preserve" font-family="OpenSans-Light" font-size="45.0" fill="#52575F" transform="matrix(1.00, 0.00, -0.00, -1.00, 132.3, 464.0)"> </text><text xml:space="preserve" font-family="OpenSans-Light" font-size="45.0" fill="#52575F" transform="matrix(1.00, 0.00, -0.00, -1.00, 144.0, 464.0)">c</text><text xml:space="preserve" font-family="OpenSans-Light" font-size="45.0" fill="#52575F" transform="matrix(1.00, 0.00, -0.00, -1.00, 165.4, 464.0)">a</text><text xml:space="preserve" font-family="OpenSans-Light" font-size="45.0" fill="#52575F" transform="matrix(1.00, 0.00, -0.00, -1.00, 189.2, 464.0)">n</text><text xml:space="preserve" font-family="OpenSans-Light" font-size="45.0" fill="#52575F" transform="matrix(1.00, 0.00, -0.00, -1.00, 215.7, 464.0)"> </text><text xml:space="preserve" font-family="OpenSans-Light" font-size="45.0" fill="#52575F" transform="matrix(1.00, 0.00, -0.00, -1.00, 227.4, 464.0)">o</text><text xml:space="preserve" font-family="OpenSans-Light" font-size="45.0" fill="#52575F" transform="matrix(1.00, 0.00, -0.00, -1.00, 253.8, 464.0)">n</text><text xml:space="preserve" font-family="OpenSans-Light" font-size="45.0" fill="#52575F" transform="matrix(1.00, 0.00, -0.00, -1.00, 280.3, 464.0)">l</text><text xml:space="preserve" font-family="OpenSans-Light" font-size="45.0" fill="#52575F" transform="matrix(1.00, 0.00, -0.00, -1.00, 290.5, 464.0)">y</text><text xml:space="preserve" font-family="OpenSans-Light" font-size="45.0" fill="#52575F" transform="matrix(1.00, 0.00, -0.00, -1.00, 311.2, 464.0)"> </text><text xml:space="preserve" font-family="OpenSans-Light" font-size="45.0" fill="#52575F" transform="matrix(1.00, 0.00, -0.00, -1.00, 322.8, 464.0)">h</text><text xml:space="preserve" font-family="OpenSans-Light" font-size="45.0" fill="#52575F" transform="matrix(1.00, 0.00, -0.00, -1.00, 349.4, 464.0)">i</text><text xml:space="preserve" font-family="OpenSans-Light" font-size="45.0" fill="#52575F" transform="matrix(1.00, 0.00, -0.00, -1.00, 359.6, 464.0)">r</text><text xml:space="preserve" font-family="OpenSans-Light" font-size="45.0" fill="#52575F" transform="matrix(1.00, 0.00, -0.00, -1.00, 376.2, 464.0)">e</text><text xml:space="preserve" font-family="OpenSans-Light" font-size="45.0" fill="#52575F" transform="matrix(1.00, 0.00, -0.00, -1.00, 400.9, 464.0)"> </text><text xml:space="preserve" font-family="OpenSans-Light" font-size="45.0" fill="#52575F" transform="matrix(1.00, 0.00, -0.00, -1.00, 412.5, 464.0)">f</text><text xml:space="preserve" font-family="OpenSans-Light" font-size="45.0" fill="#52575F" transform="matrix(1.00, 0.00, -0.00, -1.00, 426.0, 464.0)">r</text><text xml:space="preserve" font-family="OpenSans-Light" font-size="45.0" fill="#52575F" transform="matrix(1.00, 0.00, -0.00, -1.00, 442.6, 464.0)">e</text><text xml:space="preserve" font-family="OpenSans-Light" font-size="45.0" fill="#52575F" transform="matrix(1.00, 0.00, -0.00, -1.00, 467.3, 464.0)">e</text><text xml:space="preserve" font-family="OpenSans-Light" font-size="45.0" fill="#52575F" transform="matrix(1.00, 0.00, -0.00, -1.00, 492.0, 464.0)">l</text><text xml:space="preserve" font-family="OpenSans-Light" font-size="45.0" fill="#52575F" transform="matrix(1.00, 0.00, -0.00, -1.00, 502.2, 464.0)">a</text><text xml:space="preserve" font-family="OpenSans-Light" font-size="45.0" fill="#52575F" transform="matrix(1.00, 0.00, -0.00, -1.00, 526.0, 464.0)">n</text><text xml:space="preserve" font-family="OpenSans-Light" font-size="45.0" fill="#52575F" transform="matrix(1.00, 0.00, -0.00, -1.00, 552.6, 464.0)">c</text><text xml:space="preserve" font-family="OpenSans-Light" font-size="45.0" fill="#52575F" transform="matrix(1.00, 0.00, -0.00, -1.00, 573.9, 464.0)">e</text><text xml:space="preserve" font-family="OpenSans-Light" font-size="45.0" fill="#52575F" transform="matrix(1.00, 0.00, -0.00, -1.00, 598.6, 464.0)"> </text><text xml:space="preserve" font-family="OpenSans-Light" font-size="45.0" fill="#52575F" transform="matrix(1.00, 0.00, -0.00, -1.00, 610.3, 464.0)">d</text><text xml:space="preserve" font-family="OpenSans-Light" font-size="45.0" fill="#52575F" transform="matrix(1.00, 0.00, -0.00, -1.00, 637.1, 464.0)">e</text><text xml:space="preserve" font-family="OpenSans-Light" font-size="45.0" fill="#52575F" transform="matrix(1.00, 0.00, -0.00, -1.00, 661.8, 464.0)">s</text><text xml:space="preserve" font-family="OpenSans-Light" font-size="45.0" fill="#52575F" transform="matrix(1.00, 0.00, -0.00, -1.00, 682.7, 464.0)">i</text><text xml:space="preserve" font-family="OpenSans-Light" font-size="45.0" fill="#52575F" transform="matrix(1.00, 0.00, -0.00, -1.00, 692.9, 464.0)">g</text><text xml:space="preserve" font-family="OpenSans-Light" font-size="45.0" fill="#52575F" transform="matrix(1.00, 0.00, -0.00, -1.00, 716.4, 464.0)">n</text><text xml:space="preserve" font-family="OpenSans-Light" font-size="45.0" fill="#52575F" transform="matrix(1.00, 0.00, -0.00, -1.00, 743.0, 464.0)">e</text><text xml:space="preserve" font-family="OpenSans-Light" font-size="45.0" fill="#52575F" transform="matrix(1.00, 0.00, -0.00, -1.00, 767.7, 464.0)">r</text><text xml:space="preserve" font-family="OpenSans-Light" font-size="45.0" fill="#52575F" transform="matrix(1.00, 0.00, -0.00, -1.00, 785.2, 464.0)">s</text><text xml:space="preserve" font-family="OpenSans-Light" font-size="45.0" fill="#52575F" transform="matrix(1.00, 0.00, -0.00, -1.00, 806.1, 464.0)"> </text><text xml:space="preserve" font-family="OpenSans-Light" font-size="45.0" fill="#52575F" transform="matrix(1.00, 0.00, -0.00, -1.00, 817.8, 464.0)">f</text><text xml:space="preserve" font-family="OpenSans-Light" font-size="45.0" fill="#52575F" transform="matrix(1.00, 0.00, -0.00, -1.00, 831.3, 464.0)">o</text><text xml:space="preserve" font-family="OpenSans-Light" font-size="45.0" fill="#52575F" transform="matrix(1.00, 0.00, -0.00, -1.00, 857.7, 464.0)">r</text><text xml:space="preserve" font-family="OpenSans-Light" font-size="45.0" fill="#52575F" transform="matrix(1.00, 0.00, -0.00, -1.00, 875.2, 464.0)"> </text><text xml:space="preserve" font-family="OpenSans-Light" font-size="45.0" fill="#52575F" transform="matrix(1.00, 0.00, -0.00, -1.00, 886.9, 464.0)">a</text><text xml:space="preserve" font-family="OpenSans-Light" font-size="45.0" fill="#52575F" transform="matrix(1.00, 0.00, -0.00, -1.00, 910.7, 464.0)"> </text><text xml:space="preserve" font-family="OpenSans-Light" font-size="45.0" fill="#52575F" transform="matrix(1.00, 0.00, -0.00, -1.00, 922.4, 464.0)">l</text><text xml:space="preserve" font-family="OpenSans-Light" font-size="45.0" fill="#52575F" transform="matrix(1.00, 0.00, -0.00, -1.00, 932.6, 464.0)">i</text><text xml:space="preserve" font-family="OpenSans-Light" font-size="45.0" fill="#52575F" transform="matrix(1.00, 0.00, -0.00, -1.00, 942.7, 464.0)">m</text><text xml:space="preserve" font-family="OpenSans-Light" font-size="45.0" fill="#52575F" transform="matrix(1.00, 0.00, -0.00, -1.00, 982.5, 464.0)">i</text><text xml:space="preserve" font-family="OpenSans-Light" font-size="45.0" fill="#52575F" transform="matrix(1.00, 0.00, -0.00, -1.00, 992.6, 464.0)">t</text><text xml:space="preserve" font-family="OpenSans-Light" font-size="45.0" fill="#52575F" transform="matrix(1.00, 0.00, -0.00, -1.00, 1007.7, 464.0)">e</text><text xml:space="preserve" font-family="OpenSans-Light" font-size="45.0" fill="#52575F" transform="matrix(1.00, 0.00, -0.00, -1.00, 1032.4, 464.0)">d</text><text xml:space="preserve" font-family="OpenSans-Light" font-size="45.0" fill="#52575F" transform="matrix(1.00, 0.00, -0.00, -1.00, 1059.2, 464.0)"> </text><text xml:space="preserve" font-family="OpenSans-Light" font-size="45.0" fill="#52575F" transform="matrix(1.00, 0.00, -0.00, -1.00, 54.0, 403.0)">t</text><text xml:space="preserve" font-family="OpenSans-Light" font-size="45.0" fill="#52575F" transform="matrix(1.00, 0.00, -0.00, -1.00, 69.1, 403.0)">i</text><text xml:space="preserve" font-family="OpenSans-Light" font-size="45.0" fill="#52575F" transform="matrix(1.00, 0.00, -0.00, -1.00, 79.3, 403.0)">m</text><text xml:space="preserve" font-family="OpenSans-Light" font-size="45.0" fill="#52575F" transform="matrix(1.00, 0.00, -0.00, -1.00, 119.0, 403.0)">e</text><text xml:space="preserve" font-family="OpenSans-Light" font-size="45.0" fill="#52575F" transform="matrix(1.00, 0.00, -0.00, -1.00, 143.7, 403.0)">…</text><text xml:space="preserve" font-family="OpenSans-Light" font-size="45.0" fill="#52575F" transform="matrix(1.00, 0.00, -0.00, -1.00, 175.9, 403.0)"> </text><text xml:space="preserve" font-family="OpenSans-Light" font-size="45.0" fill="#52575F" transform="matrix(1.00, 0.00, -0.00, -1.00, 187.5, 403.0)">a</text><text xml:space="preserve" font-family="OpenSans-Light" font-size="45.0" fill="#52575F" transform="matrix(1.00, 0.00, -0.00, -1.00, 211.4, 403.0)">n</text><text xml:space="preserve" font-family="OpenSans-Light" font-size="45.0" fill="#52575F" transform="matrix(1.00, 0.00, -0.00, -1.00, 237.9, 403.0)">d</text><text xml:space="preserve" font-family="OpenSans-Light" font-size="45.0" fill="#52575F" transform="matrix(1.00, 0.00, -0.00, -1.00, 264.7, 403.0)"> </text><text xml:space="preserve" font-family="OpenSans-Light" font-size="45.0" fill="#52575F" transform="matrix(1.00, 0.00, -0.00, -1.00, 276.4, 403.0)">t</text><text xml:space="preserve" font-family="OpenSans-Light" font-size="45.0" fill="#52575F" transform="matrix(1.00, 0.00, -0.00, -1.00, 291.5, 403.0)">h</text><text xml:space="preserve" font-family="OpenSans-Light" font-size="45.0" fill="#52575F" transform="matrix(1.00, 0.00, -0.00, -1.00, 318.0, 403.0)">e</text><text xml:space="preserve" font-family="OpenSans-Light" font-size="45.0" fill="#52575F" transform="matrix(1.00, 0.00, -0.00, -1.00, 342.7, 403.0)">r</text><text xml:space="preserve" font-family="OpenSans-Light" font-size="45.0" fill="#52575F" transform="matrix(1.00, 0.00, -0.00, -1.00, 359.3, 403.0)">e</text><text xml:space="preserve" font-family="OpenSans-Light" font-size="45.0" fill="#52575F" transform="matrix(1.00, 0.00, -0.00, -1.00, 384.0, 403.0)"> </text><text xml:space="preserve" font-family="OpenSans-Light" font-size="45.0" fill="#52575F" transform="matrix(1.00, 0.00, -0.00, -1.00, 395.7, 403.0)">i</text><text xml:space="preserve" font-family="OpenSans-Light" font-size="45.0" fill="#52575F" transform="matrix(1.00, 0.00, -0.00, -1.00, 405.8, 403.0)">s</text><text xml:space="preserve" font-family="OpenSans-Light" font-size="45.0" fill="#52575F" transform="matrix(1.00, 0.00, -0.00, -1.00, 426.8, 403.0)"> </text><text xml:space="preserve" font-family="OpenSans-Light" font-size="45.0" fill="#52575F" transform="matrix(1.00, 0.00, -0.00, -1.00, 438.5, 403.0)">n</text><text xml:space="preserve" font-family="OpenSans-Light" font-size="45.0" fill="#52575F" transform="matrix(1.00, 0.00, -0.00, -1.00, 465.0, 403.0)">o</text><text xml:space="preserve" font-family="OpenSans-Light" font-size="45.0" fill="#52575F" transform="matrix(1.00, 0.00, -0.00, -1.00, 491.4, 403.0)"> </text><text xml:space="preserve" font-family="OpenSans-Light" font-size="45.0" fill="#52575F" transform="matrix(1.00, 0.00, -0.00, -1.00, 503.0, 403.0)">g</text><text xml:space="preserve" font-family="OpenSans-Light" font-size="45.0" fill="#52575F" transform="matrix(1.00, 0.00, -0.00, -1.00, 526.6, 403.0)">u</text><text xml:space="preserve" font-family="OpenSans-Light" font-size="45.0" fill="#52575F" transform="matrix(1.00, 0.00, -0.00, -1.00, 553.1, 403.0)">a</text><text xml:space="preserve" font-family="OpenSans-Light" font-size="45.0" fill="#52575F" transform="matrix(1.00, 0.00, -0.00, -1.00, 576.9, 403.0)">r</text><text xml:space="preserve" font-family="OpenSans-Light" font-size="45.0" fill="#52575F" transform="matrix(1.00, 0.00, -0.00, -1.00, 593.6, 403.0)">a</text><text xml:space="preserve" font-family="OpenSans-Light" font-size="45.0" fill="#52575F" transform="matrix(1.00, 0.00, -0.00, -1.00, 617.4, 403.0)">n</text><text xml:space="preserve" font-family="OpenSans-Light" font-size="45.0" fill="#52575F" transform="matrix(1.00, 0.00, -0.00, -1.00, 643.9, 403.0)">t</text><text xml:space="preserve" font-family="OpenSans-Light" font-size="45.0" fill="#52575F" transform="matrix(1.00, 0.00, -0.00, -1.00, 659.0, 403.0)">e</text><text xml:space="preserve" font-family="OpenSans-Light" font-size="45.0" fill="#52575F" transform="matrix(1.00, 0.00, -0.00, -1.00, 683.7, 403.0)">e</text><text xml:space="preserve" font-family="OpenSans-Light" font-size="45.0" fill="#52575F" transform="matrix(1.00, 0.00, -0.00, -1.00, 708.4, 403.0)"> </text><text xml:space="preserve" font-family="OpenSans-Light" font-size="45.0" fill="#52575F" transform="matrix(1.00, 0.00, -0.00, -1.00, 720.1, 403.0)">w</text><text xml:space="preserve" font-family="OpenSans-Light" font-size="45.0" fill="#52575F" transform="matrix(1.00, 0.00, -0.00, -1.00, 752.6, 403.0)">e</text><text xml:space="preserve" font-family="OpenSans-Light" font-size="45.0" fill="#52575F" transform="matrix(1.00, 0.00, -0.00, -1.00, 777.3, 403.0)"> </text><text xml:space="preserve" font-family="OpenSans-Light" font-size="45.0" fill="#52575F" transform="matrix(1.00, 0.00, -0.00, -1.00, 789.0, 403.0)">c</text><text xml:space="preserve" font-family="OpenSans-Light" font-size="45.0" fill="#52575F" transform="matrix(1.00, 0.00, -0.00, -1.00, 810.4, 403.0)">a</text><text xml:space="preserve" font-family="OpenSans-Light" font-size="45.0" fill="#52575F" transform="matrix(1.00, 0.00, -0.00, -1.00, 834.2, 403.0)">n</text><text xml:space="preserve" font-family="OpenSans-Light" font-size="45.0" fill="#52575F" transform="matrix(1.00, 0.00, -0.00, -1.00, 860.7, 403.0)"> </text><text xml:space="preserve" font-family="OpenSans-Light" font-size="45.0" fill="#52575F" transform="matrix(1.00, 0.00, -0.00, -1.00, 872.4, 403.0)">g</text><text xml:space="preserve" font-family="OpenSans-Light" font-size="45.0" fill="#52575F" transform="matrix(1.00, 0.00, -0.00, -1.00, 895.9, 403.0)">e</text><text xml:space="preserve" font-family="OpenSans-Light" font-size="45.0" fill="#52575F" transform="matrix(1.00, 0.00, -0.00, -1.00, 920.6, 403.0)">t</text><text xml:space="preserve" font-family="OpenSans-Light" font-size="45.0" fill="#52575F" transform="matrix(1.00, 0.00, -0.00, -1.00, 935.7, 403.0)"> </text><text xml:space="preserve" font-family="OpenSans-Light" font-size="45.0" fill="#52575F" transform="matrix(1.00, 0.00, -0.00, -1.00, 947.4, 403.0)">t</text><text xml:space="preserve" font-family="OpenSans-Light" font-size="45.0" fill="#52575F" transform="matrix(1.00, 0.00, -0.00, -1.00, 962.4, 403.0)">h</text><text xml:space="preserve" font-family="OpenSans-Light" font-size="45.0" fill="#52575F" transform="matrix(1.00, 0.00, -0.00, -1.00, 989.0, 403.0)">e</text><text xml:space="preserve" font-family="OpenSans-Light" font-size="45.0" fill="#52575F" transform="matrix(1.00, 0.00, -0.00, -1.00, 1013.7, 403.0)">m</text><text xml:space="preserve" font-family="OpenSans-Light" font-size="45.0" fill="#52575F" transform="matrix(1.00, 0.00, -0.00, -1.00, 1053.4, 403.0)"> </text><text xml:space="preserve" font-family="OpenSans-Light" font-size="45.0" fill="#52575F" transform="matrix(1.00, 0.00, -0.00, -1.00, 54.0, 342.0)">a</text><text xml:space="preserve" font-family="OpenSans-Light" font-size="45.0" fill="#52575F" transform="matrix(1.00, 0.00, -0.00, -1.00, 77.8, 342.0)">g</text><text xml:space="preserve" font-family="OpenSans-Light" font-size="45.0" fill="#52575F" transform="matrix(1.00, 0.00, -0.00, -1.00, 101.4, 342.0)">a</text><text xml:space="preserve" font-family="OpenSans-Light" font-size="45.0" fill="#52575F" transform="matrix(1.00, 0.00, -0.00, -1.00, 125.2, 342.0)">i</text><text xml:space="preserve" font-family="OpenSans-Light" font-size="45.0" fill="#52575F" transform="matrix(1.00, 0.00, -0.00, -1.00, 135.4, 342.0)">n</text><text xml:space="preserve" font-family="OpenSans-Light" font-size="45.0" fill="#52575F" transform="matrix(1.00, 0.00, -0.00, -1.00, 161.9, 342.0)">.</text><text xml:space="preserve" font-family="OpenSans-Light" font-size="45.0" fill="#52575F" transform="matrix(1.00, 0.00, -0.00, -1.00, 172.6, 342.0)">”</text><text xml:space="preserve" font-family="OpenSans-Light" font-size="45.0" fill="#52575F" transform="matrix(1.00, 0.00, -0.00, -1.00, 186.1, 342.0)"> </text><text xml:space="preserve" font-family="OpenSans-Light" font-size="45.0" fill="#52575F" transform="matrix(1.00, 0.00, -0.00, -1.00, 197.8, 342.0)">-</text><text xml:space="preserve" font-family="OpenSans-Light" font-size="45.0" fill="#52575F" transform="matrix(1.00, 0.00, -0.00, -1.00, 212.2, 342.0)"> </text><text xml:space="preserve" font-family="OpenSans-Light" font-size="45.0" fill="#52575F" transform="matrix(1.00, 0.00, -0.00, -1.00, 223.9, 342.0)">S</text><text xml:space="preserve" font-family="OpenSans-Light" font-size="45.0" fill="#52575F" transform="matrix(1.00, 0.00, -0.00, -1.00, 248.4, 342.0)">t</text><text xml:space="preserve" font-family="OpenSans-Light" font-size="45.0" fill="#52575F" transform="matrix(1.00, 0.00, -0.00, -1.00, 263.5, 342.0)">e</text><text xml:space="preserve" font-family="OpenSans-Light" font-size="45.0" fill="#52575F" transform="matrix(1.00, 0.00, -0.00, -1.00, 287.3, 342.0)">v</text><text xml:space="preserve" font-family="OpenSans-Light" font-size="45.0" fill="#52575F" transform="matrix(1.00, 0.00, -0.00, -1.00, 307.9, 342.0)">e</text><text xml:space="preserve" font-family="OpenSans-Light" font-size="45.0" fill="#52575F" transform="matrix(1.00, 0.00, -0.00, -1.00, 332.6, 342.0)">n</text><text xml:space="preserve" font-family="OpenSans-Light" font-size="45.0" fill="#52575F" transform="matrix(1.00, 0.00, -0.00, -1.00, 359.2, 342.0)"> </text><text xml:space="preserve" font-family="OpenSans-Light" font-size="45.0" fill="#52575F" transform="matrix(1.00, 0.00, -0.00, -1.00, 370.8, 342.0)">H</text><text xml:space="preserve" font-family="OpenSans-Light" font-size="45.0" fill="#52575F" transform="matrix(1.00, 0.00, -0.00, -1.00, 403.2, 342.0)">o</text><text xml:space="preserve" font-family="OpenSans-Light" font-size="45.0" fill="#52575F" transform="matrix(1.00, 0.00, -0.00, -1.00, 429.6, 342.0)">o</text><text xml:space="preserve" font-family="OpenSans-Light" font-size="45.0" fill="#52575F" transform="matrix(1.00, 0.00, -0.00, -1.00, 455.9, 342.0)">d</text></g></svg>