<svg xmlns="http://www.w3.org/2000/svg" xmlns:xlink="http://www.w3.org/1999/xlink" stroke-miterlimit="4" clip-rule="evenodd" viewBox="0 0 1920 1080"><desc>SVG generated by Keynote</desc><g transform="matrix(1.00, 0.00, -0.00, -1.00, 0.0, 1080.0)"><path fill="#FEFFFF" d="M 0.0 1080.0 L 1920.0 1080.0 L 1920.0 0.0 L 0.0 0.0 Z M 0.0 1080.0"/><image width="810" height="539" transform="matrix(2.38, 0.00, -0.00, -2.38, -3.0, 840.0)" xlink:href="CBDC2BC1114754A020F0F55EEFBB303F.png"/><g><clipPath id="clip-57"><path d="M 50.0 52.0 L 154.0 52.0 L 154.0 -1.0 L 50.0 -1.0 Z M 50.4 52.4"/></clipPath><g clip-path="url(#clip-57)"><image width="104" height="104" transform="matrix(1.00, 0.00, -0.00, -0.99, 50.0, 77.0)" xlink:href="../../4F9A92A2-2DC6-4691-97F8-9F75BE53396F/assets/B22C448CED7C82A0C99889D0AD879A76.png"/></g></g><text fill="#A6AAA8" font-family="OpenSans-Bold" font-size="30" font-weight="bold" transform="matrix(1.00, 0.00, -0.00, -1.00, 54.0, 1014.0)" xml:space="preserve">T</text><text fill="#A6AAA8" font-family="OpenSans-Bold" font-size="30" font-weight="bold" transform="matrix(1.00, 0.00, -0.00, -1.00, 71.4, 1014.0)" xml:space="preserve">H</text><text fill="#A6AAA8" font-family="OpenSans-Bold" font-size="30" font-weight="bold" transform="matrix(1.00, 0.00, -0.00, -1.00, 94.3, 1014.0)" xml:space="preserve">E</text><text fill="#A6AAA8" font-family="OpenSans-Bold" font-size="30" font-weight="bold" transform="matrix(1.00, 0.00, -0.00, -1.00, 118.9, 1014.0)" xml:space="preserve">P</text><text fill="#A6AAA8" font-family="OpenSans-Bold" font-size="30" font-weight="bold" transform="matrix(1.00, 0.00, -0.00, -1.00, 137.8, 1014.0)" xml:space="preserve">I</text><text fill="#A6AAA8" font-family="OpenSans-Bold" font-size="30" font-weight="bold" transform="matrix(1.00, 0.00, -0.00, -1.00, 147.7, 1014.0)" xml:space="preserve">T</text><text fill="#A6AAA8" font-family="OpenSans-Bold" font-size="30" font-weight="bold" transform="matrix(1.00, 0.00, -0.00, -1.00, 164.5, 1014.0)" xml:space="preserve">C</text><text fill="#A6AAA8" font-family="OpenSans-Bold" font-size="30" font-weight="bold" transform="matrix(1.00, 0.00, -0.00, -1.00, 183.6, 1014.0)" xml:space="preserve">H</text><text fill="#52575F" font-family="OpenSans-Bold" font-size="65" font-weight="bold" transform="matrix(1.00, 0.00, -0.00, -1.00, 54.0, 896.0)" xml:space="preserve">W</text><text fill="#52575F" font-family="OpenSans-Bold" font-size="65" font-weight="bold" transform="matrix(1.00, 0.00, -0.00, -1.00, 115.5, 896.0)" xml:space="preserve">e</text><text fill="#52575F" font-family="OpenSans-Bold" font-size="65" font-weight="bold" transform="matrix(1.00, 0.00, -0.00, -1.00, 172.6, 896.0)" xml:space="preserve">a</text><text fill="#52575F" font-family="OpenSans-Bold" font-size="65" font-weight="bold" transform="matrix(1.00, 0.00, -0.00, -1.00, 211.9, 896.0)" xml:space="preserve">c</text><text fill="#52575F" font-family="OpenSans-Bold" font-size="65" font-weight="bold" transform="matrix(1.00, 0.00, -0.00, -1.00, 245.3, 896.0)" xml:space="preserve">c</text><text fill="#52575F" font-family="OpenSans-Bold" font-size="65" font-weight="bold" transform="matrix(1.00, 0.00, -0.00, -1.00, 278.7, 896.0)" xml:space="preserve">e</text><text fill="#52575F" font-family="OpenSans-Bold" font-size="65" font-weight="bold" transform="matrix(1.00, 0.00, -0.00, -1.00, 317.1, 896.0)" xml:space="preserve">l</text><text fill="#52575F" font-family="OpenSans-Bold" font-size="65" font-weight="bold" transform="matrix(1.00, 0.00, -0.00, -1.00, 337.0, 896.0)" xml:space="preserve">e</text><text fill="#52575F" font-family="OpenSans-Bold" font-size="65" font-weight="bold" transform="matrix(1.00, 0.00, -0.00, -1.00, 375.3, 896.0)" xml:space="preserve">r</text><text fill="#52575F" font-family="OpenSans-Bold" font-size="65" font-weight="bold" transform="matrix(1.00, 0.00, -0.00, -1.00, 403.6, 896.0)" xml:space="preserve">a</text><text fill="#52575F" font-family="OpenSans-Bold" font-size="65" font-weight="bold" transform="matrix(1.00, 0.00, -0.00, -1.00, 442.8, 896.0)" xml:space="preserve">t</text><text fill="#52575F" font-family="OpenSans-Bold" font-size="65" font-weight="bold" transform="matrix(1.00, 0.00, -0.00, -1.00, 471.1, 896.0)" xml:space="preserve">e</text><text fill="#52575F" font-family="OpenSans-Bold" font-size="65" font-weight="bold" transform="matrix(1.00, 0.00, -0.00, -1.00, 528.1, 896.0)" xml:space="preserve">t</text><text fill="#52575F" font-family="OpenSans-Bold" font-size="65" font-weight="bold" transform="matrix(1.00, 0.00, -0.00, -1.00, 556.3, 896.0)" xml:space="preserve">h</text><text fill="#52575F" font-family="OpenSans-Bold" font-size="65" font-weight="bold" transform="matrix(1.00, 0.00, -0.00, -1.00, 599.1, 896.0)" xml:space="preserve">e</text><text fill="#52575F" font-family="OpenSans-Bold" font-size="65" font-weight="bold" transform="matrix(1.00, 0.00, -0.00, -1.00, 656.1, 896.0)" xml:space="preserve">d</text><text fill="#52575F" font-family="OpenSans-Bold" font-size="65" font-weight="bold" transform="matrix(1.00, 0.00, -0.00, -1.00, 697.3, 896.0)" xml:space="preserve">e</text><text fill="#52575F" font-family="OpenSans-Bold" font-size="65" font-weight="bold" transform="matrix(1.00, 0.00, -0.00, -1.00, 735.6, 896.0)" xml:space="preserve">s</text><text fill="#52575F" font-family="OpenSans-Bold" font-size="65" font-weight="bold" transform="matrix(1.00, 0.00, -0.00, -1.00, 768.0, 896.0)" xml:space="preserve">i</text><text fill="#52575F" font-family="OpenSans-Bold" font-size="65" font-weight="bold" transform="matrix(1.00, 0.00, -0.00, -1.00, 787.8, 896.0)" xml:space="preserve">g</text><text fill="#52575F" font-family="OpenSans-Bold" font-size="65" font-weight="bold" transform="matrix(1.00, 0.00, -0.00, -1.00, 824.5, 896.0)" xml:space="preserve">n</text><text fill="#52575F" font-family="OpenSans-Bold" font-size="65" font-weight="bold" transform="matrix(1.00, 0.00, -0.00, -1.00, 885.9, 896.0)" xml:space="preserve">p</text><text fill="#52575F" font-family="OpenSans-Bold" font-size="65" font-weight="bold" transform="matrix(1.00, 0.00, -0.00, -1.00, 927.0, 896.0)" xml:space="preserve">r</text><text fill="#52575F" font-family="OpenSans-Bold" font-size="65" font-weight="bold" transform="matrix(1.00, 0.00, -0.00, -1.00, 955.3, 896.0)" xml:space="preserve">o</text><text fill="#52575F" font-family="OpenSans-Bold" font-size="65" font-weight="bold" transform="matrix(1.00, 0.00, -0.00, -1.00, 995.5, 896.0)" xml:space="preserve">c</text><text fill="#52575F" font-family="OpenSans-Bold" font-size="65" font-weight="bold" transform="matrix(1.00, 0.00, -0.00, -1.00, 1029.0, 896.0)" xml:space="preserve">e</text><text fill="#52575F" font-family="OpenSans-Bold" font-size="65" font-weight="bold" transform="matrix(1.00, 0.00, -0.00, -1.00, 1067.3, 896.0)" xml:space="preserve">s</text><text fill="#52575F" font-family="OpenSans-Bold" font-size="65" font-weight="bold" transform="matrix(1.00, 0.00, -0.00, -1.00, 1099.7, 896.0)" xml:space="preserve">s</text><text fill="#52575F" font-family="OpenSans-Bold" font-size="65" font-weight="bold" transform="matrix(1.00, 0.00, -0.00, -1.00, 1150.7, 896.0)" xml:space="preserve">b</text><text fill="#52575F" font-family="OpenSans-Bold" font-size="65" font-weight="bold" transform="matrix(1.00, 0.00, -0.00, -1.00, 1190.5, 896.0)" xml:space="preserve">y</text><text fill="#52575F" font-family="OpenSans-Bold" font-size="65" font-weight="bold" transform="matrix(1.00, 0.00, -0.00, -1.00, 1246.1, 896.0)" xml:space="preserve">e</text><text fill="#52575F" font-family="OpenSans-Bold" font-size="65" font-weight="bold" transform="matrix(1.00, 0.00, -0.00, -1.00, 1284.5, 896.0)" xml:space="preserve">m</text><text fill="#52575F" font-family="OpenSans-Bold" font-size="65" font-weight="bold" transform="matrix(1.00, 0.00, -0.00, -1.00, 1348.3, 896.0)" xml:space="preserve">b</text><text fill="#52575F" font-family="OpenSans-Bold" font-size="65" font-weight="bold" transform="matrix(1.00, 0.00, -0.00, -1.00, 1389.4, 896.0)" xml:space="preserve">e</text><text fill="#52575F" font-family="OpenSans-Bold" font-size="65" font-weight="bold" transform="matrix(1.00, 0.00, -0.00, -1.00, 1427.8, 896.0)" xml:space="preserve">d</text><text fill="#52575F" font-family="OpenSans-Bold" font-size="65" font-weight="bold" transform="matrix(1.00, 0.00, -0.00, -1.00, 1468.9, 896.0)" xml:space="preserve">d</text><text fill="#52575F" font-family="OpenSans-Bold" font-size="65" font-weight="bold" transform="matrix(1.00, 0.00, -0.00, -1.00, 1510.1, 896.0)" xml:space="preserve">i</text><text fill="#52575F" font-family="OpenSans-Bold" font-size="65" font-weight="bold" transform="matrix(1.00, 0.00, -0.00, -1.00, 1529.9, 896.0)" xml:space="preserve">n</text><text fill="#52575F" font-family="OpenSans-Bold" font-size="65" font-weight="bold" transform="matrix(1.00, 0.00, -0.00, -1.00, 1572.6, 896.0)" xml:space="preserve">g</text><text fill="#52575F" font-family="OpenSans-Bold" font-size="65" font-weight="bold" transform="matrix(1.00, 0.00, -0.00, -1.00, 54.0, 808.0)" xml:space="preserve">o</text><text fill="#52575F" font-family="OpenSans-Bold" font-size="65" font-weight="bold" transform="matrix(1.00, 0.00, -0.00, -1.00, 94.3, 808.0)" xml:space="preserve">u</text><text fill="#52575F" font-family="OpenSans-Bold" font-size="65" font-weight="bold" transform="matrix(1.00, 0.00, -0.00, -1.00, 137.0, 808.0)" xml:space="preserve">r</text><text fill="#52575F" font-family="OpenSans-Bold" font-size="65" font-weight="bold" transform="matrix(1.00, 0.00, -0.00, -1.00, 166.5, 808.0)" xml:space="preserve">s</text><text fill="#52575F" font-family="OpenSans-Bold" font-size="65" font-weight="bold" transform="matrix(1.00, 0.00, -0.00, -1.00, 198.8, 808.0)" xml:space="preserve">e</text><text fill="#52575F" font-family="OpenSans-Bold" font-size="65" font-weight="bold" transform="matrix(1.00, 0.00, -0.00, -1.00, 237.2, 808.0)" xml:space="preserve">l</text><text fill="#52575F" font-family="OpenSans-Bold" font-size="65" font-weight="bold" transform="matrix(1.00, 0.00, -0.00, -1.00, 257.1, 808.0)" xml:space="preserve">v</text><text fill="#52575F" font-family="OpenSans-Bold" font-size="65" font-weight="bold" transform="matrix(1.00, 0.00, -0.00, -1.00, 294.0, 808.0)" xml:space="preserve">e</text><text fill="#52575F" font-family="OpenSans-Bold" font-size="65" font-weight="bold" transform="matrix(1.00, 0.00, -0.00, -1.00, 332.4, 808.0)" xml:space="preserve">s</text><text fill="#52575F" font-family="OpenSans-Bold" font-size="65" font-weight="bold" transform="matrix(1.00, 0.00, -0.00, -1.00, 408.5, 808.0)" xml:space="preserve">a</text><text fill="#52575F" font-family="OpenSans-Bold" font-size="65" font-weight="bold" transform="matrix(1.00, 0.00, -0.00, -1.00, 447.8, 808.0)" xml:space="preserve">l</text><text fill="#52575F" font-family="OpenSans-Bold" font-size="65" font-weight="bold" transform="matrix(1.00, 0.00, -0.00, -1.00, 467.6, 808.0)" xml:space="preserve">o</text><text fill="#52575F" font-family="OpenSans-Bold" font-size="65" font-weight="bold" transform="matrix(1.00, 0.00, -0.00, -1.00, 507.9, 808.0)" xml:space="preserve">n</text><text fill="#52575F" font-family="OpenSans-Bold" font-size="65" font-weight="bold" transform="matrix(1.00, 0.00, -0.00, -1.00, 550.6, 808.0)" xml:space="preserve">g</text><text fill="#52575F" font-family="OpenSans-Bold" font-size="65" font-weight="bold" transform="matrix(1.00, 0.00, -0.00, -1.00, 587.3, 808.0)" xml:space="preserve">s</text><text fill="#52575F" font-family="OpenSans-Bold" font-size="65" font-weight="bold" transform="matrix(1.00, 0.00, -0.00, -1.00, 619.6, 808.0)" xml:space="preserve">i</text><text fill="#52575F" font-family="OpenSans-Bold" font-size="65" font-weight="bold" transform="matrix(1.00, 0.00, -0.00, -1.00, 639.5, 808.0)" xml:space="preserve">d</text><text fill="#52575F" font-family="OpenSans-Bold" font-size="65" font-weight="bold" transform="matrix(1.00, 0.00, -0.00, -1.00, 680.6, 808.0)" xml:space="preserve">e</text><text fill="#52575F" font-family="OpenSans-Bold" font-size="65" font-weight="bold" transform="matrix(1.00, 0.00, -0.00, -1.00, 762.8, 808.0)" xml:space="preserve">p</text><text fill="#52575F" font-family="OpenSans-Bold" font-size="65" font-weight="bold" transform="matrix(1.00, 0.00, -0.00, -1.00, 803.9, 808.0)" xml:space="preserve">o</text><text fill="#52575F" font-family="OpenSans-Bold" font-size="65" font-weight="bold" transform="matrix(1.00, 0.00, -0.00, -1.00, 844.2, 808.0)" xml:space="preserve">s</text><text fill="#52575F" font-family="OpenSans-Bold" font-size="65" font-weight="bold" transform="matrix(1.00, 0.00, -0.00, -1.00, 876.5, 808.0)" xml:space="preserve">t</text><text fill="#52575F" font-family="OpenSans-Bold" font-size="65" font-weight="bold" transform="matrix(1.00, 0.00, -0.00, -1.00, 948.5, 808.0)" xml:space="preserve">f</text><text fill="#52575F" font-family="OpenSans-Bold" font-size="65" font-weight="bold" transform="matrix(1.00, 0.00, -0.00, -1.00, 973.7, 808.0)" xml:space="preserve">u</text><text fill="#52575F" font-family="OpenSans-Bold" font-size="65" font-weight="bold" transform="matrix(1.00, 0.00, -0.00, -1.00, 1016.4, 808.0)" xml:space="preserve">n</text><text fill="#52575F" font-family="OpenSans-Bold" font-size="65" font-weight="bold" transform="matrix(1.00, 0.00, -0.00, -1.00, 1059.1, 808.0)" xml:space="preserve">d</text><text fill="#52575F" font-family="OpenSans-Bold" font-size="65" font-weight="bold" transform="matrix(1.00, 0.00, -0.00, -1.00, 1100.3, 808.0)" xml:space="preserve">e</text><text fill="#52575F" font-family="OpenSans-Bold" font-size="65" font-weight="bold" transform="matrix(1.00, 0.00, -0.00, -1.00, 1138.6, 808.0)" xml:space="preserve">d</text><text fill="#52575F" font-family="OpenSans-Bold" font-size="65" font-weight="bold" transform="matrix(1.00, 0.00, -0.00, -1.00, 1223.6, 808.0)" xml:space="preserve">s</text><text fill="#52575F" font-family="OpenSans-Bold" font-size="65" font-weight="bold" transform="matrix(1.00, 0.00, -0.00, -1.00, 1255.9, 808.0)" xml:space="preserve">t</text><text fill="#52575F" font-family="OpenSans-Bold" font-size="65" font-weight="bold" transform="matrix(1.00, 0.00, -0.00, -1.00, 1284.1, 808.0)" xml:space="preserve">a</text><text fill="#52575F" font-family="OpenSans-Bold" font-size="65" font-weight="bold" transform="matrix(1.00, 0.00, -0.00, -1.00, 1323.4, 808.0)" xml:space="preserve">r</text><text fill="#52575F" font-family="OpenSans-Bold" font-size="65" font-weight="bold" transform="matrix(1.00, 0.00, -0.00, -1.00, 1352.9, 808.0)" xml:space="preserve">t</text><text fill="#52575F" font-family="OpenSans-Bold" font-size="65" font-weight="bold" transform="matrix(1.00, 0.00, -0.00, -1.00, 1381.1, 808.0)" xml:space="preserve">u</text><text fill="#52575F" font-family="OpenSans-Bold" font-size="65" font-weight="bold" transform="matrix(1.00, 0.00, -0.00, -1.00, 1423.8, 808.0)" xml:space="preserve">p</text><text fill="#52575F" font-family="OpenSans-Bold" font-size="65" font-weight="bold" transform="matrix(1.00, 0.00, -0.00, -1.00, 1464.9, 808.0)" xml:space="preserve">s</text><text fill="#52575F" font-family="OpenSans-Bold" font-size="65" font-weight="bold" transform="matrix(1.00, 0.00, -0.00, -1.00, 1541.1, 808.0)" xml:space="preserve">t</text><text fill="#52575F" font-family="OpenSans-Bold" font-size="65" font-weight="bold" transform="matrix(1.00, 0.00, -0.00, -1.00, 1569.3, 808.0)" xml:space="preserve">o</text><text fill="#52575F" font-family="OpenSans-Bold" font-size="65" font-weight="bold" transform="matrix(1.00, 0.00, -0.00, -1.00, 54.0, 720.0)" xml:space="preserve">s</text><text fill="#52575F" font-family="OpenSans-Bold" font-size="65" font-weight="bold" transform="matrix(1.00, 0.00, -0.00, -1.00, 86.3, 720.0)" xml:space="preserve">o</text><text fill="#52575F" font-family="OpenSans-Bold" font-size="65" font-weight="bold" transform="matrix(1.00, 0.00, -0.00, -1.00, 126.6, 720.0)" xml:space="preserve">l</text><text fill="#52575F" font-family="OpenSans-Bold" font-size="65" font-weight="bold" transform="matrix(1.00, 0.00, -0.00, -1.00, 146.4, 720.0)" xml:space="preserve">i</text><text fill="#52575F" font-family="OpenSans-Bold" font-size="65" font-weight="bold" transform="matrix(1.00, 0.00, -0.00, -1.00, 166.3, 720.0)" xml:space="preserve">d</text><text fill="#52575F" font-family="OpenSans-Bold" font-size="65" font-weight="bold" transform="matrix(1.00, 0.00, -0.00, -1.00, 207.4, 720.0)" xml:space="preserve">i</text><text fill="#52575F" font-family="OpenSans-Bold" font-size="65" font-weight="bold" transform="matrix(1.00, 0.00, -0.00, -1.00, 227.2, 720.0)" xml:space="preserve">f</text><text fill="#52575F" font-family="OpenSans-Bold" font-size="65" font-weight="bold" transform="matrix(1.00, 0.00, -0.00, -1.00, 252.4, 720.0)" xml:space="preserve">y</text><text fill="#52575F" font-family="OpenSans-Bold" font-size="65" font-weight="bold" transform="matrix(1.00, 0.00, -0.00, -1.00, 306.3, 720.0)" xml:space="preserve">t</text><text fill="#52575F" font-family="OpenSans-Bold" font-size="65" font-weight="bold" transform="matrix(1.00, 0.00, -0.00, -1.00, 334.5, 720.0)" xml:space="preserve">h</text><text fill="#52575F" font-family="OpenSans-Bold" font-size="65" font-weight="bold" transform="matrix(1.00, 0.00, -0.00, -1.00, 377.2, 720.0)" xml:space="preserve">e</text><text fill="#52575F" font-family="OpenSans-Bold" font-size="65" font-weight="bold" transform="matrix(1.00, 0.00, -0.00, -1.00, 415.6, 720.0)" xml:space="preserve">i</text><text fill="#52575F" font-family="OpenSans-Bold" font-size="65" font-weight="bold" transform="matrix(1.00, 0.00, -0.00, -1.00, 435.4, 720.0)" xml:space="preserve">r</text><text fill="#52575F" font-family="OpenSans-Bold" font-size="65" font-weight="bold" transform="matrix(1.00, 0.00, -0.00, -1.00, 481.8, 720.0)" xml:space="preserve">v</text><text fill="#52575F" font-family="OpenSans-Bold" font-size="65" font-weight="bold" transform="matrix(1.00, 0.00, -0.00, -1.00, 518.8, 720.0)" xml:space="preserve">i</text><text fill="#52575F" font-family="OpenSans-Bold" font-size="65" font-weight="bold" transform="matrix(1.00, 0.00, -0.00, -1.00, 538.7, 720.0)" xml:space="preserve">a</text><text fill="#52575F" font-family="OpenSans-Bold" font-size="65" font-weight="bold" transform="matrix(1.00, 0.00, -0.00, -1.00, 577.9, 720.0)" xml:space="preserve">b</text><text fill="#52575F" font-family="OpenSans-Bold" font-size="65" font-weight="bold" transform="matrix(1.00, 0.00, -0.00, -1.00, 619.0, 720.0)" xml:space="preserve">i</text><text fill="#52575F" font-family="OpenSans-Bold" font-size="65" font-weight="bold" transform="matrix(1.00, 0.00, -0.00, -1.00, 638.9, 720.0)" xml:space="preserve">l</text><text fill="#52575F" font-family="OpenSans-Bold" font-size="65" font-weight="bold" transform="matrix(1.00, 0.00, -0.00, -1.00, 658.7, 720.0)" xml:space="preserve">i</text><text fill="#52575F" font-family="OpenSans-Bold" font-size="65" font-weight="bold" transform="matrix(1.00, 0.00, -0.00, -1.00, 678.6, 720.0)" xml:space="preserve">t</text><text fill="#52575F" font-family="OpenSans-Bold" font-size="65" font-weight="bold" transform="matrix(1.00, 0.00, -0.00, -1.00, 706.8, 720.0)" xml:space="preserve">y</text><text fill="#52575F" font-family="OpenSans-Bold" font-size="65" font-weight="bold" transform="matrix(1.00, 0.00, -0.00, -1.00, 760.6, 720.0)" xml:space="preserve">a</text><text fill="#52575F" font-family="OpenSans-Bold" font-size="65" font-weight="bold" transform="matrix(1.00, 0.00, -0.00, -1.00, 799.9, 720.0)" xml:space="preserve">s</text><text fill="#52575F" font-family="OpenSans-Bold" font-size="65" font-weight="bold" transform="matrix(1.00, 0.00, -0.00, -1.00, 849.1, 720.0)" xml:space="preserve">a</text><text fill="#52575F" font-family="OpenSans-Bold" font-size="65" font-weight="bold" transform="matrix(1.00, 0.00, -0.00, -1.00, 905.2, 720.0)" xml:space="preserve">c</text><text fill="#52575F" font-family="OpenSans-Bold" font-size="65" font-weight="bold" transform="matrix(1.00, 0.00, -0.00, -1.00, 938.6, 720.0)" xml:space="preserve">o</text><text fill="#52575F" font-family="OpenSans-Bold" font-size="65" font-weight="bold" transform="matrix(1.00, 0.00, -0.00, -1.00, 978.9, 720.0)" xml:space="preserve">m</text><text fill="#52575F" font-family="OpenSans-Bold" font-size="65" font-weight="bold" transform="matrix(1.00, 0.00, -0.00, -1.00, 1042.7, 720.0)" xml:space="preserve">p</text><text fill="#52575F" font-family="OpenSans-Bold" font-size="65" font-weight="bold" transform="matrix(1.00, 0.00, -0.00, -1.00, 1083.8, 720.0)" xml:space="preserve">a</text><text fill="#52575F" font-family="OpenSans-Bold" font-size="65" font-weight="bold" transform="matrix(1.00, 0.00, -0.00, -1.00, 1123.1, 720.0)" xml:space="preserve">n</text><text fill="#52575F" font-family="OpenSans-Bold" font-size="65" font-weight="bold" transform="matrix(1.00, 0.00, -0.00, -1.00, 1165.8, 720.0)" xml:space="preserve">y</text><text fill="#52575F" font-family="OpenSans-Bold" font-size="65" font-weight="bold" transform="matrix(1.00, 0.00, -0.00, -1.00, 1200.2, 720.0)" xml:space="preserve">.</text><text fill="#52575F" font-family="OpenSans-Light" font-size="57" transform="matrix(1.00, 0.00, -0.00, -1.00, 54.0, 622.0)" xml:space="preserve">W</text><text fill="#52575F" font-family="OpenSans-Light" font-size="57" transform="matrix(1.00, 0.00, -0.00, -1.00, 103.7, 622.0)" xml:space="preserve">e</text><text fill="#52575F" font-family="OpenSans-Light" font-size="57" transform="matrix(1.00, 0.00, -0.00, -1.00, 166.0, 622.0)" xml:space="preserve">a</text><text fill="#52575F" font-family="OpenSans-Light" font-size="57" transform="matrix(1.00, 0.00, -0.00, -1.00, 196.2, 622.0)" xml:space="preserve">r</text><text fill="#52575F" font-family="OpenSans-Light" font-size="57" transform="matrix(1.00, 0.00, -0.00, -1.00, 217.2, 622.0)" xml:space="preserve">e</text><text fill="#52575F" font-family="OpenSans-Light" font-size="57" transform="matrix(1.00, 0.00, -0.00, -1.00, 279.5, 622.0)" xml:space="preserve">e</text><text fill="#52575F" font-family="OpenSans-Light" font-size="57" transform="matrix(1.00, 0.00, -0.00, -1.00, 309.7, 622.0)" xml:space="preserve">x</text><text fill="#52575F" font-family="OpenSans-Light" font-size="57" transform="matrix(1.00, 0.00, -0.00, -1.00, 338.0, 622.0)" xml:space="preserve">p</text><text fill="#52575F" font-family="OpenSans-Light" font-size="57" transform="matrix(1.00, 0.00, -0.00, -1.00, 372.0, 622.0)" xml:space="preserve">e</text><text fill="#52575F" font-family="OpenSans-Light" font-size="57" transform="matrix(1.00, 0.00, -0.00, -1.00, 403.3, 622.0)" xml:space="preserve">r</text><text fill="#52575F" font-family="OpenSans-Light" font-size="57" transform="matrix(1.00, 0.00, -0.00, -1.00, 425.4, 622.0)" xml:space="preserve">t</text><text fill="#52575F" font-family="OpenSans-Light" font-size="57" transform="matrix(1.00, 0.00, -0.00, -1.00, 444.5, 622.0)" xml:space="preserve">s</text><text fill="#52575F" font-family="OpenSans-Light" font-size="57" transform="matrix(1.00, 0.00, -0.00, -1.00, 502.1, 622.0)" xml:space="preserve">i</text><text fill="#52575F" font-family="OpenSans-Light" font-size="57" transform="matrix(1.00, 0.00, -0.00, -1.00, 515.0, 622.0)" xml:space="preserve">n</text><text fill="#52575F" font-family="OpenSans-Light" font-size="57" transform="matrix(1.00, 0.00, -0.00, -1.00, 579.6, 622.0)" xml:space="preserve">t</text><text fill="#52575F" font-family="OpenSans-Light" font-size="57" transform="matrix(1.00, 0.00, -0.00, -1.00, 598.7, 622.0)" xml:space="preserve">h</text><text fill="#52575F" font-family="OpenSans-Light" font-size="57" transform="matrix(1.00, 0.00, -0.00, -1.00, 632.3, 622.0)" xml:space="preserve">e</text><text fill="#52575F" font-family="OpenSans-Light" font-size="57" transform="matrix(1.00, 0.00, -0.00, -1.00, 694.6, 622.0)" xml:space="preserve">m</text><text fill="#52575F" font-family="OpenSans-Light" font-size="57" transform="matrix(1.00, 0.00, -0.00, -1.00, 744.9, 622.0)" xml:space="preserve">e</text><text fill="#52575F" font-family="OpenSans-Light" font-size="57" transform="matrix(1.00, 0.00, -0.00, -1.00, 776.2, 622.0)" xml:space="preserve">t</text><text fill="#52575F" font-family="OpenSans-Light" font-size="57" transform="matrix(1.00, 0.00, -0.00, -1.00, 795.3, 622.0)" xml:space="preserve">h</text><text fill="#52575F" font-family="OpenSans-Light" font-size="57" transform="matrix(1.00, 0.00, -0.00, -1.00, 828.9, 622.0)" xml:space="preserve">o</text><text fill="#52575F" font-family="OpenSans-Light" font-size="57" transform="matrix(1.00, 0.00, -0.00, -1.00, 862.3, 622.0)" xml:space="preserve">d</text><text fill="#52575F" font-family="OpenSans-Light" font-size="57" transform="matrix(1.00, 0.00, -0.00, -1.00, 896.2, 622.0)" xml:space="preserve">o</text><text fill="#52575F" font-family="OpenSans-Light" font-size="57" transform="matrix(1.00, 0.00, -0.00, -1.00, 929.6, 622.0)" xml:space="preserve">l</text><text fill="#52575F" font-family="OpenSans-Light" font-size="57" transform="matrix(1.00, 0.00, -0.00, -1.00, 942.5, 622.0)" xml:space="preserve">o</text><text fill="#52575F" font-family="OpenSans-Light" font-size="57" transform="matrix(1.00, 0.00, -0.00, -1.00, 975.9, 622.0)" xml:space="preserve">g</text><text fill="#52575F" font-family="OpenSans-Light" font-size="57" transform="matrix(1.00, 0.00, -0.00, -1.00, 1005.7, 622.0)" xml:space="preserve">y</text><text fill="#52575F" font-family="OpenSans-Light" font-size="57" transform="matrix(1.00, 0.00, -0.00, -1.00, 1062.9, 622.0)" xml:space="preserve">o</text><text fill="#52575F" font-family="OpenSans-Light" font-size="57" transform="matrix(1.00, 0.00, -0.00, -1.00, 1096.3, 622.0)" xml:space="preserve">f</text><text fill="#52575F" font-family="OpenSans-Light" font-size="57" transform="matrix(1.00, 0.00, -0.00, -1.00, 1144.4, 622.0)" xml:space="preserve">d</text><text fill="#52575F" font-family="OpenSans-Light" font-size="57" transform="matrix(1.00, 0.00, -0.00, -1.00, 1178.3, 622.0)" xml:space="preserve">e</text><text fill="#52575F" font-family="OpenSans-Light" font-size="57" transform="matrix(1.00, 0.00, -0.00, -1.00, 1209.6, 622.0)" xml:space="preserve">s</text><text fill="#52575F" font-family="OpenSans-Light" font-size="57" transform="matrix(1.00, 0.00, -0.00, -1.00, 1236.1, 622.0)" xml:space="preserve">i</text><text fill="#52575F" font-family="OpenSans-Light" font-size="57" transform="matrix(1.00, 0.00, -0.00, -1.00, 1249.0, 622.0)" xml:space="preserve">g</text><text fill="#52575F" font-family="OpenSans-Light" font-size="57" transform="matrix(1.00, 0.00, -0.00, -1.00, 1278.8, 622.0)" xml:space="preserve">n</text><text fill="#52575F" font-family="OpenSans-Light" font-size="57" transform="matrix(1.00, 0.00, -0.00, -1.00, 1343.4, 622.0)" xml:space="preserve">c</text><text fill="#52575F" font-family="OpenSans-Light" font-size="57" transform="matrix(1.00, 0.00, -0.00, -1.00, 1370.5, 622.0)" xml:space="preserve">o</text><text fill="#52575F" font-family="OpenSans-Light" font-size="57" transform="matrix(1.00, 0.00, -0.00, -1.00, 1403.9, 622.0)" xml:space="preserve">n</text><text fill="#52575F" font-family="OpenSans-Light" font-size="57" transform="matrix(1.00, 0.00, -0.00, -1.00, 1437.5, 622.0)" xml:space="preserve">s</text><text fill="#52575F" font-family="OpenSans-Light" font-size="57" transform="matrix(1.00, 0.00, -0.00, -1.00, 1464.1, 622.0)" xml:space="preserve">u</text><text fill="#52575F" font-family="OpenSans-Light" font-size="57" transform="matrix(1.00, 0.00, -0.00, -1.00, 1497.7, 622.0)" xml:space="preserve">l</text><text fill="#52575F" font-family="OpenSans-Light" font-size="57" transform="matrix(1.00, 0.00, -0.00, -1.00, 1510.6, 622.0)" xml:space="preserve">t</text><text fill="#52575F" font-family="OpenSans-Light" font-size="57" transform="matrix(1.00, 0.00, -0.00, -1.00, 1529.7, 622.0)" xml:space="preserve">i</text><text fill="#52575F" font-family="OpenSans-Light" font-size="57" transform="matrix(1.00, 0.00, -0.00, -1.00, 1542.6, 622.0)" xml:space="preserve">n</text><text fill="#52575F" font-family="OpenSans-Light" font-size="57" transform="matrix(1.00, 0.00, -0.00, -1.00, 1576.2, 622.0)" xml:space="preserve">g</text><text fill="#52575F" font-family="OpenSans-Light" font-size="57" transform="matrix(1.00, 0.00, -0.00, -1.00, 1606.0, 622.0)" xml:space="preserve">,</text><text fill="#52575F" font-family="OpenSans-Light" font-size="57" transform="matrix(1.00, 0.00, -0.00, -1.00, 54.0, 544.0)" xml:space="preserve">s</text><text fill="#52575F" font-family="OpenSans-Light" font-size="57" transform="matrix(1.00, 0.00, -0.00, -1.00, 80.5, 544.0)" xml:space="preserve">p</text><text fill="#52575F" font-family="OpenSans-Light" font-size="57" transform="matrix(1.00, 0.00, -0.00, -1.00, 114.5, 544.0)" xml:space="preserve">e</text><text fill="#52575F" font-family="OpenSans-Light" font-size="57" transform="matrix(1.00, 0.00, -0.00, -1.00, 145.8, 544.0)" xml:space="preserve">c</text><text fill="#52575F" font-family="OpenSans-Light" font-size="57" transform="matrix(1.00, 0.00, -0.00, -1.00, 172.8, 544.0)" xml:space="preserve">i</text><text fill="#52575F" font-family="OpenSans-Light" font-size="57" transform="matrix(1.00, 0.00, -0.00, -1.00, 185.7, 544.0)" xml:space="preserve">a</text><text fill="#52575F" font-family="OpenSans-Light" font-size="57" transform="matrix(1.00, 0.00, -0.00, -1.00, 215.9, 544.0)" xml:space="preserve">l</text><text fill="#52575F" font-family="OpenSans-Light" font-size="57" transform="matrix(1.00, 0.00, -0.00, -1.00, 228.8, 544.0)" xml:space="preserve">i</text><text fill="#52575F" font-family="OpenSans-Light" font-size="57" transform="matrix(1.00, 0.00, -0.00, -1.00, 241.7, 544.0)" xml:space="preserve">z</text><text fill="#52575F" font-family="OpenSans-Light" font-size="57" transform="matrix(1.00, 0.00, -0.00, -1.00, 268.0, 544.0)" xml:space="preserve">i</text><text fill="#52575F" font-family="OpenSans-Light" font-size="57" transform="matrix(1.00, 0.00, -0.00, -1.00, 280.9, 544.0)" xml:space="preserve">n</text><text fill="#52575F" font-family="OpenSans-Light" font-size="57" transform="matrix(1.00, 0.00, -0.00, -1.00, 314.5, 544.0)" xml:space="preserve">g</text><text fill="#52575F" font-family="OpenSans-Light" font-size="57" transform="matrix(1.00, 0.00, -0.00, -1.00, 359.1, 544.0)" xml:space="preserve">i</text><text fill="#52575F" font-family="OpenSans-Light" font-size="57" transform="matrix(1.00, 0.00, -0.00, -1.00, 372.0, 544.0)" xml:space="preserve">n</text><text fill="#52575F" font-family="OpenSans-Light" font-size="57" transform="matrix(1.00, 0.00, -0.00, -1.00, 420.4, 544.0)" xml:space="preserve">t</text><text fill="#52575F" font-family="OpenSans-Light" font-size="57" transform="matrix(1.00, 0.00, -0.00, -1.00, 439.5, 544.0)" xml:space="preserve">h</text><text fill="#52575F" font-family="OpenSans-Light" font-size="57" transform="matrix(1.00, 0.00, -0.00, -1.00, 473.1, 544.0)" xml:space="preserve">e</text><text fill="#52575F" font-family="OpenSans-Light" font-size="57" transform="matrix(1.00, 0.00, -0.00, -1.00, 519.1, 544.0)" xml:space="preserve">i</text><text fill="#52575F" font-family="OpenSans-Light" font-size="57" transform="matrix(1.00, 0.00, -0.00, -1.00, 532.0, 544.0)" xml:space="preserve">n</text><text fill="#52575F" font-family="OpenSans-Light" font-size="57" transform="matrix(1.00, 0.00, -0.00, -1.00, 565.6, 544.0)" xml:space="preserve">t</text><text fill="#52575F" font-family="OpenSans-Light" font-size="57" transform="matrix(1.00, 0.00, -0.00, -1.00, 584.7, 544.0)" xml:space="preserve">e</text><text fill="#52575F" font-family="OpenSans-Light" font-size="57" transform="matrix(1.00, 0.00, -0.00, -1.00, 616.0, 544.0)" xml:space="preserve">r</text><text fill="#52575F" font-family="OpenSans-Light" font-size="57" transform="matrix(1.00, 0.00, -0.00, -1.00, 638.2, 544.0)" xml:space="preserve">s</text><text fill="#52575F" font-family="OpenSans-Light" font-size="57" transform="matrix(1.00, 0.00, -0.00, -1.00, 664.7, 544.0)" xml:space="preserve">e</text><text fill="#52575F" font-family="OpenSans-Light" font-size="57" transform="matrix(1.00, 0.00, -0.00, -1.00, 696.0, 544.0)" xml:space="preserve">c</text><text fill="#52575F" font-family="OpenSans-Light" font-size="57" transform="matrix(1.00, 0.00, -0.00, -1.00, 723.1, 544.0)" xml:space="preserve">t</text><text fill="#52575F" font-family="OpenSans-Light" font-size="57" transform="matrix(1.00, 0.00, -0.00, -1.00, 742.2, 544.0)" xml:space="preserve">i</text><text fill="#52575F" font-family="OpenSans-Light" font-size="57" transform="matrix(1.00, 0.00, -0.00, -1.00, 755.1, 544.0)" xml:space="preserve">o</text><text fill="#52575F" font-family="OpenSans-Light" font-size="57" transform="matrix(1.00, 0.00, -0.00, -1.00, 788.5, 544.0)" xml:space="preserve">n</text><text fill="#52575F" font-family="OpenSans-Light" font-size="57" transform="matrix(1.00, 0.00, -0.00, -1.00, 836.9, 544.0)" xml:space="preserve">o</text><text fill="#52575F" font-family="OpenSans-Light" font-size="57" transform="matrix(1.00, 0.00, -0.00, -1.00, 870.3, 544.0)" xml:space="preserve">f</text><text fill="#52575F" font-family="OpenSans-Light" font-size="57" transform="matrix(1.00, 0.00, -0.00, -1.00, 902.1, 544.0)" xml:space="preserve">d</text><text fill="#52575F" font-family="OpenSans-Light" font-size="57" transform="matrix(1.00, 0.00, -0.00, -1.00, 936.1, 544.0)" xml:space="preserve">e</text><text fill="#52575F" font-family="OpenSans-Light" font-size="57" transform="matrix(1.00, 0.00, -0.00, -1.00, 967.3, 544.0)" xml:space="preserve">s</text><text fill="#52575F" font-family="OpenSans-Light" font-size="57" transform="matrix(1.00, 0.00, -0.00, -1.00, 993.9, 544.0)" xml:space="preserve">i</text><text fill="#52575F" font-family="OpenSans-Light" font-size="57" transform="matrix(1.00, 0.00, -0.00, -1.00, 1006.8, 544.0)" xml:space="preserve">g</text><text fill="#52575F" font-family="OpenSans-Light" font-size="57" transform="matrix(1.00, 0.00, -0.00, -1.00, 1036.6, 544.0)" xml:space="preserve">n</text><text fill="#52575F" font-family="OpenSans-Light" font-size="57" transform="matrix(1.00, 0.00, -0.00, -1.00, 1085.0, 544.0)" xml:space="preserve">a</text><text fill="#52575F" font-family="OpenSans-Light" font-size="57" transform="matrix(1.00, 0.00, -0.00, -1.00, 1115.2, 544.0)" xml:space="preserve">n</text><text fill="#52575F" font-family="OpenSans-Light" font-size="57" transform="matrix(1.00, 0.00, -0.00, -1.00, 1148.8, 544.0)" xml:space="preserve">d</text><text fill="#52575F" font-family="OpenSans-Light" font-size="57" transform="matrix(1.00, 0.00, -0.00, -1.00, 1197.5, 544.0)" xml:space="preserve">b</text><text fill="#52575F" font-family="OpenSans-Light" font-size="57" transform="matrix(1.00, 0.00, -0.00, -1.00, 1231.5, 544.0)" xml:space="preserve">u</text><text fill="#52575F" font-family="OpenSans-Light" font-size="57" transform="matrix(1.00, 0.00, -0.00, -1.00, 1265.1, 544.0)" xml:space="preserve">s</text><text fill="#52575F" font-family="OpenSans-Light" font-size="57" transform="matrix(1.00, 0.00, -0.00, -1.00, 1291.6, 544.0)" xml:space="preserve">i</text><text fill="#52575F" font-family="OpenSans-Light" font-size="57" transform="matrix(1.00, 0.00, -0.00, -1.00, 1304.5, 544.0)" xml:space="preserve">n</text><text fill="#52575F" font-family="OpenSans-Light" font-size="57" transform="matrix(1.00, 0.00, -0.00, -1.00, 1338.1, 544.0)" xml:space="preserve">e</text><text fill="#52575F" font-family="OpenSans-Light" font-size="57" transform="matrix(1.00, 0.00, -0.00, -1.00, 1369.4, 544.0)" xml:space="preserve">s</text><text fill="#52575F" font-family="OpenSans-Light" font-size="57" transform="matrix(1.00, 0.00, -0.00, -1.00, 1395.9, 544.0)" xml:space="preserve">s</text><text fill="#52575F" font-family="OpenSans-Light" font-size="57" transform="matrix(1.00, 0.00, -0.00, -1.00, 1422.5, 544.0)" xml:space="preserve">.</text></g></svg>