<svg xmlns="http://www.w3.org/2000/svg" xmlns:xlink="http://www.w3.org/1999/xlink" stroke-miterlimit="4" clip-rule="evenodd" viewBox="0 0 1920 1080"><desc>SVG generated by Keynote</desc><g><path fill="#000" d="M 0.0 1080.0 L 1920.0 1080.0 L 1920.0 0.0 L 0.0 0.0 Z M 0.0 1080.0" transform="matrix(1.00, 0.00, -0.00, -1.00, 0.0, 1080.0)"/><g transform="matrix(1.00, 0.00, -0.00, -1.00, 0.0, 1080.0)"><clipPath id="clip-645"><path d="M 96.0 489.0 L 1811.0 489.0 L 1811.0 63.0 L 96.0 63.0 Z M 96.0 489.0"/></clipPath><g clip-path="url(#clip-645)"><image width="864" height="540" transform="matrix(2.00, 0.00, -0.00, -2.00, 96.0, 1067.0)" xlink:href="../../723FED82-D46F-4B75-ADFC-6F99A01F40CB/assets/8DFA41F9DE13567C7CD925D5F801573F.png"/></g></g><g transform="matrix(1.00, 0.00, -0.00, -1.00, 0.0, 1080.0)"><clipPath id="clip-646"><path d="M 96.0 986.0 L 1811.0 986.0 L 1811.0 557.0 L 96.0 557.0 Z M 96.0 986.0"/></clipPath><g clip-path="url(#clip-646)"><image width="864" height="540" transform="matrix(2.00, 0.00, -0.00, -2.00, 96.0, 1564.0)" xlink:href="../../723FED82-D46F-4B75-ADFC-6F99A01F40CB/assets/345397BDB90713031BF953AEC92AD55F.png"/></g></g></g></svg>