<svg xmlns="http://www.w3.org/2000/svg" xmlns:xlink="http://www.w3.org/1999/xlink" stroke-miterlimit="4" clip-rule="evenodd" viewBox="0 0 1920 1080"><desc>SVG generated by Keynote</desc><g><path fill="#000" d="M 0.0 1080.0 L 1920.0 1080.0 L 1920.0 0.0 L 0.0 0.0 Z M 0.0 1080.0" transform="matrix(1.00, 0.00, -0.00, -1.00, 0.0, 1080.0)"/><g transform="matrix(1.00, 0.00, -0.00, -1.00, 0.0, 1080.0)"><clipPath id="clip-647"><path d="M 96.0 517.0 L 1811.0 517.0 L 1811.0 79.0 L 96.0 79.0 Z M 96.0 517.0"/></clipPath><g clip-path="url(#clip-647)"><image width="864" height="540" transform="matrix(2.00, 0.00, -0.00, -2.00, 96.0, 1088.0)" xlink:href="79E7F775410666E8057C88672617767B.png"/></g></g><g transform="matrix(1.00, 0.00, -0.00, -1.00, 0.0, 1080.0)"><clipPath id="clip-648"><path d="M 96.0 1006.0 L 1811.0 1006.0 L 1811.0 573.0 L 96.0 573.0 Z M 96.0 1006.0"/></clipPath><g clip-path="url(#clip-648)"><image width="864" height="540" transform="matrix(2.00, 0.00, -0.00, -2.00, 96.0, 1575.0)" xlink:href="DDA101AF860FE5CACBE587A99DC0C3BC.png"/></g></g></g></svg>