<?xml version="1.0" encoding="UTF-8" standalone="no"?><svg xmlns="http://www.w3.org/2000/svg" xmlns:xlink="http://www.w3.org/1999/xlink" clip-rule="evenodd" stroke-miterlimit="4.00" viewBox="0 0 1920 1080"><desc>SVG generated by Keynote</desc><defs></defs><g transform="matrix(1.00, 0.00, -0.00, -1.00, 0.0, 1080.0)"><path d="M 0.0 1080.0 L 1920.0 1080.0 L 1920.0 0.0 L 0.0 0.0 Z M 0.0 1080.0 " fill="#FEFFFF"></path><g><clipPath id="clip-330"><path d="M 50.0 52.0 L 154.0 52.0 L 154.0 -1.0 L 50.0 -1.0 Z M 50.4 52.4 "></path></clipPath><g clip-path="url(#clip-330)"><image xlink:href="../../4F9A92A2-2DC6-4691-97F8-9F75BE53396F/assets/B22C448CED7C82A0C99889D0AD879A76.png" width="104.00" height="104.00" transform="matrix(1.00, 0.00, -0.00, -0.99, 50.0, 77.0)"></image></g></g><text xml:space="preserve" font-family="OpenSans-Bold" font-weight="bold" font-size="30.0" fill="#A6AAA8" transform="matrix(1.00, 0.00, -0.00, -1.00, 54.0, 1014.0)">W</text><text xml:space="preserve" font-family="OpenSans-Bold" font-weight="bold" font-size="30.0" fill="#A6AAA8" transform="matrix(1.00, 0.00, -0.00, -1.00, 83.0, 1014.0)">H</text><text xml:space="preserve" font-family="OpenSans-Bold" font-weight="bold" font-size="30.0" fill="#A6AAA8" transform="matrix(1.00, 0.00, -0.00, -1.00, 106.0, 1014.0)">Y</text><text xml:space="preserve" font-family="OpenSans-Bold" font-weight="bold" font-size="30.0" fill="#A6AAA8" transform="matrix(1.00, 0.00, -0.00, -1.00, 124.7, 1014.0)"> </text><text xml:space="preserve" font-family="OpenSans-Bold" font-weight="bold" font-size="30.0" fill="#A6AAA8" transform="matrix(1.00, 0.00, -0.00, -1.00, 132.5, 1014.0)">T</text><text xml:space="preserve" font-family="OpenSans-Bold" font-weight="bold" font-size="30.0" fill="#A6AAA8" transform="matrix(1.00, 0.00, -0.00, -1.00, 149.8, 1014.0)">H</text><text xml:space="preserve" font-family="OpenSans-Bold" font-weight="bold" font-size="30.0" fill="#A6AAA8" transform="matrix(1.00, 0.00, -0.00, -1.00, 172.8, 1014.0)">I</text><text xml:space="preserve" font-family="OpenSans-Bold" font-weight="bold" font-size="30.0" fill="#A6AAA8" transform="matrix(1.00, 0.00, -0.00, -1.00, 182.7, 1014.0)">S</text><text xml:space="preserve" font-family="OpenSans-Bold" font-weight="bold" font-size="30.0" fill="#A6AAA8" transform="matrix(1.00, 0.00, -0.00, -1.00, 199.2, 1014.0)"> </text><text xml:space="preserve" font-family="OpenSans-Bold" font-weight="bold" font-size="30.0" fill="#A6AAA8" transform="matrix(1.00, 0.00, -0.00, -1.00, 207.0, 1014.0)">M</text><text xml:space="preserve" font-family="OpenSans-Bold" font-weight="bold" font-size="30.0" fill="#A6AAA8" transform="matrix(1.00, 0.00, -0.00, -1.00, 235.3, 1014.0)">A</text><text xml:space="preserve" font-family="OpenSans-Bold" font-weight="bold" font-size="30.0" fill="#A6AAA8" transform="matrix(1.00, 0.00, -0.00, -1.00, 256.0, 1014.0)">R</text><text xml:space="preserve" font-family="OpenSans-Bold" font-weight="bold" font-size="30.0" fill="#A6AAA8" transform="matrix(1.00, 0.00, -0.00, -1.00, 275.8, 1014.0)">K</text><text xml:space="preserve" font-family="OpenSans-Bold" font-weight="bold" font-size="30.0" fill="#A6AAA8" transform="matrix(1.00, 0.00, -0.00, -1.00, 295.7, 1014.0)">E</text><text xml:space="preserve" font-family="OpenSans-Bold" font-weight="bold" font-size="30.0" fill="#A6AAA8" transform="matrix(1.00, 0.00, -0.00, -1.00, 312.6, 1014.0)">T</text><text xml:space="preserve" font-family="OpenSans-Bold" font-weight="bold" font-size="125.0" fill="#52575F" transform="matrix(1.00, 0.00, -0.00, -1.00, 54.0, 656.0)">4</text><text xml:space="preserve" font-family="OpenSans-Bold" font-weight="bold" font-size="125.0" fill="#52575F" transform="matrix(1.00, 0.00, -0.00, -1.00, 125.3, 656.0)">9</text><text xml:space="preserve" font-family="OpenSans-Bold" font-weight="bold" font-size="125.0" fill="#52575F" transform="matrix(1.00, 0.00, -0.00, -1.00, 196.7, 656.0)">6</text><text xml:space="preserve" font-family="OpenSans-Bold" font-weight="bold" font-size="85.0" fill="#52575F" transform="matrix(1.00, 0.00, -0.00, -1.00, 268.1, 656.0)"> </text><text xml:space="preserve" font-family="OpenSans-Bold" font-weight="bold" font-size="85.0" fill="#52575F" transform="matrix(1.00, 0.00, -0.00, -1.00, 290.1, 656.0)"> </text><text xml:space="preserve" font-family="OpenSans-Light" font-size="85.0" fill="#52575F" transform="matrix(1.00, 0.00, -0.00, -1.00, 54.0, 528.0)">S</text><text xml:space="preserve" font-family="OpenSans-Light" font-size="85.0" fill="#52575F" transform="matrix(1.00, 0.00, -0.00, -1.00, 100.3, 528.0)">e</text><text xml:space="preserve" font-family="OpenSans-Light" font-size="85.0" fill="#52575F" transform="matrix(1.00, 0.00, -0.00, -1.00, 147.0, 528.0)">r</text><text xml:space="preserve" font-family="OpenSans-Light" font-size="85.0" fill="#52575F" transform="matrix(1.00, 0.00, -0.00, -1.00, 180.0, 528.0)">i</text><text xml:space="preserve" font-family="OpenSans-Light" font-size="85.0" fill="#52575F" transform="matrix(1.00, 0.00, -0.00, -1.00, 199.2, 528.0)">e</text><text xml:space="preserve" font-family="OpenSans-Light" font-size="85.0" fill="#52575F" transform="matrix(1.00, 0.00, -0.00, -1.00, 245.9, 528.0)">s</text><text xml:space="preserve" font-family="OpenSans-Light" font-size="85.0" fill="#52575F" transform="matrix(1.00, 0.00, -0.00, -1.00, 285.5, 528.0)"> </text><text xml:space="preserve" font-family="OpenSans-Light" font-size="85.0" fill="#52575F" transform="matrix(1.00, 0.00, -0.00, -1.00, 307.5, 528.0)">A</text><text xml:space="preserve" font-family="OpenSans-Light" font-size="85.0" fill="#52575F" transform="matrix(1.00, 0.00, -0.00, -1.00, 358.5, 528.0)"> </text><text xml:space="preserve" font-family="OpenSans-Light" font-size="85.0" fill="#52575F" transform="matrix(1.00, 0.00, -0.00, -1.00, 380.6, 528.0)">&amp;</text><text xml:space="preserve" font-family="OpenSans-Light" font-size="85.0" fill="#52575F" transform="matrix(1.00, 0.00, -0.00, -1.00, 441.3, 528.0)"> </text><text xml:space="preserve" font-family="OpenSans-Light" font-size="85.0" fill="#52575F" transform="matrix(1.00, 0.00, -0.00, -1.00, 54.0, 412.0)">C</text><text xml:space="preserve" font-family="OpenSans-Light" font-size="85.0" fill="#52575F" transform="matrix(1.00, 0.00, -0.00, -1.00, 106.8, 412.0)"> </text><text xml:space="preserve" font-family="OpenSans-Light" font-size="85.0" fill="#52575F" transform="matrix(1.00, 0.00, -0.00, -1.00, 128.9, 412.0)">S</text><text xml:space="preserve" font-family="OpenSans-Light" font-size="85.0" fill="#52575F" transform="matrix(1.00, 0.00, -0.00, -1.00, 175.2, 412.0)">t</text><text xml:space="preserve" font-family="OpenSans-Light" font-size="85.0" fill="#52575F" transform="matrix(1.00, 0.00, -0.00, -1.00, 203.6, 412.0)">a</text><text xml:space="preserve" font-family="OpenSans-Light" font-size="85.0" fill="#52575F" transform="matrix(1.00, 0.00, -0.00, -1.00, 248.7, 412.0)">r</text><text xml:space="preserve" font-family="OpenSans-Light" font-size="85.0" fill="#52575F" transform="matrix(1.00, 0.00, -0.00, -1.00, 281.8, 412.0)">t</text><text xml:space="preserve" font-family="OpenSans-Light" font-size="85.0" fill="#52575F" transform="matrix(1.00, 0.00, -0.00, -1.00, 310.2, 412.0)">u</text><text xml:space="preserve" font-family="OpenSans-Light" font-size="85.0" fill="#52575F" transform="matrix(1.00, 0.00, -0.00, -1.00, 360.3, 412.0)">p</text><text xml:space="preserve" font-family="OpenSans-Light" font-size="85.0" fill="#52575F" transform="matrix(1.00, 0.00, -0.00, -1.00, 411.0, 412.0)">s</text><text xml:space="preserve" font-family="OpenSans-Light" font-size="85.0" fill="#52575F" transform="matrix(1.00, 0.00, -0.00, -1.00, 450.5, 412.0)"> </text><text xml:space="preserve" font-family="OpenSans-Light" font-size="85.0" fill="#52575F" transform="matrix(1.00, 0.00, -0.00, -1.00, 472.6, 412.0)"> </text><text xml:space="preserve" font-family="OpenSans-Light" font-size="85.0" fill="#52575F" transform="matrix(1.00, 0.00, -0.00, -1.00, 54.0, 296.0)">i</text><text xml:space="preserve" font-family="OpenSans-Light" font-size="85.0" fill="#52575F" transform="matrix(1.00, 0.00, -0.00, -1.00, 73.2, 296.0)">n</text><text xml:space="preserve" font-family="OpenSans-Light" font-size="85.0" fill="#52575F" transform="matrix(1.00, 0.00, -0.00, -1.00, 123.4, 296.0)"> </text><text xml:space="preserve" font-family="OpenSans-Light" font-size="85.0" fill="#52575F" transform="matrix(1.00, 0.00, -0.00, -1.00, 145.5, 296.0)">C</text><text xml:space="preserve" font-family="OpenSans-Light" font-size="85.0" fill="#52575F" transform="matrix(1.00, 0.00, -0.00, -1.00, 198.2, 296.0)">a</text><text xml:space="preserve" font-family="OpenSans-Light" font-size="85.0" fill="#52575F" transform="matrix(1.00, 0.00, -0.00, -1.00, 243.2, 296.0)">l</text><text xml:space="preserve" font-family="OpenSans-Light" font-size="85.0" fill="#52575F" transform="matrix(1.00, 0.00, -0.00, -1.00, 262.4, 296.0)">i</text><text xml:space="preserve" font-family="OpenSans-Light" font-size="85.0" fill="#52575F" transform="matrix(1.00, 0.00, -0.00, -1.00, 281.6, 296.0)">f</text><text xml:space="preserve" font-family="OpenSans-Light" font-size="85.0" fill="#52575F" transform="matrix(1.00, 0.00, -0.00, -1.00, 307.1, 296.0)">o</text><text xml:space="preserve" font-family="OpenSans-Light" font-size="85.0" fill="#52575F" transform="matrix(1.00, 0.00, -0.00, -1.00, 356.9, 296.0)">r</text><text xml:space="preserve" font-family="OpenSans-Light" font-size="85.0" fill="#52575F" transform="matrix(1.00, 0.00, -0.00, -1.00, 390.0, 296.0)">n</text><text xml:space="preserve" font-family="OpenSans-Light" font-size="85.0" fill="#52575F" transform="matrix(1.00, 0.00, -0.00, -1.00, 440.1, 296.0)">i</text><text xml:space="preserve" font-family="OpenSans-Light" font-size="85.0" fill="#52575F" transform="matrix(1.00, 0.00, -0.00, -1.00, 459.3, 296.0)">a</text><text xml:space="preserve" font-family="OpenSans-Light" font-size="85.0" fill="#52575F" transform="matrix(1.00, 0.00, -0.00, -1.00, 504.3, 296.0)"> </text><text xml:space="preserve" font-family="OpenSans-Light" font-size="45.0" fill="#52575F" transform="matrix(1.00, 0.00, -0.00, -1.00, 54.0, 224.0)">(</text><text xml:space="preserve" font-family="OpenSans-Light" font-size="45.0" fill="#52575F" transform="matrix(1.00, 0.00, -0.00, -1.00, 66.2, 224.0)">h</text><text xml:space="preserve" font-family="OpenSans-Light" font-size="45.0" fill="#52575F" transform="matrix(1.00, 0.00, -0.00, -1.00, 92.8, 224.0)">t</text><text xml:space="preserve" font-family="OpenSans-Light" font-size="45.0" fill="#52575F" transform="matrix(1.00, 0.00, -0.00, -1.00, 107.8, 224.0)">t</text><text xml:space="preserve" font-family="OpenSans-Light" font-size="45.0" fill="#52575F" transform="matrix(1.00, 0.00, -0.00, -1.00, 122.9, 224.0)">p</text><text xml:space="preserve" font-family="OpenSans-Light" font-size="45.0" fill="#52575F" transform="matrix(1.00, 0.00, -0.00, -1.00, 149.7, 224.0)">s</text><text xml:space="preserve" font-family="OpenSans-Light" font-size="45.0" fill="#52575F" transform="matrix(1.00, 0.00, -0.00, -1.00, 170.7, 224.0)">:</text><text xml:space="preserve" font-family="OpenSans-Light" font-size="45.0" fill="#52575F" transform="matrix(1.00, 0.00, -0.00, -1.00, 181.4, 224.0)">/</text><text xml:space="preserve" font-family="OpenSans-Light" font-size="45.0" fill="#52575F" transform="matrix(1.00, 0.00, -0.00, -1.00, 196.7, 224.0)">/</text><text xml:space="preserve" font-family="OpenSans-Light" font-size="45.0" fill="#52575F" transform="matrix(1.00, 0.00, -0.00, -1.00, 212.0, 224.0)">a</text><text xml:space="preserve" font-family="OpenSans-Light" font-size="45.0" fill="#52575F" transform="matrix(1.00, 0.00, -0.00, -1.00, 235.8, 224.0)">n</text><text xml:space="preserve" font-family="OpenSans-Light" font-size="45.0" fill="#52575F" transform="matrix(1.00, 0.00, -0.00, -1.00, 262.4, 224.0)">g</text><text xml:space="preserve" font-family="OpenSans-Light" font-size="45.0" fill="#52575F" transform="matrix(1.00, 0.00, -0.00, -1.00, 285.9, 224.0)">e</text><text xml:space="preserve" font-family="OpenSans-Light" font-size="45.0" fill="#52575F" transform="matrix(1.00, 0.00, -0.00, -1.00, 310.6, 224.0)">l</text><text xml:space="preserve" font-family="OpenSans-Light" font-size="45.0" fill="#52575F" transform="matrix(1.00, 0.00, -0.00, -1.00, 320.8, 224.0)">.</text><text xml:space="preserve" font-family="OpenSans-Light" font-size="45.0" fill="#52575F" transform="matrix(1.00, 0.00, -0.00, -1.00, 331.5, 224.0)">c</text><text xml:space="preserve" font-family="OpenSans-Light" font-size="45.0" fill="#52575F" transform="matrix(1.00, 0.00, -0.00, -1.00, 352.8, 224.0)">o</text><text xml:space="preserve" font-family="OpenSans-Light" font-size="45.0" fill="#52575F" transform="matrix(1.00, 0.00, -0.00, -1.00, 379.2, 224.0)">/</text><text xml:space="preserve" font-family="OpenSans-Light" font-size="45.0" fill="#52575F" transform="matrix(1.00, 0.00, -0.00, -1.00, 394.6, 224.0)">)</text><text xml:space="preserve" font-family="OpenSans-Bold" font-weight="bold" font-size="125.0" fill="#52575F" transform="matrix(1.00, 0.00, -0.00, -1.00, 813.0, 656.0)">8</text><text xml:space="preserve" font-family="OpenSans-Bold" font-weight="bold" font-size="125.0" fill="#52575F" transform="matrix(1.00, 0.00, -0.00, -1.00, 884.3, 656.0)">-</text><text xml:space="preserve" font-family="OpenSans-Bold" font-weight="bold" font-size="125.0" fill="#52575F" transform="matrix(1.00, 0.00, -0.00, -1.00, 924.5, 656.0)">1</text><text xml:space="preserve" font-family="OpenSans-Bold" font-weight="bold" font-size="125.0" fill="#52575F" transform="matrix(1.00, 0.00, -0.00, -1.00, 995.8, 656.0)">0</text><text xml:space="preserve" font-family="OpenSans-Bold" font-weight="bold" font-size="85.0" fill="#52575F" transform="matrix(1.00, 0.00, -0.00, -1.00, 1067.3, 656.0)"> </text><text xml:space="preserve" font-family="OpenSans-Bold" font-weight="bold" font-size="85.0" fill="#52575F" transform="matrix(1.00, 0.00, -0.00, -1.00, 1089.4, 656.0)"> </text><text xml:space="preserve" font-family="OpenSans-Light" font-size="85.0" fill="#52575F" transform="matrix(1.00, 0.00, -0.00, -1.00, 813.0, 528.0)">C</text><text xml:space="preserve" font-family="OpenSans-Light" font-size="85.0" fill="#52575F" transform="matrix(1.00, 0.00, -0.00, -1.00, 865.8, 528.0)">l</text><text xml:space="preserve" font-family="OpenSans-Light" font-size="85.0" fill="#52575F" transform="matrix(1.00, 0.00, -0.00, -1.00, 885.0, 528.0)">i</text><text xml:space="preserve" font-family="OpenSans-Light" font-size="85.0" fill="#52575F" transform="matrix(1.00, 0.00, -0.00, -1.00, 904.3, 528.0)">e</text><text xml:space="preserve" font-family="OpenSans-Light" font-size="85.0" fill="#52575F" transform="matrix(1.00, 0.00, -0.00, -1.00, 950.9, 528.0)">n</text><text xml:space="preserve" font-family="OpenSans-Light" font-size="85.0" fill="#52575F" transform="matrix(1.00, 0.00, -0.00, -1.00, 1001.0, 528.0)">t</text><text xml:space="preserve" font-family="OpenSans-Light" font-size="85.0" fill="#52575F" transform="matrix(1.00, 0.00, -0.00, -1.00, 1029.5, 528.0)">s</text><text xml:space="preserve" font-family="OpenSans-Light" font-size="85.0" fill="#52575F" transform="matrix(1.00, 0.00, -0.00, -1.00, 1069.1, 528.0)"> </text><text xml:space="preserve" font-family="OpenSans-Light" font-size="85.0" fill="#52575F" transform="matrix(1.00, 0.00, -0.00, -1.00, 1091.1, 528.0)">t</text><text xml:space="preserve" font-family="OpenSans-Light" font-size="85.0" fill="#52575F" transform="matrix(1.00, 0.00, -0.00, -1.00, 1119.6, 528.0)">o</text><text xml:space="preserve" font-family="OpenSans-Light" font-size="85.0" fill="#52575F" transform="matrix(1.00, 0.00, -0.00, -1.00, 1169.4, 528.0)"> </text><text xml:space="preserve" font-family="OpenSans-Light" font-size="85.0" fill="#52575F" transform="matrix(1.00, 0.00, -0.00, -1.00, 813.0, 412.0)">m</text><text xml:space="preserve" font-family="OpenSans-Light" font-size="85.0" fill="#52575F" transform="matrix(1.00, 0.00, -0.00, -1.00, 888.0, 412.0)">a</text><text xml:space="preserve" font-family="OpenSans-Light" font-size="85.0" fill="#52575F" transform="matrix(1.00, 0.00, -0.00, -1.00, 933.0, 412.0)">k</text><text xml:space="preserve" font-family="OpenSans-Light" font-size="85.0" fill="#52575F" transform="matrix(1.00, 0.00, -0.00, -1.00, 972.5, 412.0)">e</text><text xml:space="preserve" font-family="OpenSans-Light" font-size="85.0" fill="#52575F" transform="matrix(1.00, 0.00, -0.00, -1.00, 1019.1, 412.0)"> </text><text xml:space="preserve" font-family="OpenSans-Light" font-size="85.0" fill="#52575F" transform="matrix(1.00, 0.00, -0.00, -1.00, 1041.2, 412.0)">p</text><text xml:space="preserve" font-family="OpenSans-Light" font-size="85.0" fill="#52575F" transform="matrix(1.00, 0.00, -0.00, -1.00, 1091.8, 412.0)">r</text><text xml:space="preserve" font-family="OpenSans-Light" font-size="85.0" fill="#52575F" transform="matrix(1.00, 0.00, -0.00, -1.00, 1123.2, 412.0)">o</text><text xml:space="preserve" font-family="OpenSans-Light" font-size="85.0" fill="#52575F" transform="matrix(1.00, 0.00, -0.00, -1.00, 1172.9, 412.0)">ﬁ</text><text xml:space="preserve" font-family="OpenSans-Light" font-size="85.0" fill="#52575F" transform="matrix(1.00, 0.00, -0.00, -1.00, 1217.6, 412.0)">t</text><text xml:space="preserve" font-family="OpenSans-Light" font-size="85.0" fill="#52575F" transform="matrix(1.00, 0.00, -0.00, -1.00, 1246.1, 412.0)"> </text><text xml:space="preserve" font-family="OpenSans-Light" font-size="85.0" fill="#52575F" transform="matrix(1.00, 0.00, -0.00, -1.00, 813.0, 296.0)">a</text><text xml:space="preserve" font-family="OpenSans-Light" font-size="85.0" fill="#52575F" transform="matrix(1.00, 0.00, -0.00, -1.00, 858.0, 296.0)">n</text><text xml:space="preserve" font-family="OpenSans-Light" font-size="85.0" fill="#52575F" transform="matrix(1.00, 0.00, -0.00, -1.00, 908.1, 296.0)">d</text><text xml:space="preserve" font-family="OpenSans-Light" font-size="85.0" fill="#52575F" transform="matrix(1.00, 0.00, -0.00, -1.00, 958.7, 296.0)"> </text><text xml:space="preserve" font-family="OpenSans-Light" font-size="85.0" fill="#52575F" transform="matrix(1.00, 0.00, -0.00, -1.00, 980.8, 296.0)">d</text><text xml:space="preserve" font-family="OpenSans-Light" font-size="85.0" fill="#52575F" transform="matrix(1.00, 0.00, -0.00, -1.00, 1031.4, 296.0)">e</text><text xml:space="preserve" font-family="OpenSans-Light" font-size="85.0" fill="#52575F" transform="matrix(1.00, 0.00, -0.00, -1.00, 1078.0, 296.0)">s</text><text xml:space="preserve" font-family="OpenSans-Light" font-size="85.0" fill="#52575F" transform="matrix(1.00, 0.00, -0.00, -1.00, 1117.6, 296.0)">i</text><text xml:space="preserve" font-family="OpenSans-Light" font-size="85.0" fill="#52575F" transform="matrix(1.00, 0.00, -0.00, -1.00, 1136.8, 296.0)">r</text><text xml:space="preserve" font-family="OpenSans-Light" font-size="85.0" fill="#52575F" transform="matrix(1.00, 0.00, -0.00, -1.00, 1168.1, 296.0)">e</text><text xml:space="preserve" font-family="OpenSans-Light" font-size="85.0" fill="#52575F" transform="matrix(1.00, 0.00, -0.00, -1.00, 1214.8, 296.0)">d</text><text xml:space="preserve" font-family="OpenSans-Light" font-size="85.0" fill="#52575F" transform="matrix(1.00, 0.00, -0.00, -1.00, 1265.3, 296.0)"> </text><text xml:space="preserve" font-family="OpenSans-Light" font-size="85.0" fill="#52575F" transform="matrix(1.00, 0.00, -0.00, -1.00, 1287.4, 296.0)"> </text><text xml:space="preserve" font-family="OpenSans-Light" font-size="85.0" fill="#52575F" transform="matrix(1.00, 0.00, -0.00, -1.00, 813.0, 180.0)">s</text><text xml:space="preserve" font-family="OpenSans-Light" font-size="85.0" fill="#52575F" transform="matrix(1.00, 0.00, -0.00, -1.00, 852.6, 180.0)">a</text><text xml:space="preserve" font-family="OpenSans-Light" font-size="85.0" fill="#52575F" transform="matrix(1.00, 0.00, -0.00, -1.00, 897.6, 180.0)">l</text><text xml:space="preserve" font-family="OpenSans-Light" font-size="85.0" fill="#52575F" transform="matrix(1.00, 0.00, -0.00, -1.00, 916.8, 180.0)">a</text><text xml:space="preserve" font-family="OpenSans-Light" font-size="85.0" fill="#52575F" transform="matrix(1.00, 0.00, -0.00, -1.00, 961.8, 180.0)">r</text><text xml:space="preserve" font-family="OpenSans-Light" font-size="85.0" fill="#52575F" transform="matrix(1.00, 0.00, -0.00, -1.00, 994.9, 180.0)">i</text><text xml:space="preserve" font-family="OpenSans-Light" font-size="85.0" fill="#52575F" transform="matrix(1.00, 0.00, -0.00, -1.00, 1014.1, 180.0)">e</text><text xml:space="preserve" font-family="OpenSans-Light" font-size="85.0" fill="#52575F" transform="matrix(1.00, 0.00, -0.00, -1.00, 1060.7, 180.0)">s</text><text xml:space="preserve" font-family="OpenSans-Bold" font-weight="bold" font-size="45.0" fill="#52575F" transform="matrix(1.00, 0.00, -0.00, -1.00, 54.0, 844.0)">T</text><text xml:space="preserve" font-family="OpenSans-Bold" font-weight="bold" font-size="45.0" fill="#52575F" transform="matrix(1.00, 0.00, -0.00, -1.00, 79.2, 844.0)">O</text><text xml:space="preserve" font-family="OpenSans-Bold" font-weight="bold" font-size="45.0" fill="#52575F" transform="matrix(1.00, 0.00, -0.00, -1.00, 113.6, 844.0)">T</text><text xml:space="preserve" font-family="OpenSans-Bold" font-weight="bold" font-size="45.0" fill="#52575F" transform="matrix(1.00, 0.00, -0.00, -1.00, 136.5, 844.0)">A</text><text xml:space="preserve" font-family="OpenSans-Bold" font-weight="bold" font-size="45.0" fill="#52575F" transform="matrix(1.00, 0.00, -0.00, -1.00, 167.6, 844.0)">L</text><text xml:space="preserve" font-family="OpenSans-Bold" font-weight="bold" font-size="45.0" fill="#52575F" transform="matrix(1.00, 0.00, -0.00, -1.00, 193.0, 844.0)"> </text><text xml:space="preserve" font-family="OpenSans-Bold" font-weight="bold" font-size="45.0" fill="#52575F" transform="matrix(1.00, 0.00, -0.00, -1.00, 204.7, 844.0)">A</text><text xml:space="preserve" font-family="OpenSans-Bold" font-weight="bold" font-size="45.0" fill="#52575F" transform="matrix(1.00, 0.00, -0.00, -1.00, 234.0, 844.0)">V</text><text xml:space="preserve" font-family="OpenSans-Bold" font-weight="bold" font-size="45.0" fill="#52575F" transform="matrix(1.00, 0.00, -0.00, -1.00, 261.4, 844.0)">A</text><text xml:space="preserve" font-family="OpenSans-Bold" font-weight="bold" font-size="45.0" fill="#52575F" transform="matrix(1.00, 0.00, -0.00, -1.00, 292.5, 844.0)">I</text><text xml:space="preserve" font-family="OpenSans-Bold" font-weight="bold" font-size="45.0" fill="#52575F" transform="matrix(1.00, 0.00, -0.00, -1.00, 307.4, 844.0)">L</text><text xml:space="preserve" font-family="OpenSans-Bold" font-weight="bold" font-size="45.0" fill="#52575F" transform="matrix(1.00, 0.00, -0.00, -1.00, 332.8, 844.0)">A</text><text xml:space="preserve" font-family="OpenSans-Bold" font-weight="bold" font-size="45.0" fill="#52575F" transform="matrix(1.00, 0.00, -0.00, -1.00, 363.9, 844.0)">B</text><text xml:space="preserve" font-family="OpenSans-Bold" font-weight="bold" font-size="45.0" fill="#52575F" transform="matrix(1.00, 0.00, -0.00, -1.00, 394.1, 844.0)">L</text><text xml:space="preserve" font-family="OpenSans-Bold" font-weight="bold" font-size="45.0" fill="#52575F" transform="matrix(1.00, 0.00, -0.00, -1.00, 419.5, 844.0)">E</text><text xml:space="preserve" font-family="OpenSans-Bold" font-weight="bold" font-size="45.0" fill="#52575F" transform="matrix(1.00, 0.00, -0.00, -1.00, 822.0, 844.0)">S</text><text xml:space="preserve" font-family="OpenSans-Bold" font-weight="bold" font-size="45.0" fill="#52575F" transform="matrix(1.00, 0.00, -0.00, -1.00, 846.8, 844.0)">E</text><text xml:space="preserve" font-family="OpenSans-Bold" font-weight="bold" font-size="45.0" fill="#52575F" transform="matrix(1.00, 0.00, -0.00, -1.00, 872.0, 844.0)">R</text><text xml:space="preserve" font-family="OpenSans-Bold" font-weight="bold" font-size="45.0" fill="#52575F" transform="matrix(1.00, 0.00, -0.00, -1.00, 901.7, 844.0)">V</text><text xml:space="preserve" font-family="OpenSans-Bold" font-weight="bold" font-size="45.0" fill="#52575F" transform="matrix(1.00, 0.00, -0.00, -1.00, 930.9, 844.0)">I</text><text xml:space="preserve" font-family="OpenSans-Bold" font-weight="bold" font-size="45.0" fill="#52575F" transform="matrix(1.00, 0.00, -0.00, -1.00, 945.8, 844.0)">C</text><text xml:space="preserve" font-family="OpenSans-Bold" font-weight="bold" font-size="45.0" fill="#52575F" transform="matrix(1.00, 0.00, -0.00, -1.00, 974.5, 844.0)">E</text><text xml:space="preserve" font-family="OpenSans-Bold" font-weight="bold" font-size="45.0" fill="#52575F" transform="matrix(1.00, 0.00, -0.00, -1.00, 999.7, 844.0)"> </text><text xml:space="preserve" font-family="OpenSans-Bold" font-weight="bold" font-size="45.0" fill="#52575F" transform="matrix(1.00, 0.00, -0.00, -1.00, 1011.4, 844.0)">O</text><text xml:space="preserve" font-family="OpenSans-Bold" font-weight="bold" font-size="45.0" fill="#52575F" transform="matrix(1.00, 0.00, -0.00, -1.00, 1047.2, 844.0)">B</text><text xml:space="preserve" font-family="OpenSans-Bold" font-weight="bold" font-size="45.0" fill="#52575F" transform="matrix(1.00, 0.00, -0.00, -1.00, 1076.1, 844.0)">T</text><text xml:space="preserve" font-family="OpenSans-Bold" font-weight="bold" font-size="45.0" fill="#52575F" transform="matrix(1.00, 0.00, -0.00, -1.00, 1099.0, 844.0)">A</text><text xml:space="preserve" font-family="OpenSans-Bold" font-weight="bold" font-size="45.0" fill="#52575F" transform="matrix(1.00, 0.00, -0.00, -1.00, 1130.1, 844.0)">I</text><text xml:space="preserve" font-family="OpenSans-Bold" font-weight="bold" font-size="45.0" fill="#52575F" transform="matrix(1.00, 0.00, -0.00, -1.00, 1145.0, 844.0)">N</text><text xml:space="preserve" font-family="OpenSans-Bold" font-weight="bold" font-size="45.0" fill="#52575F" transform="matrix(1.00, 0.00, -0.00, -1.00, 1181.6, 844.0)">A</text><text xml:space="preserve" font-family="OpenSans-Bold" font-weight="bold" font-size="45.0" fill="#52575F" transform="matrix(1.00, 0.00, -0.00, -1.00, 1212.6, 844.0)">B</text><text xml:space="preserve" font-family="OpenSans-Bold" font-weight="bold" font-size="45.0" fill="#52575F" transform="matrix(1.00, 0.00, -0.00, -1.00, 1242.8, 844.0)">L</text><text xml:space="preserve" font-family="OpenSans-Bold" font-weight="bold" font-size="45.0" fill="#52575F" transform="matrix(1.00, 0.00, -0.00, -1.00, 1268.3, 844.0)">E</text><path d="M 0.0 0.0 L 507.5 0.0 " fill="none" stroke="#DCDDE0" stroke-width="3.00" transform="matrix(1.00, 0.00, 0.00, -1.00, 821.0, 806.0)"></path><path d="M 0.0 0.0 L 507.5 0.0 " fill="none" stroke="#DCDDE0" stroke-width="3.00" transform="matrix(1.00, 0.00, 0.00, -1.00, 50.0, 806.0)"></path></g></svg>