<?xml version="1.0" encoding="UTF-8" standalone="no"?><svg xmlns="http://www.w3.org/2000/svg" xmlns:xlink="http://www.w3.org/1999/xlink" clip-rule="evenodd" stroke-miterlimit="4.00" viewBox="0 0 1920 1080"><desc>SVG generated by Keynote</desc><defs></defs><g transform="matrix(1.00, 0.00, -0.00, -1.00, 0.0, 1080.0)"><path d="M 0.0 1080.0 L 1920.0 1080.0 L 1920.0 0.0 L 0.0 0.0 Z M 0.0 1080.0 " fill="#000000"></path><text xml:space="preserve" font-family="Helvetica-Bold" font-weight="bold" font-size="52.0" fill="#FEFFFF" transform="matrix(1.00, 0.00, -0.00, -1.00, 559.0, 658.0)">T</text><text xml:space="preserve" font-family="Helvetica-Bold" font-weight="bold" font-size="52.0" fill="#FEFFFF" transform="matrix(1.00, 0.00, -0.00, -1.00, 590.8, 658.0)">h</text><text xml:space="preserve" font-family="Helvetica-Bold" font-weight="bold" font-size="52.0" fill="#FEFFFF" transform="matrix(1.00, 0.00, -0.00, -1.00, 622.5, 658.0)">e</text><text xml:space="preserve" font-family="Helvetica-Bold" font-weight="bold" font-size="52.0" fill="#FEFFFF" transform="matrix(1.00, 0.00, -0.00, -1.00, 651.4, 658.0)"> </text><text xml:space="preserve" font-family="Helvetica-Bold" font-weight="bold" font-size="52.0" fill="#FEFFFF" transform="matrix(1.00, 0.00, -0.00, -1.00, 665.9, 658.0)">u</text><text xml:space="preserve" font-family="Helvetica-Bold" font-weight="bold" font-size="52.0" fill="#FEFFFF" transform="matrix(1.00, 0.00, -0.00, -1.00, 697.6, 658.0)">n</text><text xml:space="preserve" font-family="Helvetica-Bold" font-weight="bold" font-size="52.0" fill="#FEFFFF" transform="matrix(1.00, 0.00, -0.00, -1.00, 729.4, 658.0)">d</text><text xml:space="preserve" font-family="Helvetica-Bold" font-weight="bold" font-size="52.0" fill="#FEFFFF" transform="matrix(1.00, 0.00, -0.00, -1.00, 761.1, 658.0)">e</text><text xml:space="preserve" font-family="Helvetica-Bold" font-weight="bold" font-size="52.0" fill="#FEFFFF" transform="matrix(1.00, 0.00, -0.00, -1.00, 790.1, 658.0)">r</text><text xml:space="preserve" font-family="Helvetica-Bold" font-weight="bold" font-size="52.0" fill="#FEFFFF" transform="matrix(1.00, 0.00, -0.00, -1.00, 810.3, 658.0)">v</text><text xml:space="preserve" font-family="Helvetica-Bold" font-weight="bold" font-size="52.0" fill="#FEFFFF" transform="matrix(1.00, 0.00, -0.00, -1.00, 839.2, 658.0)">a</text><text xml:space="preserve" font-family="Helvetica-Bold" font-weight="bold" font-size="52.0" fill="#FEFFFF" transform="matrix(1.00, 0.00, -0.00, -1.00, 868.2, 658.0)">l</text><text xml:space="preserve" font-family="Helvetica-Bold" font-weight="bold" font-size="52.0" fill="#FEFFFF" transform="matrix(1.00, 0.00, -0.00, -1.00, 882.6, 658.0)">u</text><text xml:space="preserve" font-family="Helvetica-Bold" font-weight="bold" font-size="52.0" fill="#FEFFFF" transform="matrix(1.00, 0.00, -0.00, -1.00, 914.4, 658.0)">a</text><text xml:space="preserve" font-family="Helvetica-Bold" font-weight="bold" font-size="52.0" fill="#FEFFFF" transform="matrix(1.00, 0.00, -0.00, -1.00, 943.3, 658.0)">t</text><text xml:space="preserve" font-family="Helvetica-Bold" font-weight="bold" font-size="52.0" fill="#FEFFFF" transform="matrix(1.00, 0.00, -0.00, -1.00, 960.6, 658.0)">i</text><text xml:space="preserve" font-family="Helvetica-Bold" font-weight="bold" font-size="52.0" fill="#FEFFFF" transform="matrix(1.00, 0.00, -0.00, -1.00, 975.0, 658.0)">o</text><text xml:space="preserve" font-family="Helvetica-Bold" font-weight="bold" font-size="52.0" fill="#FEFFFF" transform="matrix(1.00, 0.00, -0.00, -1.00, 1006.8, 658.0)">n</text><text xml:space="preserve" font-family="Helvetica-Bold" font-weight="bold" font-size="52.0" fill="#FEFFFF" transform="matrix(1.00, 0.00, -0.00, -1.00, 1038.6, 658.0)"> </text><text xml:space="preserve" font-family="Helvetica-Bold" font-weight="bold" font-size="52.0" fill="#FEFFFF" transform="matrix(1.00, 0.00, -0.00, -1.00, 1053.0, 658.0)">o</text><text xml:space="preserve" font-family="Helvetica-Bold" font-weight="bold" font-size="52.0" fill="#FEFFFF" transform="matrix(1.00, 0.00, -0.00, -1.00, 1084.7, 658.0)">f</text><text xml:space="preserve" font-family="Helvetica-Bold" font-weight="bold" font-size="52.0" fill="#FEFFFF" transform="matrix(1.00, 0.00, -0.00, -1.00, 1102.1, 658.0)"> </text><text xml:space="preserve" font-family="Helvetica-Bold" font-weight="bold" font-size="52.0" fill="#FEFFFF" transform="matrix(1.00, 0.00, -0.00, -1.00, 1116.5, 658.0)">d</text><text xml:space="preserve" font-family="Helvetica-Bold" font-weight="bold" font-size="52.0" fill="#FEFFFF" transform="matrix(1.00, 0.00, -0.00, -1.00, 1148.2, 658.0)">e</text><text xml:space="preserve" font-family="Helvetica-Bold" font-weight="bold" font-size="52.0" fill="#FEFFFF" transform="matrix(1.00, 0.00, -0.00, -1.00, 1177.2, 658.0)">s</text><text xml:space="preserve" font-family="Helvetica-Bold" font-weight="bold" font-size="52.0" fill="#FEFFFF" transform="matrix(1.00, 0.00, -0.00, -1.00, 1206.1, 658.0)">i</text><text xml:space="preserve" font-family="Helvetica-Bold" font-weight="bold" font-size="52.0" fill="#FEFFFF" transform="matrix(1.00, 0.00, -0.00, -1.00, 1220.5, 658.0)">g</text><text xml:space="preserve" font-family="Helvetica-Bold" font-weight="bold" font-size="52.0" fill="#FEFFFF" transform="matrix(1.00, 0.00, -0.00, -1.00, 1252.3, 658.0)">n</text><text xml:space="preserve" font-family="Helvetica-Bold" font-weight="bold" font-size="52.0" fill="#FEFFFF" transform="matrix(1.00, 0.00, -0.00, -1.00, 1284.1, 658.0)"> </text><text xml:space="preserve" font-family="Helvetica-Bold" font-weight="bold" font-size="52.0" fill="#FEFFFF" transform="matrix(1.00, 0.00, -0.00, -1.00, 1298.5, 658.0)">i</text><text xml:space="preserve" font-family="Helvetica-Bold" font-weight="bold" font-size="52.0" fill="#FEFFFF" transform="matrix(1.00, 0.00, -0.00, -1.00, 1312.9, 658.0)">n</text><text xml:space="preserve" font-family="Helvetica-Bold" font-weight="bold" font-size="52.0" fill="#FEFFFF" transform="matrix(1.00, 0.00, -0.00, -1.00, 1344.7, 658.0)"> </text><text xml:space="preserve" font-family="Helvetica-Bold" font-weight="bold" font-size="52.0" fill="#FEFFFF" transform="matrix(1.00, 0.00, -0.00, -1.00, 1359.1, 658.0)"> </text><text xml:space="preserve" font-family="Helvetica-Bold" font-weight="bold" font-size="52.0" fill="#FEFFFF" transform="matrix(1.00, 0.00, -0.00, -1.00, 559.0, 596.0)">b</text><text xml:space="preserve" font-family="Helvetica-Bold" font-weight="bold" font-size="52.0" fill="#FEFFFF" transform="matrix(1.00, 0.00, -0.00, -1.00, 590.8, 596.0)">u</text><text xml:space="preserve" font-family="Helvetica-Bold" font-weight="bold" font-size="52.0" fill="#FEFFFF" transform="matrix(1.00, 0.00, -0.00, -1.00, 622.5, 596.0)">s</text><text xml:space="preserve" font-family="Helvetica-Bold" font-weight="bold" font-size="52.0" fill="#FEFFFF" transform="matrix(1.00, 0.00, -0.00, -1.00, 651.4, 596.0)">i</text><text xml:space="preserve" font-family="Helvetica-Bold" font-weight="bold" font-size="52.0" fill="#FEFFFF" transform="matrix(1.00, 0.00, -0.00, -1.00, 665.9, 596.0)">n</text><text xml:space="preserve" font-family="Helvetica-Bold" font-weight="bold" font-size="52.0" fill="#FEFFFF" transform="matrix(1.00, 0.00, -0.00, -1.00, 697.6, 596.0)">e</text><text xml:space="preserve" font-family="Helvetica-Bold" font-weight="bold" font-size="52.0" fill="#FEFFFF" transform="matrix(1.00, 0.00, -0.00, -1.00, 726.6, 596.0)">s</text><text xml:space="preserve" font-family="Helvetica-Bold" font-weight="bold" font-size="52.0" fill="#FEFFFF" transform="matrix(1.00, 0.00, -0.00, -1.00, 755.5, 596.0)">s</text><text xml:space="preserve" font-family="Helvetica-Bold" font-weight="bold" font-size="52.0" fill="#FEFFFF" transform="matrix(1.00, 0.00, -0.00, -1.00, 784.4, 596.0)">e</text><text xml:space="preserve" font-family="Helvetica-Bold" font-weight="bold" font-size="52.0" fill="#FEFFFF" transform="matrix(1.00, 0.00, -0.00, -1.00, 813.3, 596.0)">s</text><text xml:space="preserve" font-family="Helvetica-Bold" font-weight="bold" font-size="52.0" fill="#FEFFFF" transform="matrix(1.00, 0.00, -0.00, -1.00, 842.3, 596.0)"> </text><text xml:space="preserve" font-family="Helvetica-Bold" font-weight="bold" font-size="52.0" fill="#FEFFFF" transform="matrix(1.00, 0.00, -0.00, -1.00, 856.7, 596.0)">a</text><text xml:space="preserve" font-family="Helvetica-Bold" font-weight="bold" font-size="52.0" fill="#FEFFFF" transform="matrix(1.00, 0.00, -0.00, -1.00, 885.6, 596.0)">n</text><text xml:space="preserve" font-family="Helvetica-Bold" font-weight="bold" font-size="52.0" fill="#FEFFFF" transform="matrix(1.00, 0.00, -0.00, -1.00, 917.4, 596.0)">d</text><text xml:space="preserve" font-family="Helvetica-Bold" font-weight="bold" font-size="52.0" fill="#FEFFFF" transform="matrix(1.00, 0.00, -0.00, -1.00, 949.2, 596.0)"> </text><text xml:space="preserve" font-family="Helvetica-Bold" font-weight="bold" font-size="52.0" fill="#FEFFFF" transform="matrix(1.00, 0.00, -0.00, -1.00, 963.6, 596.0)">g</text><text xml:space="preserve" font-family="Helvetica-Bold" font-weight="bold" font-size="52.0" fill="#FEFFFF" transform="matrix(1.00, 0.00, -0.00, -1.00, 995.3, 596.0)">o</text><text xml:space="preserve" font-family="Helvetica-Bold" font-weight="bold" font-size="52.0" fill="#FEFFFF" transform="matrix(1.00, 0.00, -0.00, -1.00, 1027.1, 596.0)">v</text><text xml:space="preserve" font-family="Helvetica-Bold" font-weight="bold" font-size="52.0" fill="#FEFFFF" transform="matrix(1.00, 0.00, -0.00, -1.00, 1056.0, 596.0)">e</text><text xml:space="preserve" font-family="Helvetica-Bold" font-weight="bold" font-size="52.0" fill="#FEFFFF" transform="matrix(1.00, 0.00, -0.00, -1.00, 1085.0, 596.0)">r</text><text xml:space="preserve" font-family="Helvetica-Bold" font-weight="bold" font-size="52.0" fill="#FEFFFF" transform="matrix(1.00, 0.00, -0.00, -1.00, 1105.2, 596.0)">n</text><text xml:space="preserve" font-family="Helvetica-Bold" font-weight="bold" font-size="52.0" fill="#FEFFFF" transform="matrix(1.00, 0.00, -0.00, -1.00, 1137.0, 596.0)">m</text><text xml:space="preserve" font-family="Helvetica-Bold" font-weight="bold" font-size="52.0" fill="#FEFFFF" transform="matrix(1.00, 0.00, -0.00, -1.00, 1183.2, 596.0)">e</text><text xml:space="preserve" font-family="Helvetica-Bold" font-weight="bold" font-size="52.0" fill="#FEFFFF" transform="matrix(1.00, 0.00, -0.00, -1.00, 1212.1, 596.0)">n</text><text xml:space="preserve" font-family="Helvetica-Bold" font-weight="bold" font-size="52.0" fill="#FEFFFF" transform="matrix(1.00, 0.00, -0.00, -1.00, 1243.9, 596.0)">t</text><text xml:space="preserve" font-family="Helvetica-Bold" font-weight="bold" font-size="52.0" fill="#FEFFFF" transform="matrix(1.00, 0.00, -0.00, -1.00, 1261.2, 596.0)">s</text><text xml:space="preserve" font-family="Helvetica-Bold" font-weight="bold" font-size="52.0" fill="#FEFFFF" transform="matrix(1.00, 0.00, -0.00, -1.00, 1290.1, 596.0)"> </text><text xml:space="preserve" font-family="Helvetica-Bold" font-weight="bold" font-size="52.0" fill="#FEFFFF" transform="matrix(1.00, 0.00, -0.00, -1.00, 559.0, 534.0)">h</text><text xml:space="preserve" font-family="Helvetica-Bold" font-weight="bold" font-size="52.0" fill="#FEFFFF" transform="matrix(1.00, 0.00, -0.00, -1.00, 590.8, 534.0)">i</text><text xml:space="preserve" font-family="Helvetica-Bold" font-weight="bold" font-size="52.0" fill="#FEFFFF" transform="matrix(1.00, 0.00, -0.00, -1.00, 605.2, 534.0)">n</text><text xml:space="preserve" font-family="Helvetica-Bold" font-weight="bold" font-size="52.0" fill="#FEFFFF" transform="matrix(1.00, 0.00, -0.00, -1.00, 636.9, 534.0)">d</text><text xml:space="preserve" font-family="Helvetica-Bold" font-weight="bold" font-size="52.0" fill="#FEFFFF" transform="matrix(1.00, 0.00, -0.00, -1.00, 668.7, 534.0)">e</text><text xml:space="preserve" font-family="Helvetica-Bold" font-weight="bold" font-size="52.0" fill="#FEFFFF" transform="matrix(1.00, 0.00, -0.00, -1.00, 697.6, 534.0)">r</text><text xml:space="preserve" font-family="Helvetica-Bold" font-weight="bold" font-size="52.0" fill="#FEFFFF" transform="matrix(1.00, 0.00, -0.00, -1.00, 717.9, 534.0)">s</text><text xml:space="preserve" font-family="Helvetica-Bold" font-weight="bold" font-size="52.0" fill="#FEFFFF" transform="matrix(1.00, 0.00, -0.00, -1.00, 746.8, 534.0)"> </text><text xml:space="preserve" font-family="Helvetica-Bold" font-weight="bold" font-size="52.0" fill="#FEFFFF" transform="matrix(1.00, 0.00, -0.00, -1.00, 761.2, 534.0)">t</text><text xml:space="preserve" font-family="Helvetica-Bold" font-weight="bold" font-size="52.0" fill="#FEFFFF" transform="matrix(1.00, 0.00, -0.00, -1.00, 778.6, 534.0)">h</text><text xml:space="preserve" font-family="Helvetica-Bold" font-weight="bold" font-size="52.0" fill="#FEFFFF" transform="matrix(1.00, 0.00, -0.00, -1.00, 810.3, 534.0)">e</text><text xml:space="preserve" font-family="Helvetica-Bold" font-weight="bold" font-size="52.0" fill="#FEFFFF" transform="matrix(1.00, 0.00, -0.00, -1.00, 839.2, 534.0)"> </text><text xml:space="preserve" font-family="Helvetica-Bold" font-weight="bold" font-size="52.0" fill="#FEFFFF" transform="matrix(1.00, 0.00, -0.00, -1.00, 853.7, 534.0)">p</text><text xml:space="preserve" font-family="Helvetica-Bold" font-weight="bold" font-size="52.0" fill="#FEFFFF" transform="matrix(1.00, 0.00, -0.00, -1.00, 885.4, 534.0)">o</text><text xml:space="preserve" font-family="Helvetica-Bold" font-weight="bold" font-size="52.0" fill="#FEFFFF" transform="matrix(1.00, 0.00, -0.00, -1.00, 917.2, 534.0)">t</text><text xml:space="preserve" font-family="Helvetica-Bold" font-weight="bold" font-size="52.0" fill="#FEFFFF" transform="matrix(1.00, 0.00, -0.00, -1.00, 934.5, 534.0)">e</text><text xml:space="preserve" font-family="Helvetica-Bold" font-weight="bold" font-size="52.0" fill="#FEFFFF" transform="matrix(1.00, 0.00, -0.00, -1.00, 963.4, 534.0)">n</text><text xml:space="preserve" font-family="Helvetica-Bold" font-weight="bold" font-size="52.0" fill="#FEFFFF" transform="matrix(1.00, 0.00, -0.00, -1.00, 995.2, 534.0)">c</text><text xml:space="preserve" font-family="Helvetica-Bold" font-weight="bold" font-size="52.0" fill="#FEFFFF" transform="matrix(1.00, 0.00, -0.00, -1.00, 1024.1, 534.0)">y</text><text xml:space="preserve" font-family="Helvetica-Bold" font-weight="bold" font-size="52.0" fill="#FEFFFF" transform="matrix(1.00, 0.00, -0.00, -1.00, 1053.0, 534.0)"> </text><text xml:space="preserve" font-family="Helvetica-Bold" font-weight="bold" font-size="52.0" fill="#FEFFFF" transform="matrix(1.00, 0.00, -0.00, -1.00, 1067.5, 534.0)">a</text><text xml:space="preserve" font-family="Helvetica-Bold" font-weight="bold" font-size="52.0" fill="#FEFFFF" transform="matrix(1.00, 0.00, -0.00, -1.00, 1096.4, 534.0)">n</text><text xml:space="preserve" font-family="Helvetica-Bold" font-weight="bold" font-size="52.0" fill="#FEFFFF" transform="matrix(1.00, 0.00, -0.00, -1.00, 1128.2, 534.0)">d</text><text xml:space="preserve" font-family="Helvetica-Bold" font-weight="bold" font-size="52.0" fill="#FEFFFF" transform="matrix(1.00, 0.00, -0.00, -1.00, 1159.9, 534.0)"> </text><text xml:space="preserve" font-family="Helvetica-Bold" font-weight="bold" font-size="52.0" fill="#FEFFFF" transform="matrix(1.00, 0.00, -0.00, -1.00, 1174.4, 534.0)">i</text><text xml:space="preserve" font-family="Helvetica-Bold" font-weight="bold" font-size="52.0" fill="#FEFFFF" transform="matrix(1.00, 0.00, -0.00, -1.00, 1188.8, 534.0)">m</text><text xml:space="preserve" font-family="Helvetica-Bold" font-weight="bold" font-size="52.0" fill="#FEFFFF" transform="matrix(1.00, 0.00, -0.00, -1.00, 1235.0, 534.0)">p</text><text xml:space="preserve" font-family="Helvetica-Bold" font-weight="bold" font-size="52.0" fill="#FEFFFF" transform="matrix(1.00, 0.00, -0.00, -1.00, 1266.8, 534.0)">a</text><text xml:space="preserve" font-family="Helvetica-Bold" font-weight="bold" font-size="52.0" fill="#FEFFFF" transform="matrix(1.00, 0.00, -0.00, -1.00, 1295.7, 534.0)">c</text><text xml:space="preserve" font-family="Helvetica-Bold" font-weight="bold" font-size="52.0" fill="#FEFFFF" transform="matrix(1.00, 0.00, -0.00, -1.00, 1324.7, 534.0)">t</text><text xml:space="preserve" font-family="Helvetica-Bold" font-weight="bold" font-size="52.0" fill="#FEFFFF" transform="matrix(1.00, 0.00, -0.00, -1.00, 1342.0, 534.0)"> </text><text xml:space="preserve" font-family="Helvetica-Bold" font-weight="bold" font-size="52.0" fill="#FEFFFF" transform="matrix(1.00, 0.00, -0.00, -1.00, 559.0, 472.0)">d</text><text xml:space="preserve" font-family="Helvetica-Bold" font-weight="bold" font-size="52.0" fill="#FEFFFF" transform="matrix(1.00, 0.00, -0.00, -1.00, 590.8, 472.0)">e</text><text xml:space="preserve" font-family="Helvetica-Bold" font-weight="bold" font-size="52.0" fill="#FEFFFF" transform="matrix(1.00, 0.00, -0.00, -1.00, 619.7, 472.0)">s</text><text xml:space="preserve" font-family="Helvetica-Bold" font-weight="bold" font-size="52.0" fill="#FEFFFF" transform="matrix(1.00, 0.00, -0.00, -1.00, 648.6, 472.0)">i</text><text xml:space="preserve" font-family="Helvetica-Bold" font-weight="bold" font-size="52.0" fill="#FEFFFF" transform="matrix(1.00, 0.00, -0.00, -1.00, 663.1, 472.0)">g</text><text xml:space="preserve" font-family="Helvetica-Bold" font-weight="bold" font-size="52.0" fill="#FEFFFF" transform="matrix(1.00, 0.00, -0.00, -1.00, 694.8, 472.0)">n</text><text xml:space="preserve" font-family="Helvetica-Bold" font-weight="bold" font-size="52.0" fill="#FEFFFF" transform="matrix(1.00, 0.00, -0.00, -1.00, 726.6, 472.0)">e</text><text xml:space="preserve" font-family="Helvetica-Bold" font-weight="bold" font-size="52.0" fill="#FEFFFF" transform="matrix(1.00, 0.00, -0.00, -1.00, 755.5, 472.0)">r</text><text xml:space="preserve" font-family="Helvetica-Bold" font-weight="bold" font-size="52.0" fill="#FEFFFF" transform="matrix(1.00, 0.00, -0.00, -1.00, 775.7, 472.0)">s</text><text xml:space="preserve" font-family="Helvetica-Bold" font-weight="bold" font-size="52.0" fill="#FEFFFF" transform="matrix(1.00, 0.00, -0.00, -1.00, 804.7, 472.0)"> </text><text xml:space="preserve" font-family="Helvetica-Bold" font-weight="bold" font-size="52.0" fill="#FEFFFF" transform="matrix(1.00, 0.00, -0.00, -1.00, 819.1, 472.0)">c</text><text xml:space="preserve" font-family="Helvetica-Bold" font-weight="bold" font-size="52.0" fill="#FEFFFF" transform="matrix(1.00, 0.00, -0.00, -1.00, 848.0, 472.0)">a</text><text xml:space="preserve" font-family="Helvetica-Bold" font-weight="bold" font-size="52.0" fill="#FEFFFF" transform="matrix(1.00, 0.00, -0.00, -1.00, 877.0, 472.0)">n</text><text xml:space="preserve" font-family="Helvetica-Bold" font-weight="bold" font-size="52.0" fill="#FEFFFF" transform="matrix(1.00, 0.00, -0.00, -1.00, 908.7, 472.0)"> </text><text xml:space="preserve" font-family="Helvetica-Bold" font-weight="bold" font-size="52.0" fill="#FEFFFF" transform="matrix(1.00, 0.00, -0.00, -1.00, 923.2, 472.0)">h</text><text xml:space="preserve" font-family="Helvetica-Bold" font-weight="bold" font-size="52.0" fill="#FEFFFF" transform="matrix(1.00, 0.00, -0.00, -1.00, 954.9, 472.0)">a</text><text xml:space="preserve" font-family="Helvetica-Bold" font-weight="bold" font-size="52.0" fill="#FEFFFF" transform="matrix(1.00, 0.00, -0.00, -1.00, 983.8, 472.0)">v</text><text xml:space="preserve" font-family="Helvetica-Bold" font-weight="bold" font-size="52.0" fill="#FEFFFF" transform="matrix(1.00, 0.00, -0.00, -1.00, 1012.8, 472.0)">e</text><text xml:space="preserve" font-family="Helvetica-Bold" font-weight="bold" font-size="52.0" fill="#FEFFFF" transform="matrix(1.00, 0.00, -0.00, -1.00, 1041.7, 472.0)"> </text><text xml:space="preserve" font-family="Helvetica-Bold" font-weight="bold" font-size="52.0" fill="#FEFFFF" transform="matrix(1.00, 0.00, -0.00, -1.00, 1056.1, 472.0)">i</text><text xml:space="preserve" font-family="Helvetica-Bold" font-weight="bold" font-size="52.0" fill="#FEFFFF" transform="matrix(1.00, 0.00, -0.00, -1.00, 1070.6, 472.0)">n</text><text xml:space="preserve" font-family="Helvetica-Bold" font-weight="bold" font-size="52.0" fill="#FEFFFF" transform="matrix(1.00, 0.00, -0.00, -1.00, 1102.3, 472.0)"> </text><text xml:space="preserve" font-family="Helvetica-Bold" font-weight="bold" font-size="52.0" fill="#FEFFFF" transform="matrix(1.00, 0.00, -0.00, -1.00, 1116.8, 472.0)">t</text><text xml:space="preserve" font-family="Helvetica-Bold" font-weight="bold" font-size="52.0" fill="#FEFFFF" transform="matrix(1.00, 0.00, -0.00, -1.00, 1134.1, 472.0)">h</text><text xml:space="preserve" font-family="Helvetica-Bold" font-weight="bold" font-size="52.0" fill="#FEFFFF" transform="matrix(1.00, 0.00, -0.00, -1.00, 1165.8, 472.0)">e</text><text xml:space="preserve" font-family="Helvetica-Bold" font-weight="bold" font-size="52.0" fill="#FEFFFF" transform="matrix(1.00, 0.00, -0.00, -1.00, 1194.8, 472.0)"> </text><text xml:space="preserve" font-family="Helvetica-Bold" font-weight="bold" font-size="52.0" fill="#FEFFFF" transform="matrix(1.00, 0.00, -0.00, -1.00, 559.0, 410.0)">c</text><text xml:space="preserve" font-family="Helvetica-Bold" font-weight="bold" font-size="52.0" fill="#FEFFFF" transform="matrix(1.00, 0.00, -0.00, -1.00, 587.9, 410.0)">o</text><text xml:space="preserve" font-family="Helvetica-Bold" font-weight="bold" font-size="52.0" fill="#FEFFFF" transform="matrix(1.00, 0.00, -0.00, -1.00, 619.7, 410.0)">m</text><text xml:space="preserve" font-family="Helvetica-Bold" font-weight="bold" font-size="52.0" fill="#FEFFFF" transform="matrix(1.00, 0.00, -0.00, -1.00, 665.9, 410.0)">m</text><text xml:space="preserve" font-family="Helvetica-Bold" font-weight="bold" font-size="52.0" fill="#FEFFFF" transform="matrix(1.00, 0.00, -0.00, -1.00, 712.2, 410.0)">u</text><text xml:space="preserve" font-family="Helvetica-Bold" font-weight="bold" font-size="52.0" fill="#FEFFFF" transform="matrix(1.00, 0.00, -0.00, -1.00, 743.9, 410.0)">n</text><text xml:space="preserve" font-family="Helvetica-Bold" font-weight="bold" font-size="52.0" fill="#FEFFFF" transform="matrix(1.00, 0.00, -0.00, -1.00, 775.7, 410.0)">i</text><text xml:space="preserve" font-family="Helvetica-Bold" font-weight="bold" font-size="52.0" fill="#FEFFFF" transform="matrix(1.00, 0.00, -0.00, -1.00, 790.1, 410.0)">t</text><text xml:space="preserve" font-family="Helvetica-Bold" font-weight="bold" font-size="52.0" fill="#FEFFFF" transform="matrix(1.00, 0.00, -0.00, -1.00, 807.4, 410.0)">y</text><text xml:space="preserve" font-family="Helvetica-Bold" font-weight="bold" font-size="52.0" fill="#FEFFFF" transform="matrix(1.00, 0.00, -0.00, -1.00, 832.5, 410.0)">.</text><g><clipPath id="clip-437"><path d="M 50.0 52.0 L 154.0 52.0 L 154.0 -1.0 L 50.0 -1.0 Z M 50.4 52.4 "></path></clipPath><g clip-path="url(#clip-437)"><image xlink:href="../../4F9A92A2-2DC6-4691-97F8-9F75BE53396F/assets/B22C448CED7C82A0C99889D0AD879A76.png" width="104.00" height="104.00" transform="matrix(1.00, 0.00, -0.00, -0.99, 50.0, 77.0)"></image></g></g></g></svg>