<?xml version="1.0" encoding="UTF-8" standalone="no"?><svg xmlns="http://www.w3.org/2000/svg" xmlns:xlink="http://www.w3.org/1999/xlink" clip-rule="evenodd" stroke-miterlimit="4.00" viewBox="0 0 1920 1080"><desc>SVG generated by Keynote</desc><defs></defs><g transform="matrix(1.00, 0.00, -0.00, -1.00, 0.0, 1080.0)"><path d="M 0.0 1080.0 L 1920.0 1080.0 L 1920.0 0.0 L 0.0 0.0 Z M 0.0 1080.0 " fill="#000000"></path><text xml:space="preserve" font-family="Helvetica-Bold" font-weight="bold" font-size="52.0" fill="#FEFFFF" transform="matrix(1.00, 0.00, -0.00, -1.00, 559.0, 658.0)">T</text><text xml:space="preserve" font-family="Helvetica-Bold" font-weight="bold" font-size="52.0" fill="#FEFFFF" transform="matrix(1.00, 0.00, -0.00, -1.00, 590.8, 658.0)">h</text><text xml:space="preserve" font-family="Helvetica-Bold" font-weight="bold" font-size="52.0" fill="#FEFFFF" transform="matrix(1.00, 0.00, -0.00, -1.00, 622.5, 658.0)">e</text><text xml:space="preserve" font-family="Helvetica-Bold" font-weight="bold" font-size="52.0" fill="#FEFFFF" transform="matrix(1.00, 0.00, -0.00, -1.00, 651.4, 658.0)">r</text><text xml:space="preserve" font-family="Helvetica-Bold" font-weight="bold" font-size="52.0" fill="#FEFFFF" transform="matrix(1.00, 0.00, -0.00, -1.00, 671.7, 658.0)">e</text><text xml:space="preserve" font-family="Helvetica-Bold" font-weight="bold" font-size="52.0" fill="#FEFFFF" transform="matrix(1.00, 0.00, -0.00, -1.00, 700.6, 658.0)"> </text><text xml:space="preserve" font-family="Helvetica-Bold" font-weight="bold" font-size="52.0" fill="#FEFFFF" transform="matrix(1.00, 0.00, -0.00, -1.00, 715.1, 658.0)">i</text><text xml:space="preserve" font-family="Helvetica-Bold" font-weight="bold" font-size="52.0" fill="#FEFFFF" transform="matrix(1.00, 0.00, -0.00, -1.00, 729.5, 658.0)">s</text><text xml:space="preserve" font-family="Helvetica-Bold" font-weight="bold" font-size="52.0" fill="#FEFFFF" transform="matrix(1.00, 0.00, -0.00, -1.00, 758.4, 658.0)"> </text><text xml:space="preserve" font-family="Helvetica-Bold" font-weight="bold" font-size="52.0" fill="#FEFFFF" transform="matrix(1.00, 0.00, -0.00, -1.00, 772.9, 658.0)">a</text><text xml:space="preserve" font-family="Helvetica-Bold" font-weight="bold" font-size="52.0" fill="#FEFFFF" transform="matrix(1.00, 0.00, -0.00, -1.00, 801.8, 658.0)">n</text><text xml:space="preserve" font-family="Helvetica-Bold" font-weight="bold" font-size="52.0" fill="#FEFFFF" transform="matrix(1.00, 0.00, -0.00, -1.00, 833.5, 658.0)"> </text><text xml:space="preserve" font-family="Helvetica-Bold" font-weight="bold" font-size="52.0" fill="#FEFFFF" transform="matrix(1.00, 0.00, -0.00, -1.00, 848.0, 658.0)">i</text><text xml:space="preserve" font-family="Helvetica-Bold" font-weight="bold" font-size="52.0" fill="#FEFFFF" transform="matrix(1.00, 0.00, -0.00, -1.00, 862.4, 658.0)">n</text><text xml:space="preserve" font-family="Helvetica-Bold" font-weight="bold" font-size="52.0" fill="#FEFFFF" transform="matrix(1.00, 0.00, -0.00, -1.00, 894.2, 658.0)">h</text><text xml:space="preserve" font-family="Helvetica-Bold" font-weight="bold" font-size="52.0" fill="#FEFFFF" transform="matrix(1.00, 0.00, -0.00, -1.00, 925.9, 658.0)">e</text><text xml:space="preserve" font-family="Helvetica-Bold" font-weight="bold" font-size="52.0" fill="#FEFFFF" transform="matrix(1.00, 0.00, -0.00, -1.00, 954.8, 658.0)">r</text><text xml:space="preserve" font-family="Helvetica-Bold" font-weight="bold" font-size="52.0" fill="#FEFFFF" transform="matrix(1.00, 0.00, -0.00, -1.00, 975.1, 658.0)">e</text><text xml:space="preserve" font-family="Helvetica-Bold" font-weight="bold" font-size="52.0" fill="#FEFFFF" transform="matrix(1.00, 0.00, -0.00, -1.00, 1004.0, 658.0)">n</text><text xml:space="preserve" font-family="Helvetica-Bold" font-weight="bold" font-size="52.0" fill="#FEFFFF" transform="matrix(1.00, 0.00, -0.00, -1.00, 1035.8, 658.0)">t</text><text xml:space="preserve" font-family="Helvetica-Bold" font-weight="bold" font-size="52.0" fill="#FEFFFF" transform="matrix(1.00, 0.00, -0.00, -1.00, 1053.1, 658.0)"> </text><text xml:space="preserve" font-family="Helvetica-Bold" font-weight="bold" font-size="52.0" fill="#FEFFFF" transform="matrix(1.00, 0.00, -0.00, -1.00, 1067.5, 658.0)">d</text><text xml:space="preserve" font-family="Helvetica-Bold" font-weight="bold" font-size="52.0" fill="#FEFFFF" transform="matrix(1.00, 0.00, -0.00, -1.00, 1099.3, 658.0)">i</text><text xml:space="preserve" font-family="Helvetica-Bold" font-weight="bold" font-size="52.0" fill="#FEFFFF" transform="matrix(1.00, 0.00, -0.00, -1.00, 1113.7, 658.0)">f</text><text xml:space="preserve" font-family="Helvetica-Bold" font-weight="bold" font-size="52.0" fill="#FEFFFF" transform="matrix(1.00, 0.00, -0.00, -1.00, 1131.0, 658.0)">ﬁ</text><text xml:space="preserve" font-family="Helvetica-Bold" font-weight="bold" font-size="52.0" fill="#FEFFFF" transform="matrix(1.00, 0.00, -0.00, -1.00, 1162.8, 658.0)">c</text><text xml:space="preserve" font-family="Helvetica-Bold" font-weight="bold" font-size="52.0" fill="#FEFFFF" transform="matrix(1.00, 0.00, -0.00, -1.00, 1191.7, 658.0)">u</text><text xml:space="preserve" font-family="Helvetica-Bold" font-weight="bold" font-size="52.0" fill="#FEFFFF" transform="matrix(1.00, 0.00, -0.00, -1.00, 1223.5, 658.0)">l</text><text xml:space="preserve" font-family="Helvetica-Bold" font-weight="bold" font-size="52.0" fill="#FEFFFF" transform="matrix(1.00, 0.00, -0.00, -1.00, 1237.9, 658.0)">t</text><text xml:space="preserve" font-family="Helvetica-Bold" font-weight="bold" font-size="52.0" fill="#FEFFFF" transform="matrix(1.00, 0.00, -0.00, -1.00, 1255.2, 658.0)">y</text><text xml:space="preserve" font-family="Helvetica-Bold" font-weight="bold" font-size="52.0" fill="#FEFFFF" transform="matrix(1.00, 0.00, -0.00, -1.00, 1284.2, 658.0)"> </text><text xml:space="preserve" font-family="Helvetica-Bold" font-weight="bold" font-size="52.0" fill="#FEFFFF" transform="matrix(1.00, 0.00, -0.00, -1.00, 1298.6, 658.0)">f</text><text xml:space="preserve" font-family="Helvetica-Bold" font-weight="bold" font-size="52.0" fill="#FEFFFF" transform="matrix(1.00, 0.00, -0.00, -1.00, 1315.9, 658.0)">o</text><text xml:space="preserve" font-family="Helvetica-Bold" font-weight="bold" font-size="52.0" fill="#FEFFFF" transform="matrix(1.00, 0.00, -0.00, -1.00, 1347.7, 658.0)">r</text><text xml:space="preserve" font-family="Helvetica-Bold" font-weight="bold" font-size="52.0" fill="#FEFFFF" transform="matrix(1.00, 0.00, -0.00, -1.00, 1367.9, 658.0)"> </text><text xml:space="preserve" font-family="Helvetica-Bold" font-weight="bold" font-size="52.0" fill="#FEFFFF" transform="matrix(1.00, 0.00, -0.00, -1.00, 559.0, 596.0)">c</text><text xml:space="preserve" font-family="Helvetica-Bold" font-weight="bold" font-size="52.0" fill="#FEFFFF" transform="matrix(1.00, 0.00, -0.00, -1.00, 587.9, 596.0)">l</text><text xml:space="preserve" font-family="Helvetica-Bold" font-weight="bold" font-size="52.0" fill="#FEFFFF" transform="matrix(1.00, 0.00, -0.00, -1.00, 602.4, 596.0)">i</text><text xml:space="preserve" font-family="Helvetica-Bold" font-weight="bold" font-size="52.0" fill="#FEFFFF" transform="matrix(1.00, 0.00, -0.00, -1.00, 616.8, 596.0)">e</text><text xml:space="preserve" font-family="Helvetica-Bold" font-weight="bold" font-size="52.0" fill="#FEFFFF" transform="matrix(1.00, 0.00, -0.00, -1.00, 645.7, 596.0)">n</text><text xml:space="preserve" font-family="Helvetica-Bold" font-weight="bold" font-size="52.0" fill="#FEFFFF" transform="matrix(1.00, 0.00, -0.00, -1.00, 677.5, 596.0)">t</text><text xml:space="preserve" font-family="Helvetica-Bold" font-weight="bold" font-size="52.0" fill="#FEFFFF" transform="matrix(1.00, 0.00, -0.00, -1.00, 694.8, 596.0)">s</text><text xml:space="preserve" font-family="Helvetica-Bold" font-weight="bold" font-size="52.0" fill="#FEFFFF" transform="matrix(1.00, 0.00, -0.00, -1.00, 723.7, 596.0)"> </text><text xml:space="preserve" font-family="Helvetica-Bold" font-weight="bold" font-size="52.0" fill="#FEFFFF" transform="matrix(1.00, 0.00, -0.00, -1.00, 738.2, 596.0)">t</text><text xml:space="preserve" font-family="Helvetica-Bold" font-weight="bold" font-size="52.0" fill="#FEFFFF" transform="matrix(1.00, 0.00, -0.00, -1.00, 755.5, 596.0)">o</text><text xml:space="preserve" font-family="Helvetica-Bold" font-weight="bold" font-size="52.0" fill="#FEFFFF" transform="matrix(1.00, 0.00, -0.00, -1.00, 787.2, 596.0)"> </text><text xml:space="preserve" font-family="Helvetica-Bold" font-weight="bold" font-size="52.0" fill="#FEFFFF" transform="matrix(1.00, 0.00, -0.00, -1.00, 801.7, 596.0)">u</text><text xml:space="preserve" font-family="Helvetica-Bold" font-weight="bold" font-size="52.0" fill="#FEFFFF" transform="matrix(1.00, 0.00, -0.00, -1.00, 833.4, 596.0)">n</text><text xml:space="preserve" font-family="Helvetica-Bold" font-weight="bold" font-size="52.0" fill="#FEFFFF" transform="matrix(1.00, 0.00, -0.00, -1.00, 865.2, 596.0)">d</text><text xml:space="preserve" font-family="Helvetica-Bold" font-weight="bold" font-size="52.0" fill="#FEFFFF" transform="matrix(1.00, 0.00, -0.00, -1.00, 896.9, 596.0)">e</text><text xml:space="preserve" font-family="Helvetica-Bold" font-weight="bold" font-size="52.0" fill="#FEFFFF" transform="matrix(1.00, 0.00, -0.00, -1.00, 925.9, 596.0)">r</text><text xml:space="preserve" font-family="Helvetica-Bold" font-weight="bold" font-size="52.0" fill="#FEFFFF" transform="matrix(1.00, 0.00, -0.00, -1.00, 946.1, 596.0)">s</text><text xml:space="preserve" font-family="Helvetica-Bold" font-weight="bold" font-size="52.0" fill="#FEFFFF" transform="matrix(1.00, 0.00, -0.00, -1.00, 975.0, 596.0)">t</text><text xml:space="preserve" font-family="Helvetica-Bold" font-weight="bold" font-size="52.0" fill="#FEFFFF" transform="matrix(1.00, 0.00, -0.00, -1.00, 992.4, 596.0)">a</text><text xml:space="preserve" font-family="Helvetica-Bold" font-weight="bold" font-size="52.0" fill="#FEFFFF" transform="matrix(1.00, 0.00, -0.00, -1.00, 1021.3, 596.0)">n</text><text xml:space="preserve" font-family="Helvetica-Bold" font-weight="bold" font-size="52.0" fill="#FEFFFF" transform="matrix(1.00, 0.00, -0.00, -1.00, 1053.0, 596.0)">d</text><text xml:space="preserve" font-family="Helvetica-Bold" font-weight="bold" font-size="52.0" fill="#FEFFFF" transform="matrix(1.00, 0.00, -0.00, -1.00, 1084.8, 596.0)"> </text><text xml:space="preserve" font-family="Helvetica-Bold" font-weight="bold" font-size="52.0" fill="#FEFFFF" transform="matrix(1.00, 0.00, -0.00, -1.00, 1099.2, 596.0)">t</text><text xml:space="preserve" font-family="Helvetica-Bold" font-weight="bold" font-size="52.0" fill="#FEFFFF" transform="matrix(1.00, 0.00, -0.00, -1.00, 1116.6, 596.0)">h</text><text xml:space="preserve" font-family="Helvetica-Bold" font-weight="bold" font-size="52.0" fill="#FEFFFF" transform="matrix(1.00, 0.00, -0.00, -1.00, 1148.3, 596.0)">e</text><text xml:space="preserve" font-family="Helvetica-Bold" font-weight="bold" font-size="52.0" fill="#FEFFFF" transform="matrix(1.00, 0.00, -0.00, -1.00, 1177.2, 596.0)"> </text><text xml:space="preserve" font-family="Helvetica-Bold" font-weight="bold" font-size="52.0" fill="#FEFFFF" transform="matrix(1.00, 0.00, -0.00, -1.00, 559.0, 534.0)">s</text><text xml:space="preserve" font-family="Helvetica-Bold" font-weight="bold" font-size="52.0" fill="#FEFFFF" transform="matrix(1.00, 0.00, -0.00, -1.00, 587.9, 534.0)">i</text><text xml:space="preserve" font-family="Helvetica-Bold" font-weight="bold" font-size="52.0" fill="#FEFFFF" transform="matrix(1.00, 0.00, -0.00, -1.00, 602.4, 534.0)">g</text><text xml:space="preserve" font-family="Helvetica-Bold" font-weight="bold" font-size="52.0" fill="#FEFFFF" transform="matrix(1.00, 0.00, -0.00, -1.00, 634.1, 534.0)">n</text><text xml:space="preserve" font-family="Helvetica-Bold" font-weight="bold" font-size="52.0" fill="#FEFFFF" transform="matrix(1.00, 0.00, -0.00, -1.00, 665.9, 534.0)">i</text><text xml:space="preserve" font-family="Helvetica-Bold" font-weight="bold" font-size="52.0" fill="#FEFFFF" transform="matrix(1.00, 0.00, -0.00, -1.00, 680.3, 534.0)">ﬁ</text><text xml:space="preserve" font-family="Helvetica-Bold" font-weight="bold" font-size="52.0" fill="#FEFFFF" transform="matrix(1.00, 0.00, -0.00, -1.00, 712.1, 534.0)">c</text><text xml:space="preserve" font-family="Helvetica-Bold" font-weight="bold" font-size="52.0" fill="#FEFFFF" transform="matrix(1.00, 0.00, -0.00, -1.00, 741.0, 534.0)">a</text><text xml:space="preserve" font-family="Helvetica-Bold" font-weight="bold" font-size="52.0" fill="#FEFFFF" transform="matrix(1.00, 0.00, -0.00, -1.00, 769.9, 534.0)">n</text><text xml:space="preserve" font-family="Helvetica-Bold" font-weight="bold" font-size="52.0" fill="#FEFFFF" transform="matrix(1.00, 0.00, -0.00, -1.00, 801.7, 534.0)">c</text><text xml:space="preserve" font-family="Helvetica-Bold" font-weight="bold" font-size="52.0" fill="#FEFFFF" transform="matrix(1.00, 0.00, -0.00, -1.00, 830.6, 534.0)">e</text><text xml:space="preserve" font-family="Helvetica-Bold" font-weight="bold" font-size="52.0" fill="#FEFFFF" transform="matrix(1.00, 0.00, -0.00, -1.00, 859.5, 534.0)"> </text><text xml:space="preserve" font-family="Helvetica-Bold" font-weight="bold" font-size="52.0" fill="#FEFFFF" transform="matrix(1.00, 0.00, -0.00, -1.00, 874.0, 534.0)">o</text><text xml:space="preserve" font-family="Helvetica-Bold" font-weight="bold" font-size="52.0" fill="#FEFFFF" transform="matrix(1.00, 0.00, -0.00, -1.00, 905.7, 534.0)">f</text><text xml:space="preserve" font-family="Helvetica-Bold" font-weight="bold" font-size="52.0" fill="#FEFFFF" transform="matrix(1.00, 0.00, -0.00, -1.00, 923.0, 534.0)"> </text><text xml:space="preserve" font-family="Helvetica-Bold" font-weight="bold" font-size="52.0" fill="#FEFFFF" transform="matrix(1.00, 0.00, -0.00, -1.00, 937.5, 534.0)">d</text><text xml:space="preserve" font-family="Helvetica-Bold" font-weight="bold" font-size="52.0" fill="#FEFFFF" transform="matrix(1.00, 0.00, -0.00, -1.00, 969.2, 534.0)">e</text><text xml:space="preserve" font-family="Helvetica-Bold" font-weight="bold" font-size="52.0" fill="#FEFFFF" transform="matrix(1.00, 0.00, -0.00, -1.00, 998.2, 534.0)">s</text><text xml:space="preserve" font-family="Helvetica-Bold" font-weight="bold" font-size="52.0" fill="#FEFFFF" transform="matrix(1.00, 0.00, -0.00, -1.00, 1027.1, 534.0)">i</text><text xml:space="preserve" font-family="Helvetica-Bold" font-weight="bold" font-size="52.0" fill="#FEFFFF" transform="matrix(1.00, 0.00, -0.00, -1.00, 1041.5, 534.0)">g</text><text xml:space="preserve" font-family="Helvetica-Bold" font-weight="bold" font-size="52.0" fill="#FEFFFF" transform="matrix(1.00, 0.00, -0.00, -1.00, 1073.3, 534.0)">n</text><text xml:space="preserve" font-family="Helvetica-Bold" font-weight="bold" font-size="52.0" fill="#FEFFFF" transform="matrix(1.00, 0.00, -0.00, -1.00, 1105.0, 534.0)"> </text><text xml:space="preserve" font-family="Helvetica-Bold" font-weight="bold" font-size="52.0" fill="#FEFFFF" transform="matrix(1.00, 0.00, -0.00, -1.00, 1119.5, 534.0)">d</text><text xml:space="preserve" font-family="Helvetica-Bold" font-weight="bold" font-size="52.0" fill="#FEFFFF" transform="matrix(1.00, 0.00, -0.00, -1.00, 1151.2, 534.0)">e</text><text xml:space="preserve" font-family="Helvetica-Bold" font-weight="bold" font-size="52.0" fill="#FEFFFF" transform="matrix(1.00, 0.00, -0.00, -1.00, 1180.2, 534.0)">c</text><text xml:space="preserve" font-family="Helvetica-Bold" font-weight="bold" font-size="52.0" fill="#FEFFFF" transform="matrix(1.00, 0.00, -0.00, -1.00, 1209.1, 534.0)">i</text><text xml:space="preserve" font-family="Helvetica-Bold" font-weight="bold" font-size="52.0" fill="#FEFFFF" transform="matrix(1.00, 0.00, -0.00, -1.00, 1223.5, 534.0)">s</text><text xml:space="preserve" font-family="Helvetica-Bold" font-weight="bold" font-size="52.0" fill="#FEFFFF" transform="matrix(1.00, 0.00, -0.00, -1.00, 1252.5, 534.0)">i</text><text xml:space="preserve" font-family="Helvetica-Bold" font-weight="bold" font-size="52.0" fill="#FEFFFF" transform="matrix(1.00, 0.00, -0.00, -1.00, 1266.9, 534.0)">o</text><text xml:space="preserve" font-family="Helvetica-Bold" font-weight="bold" font-size="52.0" fill="#FEFFFF" transform="matrix(1.00, 0.00, -0.00, -1.00, 1298.6, 534.0)">n</text><text xml:space="preserve" font-family="Helvetica-Bold" font-weight="bold" font-size="52.0" fill="#FEFFFF" transform="matrix(1.00, 0.00, -0.00, -1.00, 1330.4, 534.0)">s</text><text xml:space="preserve" font-family="Helvetica-Bold" font-weight="bold" font-size="52.0" fill="#FEFFFF" transform="matrix(1.00, 0.00, -0.00, -1.00, 1359.3, 534.0)"> </text><text xml:space="preserve" font-family="Helvetica-Bold" font-weight="bold" font-size="52.0" fill="#FEFFFF" transform="matrix(1.00, 0.00, -0.00, -1.00, 559.0, 472.0)">b</text><text xml:space="preserve" font-family="Helvetica-Bold" font-weight="bold" font-size="52.0" fill="#FEFFFF" transform="matrix(1.00, 0.00, -0.00, -1.00, 590.8, 472.0)">e</text><text xml:space="preserve" font-family="Helvetica-Bold" font-weight="bold" font-size="52.0" fill="#FEFFFF" transform="matrix(1.00, 0.00, -0.00, -1.00, 619.7, 472.0)">c</text><text xml:space="preserve" font-family="Helvetica-Bold" font-weight="bold" font-size="52.0" fill="#FEFFFF" transform="matrix(1.00, 0.00, -0.00, -1.00, 648.6, 472.0)">a</text><text xml:space="preserve" font-family="Helvetica-Bold" font-weight="bold" font-size="52.0" fill="#FEFFFF" transform="matrix(1.00, 0.00, -0.00, -1.00, 677.5, 472.0)">u</text><text xml:space="preserve" font-family="Helvetica-Bold" font-weight="bold" font-size="52.0" fill="#FEFFFF" transform="matrix(1.00, 0.00, -0.00, -1.00, 709.3, 472.0)">s</text><text xml:space="preserve" font-family="Helvetica-Bold" font-weight="bold" font-size="52.0" fill="#FEFFFF" transform="matrix(1.00, 0.00, -0.00, -1.00, 738.2, 472.0)">e</text><text xml:space="preserve" font-family="Helvetica-Bold" font-weight="bold" font-size="52.0" fill="#FEFFFF" transform="matrix(1.00, 0.00, -0.00, -1.00, 767.2, 472.0)"> </text><text xml:space="preserve" font-family="Helvetica-Bold" font-weight="bold" font-size="52.0" fill="#FEFFFF" transform="matrix(1.00, 0.00, -0.00, -1.00, 781.6, 472.0)">t</text><text xml:space="preserve" font-family="Helvetica-Bold" font-weight="bold" font-size="52.0" fill="#FEFFFF" transform="matrix(1.00, 0.00, -0.00, -1.00, 798.9, 472.0)">h</text><text xml:space="preserve" font-family="Helvetica-Bold" font-weight="bold" font-size="52.0" fill="#FEFFFF" transform="matrix(1.00, 0.00, -0.00, -1.00, 830.7, 472.0)">e</text><text xml:space="preserve" font-family="Helvetica-Bold" font-weight="bold" font-size="52.0" fill="#FEFFFF" transform="matrix(1.00, 0.00, -0.00, -1.00, 859.6, 472.0)">y</text><text xml:space="preserve" font-family="Helvetica-Bold" font-weight="bold" font-size="52.0" fill="#FEFFFF" transform="matrix(1.00, 0.00, -0.00, -1.00, 888.5, 472.0)"> </text><text xml:space="preserve" font-family="Helvetica-Bold" font-weight="bold" font-size="52.0" fill="#FEFFFF" transform="matrix(1.00, 0.00, -0.00, -1.00, 903.0, 472.0)">a</text><text xml:space="preserve" font-family="Helvetica-Bold" font-weight="bold" font-size="52.0" fill="#FEFFFF" transform="matrix(1.00, 0.00, -0.00, -1.00, 931.9, 472.0)">r</text><text xml:space="preserve" font-family="Helvetica-Bold" font-weight="bold" font-size="52.0" fill="#FEFFFF" transform="matrix(1.00, 0.00, -0.00, -1.00, 952.1, 472.0)">e</text><text xml:space="preserve" font-family="Helvetica-Bold" font-weight="bold" font-size="52.0" fill="#FEFFFF" transform="matrix(1.00, 0.00, -0.00, -1.00, 981.1, 472.0)"> </text><text xml:space="preserve" font-family="Helvetica-Bold" font-weight="bold" font-size="52.0" fill="#FEFFFF" transform="matrix(1.00, 0.00, -0.00, -1.00, 995.5, 472.0)">s</text><text xml:space="preserve" font-family="Helvetica-Bold" font-weight="bold" font-size="52.0" fill="#FEFFFF" transform="matrix(1.00, 0.00, -0.00, -1.00, 1024.4, 472.0)">o</text><text xml:space="preserve" font-family="Helvetica-Bold" font-weight="bold" font-size="52.0" fill="#FEFFFF" transform="matrix(1.00, 0.00, -0.00, -1.00, 1056.2, 472.0)"> </text><text xml:space="preserve" font-family="Helvetica-Bold" font-weight="bold" font-size="52.0" fill="#FEFFFF" transform="matrix(1.00, 0.00, -0.00, -1.00, 1070.6, 472.0)">f</text><text xml:space="preserve" font-family="Helvetica-Bold" font-weight="bold" font-size="52.0" fill="#FEFFFF" transform="matrix(1.00, 0.00, -0.00, -1.00, 1087.9, 472.0)">a</text><text xml:space="preserve" font-family="Helvetica-Bold" font-weight="bold" font-size="52.0" fill="#FEFFFF" transform="matrix(1.00, 0.00, -0.00, -1.00, 1116.9, 472.0)">r</text><text xml:space="preserve" font-family="Helvetica-Bold" font-weight="bold" font-size="52.0" fill="#FEFFFF" transform="matrix(1.00, 0.00, -0.00, -1.00, 1137.1, 472.0)"> </text><text xml:space="preserve" font-family="Helvetica-Bold" font-weight="bold" font-size="52.0" fill="#FEFFFF" transform="matrix(1.00, 0.00, -0.00, -1.00, 1151.6, 472.0)">r</text><text xml:space="preserve" font-family="Helvetica-Bold" font-weight="bold" font-size="52.0" fill="#FEFFFF" transform="matrix(1.00, 0.00, -0.00, -1.00, 1171.8, 472.0)">e</text><text xml:space="preserve" font-family="Helvetica-Bold" font-weight="bold" font-size="52.0" fill="#FEFFFF" transform="matrix(1.00, 0.00, -0.00, -1.00, 1200.7, 472.0)">m</text><text xml:space="preserve" font-family="Helvetica-Bold" font-weight="bold" font-size="52.0" fill="#FEFFFF" transform="matrix(1.00, 0.00, -0.00, -1.00, 1247.0, 472.0)">o</text><text xml:space="preserve" font-family="Helvetica-Bold" font-weight="bold" font-size="52.0" fill="#FEFFFF" transform="matrix(1.00, 0.00, -0.00, -1.00, 1278.7, 472.0)">v</text><text xml:space="preserve" font-family="Helvetica-Bold" font-weight="bold" font-size="52.0" fill="#FEFFFF" transform="matrix(1.00, 0.00, -0.00, -1.00, 1307.7, 472.0)">e</text><text xml:space="preserve" font-family="Helvetica-Bold" font-weight="bold" font-size="52.0" fill="#FEFFFF" transform="matrix(1.00, 0.00, -0.00, -1.00, 1336.6, 472.0)">d</text><text xml:space="preserve" font-family="Helvetica-Bold" font-weight="bold" font-size="52.0" fill="#FEFFFF" transform="matrix(1.00, 0.00, -0.00, -1.00, 1368.3, 472.0)"> </text><text xml:space="preserve" font-family="Helvetica-Bold" font-weight="bold" font-size="52.0" fill="#FEFFFF" transform="matrix(1.00, 0.00, -0.00, -1.00, 559.0, 410.0)">f</text><text xml:space="preserve" font-family="Helvetica-Bold" font-weight="bold" font-size="52.0" fill="#FEFFFF" transform="matrix(1.00, 0.00, -0.00, -1.00, 576.3, 410.0)">r</text><text xml:space="preserve" font-family="Helvetica-Bold" font-weight="bold" font-size="52.0" fill="#FEFFFF" transform="matrix(1.00, 0.00, -0.00, -1.00, 596.6, 410.0)">o</text><text xml:space="preserve" font-family="Helvetica-Bold" font-weight="bold" font-size="52.0" fill="#FEFFFF" transform="matrix(1.00, 0.00, -0.00, -1.00, 628.3, 410.0)">m</text><text xml:space="preserve" font-family="Helvetica-Bold" font-weight="bold" font-size="52.0" fill="#FEFFFF" transform="matrix(1.00, 0.00, -0.00, -1.00, 674.6, 410.0)"> </text><text xml:space="preserve" font-family="Helvetica-Bold" font-weight="bold" font-size="52.0" fill="#FEFFFF" transform="matrix(1.00, 0.00, -0.00, -1.00, 689.0, 410.0)">t</text><text xml:space="preserve" font-family="Helvetica-Bold" font-weight="bold" font-size="52.0" fill="#FEFFFF" transform="matrix(1.00, 0.00, -0.00, -1.00, 706.3, 410.0)">h</text><text xml:space="preserve" font-family="Helvetica-Bold" font-weight="bold" font-size="52.0" fill="#FEFFFF" transform="matrix(1.00, 0.00, -0.00, -1.00, 738.1, 410.0)">e</text><text xml:space="preserve" font-family="Helvetica-Bold" font-weight="bold" font-size="52.0" fill="#FEFFFF" transform="matrix(1.00, 0.00, -0.00, -1.00, 767.0, 410.0)"> </text><text xml:space="preserve" font-family="Helvetica-Bold" font-weight="bold" font-size="52.0" fill="#FEFFFF" transform="matrix(1.00, 0.00, -0.00, -1.00, 781.4, 410.0)">q</text><text xml:space="preserve" font-family="Helvetica-Bold" font-weight="bold" font-size="52.0" fill="#FEFFFF" transform="matrix(1.00, 0.00, -0.00, -1.00, 813.2, 410.0)">u</text><text xml:space="preserve" font-family="Helvetica-Bold" font-weight="bold" font-size="52.0" fill="#FEFFFF" transform="matrix(1.00, 0.00, -0.00, -1.00, 844.9, 410.0)">a</text><text xml:space="preserve" font-family="Helvetica-Bold" font-weight="bold" font-size="52.0" fill="#FEFFFF" transform="matrix(1.00, 0.00, -0.00, -1.00, 873.9, 410.0)">l</text><text xml:space="preserve" font-family="Helvetica-Bold" font-weight="bold" font-size="52.0" fill="#FEFFFF" transform="matrix(1.00, 0.00, -0.00, -1.00, 888.3, 410.0)">i</text><text xml:space="preserve" font-family="Helvetica-Bold" font-weight="bold" font-size="52.0" fill="#FEFFFF" transform="matrix(1.00, 0.00, -0.00, -1.00, 902.7, 410.0)">t</text><text xml:space="preserve" font-family="Helvetica-Bold" font-weight="bold" font-size="52.0" fill="#FEFFFF" transform="matrix(1.00, 0.00, -0.00, -1.00, 920.1, 410.0)">a</text><text xml:space="preserve" font-family="Helvetica-Bold" font-weight="bold" font-size="52.0" fill="#FEFFFF" transform="matrix(1.00, 0.00, -0.00, -1.00, 949.0, 410.0)">t</text><text xml:space="preserve" font-family="Helvetica-Bold" font-weight="bold" font-size="52.0" fill="#FEFFFF" transform="matrix(1.00, 0.00, -0.00, -1.00, 966.3, 410.0)">i</text><text xml:space="preserve" font-family="Helvetica-Bold" font-weight="bold" font-size="52.0" fill="#FEFFFF" transform="matrix(1.00, 0.00, -0.00, -1.00, 980.7, 410.0)">v</text><text xml:space="preserve" font-family="Helvetica-Bold" font-weight="bold" font-size="52.0" fill="#FEFFFF" transform="matrix(1.00, 0.00, -0.00, -1.00, 1009.7, 410.0)">e</text><text xml:space="preserve" font-family="Helvetica-Bold" font-weight="bold" font-size="52.0" fill="#FEFFFF" transform="matrix(1.00, 0.00, -0.00, -1.00, 1038.6, 410.0)"> </text><text xml:space="preserve" font-family="Helvetica-Bold" font-weight="bold" font-size="52.0" fill="#FEFFFF" transform="matrix(1.00, 0.00, -0.00, -1.00, 1053.0, 410.0)">r</text><text xml:space="preserve" font-family="Helvetica-Bold" font-weight="bold" font-size="52.0" fill="#FEFFFF" transform="matrix(1.00, 0.00, -0.00, -1.00, 1073.3, 410.0)">e</text><text xml:space="preserve" font-family="Helvetica-Bold" font-weight="bold" font-size="52.0" fill="#FEFFFF" transform="matrix(1.00, 0.00, -0.00, -1.00, 1102.2, 410.0)">s</text><text xml:space="preserve" font-family="Helvetica-Bold" font-weight="bold" font-size="52.0" fill="#FEFFFF" transform="matrix(1.00, 0.00, -0.00, -1.00, 1131.2, 410.0)">e</text><text xml:space="preserve" font-family="Helvetica-Bold" font-weight="bold" font-size="52.0" fill="#FEFFFF" transform="matrix(1.00, 0.00, -0.00, -1.00, 1160.1, 410.0)">a</text><text xml:space="preserve" font-family="Helvetica-Bold" font-weight="bold" font-size="52.0" fill="#FEFFFF" transform="matrix(1.00, 0.00, -0.00, -1.00, 1189.0, 410.0)">r</text><text xml:space="preserve" font-family="Helvetica-Bold" font-weight="bold" font-size="52.0" fill="#FEFFFF" transform="matrix(1.00, 0.00, -0.00, -1.00, 1209.3, 410.0)">c</text><text xml:space="preserve" font-family="Helvetica-Bold" font-weight="bold" font-size="52.0" fill="#FEFFFF" transform="matrix(1.00, 0.00, -0.00, -1.00, 1238.2, 410.0)">h</text><text xml:space="preserve" font-family="Helvetica-Bold" font-weight="bold" font-size="52.0" fill="#FEFFFF" transform="matrix(1.00, 0.00, -0.00, -1.00, 1269.9, 410.0)">.</text><g><clipPath id="clip-436"><path d="M 50.0 52.0 L 154.0 52.0 L 154.0 -1.0 L 50.0 -1.0 Z M 50.4 52.4 "></path></clipPath><g clip-path="url(#clip-436)"><image xlink:href="../../4F9A92A2-2DC6-4691-97F8-9F75BE53396F/assets/B22C448CED7C82A0C99889D0AD879A76.png" width="104.00" height="104.00" transform="matrix(1.00, 0.00, -0.00, -0.99, 50.0, 77.0)"></image></g></g></g></svg>