<?xml version="1.0" encoding="UTF-8" standalone="no"?><svg xmlns="http://www.w3.org/2000/svg" xmlns:xlink="http://www.w3.org/1999/xlink" clip-rule="evenodd" stroke-miterlimit="4.00" viewBox="0 0 1920 1080"><desc>SVG generated by Keynote</desc><defs></defs><g transform="matrix(1.00, 0.00, -0.00, -1.00, 0.0, 1080.0)"><path d="M 0.0 1080.0 L 1920.0 1080.0 L 1920.0 0.0 L 0.0 0.0 Z M 0.0 1080.0 " fill="#000000"></path><text xml:space="preserve" font-family="Helvetica-Bold" font-weight="bold" font-size="90.0" fill="#FEFFFF" transform="matrix(1.00, 0.00, -0.00, -1.00, 538.0, 629.0)">1</text><text xml:space="preserve" font-family="Helvetica-Bold" font-weight="bold" font-size="90.0" fill="#FEFFFF" transform="matrix(1.00, 0.00, -0.00, -1.00, 588.1, 629.0)">.</text><text xml:space="preserve" font-family="Helvetica-Light" font-size="45.0" fill="#FEFFFF" transform="matrix(1.00, 0.00, -0.00, -1.00, 538.0, 565.0)">S</text><text xml:space="preserve" font-family="Helvetica-Light" font-size="45.0" fill="#FEFFFF" transform="matrix(1.00, 0.00, -0.00, -1.00, 565.5, 565.0)">m</text><text xml:space="preserve" font-family="Helvetica-Light" font-size="45.0" fill="#FEFFFF" transform="matrix(1.00, 0.00, -0.00, -1.00, 603.0, 565.0)">a</text><text xml:space="preserve" font-family="Helvetica-Light" font-size="45.0" fill="#FEFFFF" transform="matrix(1.00, 0.00, -0.00, -1.00, 628.0, 565.0)">l</text><text xml:space="preserve" font-family="Helvetica-Light" font-size="45.0" fill="#FEFFFF" transform="matrix(1.00, 0.00, -0.00, -1.00, 638.0, 565.0)">l</text><text xml:space="preserve" font-family="Helvetica-Light" font-size="45.0" fill="#FEFFFF" transform="matrix(1.00, 0.00, -0.00, -1.00, 648.0, 565.0)"> </text><text xml:space="preserve" font-family="Helvetica-Light" font-size="45.0" fill="#FEFFFF" transform="matrix(1.00, 0.00, -0.00, -1.00, 660.5, 565.0)">b</text><text xml:space="preserve" font-family="Helvetica-Light" font-size="45.0" fill="#FEFFFF" transform="matrix(1.00, 0.00, -0.00, -1.00, 688.0, 565.0)">u</text><text xml:space="preserve" font-family="Helvetica-Light" font-size="45.0" fill="#FEFFFF" transform="matrix(1.00, 0.00, -0.00, -1.00, 713.0, 565.0)">s</text><text xml:space="preserve" font-family="Helvetica-Light" font-size="45.0" fill="#FEFFFF" transform="matrix(1.00, 0.00, -0.00, -1.00, 735.5, 565.0)">i</text><text xml:space="preserve" font-family="Helvetica-Light" font-size="45.0" fill="#FEFFFF" transform="matrix(1.00, 0.00, -0.00, -1.00, 745.5, 565.0)">n</text><text xml:space="preserve" font-family="Helvetica-Light" font-size="45.0" fill="#FEFFFF" transform="matrix(1.00, 0.00, -0.00, -1.00, 770.5, 565.0)">e</text><text xml:space="preserve" font-family="Helvetica-Light" font-size="45.0" fill="#FEFFFF" transform="matrix(1.00, 0.00, -0.00, -1.00, 795.5, 565.0)">s</text><text xml:space="preserve" font-family="Helvetica-Light" font-size="45.0" fill="#FEFFFF" transform="matrix(1.00, 0.00, -0.00, -1.00, 818.0, 565.0)">s</text><text xml:space="preserve" font-family="Helvetica-Light" font-size="45.0" fill="#FEFFFF" transform="matrix(1.00, 0.00, -0.00, -1.00, 840.5, 565.0)">e</text><text xml:space="preserve" font-family="Helvetica-Light" font-size="45.0" fill="#FEFFFF" transform="matrix(1.00, 0.00, -0.00, -1.00, 865.6, 565.0)">s</text><text xml:space="preserve" font-family="Helvetica-Light" font-size="45.0" fill="#FEFFFF" transform="matrix(1.00, 0.00, -0.00, -1.00, 888.1, 565.0)"> </text><text xml:space="preserve" font-family="Helvetica-Light" font-size="45.0" fill="#FEFFFF" transform="matrix(1.00, 0.00, -0.00, -1.00, 900.6, 565.0)">h</text><text xml:space="preserve" font-family="Helvetica-Light" font-size="45.0" fill="#FEFFFF" transform="matrix(1.00, 0.00, -0.00, -1.00, 925.6, 565.0)">i</text><text xml:space="preserve" font-family="Helvetica-Light" font-size="45.0" fill="#FEFFFF" transform="matrix(1.00, 0.00, -0.00, -1.00, 935.6, 565.0)">r</text><text xml:space="preserve" font-family="Helvetica-Light" font-size="45.0" fill="#FEFFFF" transform="matrix(1.00, 0.00, -0.00, -1.00, 949.8, 565.0)">e</text><text xml:space="preserve" font-family="Helvetica-Light" font-size="45.0" fill="#FEFFFF" transform="matrix(1.00, 0.00, -0.00, -1.00, 974.8, 565.0)"> </text><text xml:space="preserve" font-family="Helvetica-Light" font-size="45.0" fill="#FEFFFF" transform="matrix(1.00, 0.00, -0.00, -1.00, 987.3, 565.0)">f</text><text xml:space="preserve" font-family="Helvetica-Light" font-size="45.0" fill="#FEFFFF" transform="matrix(1.00, 0.00, -0.00, -1.00, 999.8, 565.0)">r</text><text xml:space="preserve" font-family="Helvetica-Light" font-size="45.0" fill="#FEFFFF" transform="matrix(1.00, 0.00, -0.00, -1.00, 1014.0, 565.0)">e</text><text xml:space="preserve" font-family="Helvetica-Light" font-size="45.0" fill="#FEFFFF" transform="matrix(1.00, 0.00, -0.00, -1.00, 1039.0, 565.0)">e</text><text xml:space="preserve" font-family="Helvetica-Light" font-size="45.0" fill="#FEFFFF" transform="matrix(1.00, 0.00, -0.00, -1.00, 1064.0, 565.0)">l</text><text xml:space="preserve" font-family="Helvetica-Light" font-size="45.0" fill="#FEFFFF" transform="matrix(1.00, 0.00, -0.00, -1.00, 1074.0, 565.0)">a</text><text xml:space="preserve" font-family="Helvetica-Light" font-size="45.0" fill="#FEFFFF" transform="matrix(1.00, 0.00, -0.00, -1.00, 1099.0, 565.0)">n</text><text xml:space="preserve" font-family="Helvetica-Light" font-size="45.0" fill="#FEFFFF" transform="matrix(1.00, 0.00, -0.00, -1.00, 1124.0, 565.0)">c</text><text xml:space="preserve" font-family="Helvetica-Light" font-size="45.0" fill="#FEFFFF" transform="matrix(1.00, 0.00, -0.00, -1.00, 1149.1, 565.0)">e</text><text xml:space="preserve" font-family="Helvetica-Light" font-size="45.0" fill="#FEFFFF" transform="matrix(1.00, 0.00, -0.00, -1.00, 1174.1, 565.0)">r</text><text xml:space="preserve" font-family="Helvetica-Light" font-size="45.0" fill="#FEFFFF" transform="matrix(1.00, 0.00, -0.00, -1.00, 1189.1, 565.0)">s</text><text xml:space="preserve" font-family="Helvetica-Light" font-size="45.0" fill="#FEFFFF" transform="matrix(1.00, 0.00, -0.00, -1.00, 1211.6, 565.0)"> </text><text xml:space="preserve" font-family="Helvetica-Light" font-size="45.0" fill="#FEFFFF" transform="matrix(1.00, 0.00, -0.00, -1.00, 1224.1, 565.0)">b</text><text xml:space="preserve" font-family="Helvetica-Light" font-size="45.0" fill="#FEFFFF" transform="matrix(1.00, 0.00, -0.00, -1.00, 1251.6, 565.0)">e</text><text xml:space="preserve" font-family="Helvetica-Light" font-size="45.0" fill="#FEFFFF" transform="matrix(1.00, 0.00, -0.00, -1.00, 1276.6, 565.0)">c</text><text xml:space="preserve" font-family="Helvetica-Light" font-size="45.0" fill="#FEFFFF" transform="matrix(1.00, 0.00, -0.00, -1.00, 1301.6, 565.0)">a</text><text xml:space="preserve" font-family="Helvetica-Light" font-size="45.0" fill="#FEFFFF" transform="matrix(1.00, 0.00, -0.00, -1.00, 1326.6, 565.0)">u</text><text xml:space="preserve" font-family="Helvetica-Light" font-size="45.0" fill="#FEFFFF" transform="matrix(1.00, 0.00, -0.00, -1.00, 1351.6, 565.0)">s</text><text xml:space="preserve" font-family="Helvetica-Light" font-size="45.0" fill="#FEFFFF" transform="matrix(1.00, 0.00, -0.00, -1.00, 1374.1, 565.0)">e</text><text xml:space="preserve" font-family="Helvetica-Light" font-size="45.0" fill="#FEFFFF" transform="matrix(1.00, 0.00, -0.00, -1.00, 1399.2, 565.0)"> </text><text xml:space="preserve" font-family="Helvetica-Light" font-size="45.0" fill="#FEFFFF" transform="matrix(1.00, 0.00, -0.00, -1.00, 1411.7, 565.0)">t</text><text xml:space="preserve" font-family="Helvetica-Light" font-size="45.0" fill="#FEFFFF" transform="matrix(1.00, 0.00, -0.00, -1.00, 1424.2, 565.0)">h</text><text xml:space="preserve" font-family="Helvetica-Light" font-size="45.0" fill="#FEFFFF" transform="matrix(1.00, 0.00, -0.00, -1.00, 1449.2, 565.0)">e</text><text xml:space="preserve" font-family="Helvetica-Light" font-size="45.0" fill="#FEFFFF" transform="matrix(1.00, 0.00, -0.00, -1.00, 1474.2, 565.0)">y</text><text xml:space="preserve" font-family="Helvetica-Light" font-size="45.0" fill="#FEFFFF" transform="matrix(1.00, 0.00, -0.00, -1.00, 1496.7, 565.0)"> </text><text xml:space="preserve" font-family="Helvetica-Light" font-size="45.0" fill="#FEFFFF" transform="matrix(1.00, 0.00, -0.00, -1.00, 538.0, 511.0)">a</text><text xml:space="preserve" font-family="Helvetica-Light" font-size="45.0" fill="#FEFFFF" transform="matrix(1.00, 0.00, -0.00, -1.00, 563.0, 511.0)">r</text><text xml:space="preserve" font-family="Helvetica-Light" font-size="45.0" fill="#FEFFFF" transform="matrix(1.00, 0.00, -0.00, -1.00, 577.2, 511.0)">e</text><text xml:space="preserve" font-family="Helvetica-Light" font-size="45.0" fill="#FEFFFF" transform="matrix(1.00, 0.00, -0.00, -1.00, 602.2, 511.0)"> </text><text xml:space="preserve" font-family="Helvetica-Light" font-size="45.0" fill="#FEFFFF" transform="matrix(1.00, 0.00, -0.00, -1.00, 614.7, 511.0)">c</text><text xml:space="preserve" font-family="Helvetica-Light" font-size="45.0" fill="#FEFFFF" transform="matrix(1.00, 0.00, -0.00, -1.00, 639.7, 511.0)">h</text><text xml:space="preserve" font-family="Helvetica-Light" font-size="45.0" fill="#FEFFFF" transform="matrix(1.00, 0.00, -0.00, -1.00, 664.8, 511.0)">e</text><text xml:space="preserve" font-family="Helvetica-Light" font-size="45.0" fill="#FEFFFF" transform="matrix(1.00, 0.00, -0.00, -1.00, 689.8, 511.0)">a</text><text xml:space="preserve" font-family="Helvetica-Light" font-size="45.0" fill="#FEFFFF" transform="matrix(1.00, 0.00, -0.00, -1.00, 714.8, 511.0)">p</text><text xml:space="preserve" font-family="Helvetica-Light" font-size="45.0" fill="#FEFFFF" transform="matrix(1.00, 0.00, -0.00, -1.00, 742.3, 511.0)">e</text><text xml:space="preserve" font-family="Helvetica-Light" font-size="45.0" fill="#FEFFFF" transform="matrix(1.00, 0.00, -0.00, -1.00, 767.3, 511.0)">r</text><text xml:space="preserve" font-family="Helvetica-Light" font-size="45.0" fill="#FEFFFF" transform="matrix(1.00, 0.00, -0.00, -1.00, 778.2, 511.0)">,</text><text xml:space="preserve" font-family="Helvetica-Light" font-size="45.0" fill="#FEFFFF" transform="matrix(1.00, 0.00, -0.00, -1.00, 790.7, 511.0)"> </text><text xml:space="preserve" font-family="Helvetica-Light" font-size="45.0" fill="#FEFFFF" transform="matrix(1.00, 0.00, -0.00, -1.00, 803.2, 511.0)">a</text><text xml:space="preserve" font-family="Helvetica-Light" font-size="45.0" fill="#FEFFFF" transform="matrix(1.00, 0.00, -0.00, -1.00, 828.2, 511.0)">n</text><text xml:space="preserve" font-family="Helvetica-Light" font-size="45.0" fill="#FEFFFF" transform="matrix(1.00, 0.00, -0.00, -1.00, 853.2, 511.0)">d</text><text xml:space="preserve" font-family="Helvetica-Light" font-size="45.0" fill="#FEFFFF" transform="matrix(1.00, 0.00, -0.00, -1.00, 880.7, 511.0)"> </text><text xml:space="preserve" font-family="Helvetica-Light" font-size="45.0" fill="#FEFFFF" transform="matrix(1.00, 0.00, -0.00, -1.00, 893.2, 511.0)">a</text><text xml:space="preserve" font-family="Helvetica-Light" font-size="45.0" fill="#FEFFFF" transform="matrix(1.00, 0.00, -0.00, -1.00, 918.2, 511.0)">s</text><text xml:space="preserve" font-family="Helvetica-Light" font-size="45.0" fill="#FEFFFF" transform="matrix(1.00, 0.00, -0.00, -1.00, 940.8, 511.0)"> </text><text xml:space="preserve" font-family="Helvetica-Light" font-size="45.0" fill="#FEFFFF" transform="matrix(1.00, 0.00, -0.00, -1.00, 953.3, 511.0)">a</text><text xml:space="preserve" font-family="Helvetica-Light" font-size="45.0" fill="#FEFFFF" transform="matrix(1.00, 0.00, -0.00, -1.00, 978.3, 511.0)"> </text><text xml:space="preserve" font-family="Helvetica-Light" font-size="45.0" fill="#FEFFFF" transform="matrix(1.00, 0.00, -0.00, -1.00, 990.8, 511.0)">c</text><text xml:space="preserve" font-family="Helvetica-Light" font-size="45.0" fill="#FEFFFF" transform="matrix(1.00, 0.00, -0.00, -1.00, 1015.8, 511.0)">o</text><text xml:space="preserve" font-family="Helvetica-Light" font-size="45.0" fill="#FEFFFF" transform="matrix(1.00, 0.00, -0.00, -1.00, 1040.8, 511.0)">n</text><text xml:space="preserve" font-family="Helvetica-Light" font-size="45.0" fill="#FEFFFF" transform="matrix(1.00, 0.00, -0.00, -1.00, 1065.8, 511.0)">s</text><text xml:space="preserve" font-family="Helvetica-Light" font-size="45.0" fill="#FEFFFF" transform="matrix(1.00, 0.00, -0.00, -1.00, 1088.3, 511.0)">e</text><text xml:space="preserve" font-family="Helvetica-Light" font-size="45.0" fill="#FEFFFF" transform="matrix(1.00, 0.00, -0.00, -1.00, 1113.4, 511.0)">q</text><text xml:space="preserve" font-family="Helvetica-Light" font-size="45.0" fill="#FEFFFF" transform="matrix(1.00, 0.00, -0.00, -1.00, 1140.9, 511.0)">u</text><text xml:space="preserve" font-family="Helvetica-Light" font-size="45.0" fill="#FEFFFF" transform="matrix(1.00, 0.00, -0.00, -1.00, 1165.9, 511.0)">e</text><text xml:space="preserve" font-family="Helvetica-Light" font-size="45.0" fill="#FEFFFF" transform="matrix(1.00, 0.00, -0.00, -1.00, 1190.9, 511.0)">n</text><text xml:space="preserve" font-family="Helvetica-Light" font-size="45.0" fill="#FEFFFF" transform="matrix(1.00, 0.00, -0.00, -1.00, 1215.9, 511.0)">c</text><text xml:space="preserve" font-family="Helvetica-Light" font-size="45.0" fill="#FEFFFF" transform="matrix(1.00, 0.00, -0.00, -1.00, 1240.9, 511.0)">e</text><text xml:space="preserve" font-family="Helvetica-Light" font-size="45.0" fill="#FEFFFF" transform="matrix(1.00, 0.00, -0.00, -1.00, 1266.0, 511.0)"> </text><text xml:space="preserve" font-family="Helvetica-Light" font-size="45.0" fill="#FEFFFF" transform="matrix(1.00, 0.00, -0.00, -1.00, 1278.5, 511.0)">s</text><text xml:space="preserve" font-family="Helvetica-Light" font-size="45.0" fill="#FEFFFF" transform="matrix(1.00, 0.00, -0.00, -1.00, 1301.0, 511.0)">u</text><text xml:space="preserve" font-family="Helvetica-Light" font-size="45.0" fill="#FEFFFF" transform="matrix(1.00, 0.00, -0.00, -1.00, 1326.0, 511.0)">f</text><text xml:space="preserve" font-family="Helvetica-Light" font-size="45.0" fill="#FEFFFF" transform="matrix(1.00, 0.00, -0.00, -1.00, 1337.7, 511.0)">f</text><text xml:space="preserve" font-family="Helvetica-Light" font-size="45.0" fill="#FEFFFF" transform="matrix(1.00, 0.00, -0.00, -1.00, 1350.2, 511.0)">e</text><text xml:space="preserve" font-family="Helvetica-Light" font-size="45.0" fill="#FEFFFF" transform="matrix(1.00, 0.00, -0.00, -1.00, 1375.2, 511.0)">r</text><text xml:space="preserve" font-family="Helvetica-Light" font-size="45.0" fill="#FEFFFF" transform="matrix(1.00, 0.00, -0.00, -1.00, 1390.2, 511.0)"> </text><text xml:space="preserve" font-family="Helvetica-Light" font-size="45.0" fill="#FEFFFF" transform="matrix(1.00, 0.00, -0.00, -1.00, 1402.7, 511.0)">f</text><text xml:space="preserve" font-family="Helvetica-Light" font-size="45.0" fill="#FEFFFF" transform="matrix(1.00, 0.00, -0.00, -1.00, 1415.2, 511.0)">r</text><text xml:space="preserve" font-family="Helvetica-Light" font-size="45.0" fill="#FEFFFF" transform="matrix(1.00, 0.00, -0.00, -1.00, 1429.4, 511.0)">o</text><text xml:space="preserve" font-family="Helvetica-Light" font-size="45.0" fill="#FEFFFF" transform="matrix(1.00, 0.00, -0.00, -1.00, 1454.4, 511.0)">m</text><text xml:space="preserve" font-family="Helvetica-Light" font-size="45.0" fill="#FEFFFF" transform="matrix(1.00, 0.00, -0.00, -1.00, 1491.9, 511.0)"> </text><text xml:space="preserve" font-family="Helvetica-Light" font-size="45.0" fill="#FEFFFF" transform="matrix(1.00, 0.00, -0.00, -1.00, 538.0, 457.0)">i</text><text xml:space="preserve" font-family="Helvetica-Light" font-size="45.0" fill="#FEFFFF" transform="matrix(1.00, 0.00, -0.00, -1.00, 548.0, 457.0)">n</text><text xml:space="preserve" font-family="Helvetica-Light" font-size="45.0" fill="#FEFFFF" transform="matrix(1.00, 0.00, -0.00, -1.00, 573.0, 457.0)">c</text><text xml:space="preserve" font-family="Helvetica-Light" font-size="45.0" fill="#FEFFFF" transform="matrix(1.00, 0.00, -0.00, -1.00, 598.0, 457.0)">o</text><text xml:space="preserve" font-family="Helvetica-Light" font-size="45.0" fill="#FEFFFF" transform="matrix(1.00, 0.00, -0.00, -1.00, 623.0, 457.0)">n</text><text xml:space="preserve" font-family="Helvetica-Light" font-size="45.0" fill="#FEFFFF" transform="matrix(1.00, 0.00, -0.00, -1.00, 648.1, 457.0)">s</text><text xml:space="preserve" font-family="Helvetica-Light" font-size="45.0" fill="#FEFFFF" transform="matrix(1.00, 0.00, -0.00, -1.00, 670.6, 457.0)">i</text><text xml:space="preserve" font-family="Helvetica-Light" font-size="45.0" fill="#FEFFFF" transform="matrix(1.00, 0.00, -0.00, -1.00, 680.6, 457.0)">s</text><text xml:space="preserve" font-family="Helvetica-Light" font-size="45.0" fill="#FEFFFF" transform="matrix(1.00, 0.00, -0.00, -1.00, 703.1, 457.0)">t</text><text xml:space="preserve" font-family="Helvetica-Light" font-size="45.0" fill="#FEFFFF" transform="matrix(1.00, 0.00, -0.00, -1.00, 715.6, 457.0)">e</text><text xml:space="preserve" font-family="Helvetica-Light" font-size="45.0" fill="#FEFFFF" transform="matrix(1.00, 0.00, -0.00, -1.00, 740.6, 457.0)">n</text><text xml:space="preserve" font-family="Helvetica-Light" font-size="45.0" fill="#FEFFFF" transform="matrix(1.00, 0.00, -0.00, -1.00, 765.6, 457.0)">t</text><text xml:space="preserve" font-family="Helvetica-Light" font-size="45.0" fill="#FEFFFF" transform="matrix(1.00, 0.00, -0.00, -1.00, 778.1, 457.0)"> </text><text xml:space="preserve" font-family="Helvetica-Light" font-size="45.0" fill="#FEFFFF" transform="matrix(1.00, 0.00, -0.00, -1.00, 790.6, 457.0)">p</text><text xml:space="preserve" font-family="Helvetica-Light" font-size="45.0" fill="#FEFFFF" transform="matrix(1.00, 0.00, -0.00, -1.00, 818.1, 457.0)">r</text><text xml:space="preserve" font-family="Helvetica-Light" font-size="45.0" fill="#FEFFFF" transform="matrix(1.00, 0.00, -0.00, -1.00, 832.3, 457.0)">o</text><text xml:space="preserve" font-family="Helvetica-Light" font-size="45.0" fill="#FEFFFF" transform="matrix(1.00, 0.00, -0.00, -1.00, 857.3, 457.0)">f</text><text xml:space="preserve" font-family="Helvetica-Light" font-size="45.0" fill="#FEFFFF" transform="matrix(1.00, 0.00, -0.00, -1.00, 869.8, 457.0)">e</text><text xml:space="preserve" font-family="Helvetica-Light" font-size="45.0" fill="#FEFFFF" transform="matrix(1.00, 0.00, -0.00, -1.00, 894.8, 457.0)">s</text><text xml:space="preserve" font-family="Helvetica-Light" font-size="45.0" fill="#FEFFFF" transform="matrix(1.00, 0.00, -0.00, -1.00, 917.3, 457.0)">s</text><text xml:space="preserve" font-family="Helvetica-Light" font-size="45.0" fill="#FEFFFF" transform="matrix(1.00, 0.00, -0.00, -1.00, 939.8, 457.0)">i</text><text xml:space="preserve" font-family="Helvetica-Light" font-size="45.0" fill="#FEFFFF" transform="matrix(1.00, 0.00, -0.00, -1.00, 949.8, 457.0)">o</text><text xml:space="preserve" font-family="Helvetica-Light" font-size="45.0" fill="#FEFFFF" transform="matrix(1.00, 0.00, -0.00, -1.00, 974.9, 457.0)">n</text><text xml:space="preserve" font-family="Helvetica-Light" font-size="45.0" fill="#FEFFFF" transform="matrix(1.00, 0.00, -0.00, -1.00, 999.9, 457.0)">a</text><text xml:space="preserve" font-family="Helvetica-Light" font-size="45.0" fill="#FEFFFF" transform="matrix(1.00, 0.00, -0.00, -1.00, 1024.9, 457.0)">l</text><text xml:space="preserve" font-family="Helvetica-Light" font-size="45.0" fill="#FEFFFF" transform="matrix(1.00, 0.00, -0.00, -1.00, 1034.9, 457.0)">i</text><text xml:space="preserve" font-family="Helvetica-Light" font-size="45.0" fill="#FEFFFF" transform="matrix(1.00, 0.00, -0.00, -1.00, 1044.9, 457.0)">s</text><text xml:space="preserve" font-family="Helvetica-Light" font-size="45.0" fill="#FEFFFF" transform="matrix(1.00, 0.00, -0.00, -1.00, 1067.4, 457.0)">m</text><text xml:space="preserve" font-family="Helvetica-Light" font-size="45.0" fill="#FEFFFF" transform="matrix(1.00, 0.00, -0.00, -1.00, 1104.9, 457.0)">.</text><text xml:space="preserve" font-family="Helvetica-Light" font-size="45.0" fill="#FEFFFF" transform="matrix(1.00, 0.00, -0.00, -1.00, 1117.4, 457.0)"> </text></g></svg>