<?xml version="1.0" encoding="UTF-8" standalone="no"?><svg xmlns="http://www.w3.org/2000/svg" xmlns:xlink="http://www.w3.org/1999/xlink" clip-rule="evenodd" stroke-miterlimit="4.00" viewBox="0 0 1920 1080"><desc>SVG generated by Keynote</desc><defs></defs><g transform="matrix(1.00, 0.00, -0.00, -1.00, 0.0, 1080.0)"><path d="M 0.0 1080.0 L 1920.0 1080.0 L 1920.0 0.0 L 0.0 0.0 Z M 0.0 1080.0 " fill="#FEFFFF"></path><g><clipPath id="clip-52"><path d="M 50.0 52.0 L 154.0 52.0 L 154.0 -1.0 L 50.0 -1.0 Z M 50.4 52.4 "></path></clipPath><g clip-path="url(#clip-52)"><image xlink:href="../../4F9A92A2-2DC6-4691-97F8-9F75BE53396F/assets/B22C448CED7C82A0C99889D0AD879A76.png" width="104.00" height="104.00" transform="matrix(1.00, 0.00, -0.00, -0.99, 50.0, 77.0)"></image></g></g><text xml:space="preserve" font-family="OpenSans-Bold" font-weight="bold" font-size="30.0" fill="#A6AAA8" transform="matrix(1.00, 0.00, -0.00, -1.00, 54.0, 1014.0)">C</text><text xml:space="preserve" font-family="OpenSans-Bold" font-weight="bold" font-size="30.0" fill="#A6AAA8" transform="matrix(1.00, 0.00, -0.00, -1.00, 72.5, 1014.0)">O</text><text xml:space="preserve" font-family="OpenSans-Bold" font-weight="bold" font-size="30.0" fill="#A6AAA8" transform="matrix(1.00, 0.00, -0.00, -1.00, 96.4, 1014.0)">M</text><text xml:space="preserve" font-family="OpenSans-Bold" font-weight="bold" font-size="30.0" fill="#A6AAA8" transform="matrix(1.00, 0.00, -0.00, -1.00, 124.7, 1014.0)">P</text><text xml:space="preserve" font-family="OpenSans-Bold" font-weight="bold" font-size="30.0" fill="#A6AAA8" transform="matrix(1.00, 0.00, -0.00, -1.00, 143.5, 1014.0)">E</text><text xml:space="preserve" font-family="OpenSans-Bold" font-weight="bold" font-size="30.0" fill="#A6AAA8" transform="matrix(1.00, 0.00, -0.00, -1.00, 160.3, 1014.0)">T</text><text xml:space="preserve" font-family="OpenSans-Bold" font-weight="bold" font-size="30.0" fill="#A6AAA8" transform="matrix(1.00, 0.00, -0.00, -1.00, 177.7, 1014.0)">I</text><text xml:space="preserve" font-family="OpenSans-Bold" font-weight="bold" font-size="30.0" fill="#A6AAA8" transform="matrix(1.00, 0.00, -0.00, -1.00, 187.7, 1014.0)">T</text><text xml:space="preserve" font-family="OpenSans-Bold" font-weight="bold" font-size="30.0" fill="#A6AAA8" transform="matrix(1.00, 0.00, -0.00, -1.00, 205.0, 1014.0)">I</text><text xml:space="preserve" font-family="OpenSans-Bold" font-weight="bold" font-size="30.0" fill="#A6AAA8" transform="matrix(1.00, 0.00, -0.00, -1.00, 215.0, 1014.0)">O</text><text xml:space="preserve" font-family="OpenSans-Bold" font-weight="bold" font-size="30.0" fill="#A6AAA8" transform="matrix(1.00, 0.00, -0.00, -1.00, 238.9, 1014.0)">N</text><image xlink:href="../../9D25FE56-D892-44A2-9973-CF3DE8FE4593/assets/25C77F11E4BE2A4E7911AF786B224A80.jpeg" width="222.00" height="222.00" transform="matrix(1.39, 0.00, -0.00, -1.39, 3.0, 952.0)"></image><image xlink:href="../../9D25FE56-D892-44A2-9973-CF3DE8FE4593/assets/0047D30584F7C1607702D0F49C6EBA84.png" width="440.00" height="62.00" transform="matrix(1.59, 0.00, -0.00, -1.60, 47.0, 600.0)"></image><image xlink:href="../../9D25FE56-D892-44A2-9973-CF3DE8FE4593/assets/6767E09A0C45A995D9AEC270E36AFD6D.png" width="533.00" height="398.00" transform="matrix(1.00, 0.00, -0.00, -1.00, 289.0, 1041.0)"></image><g><clipPath id="clip-53"><path d="M 51.0 445.0 L 601.0 445.0 L 601.0 285.0 L 51.0 285.0 Z M 50.9 444.7 "></path></clipPath><g clip-path="url(#clip-53)"><image xlink:href="../../9D25FE56-D892-44A2-9973-CF3DE8FE4593/assets/4042FFE42CB455D9EE2CACB99D0A192D.png" width="550.00" height="160.00" transform="matrix(1.00, 0.00, -0.00, -1.00, 25.0, 445.0)"></image></g></g><image xlink:href="../../9D25FE56-D892-44A2-9973-CF3DE8FE4593/assets/D4CE320EC7D4A4EA253281E76BC30BFF.png" width="331.00" height="71.00" transform="matrix(2.04, 0.00, -0.00, -2.04, 42.0, 248.0)"></image><image xlink:href="../../9D25FE56-D892-44A2-9973-CF3DE8FE4593/assets/0C9D299FDC22B11EEACAB17FBEF7D962.png" width="541.00" height="541.00" transform="matrix(2.15, 0.00, -0.00, -2.15, 821.0, 1074.0)"></image><path d="M 0.0 0.0 L 848.7 0.0 " fill="none" stroke="#DCDDE0" stroke-width="3.00" transform="matrix(0.00, -1.00, -1.00, 0.00, 840.2, 948.6)"></path><text xml:space="preserve" font-family="OpenSans-Light" font-size="45.0" fill="#FEFFFE" transform="matrix(1.00, 0.00, -0.00, -1.00, 1283.0, 794.0)">E</text><text xml:space="preserve" font-family="OpenSans-Light" font-size="45.0" fill="#FEFFFE" transform="matrix(1.00, 0.00, -0.00, -1.00, 1307.8, 794.0)">m</text><text xml:space="preserve" font-family="OpenSans-Light" font-size="45.0" fill="#FEFFFE" transform="matrix(1.00, 0.00, -0.00, -1.00, 1347.5, 794.0)">b</text><text xml:space="preserve" font-family="OpenSans-Light" font-size="45.0" fill="#FEFFFE" transform="matrix(1.00, 0.00, -0.00, -1.00, 1374.3, 794.0)">e</text><text xml:space="preserve" font-family="OpenSans-Light" font-size="45.0" fill="#FEFFFE" transform="matrix(1.00, 0.00, -0.00, -1.00, 1399.0, 794.0)">d</text><text xml:space="preserve" font-family="OpenSans-Light" font-size="45.0" fill="#FEFFFE" transform="matrix(1.00, 0.00, -0.00, -1.00, 1425.8, 794.0)">d</text><text xml:space="preserve" font-family="OpenSans-Light" font-size="45.0" fill="#FEFFFE" transform="matrix(1.00, 0.00, -0.00, -1.00, 1452.6, 794.0)">i</text><text xml:space="preserve" font-family="OpenSans-Light" font-size="45.0" fill="#FEFFFE" transform="matrix(1.00, 0.00, -0.00, -1.00, 1462.7, 794.0)">n</text><text xml:space="preserve" font-family="OpenSans-Light" font-size="45.0" fill="#FEFFFE" transform="matrix(1.00, 0.00, -0.00, -1.00, 1489.3, 794.0)">g</text><text xml:space="preserve" font-family="OpenSans-Light" font-size="45.0" fill="#FEFFFE" transform="matrix(1.00, 0.00, -0.00, -1.00, 1512.8, 794.0)"> </text><g><clipPath id="clip-54"><path d="M 1267.9 722.3 L 1623.6 722.3 L 1623.6 841.3 L 1267.9 841.3 Z M 1267.9 722.3 "></path></clipPath><g clip-path="url(#clip-54)"><text xml:space="preserve" font-family="OpenSans-Light" font-size="45.0" fill="#FEFFFE" transform="matrix(1.00, 0.00, -0.00, -1.00, 1283.0, 733.0)">i</text><text xml:space="preserve" font-family="OpenSans-Light" font-size="45.0" fill="#FEFFFE" transform="matrix(1.00, 0.00, -0.00, -1.00, 1293.2, 733.0)">n</text><text xml:space="preserve" font-family="OpenSans-Light" font-size="45.0" fill="#FEFFFE" transform="matrix(1.00, 0.00, -0.00, -1.00, 1319.7, 733.0)"> </text><text xml:space="preserve" font-family="OpenSans-Light" font-size="45.0" fill="#FEFFFE" transform="matrix(1.00, 0.00, -0.00, -1.00, 1331.4, 733.0)">w</text><text xml:space="preserve" font-family="OpenSans-Light" font-size="45.0" fill="#FEFFFE" transform="matrix(1.00, 0.00, -0.00, -1.00, 1364.0, 733.0)">o</text><text xml:space="preserve" font-family="OpenSans-Light" font-size="45.0" fill="#FEFFFE" transform="matrix(1.00, 0.00, -0.00, -1.00, 1390.3, 733.0)">r</text><text xml:space="preserve" font-family="OpenSans-Light" font-size="45.0" fill="#FEFFFE" transform="matrix(1.00, 0.00, -0.00, -1.00, 1407.9, 733.0)">k</text><text xml:space="preserve" font-family="OpenSans-Light" font-size="45.0" fill="#FEFFFE" transform="matrix(1.00, 0.00, -0.00, -1.00, 1429.6, 733.0)">s</text><text xml:space="preserve" font-family="OpenSans-Light" font-size="45.0" fill="#FEFFFE" transform="matrix(1.00, 0.00, -0.00, -1.00, 1450.6, 733.0)">p</text><text xml:space="preserve" font-family="OpenSans-Light" font-size="45.0" fill="#FEFFFE" transform="matrix(1.00, 0.00, -0.00, -1.00, 1477.4, 733.0)">a</text><text xml:space="preserve" font-family="OpenSans-Light" font-size="45.0" fill="#FEFFFE" transform="matrix(1.00, 0.00, -0.00, -1.00, 1501.2, 733.0)">c</text><text xml:space="preserve" font-family="OpenSans-Light" font-size="45.0" fill="#FEFFFE" transform="matrix(1.00, 0.00, -0.00, -1.00, 1522.6, 733.0)">e</text></g></g><text xml:space="preserve" font-family="OpenSans-Light" font-size="45.0" fill="#FEFFFE" transform="matrix(1.00, 0.00, -0.00, -1.00, 1059.0, 389.0)">D</text><text xml:space="preserve" font-family="OpenSans-Light" font-size="45.0" fill="#FEFFFE" transform="matrix(1.00, 0.00, -0.00, -1.00, 1090.8, 389.0)">e</text><text xml:space="preserve" font-family="OpenSans-Light" font-size="45.0" fill="#FEFFFE" transform="matrix(1.00, 0.00, -0.00, -1.00, 1115.5, 389.0)">s</text><text xml:space="preserve" font-family="OpenSans-Light" font-size="45.0" fill="#FEFFFE" transform="matrix(1.00, 0.00, -0.00, -1.00, 1136.4, 389.0)">i</text><text xml:space="preserve" font-family="OpenSans-Light" font-size="45.0" fill="#FEFFFE" transform="matrix(1.00, 0.00, -0.00, -1.00, 1146.6, 389.0)">g</text><text xml:space="preserve" font-family="OpenSans-Light" font-size="45.0" fill="#FEFFFE" transform="matrix(1.00, 0.00, -0.00, -1.00, 1170.2, 389.0)">n</text><text xml:space="preserve" font-family="OpenSans-Light" font-size="45.0" fill="#FEFFFE" transform="matrix(1.00, 0.00, -0.00, -1.00, 1196.7, 389.0)"> </text><text xml:space="preserve" font-family="OpenSans-Light" font-size="45.0" fill="#FEFFFE" transform="matrix(1.00, 0.00, -0.00, -1.00, 1059.0, 328.0)">S</text><text xml:space="preserve" font-family="OpenSans-Light" font-size="45.0" fill="#FEFFFE" transform="matrix(1.00, 0.00, -0.00, -1.00, 1083.5, 328.0)">e</text><text xml:space="preserve" font-family="OpenSans-Light" font-size="45.0" fill="#FEFFFE" transform="matrix(1.00, 0.00, -0.00, -1.00, 1108.2, 328.0)">r</text><text xml:space="preserve" font-family="OpenSans-Light" font-size="45.0" fill="#FEFFFE" transform="matrix(1.00, 0.00, -0.00, -1.00, 1125.7, 328.0)">v</text><text xml:space="preserve" font-family="OpenSans-Light" font-size="45.0" fill="#FEFFFE" transform="matrix(1.00, 0.00, -0.00, -1.00, 1146.4, 328.0)">i</text><text xml:space="preserve" font-family="OpenSans-Light" font-size="45.0" fill="#FEFFFE" transform="matrix(1.00, 0.00, -0.00, -1.00, 1156.6, 328.0)">c</text><text xml:space="preserve" font-family="OpenSans-Light" font-size="45.0" fill="#FEFFFE" transform="matrix(1.00, 0.00, -0.00, -1.00, 1177.9, 328.0)">e</text><text xml:space="preserve" font-family="OpenSans-Light" font-size="45.0" fill="#FEFFFE" transform="matrix(1.00, 0.00, -0.00, -1.00, 1202.6, 328.0)"> </text><text xml:space="preserve" font-family="OpenSans-Light" font-size="45.0" fill="#FEFFFE" transform="matrix(1.00, 0.00, -0.00, -1.00, 1214.3, 328.0)">+</text><text xml:space="preserve" font-family="OpenSans-Light" font-size="45.0" fill="#FEFFFE" transform="matrix(1.00, 0.00, -0.00, -1.00, 1240.0, 328.0)"> </text><text xml:space="preserve" font-family="OpenSans-Light" font-size="45.0" fill="#FEFFFE" transform="matrix(1.00, 0.00, -0.00, -1.00, 1059.0, 267.0)">P</text><text xml:space="preserve" font-family="OpenSans-Light" font-size="45.0" fill="#FEFFFE" transform="matrix(1.00, 0.00, -0.00, -1.00, 1085.3, 267.0)">r</text><text xml:space="preserve" font-family="OpenSans-Light" font-size="45.0" fill="#FEFFFE" transform="matrix(1.00, 0.00, -0.00, -1.00, 1101.9, 267.0)">o</text><text xml:space="preserve" font-family="OpenSans-Light" font-size="45.0" fill="#FEFFFE" transform="matrix(1.00, 0.00, -0.00, -1.00, 1128.3, 267.0)">d</text><text xml:space="preserve" font-family="OpenSans-Light" font-size="45.0" fill="#FEFFFE" transform="matrix(1.00, 0.00, -0.00, -1.00, 1155.1, 267.0)">u</text><text xml:space="preserve" font-family="OpenSans-Light" font-size="45.0" fill="#FEFFFE" transform="matrix(1.00, 0.00, -0.00, -1.00, 1181.6, 267.0)">c</text><text xml:space="preserve" font-family="OpenSans-Light" font-size="45.0" fill="#FEFFFE" transform="matrix(1.00, 0.00, -0.00, -1.00, 1203.0, 267.0)">t</text><text xml:space="preserve" font-family="OpenSans-Light" font-size="45.0" fill="#FEFFFE" transform="matrix(1.00, 0.00, -0.00, -1.00, 1218.1, 267.0)">s</text><text xml:space="preserve" font-family="OpenSans-Light" font-size="45.0" fill="#FEFFFE" transform="matrix(1.00, 0.00, -0.00, -1.00, 1239.0, 267.0)"> </text><text xml:space="preserve" font-family="OpenSans-Light" font-size="45.0" fill="#FEFFFE" transform="matrix(1.00, 0.00, -0.00, -1.00, 1586.0, 389.0)">D</text><text xml:space="preserve" font-family="OpenSans-Light" font-size="45.0" fill="#FEFFFE" transform="matrix(1.00, 0.00, -0.00, -1.00, 1617.8, 389.0)">e</text><text xml:space="preserve" font-family="OpenSans-Light" font-size="45.0" fill="#FEFFFE" transform="matrix(1.00, 0.00, -0.00, -1.00, 1642.5, 389.0)">s</text><text xml:space="preserve" font-family="OpenSans-Light" font-size="45.0" fill="#FEFFFE" transform="matrix(1.00, 0.00, -0.00, -1.00, 1663.4, 389.0)">i</text><text xml:space="preserve" font-family="OpenSans-Light" font-size="45.0" fill="#FEFFFE" transform="matrix(1.00, 0.00, -0.00, -1.00, 1673.6, 389.0)">g</text><text xml:space="preserve" font-family="OpenSans-Light" font-size="45.0" fill="#FEFFFE" transform="matrix(1.00, 0.00, -0.00, -1.00, 1697.2, 389.0)">n</text><text xml:space="preserve" font-family="OpenSans-Light" font-size="45.0" fill="#FEFFFE" transform="matrix(1.00, 0.00, -0.00, -1.00, 1723.7, 389.0)"> </text><text xml:space="preserve" font-family="OpenSans-Light" font-size="45.0" fill="#FEFFFE" transform="matrix(1.00, 0.00, -0.00, -1.00, 1586.0, 328.0)">f</text><text xml:space="preserve" font-family="OpenSans-Light" font-size="45.0" fill="#FEFFFE" transform="matrix(1.00, 0.00, -0.00, -1.00, 1599.5, 328.0)">o</text><text xml:space="preserve" font-family="OpenSans-Light" font-size="45.0" fill="#FEFFFE" transform="matrix(1.00, 0.00, -0.00, -1.00, 1625.8, 328.0)">r</text><text xml:space="preserve" font-family="OpenSans-Light" font-size="45.0" fill="#FEFFFE" transform="matrix(1.00, 0.00, -0.00, -1.00, 1643.3, 328.0)"> </text><text xml:space="preserve" font-family="OpenSans-Light" font-size="45.0" fill="#FEFFFE" transform="matrix(1.00, 0.00, -0.00, -1.00, 1586.0, 267.0)">S</text><text xml:space="preserve" font-family="OpenSans-Light" font-size="45.0" fill="#FEFFFE" transform="matrix(1.00, 0.00, -0.00, -1.00, 1610.5, 267.0)">t</text><text xml:space="preserve" font-family="OpenSans-Light" font-size="45.0" fill="#FEFFFE" transform="matrix(1.00, 0.00, -0.00, -1.00, 1625.6, 267.0)">a</text><text xml:space="preserve" font-family="OpenSans-Light" font-size="45.0" fill="#FEFFFE" transform="matrix(1.00, 0.00, -0.00, -1.00, 1649.4, 267.0)">r</text><text xml:space="preserve" font-family="OpenSans-Light" font-size="45.0" fill="#FEFFFE" transform="matrix(1.00, 0.00, -0.00, -1.00, 1666.9, 267.0)">t</text><text xml:space="preserve" font-family="OpenSans-Light" font-size="45.0" fill="#FEFFFE" transform="matrix(1.00, 0.00, -0.00, -1.00, 1682.0, 267.0)">u</text><text xml:space="preserve" font-family="OpenSans-Light" font-size="45.0" fill="#FEFFFE" transform="matrix(1.00, 0.00, -0.00, -1.00, 1708.5, 267.0)">p</text><text xml:space="preserve" font-family="OpenSans-Light" font-size="45.0" fill="#FEFFFE" transform="matrix(1.00, 0.00, -0.00, -1.00, 1735.3, 267.0)">s</text><text xml:space="preserve" font-family="OpenSans-Light" font-size="45.0" fill="#FEFFFE" transform="matrix(1.00, 0.00, -0.00, -1.00, 1343.0, 453.0)">V</text><text xml:space="preserve" font-family="OpenSans-Light" font-size="45.0" fill="#FEFFFE" transform="matrix(1.00, 0.00, -0.00, -1.00, 1368.1, 453.0)">o</text><text xml:space="preserve" font-family="OpenSans-Light" font-size="45.0" fill="#FEFFFE" transform="matrix(1.00, 0.00, -0.00, -1.00, 1393.5, 453.0)">x</text><text xml:space="preserve" font-family="OpenSans-Light" font-size="45.0" fill="#FEFFFE" transform="matrix(1.00, 0.00, -0.00, -1.00, 1416.0, 453.0)">u</text><text xml:space="preserve" font-family="OpenSans-Light" font-size="45.0" fill="#FEFFFE" transform="matrix(1.00, 0.00, -0.00, -1.00, 1442.5, 453.0)">m</text></g></svg>