<svg xmlns="http://www.w3.org/2000/svg" xmlns:xlink="http://www.w3.org/1999/xlink" stroke-miterlimit="4" clip-rule="evenodd" viewBox="0 0 1920 1080"><desc>SVG generated by Keynote</desc><g transform="matrix(1.00, 0.00, -0.00, -1.00, 0.0, 1080.0)"><path fill="#FEFFFF" d="M 0.0 1080.0 L 1920.0 1080.0 L 1920.0 0.0 L 0.0 0.0 Z M 0.0 1080.0"/><g><clipPath id="clip-52"><path d="M 50.0 52.0 L 154.0 52.0 L 154.0 -1.0 L 50.0 -1.0 Z M 50.4 52.4"/></clipPath><g clip-path="url(#clip-52)"><image width="104" height="104" transform="matrix(1.00, 0.00, -0.00, -0.99, 50.0, 77.0)" xlink:href="../../4F9A92A2-2DC6-4691-97F8-9F75BE53396F/assets/B22C448CED7C82A0C99889D0AD879A76.png"/></g></g><text fill="#A6AAA8" font-family="OpenSans-Bold" font-size="30" font-weight="bold" transform="matrix(1.00, 0.00, -0.00, -1.00, 54.0, 1014.0)" xml:space="preserve">C</text><text fill="#A6AAA8" font-family="OpenSans-Bold" font-size="30" font-weight="bold" transform="matrix(1.00, 0.00, -0.00, -1.00, 72.5, 1014.0)" xml:space="preserve">O</text><text fill="#A6AAA8" font-family="OpenSans-Bold" font-size="30" font-weight="bold" transform="matrix(1.00, 0.00, -0.00, -1.00, 96.4, 1014.0)" xml:space="preserve">M</text><text fill="#A6AAA8" font-family="OpenSans-Bold" font-size="30" font-weight="bold" transform="matrix(1.00, 0.00, -0.00, -1.00, 124.7, 1014.0)" xml:space="preserve">P</text><text fill="#A6AAA8" font-family="OpenSans-Bold" font-size="30" font-weight="bold" transform="matrix(1.00, 0.00, -0.00, -1.00, 143.5, 1014.0)" xml:space="preserve">E</text><text fill="#A6AAA8" font-family="OpenSans-Bold" font-size="30" font-weight="bold" transform="matrix(1.00, 0.00, -0.00, -1.00, 160.3, 1014.0)" xml:space="preserve">T</text><text fill="#A6AAA8" font-family="OpenSans-Bold" font-size="30" font-weight="bold" transform="matrix(1.00, 0.00, -0.00, -1.00, 177.7, 1014.0)" xml:space="preserve">I</text><text fill="#A6AAA8" font-family="OpenSans-Bold" font-size="30" font-weight="bold" transform="matrix(1.00, 0.00, -0.00, -1.00, 187.7, 1014.0)" xml:space="preserve">T</text><text fill="#A6AAA8" font-family="OpenSans-Bold" font-size="30" font-weight="bold" transform="matrix(1.00, 0.00, -0.00, -1.00, 205.0, 1014.0)" xml:space="preserve">I</text><text fill="#A6AAA8" font-family="OpenSans-Bold" font-size="30" font-weight="bold" transform="matrix(1.00, 0.00, -0.00, -1.00, 215.0, 1014.0)" xml:space="preserve">O</text><text fill="#A6AAA8" font-family="OpenSans-Bold" font-size="30" font-weight="bold" transform="matrix(1.00, 0.00, -0.00, -1.00, 238.9, 1014.0)" xml:space="preserve">N</text><image width="222" height="222" transform="matrix(1.39, 0.00, -0.00, -1.39, 3.0, 952.0)" xlink:href="../../9D25FE56-D892-44A2-9973-CF3DE8FE4593/assets/25C77F11E4BE2A4E7911AF786B224A80.jpeg"/><image width="440" height="62" transform="matrix(1.59, 0.00, -0.00, -1.60, 47.0, 600.0)" xlink:href="../../9D25FE56-D892-44A2-9973-CF3DE8FE4593/assets/0047D30584F7C1607702D0F49C6EBA84.png"/><image width="533" height="398" transform="matrix(1.00, 0.00, -0.00, -1.00, 289.0, 1041.0)" xlink:href="../../9D25FE56-D892-44A2-9973-CF3DE8FE4593/assets/6767E09A0C45A995D9AEC270E36AFD6D.png"/><g><clipPath id="clip-53"><path d="M 51.0 445.0 L 601.0 445.0 L 601.0 285.0 L 51.0 285.0 Z M 50.9 444.7"/></clipPath><g clip-path="url(#clip-53)"><image width="550" height="160" transform="matrix(1.00, 0.00, -0.00, -1.00, 25.0, 445.0)" xlink:href="../../9D25FE56-D892-44A2-9973-CF3DE8FE4593/assets/4042FFE42CB455D9EE2CACB99D0A192D.png"/></g></g><image width="331" height="71" transform="matrix(2.04, 0.00, -0.00, -2.04, 42.0, 248.0)" xlink:href="../../9D25FE56-D892-44A2-9973-CF3DE8FE4593/assets/D4CE320EC7D4A4EA253281E76BC30BFF.png"/><image width="541" height="541" transform="matrix(2.15, 0.00, -0.00, -2.15, 821.0, 1074.0)" xlink:href="../../9D25FE56-D892-44A2-9973-CF3DE8FE4593/assets/0C9D299FDC22B11EEACAB17FBEF7D962.png"/><path fill="none" stroke="#DCDDE0" stroke-width="3" d="M 0.0 0.0 L 848.7 0.0" transform="matrix(0.00, -1.00, -1.00, 0.00, 840.2, 948.6)"/><text fill="#FEFFFE" font-family="OpenSans-Light" font-size="45" transform="matrix(1.00, 0.00, -0.00, -1.00, 1283.0, 794.0)" xml:space="preserve">E</text><text fill="#FEFFFE" font-family="OpenSans-Light" font-size="45" transform="matrix(1.00, 0.00, -0.00, -1.00, 1307.8, 794.0)" xml:space="preserve">m</text><text fill="#FEFFFE" font-family="OpenSans-Light" font-size="45" transform="matrix(1.00, 0.00, -0.00, -1.00, 1347.5, 794.0)" xml:space="preserve">b</text><text fill="#FEFFFE" font-family="OpenSans-Light" font-size="45" transform="matrix(1.00, 0.00, -0.00, -1.00, 1374.3, 794.0)" xml:space="preserve">e</text><text fill="#FEFFFE" font-family="OpenSans-Light" font-size="45" transform="matrix(1.00, 0.00, -0.00, -1.00, 1399.0, 794.0)" xml:space="preserve">d</text><text fill="#FEFFFE" font-family="OpenSans-Light" font-size="45" transform="matrix(1.00, 0.00, -0.00, -1.00, 1425.8, 794.0)" xml:space="preserve">d</text><text fill="#FEFFFE" font-family="OpenSans-Light" font-size="45" transform="matrix(1.00, 0.00, -0.00, -1.00, 1452.6, 794.0)" xml:space="preserve">i</text><text fill="#FEFFFE" font-family="OpenSans-Light" font-size="45" transform="matrix(1.00, 0.00, -0.00, -1.00, 1462.7, 794.0)" xml:space="preserve">n</text><text fill="#FEFFFE" font-family="OpenSans-Light" font-size="45" transform="matrix(1.00, 0.00, -0.00, -1.00, 1489.3, 794.0)" xml:space="preserve">g</text><g><clipPath id="clip-54"><path d="M 1267.9 722.3 L 1623.6 722.3 L 1623.6 841.3 L 1267.9 841.3 Z M 1267.9 722.3"/></clipPath><g clip-path="url(#clip-54)"><text fill="#FEFFFE" font-family="OpenSans-Light" font-size="45" transform="matrix(1.00, 0.00, -0.00, -1.00, 1283.0, 733.0)" xml:space="preserve">i</text><text fill="#FEFFFE" font-family="OpenSans-Light" font-size="45" transform="matrix(1.00, 0.00, -0.00, -1.00, 1293.2, 733.0)" xml:space="preserve">n</text><text fill="#FEFFFE" font-family="OpenSans-Light" font-size="45" transform="matrix(1.00, 0.00, -0.00, -1.00, 1331.4, 733.0)" xml:space="preserve">w</text><text fill="#FEFFFE" font-family="OpenSans-Light" font-size="45" transform="matrix(1.00, 0.00, -0.00, -1.00, 1364.0, 733.0)" xml:space="preserve">o</text><text fill="#FEFFFE" font-family="OpenSans-Light" font-size="45" transform="matrix(1.00, 0.00, -0.00, -1.00, 1390.3, 733.0)" xml:space="preserve">r</text><text fill="#FEFFFE" font-family="OpenSans-Light" font-size="45" transform="matrix(1.00, 0.00, -0.00, -1.00, 1407.9, 733.0)" xml:space="preserve">k</text><text fill="#FEFFFE" font-family="OpenSans-Light" font-size="45" transform="matrix(1.00, 0.00, -0.00, -1.00, 1429.6, 733.0)" xml:space="preserve">s</text><text fill="#FEFFFE" font-family="OpenSans-Light" font-size="45" transform="matrix(1.00, 0.00, -0.00, -1.00, 1450.6, 733.0)" xml:space="preserve">p</text><text fill="#FEFFFE" font-family="OpenSans-Light" font-size="45" transform="matrix(1.00, 0.00, -0.00, -1.00, 1477.4, 733.0)" xml:space="preserve">a</text><text fill="#FEFFFE" font-family="OpenSans-Light" font-size="45" transform="matrix(1.00, 0.00, -0.00, -1.00, 1501.2, 733.0)" xml:space="preserve">c</text><text fill="#FEFFFE" font-family="OpenSans-Light" font-size="45" transform="matrix(1.00, 0.00, -0.00, -1.00, 1522.6, 733.0)" xml:space="preserve">e</text></g></g><text fill="#FEFFFE" font-family="OpenSans-Light" font-size="45" transform="matrix(1.00, 0.00, -0.00, -1.00, 1059.0, 389.0)" xml:space="preserve">D</text><text fill="#FEFFFE" font-family="OpenSans-Light" font-size="45" transform="matrix(1.00, 0.00, -0.00, -1.00, 1090.8, 389.0)" xml:space="preserve">e</text><text fill="#FEFFFE" font-family="OpenSans-Light" font-size="45" transform="matrix(1.00, 0.00, -0.00, -1.00, 1115.5, 389.0)" xml:space="preserve">s</text><text fill="#FEFFFE" font-family="OpenSans-Light" font-size="45" transform="matrix(1.00, 0.00, -0.00, -1.00, 1136.4, 389.0)" xml:space="preserve">i</text><text fill="#FEFFFE" font-family="OpenSans-Light" font-size="45" transform="matrix(1.00, 0.00, -0.00, -1.00, 1146.6, 389.0)" xml:space="preserve">g</text><text fill="#FEFFFE" font-family="OpenSans-Light" font-size="45" transform="matrix(1.00, 0.00, -0.00, -1.00, 1170.2, 389.0)" xml:space="preserve">n</text><text fill="#FEFFFE" font-family="OpenSans-Light" font-size="45" transform="matrix(1.00, 0.00, -0.00, -1.00, 1059.0, 328.0)" xml:space="preserve">S</text><text fill="#FEFFFE" font-family="OpenSans-Light" font-size="45" transform="matrix(1.00, 0.00, -0.00, -1.00, 1083.5, 328.0)" xml:space="preserve">e</text><text fill="#FEFFFE" font-family="OpenSans-Light" font-size="45" transform="matrix(1.00, 0.00, -0.00, -1.00, 1108.2, 328.0)" xml:space="preserve">r</text><text fill="#FEFFFE" font-family="OpenSans-Light" font-size="45" transform="matrix(1.00, 0.00, -0.00, -1.00, 1125.7, 328.0)" xml:space="preserve">v</text><text fill="#FEFFFE" font-family="OpenSans-Light" font-size="45" transform="matrix(1.00, 0.00, -0.00, -1.00, 1146.4, 328.0)" xml:space="preserve">i</text><text fill="#FEFFFE" font-family="OpenSans-Light" font-size="45" transform="matrix(1.00, 0.00, -0.00, -1.00, 1156.6, 328.0)" xml:space="preserve">c</text><text fill="#FEFFFE" font-family="OpenSans-Light" font-size="45" transform="matrix(1.00, 0.00, -0.00, -1.00, 1177.9, 328.0)" xml:space="preserve">e</text><text fill="#FEFFFE" font-family="OpenSans-Light" font-size="45" transform="matrix(1.00, 0.00, -0.00, -1.00, 1214.3, 328.0)" xml:space="preserve">+</text><text fill="#FEFFFE" font-family="OpenSans-Light" font-size="45" transform="matrix(1.00, 0.00, -0.00, -1.00, 1059.0, 267.0)" xml:space="preserve">P</text><text fill="#FEFFFE" font-family="OpenSans-Light" font-size="45" transform="matrix(1.00, 0.00, -0.00, -1.00, 1085.3, 267.0)" xml:space="preserve">r</text><text fill="#FEFFFE" font-family="OpenSans-Light" font-size="45" transform="matrix(1.00, 0.00, -0.00, -1.00, 1101.9, 267.0)" xml:space="preserve">o</text><text fill="#FEFFFE" font-family="OpenSans-Light" font-size="45" transform="matrix(1.00, 0.00, -0.00, -1.00, 1128.3, 267.0)" xml:space="preserve">d</text><text fill="#FEFFFE" font-family="OpenSans-Light" font-size="45" transform="matrix(1.00, 0.00, -0.00, -1.00, 1155.1, 267.0)" xml:space="preserve">u</text><text fill="#FEFFFE" font-family="OpenSans-Light" font-size="45" transform="matrix(1.00, 0.00, -0.00, -1.00, 1181.6, 267.0)" xml:space="preserve">c</text><text fill="#FEFFFE" font-family="OpenSans-Light" font-size="45" transform="matrix(1.00, 0.00, -0.00, -1.00, 1203.0, 267.0)" xml:space="preserve">t</text><text fill="#FEFFFE" font-family="OpenSans-Light" font-size="45" transform="matrix(1.00, 0.00, -0.00, -1.00, 1218.1, 267.0)" xml:space="preserve">s</text><text fill="#FEFFFE" font-family="OpenSans-Light" font-size="45" transform="matrix(1.00, 0.00, -0.00, -1.00, 1586.0, 389.0)" xml:space="preserve">D</text><text fill="#FEFFFE" font-family="OpenSans-Light" font-size="45" transform="matrix(1.00, 0.00, -0.00, -1.00, 1617.8, 389.0)" xml:space="preserve">e</text><text fill="#FEFFFE" font-family="OpenSans-Light" font-size="45" transform="matrix(1.00, 0.00, -0.00, -1.00, 1642.5, 389.0)" xml:space="preserve">s</text><text fill="#FEFFFE" font-family="OpenSans-Light" font-size="45" transform="matrix(1.00, 0.00, -0.00, -1.00, 1663.4, 389.0)" xml:space="preserve">i</text><text fill="#FEFFFE" font-family="OpenSans-Light" font-size="45" transform="matrix(1.00, 0.00, -0.00, -1.00, 1673.6, 389.0)" xml:space="preserve">g</text><text fill="#FEFFFE" font-family="OpenSans-Light" font-size="45" transform="matrix(1.00, 0.00, -0.00, -1.00, 1697.2, 389.0)" xml:space="preserve">n</text><text fill="#FEFFFE" font-family="OpenSans-Light" font-size="45" transform="matrix(1.00, 0.00, -0.00, -1.00, 1586.0, 328.0)" xml:space="preserve">f</text><text fill="#FEFFFE" font-family="OpenSans-Light" font-size="45" transform="matrix(1.00, 0.00, -0.00, -1.00, 1599.5, 328.0)" xml:space="preserve">o</text><text fill="#FEFFFE" font-family="OpenSans-Light" font-size="45" transform="matrix(1.00, 0.00, -0.00, -1.00, 1625.8, 328.0)" xml:space="preserve">r</text><text fill="#FEFFFE" font-family="OpenSans-Light" font-size="45" transform="matrix(1.00, 0.00, -0.00, -1.00, 1586.0, 267.0)" xml:space="preserve">S</text><text fill="#FEFFFE" font-family="OpenSans-Light" font-size="45" transform="matrix(1.00, 0.00, -0.00, -1.00, 1610.5, 267.0)" xml:space="preserve">t</text><text fill="#FEFFFE" font-family="OpenSans-Light" font-size="45" transform="matrix(1.00, 0.00, -0.00, -1.00, 1625.6, 267.0)" xml:space="preserve">a</text><text fill="#FEFFFE" font-family="OpenSans-Light" font-size="45" transform="matrix(1.00, 0.00, -0.00, -1.00, 1649.4, 267.0)" xml:space="preserve">r</text><text fill="#FEFFFE" font-family="OpenSans-Light" font-size="45" transform="matrix(1.00, 0.00, -0.00, -1.00, 1666.9, 267.0)" xml:space="preserve">t</text><text fill="#FEFFFE" font-family="OpenSans-Light" font-size="45" transform="matrix(1.00, 0.00, -0.00, -1.00, 1682.0, 267.0)" xml:space="preserve">u</text><text fill="#FEFFFE" font-family="OpenSans-Light" font-size="45" transform="matrix(1.00, 0.00, -0.00, -1.00, 1708.5, 267.0)" xml:space="preserve">p</text><text fill="#FEFFFE" font-family="OpenSans-Light" font-size="45" transform="matrix(1.00, 0.00, -0.00, -1.00, 1735.3, 267.0)" xml:space="preserve">s</text><text fill="#FEFFFE" font-family="OpenSans-Light" font-size="45" transform="matrix(1.00, 0.00, -0.00, -1.00, 1343.0, 453.0)" xml:space="preserve">V</text><text fill="#FEFFFE" font-family="OpenSans-Light" font-size="45" transform="matrix(1.00, 0.00, -0.00, -1.00, 1368.1, 453.0)" xml:space="preserve">o</text><text fill="#FEFFFE" font-family="OpenSans-Light" font-size="45" transform="matrix(1.00, 0.00, -0.00, -1.00, 1393.5, 453.0)" xml:space="preserve">x</text><text fill="#FEFFFE" font-family="OpenSans-Light" font-size="45" transform="matrix(1.00, 0.00, -0.00, -1.00, 1416.0, 453.0)" xml:space="preserve">u</text><text fill="#FEFFFE" font-family="OpenSans-Light" font-size="45" transform="matrix(1.00, 0.00, -0.00, -1.00, 1442.5, 453.0)" xml:space="preserve">m</text></g></svg>