<?xml version="1.0" encoding="UTF-8" standalone="no"?><svg xmlns="http://www.w3.org/2000/svg" xmlns:xlink="http://www.w3.org/1999/xlink" clip-rule="evenodd" stroke-miterlimit="4.00" viewBox="0 0 1920 1080"><desc>SVG generated by Keynote</desc><defs></defs><g transform="matrix(1.00, 0.00, -0.00, -1.00, 0.0, 1080.0)"><path d="M 0.0 1080.0 L 1920.0 1080.0 L 1920.0 0.0 L 0.0 0.0 Z M 0.0 1080.0 " fill="#00D0C0"></path><g opacity="0.70"><g><clipPath id="clip-343"><path d="M 0.0 0.0 L 1920.0 0.0 L 1920.0 1080.0 L 0.0 1080.0 Z M 0.0 0.0 "></path></clipPath><g clip-path="url(#clip-343)"><image xlink:href="../../C88EF4D3-9CCF-4FF7-8E28-E62647D23AEC/assets/6A56D5CB383915A22BCD0C75B63A5671.png" width="961.00" height="530.00" transform="matrix(2.05, 0.00, -0.00, -2.05, -16.0, 1083.0)"></image></g></g></g><text xml:space="preserve" font-family="OpenSans-Light" font-size="250.0" fill="#FEFFFE" transform="matrix(1.00, 0.00, -0.00, -1.00, 54.0, 626.0)">V</text><text xml:space="preserve" font-family="OpenSans-Light" font-size="250.0" fill="#FEFFFE" transform="matrix(1.00, 0.00, -0.00, -1.00, 193.3, 626.0)">a</text><text xml:space="preserve" font-family="OpenSans-Light" font-size="250.0" fill="#FEFFFE" transform="matrix(1.00, 0.00, -0.00, -1.00, 325.7, 626.0)">l</text><text xml:space="preserve" font-family="OpenSans-Light" font-size="250.0" fill="#FEFFFE" transform="matrix(1.00, 0.00, -0.00, -1.00, 382.3, 626.0)">i</text><text xml:space="preserve" font-family="OpenSans-Light" font-size="250.0" fill="#FEFFFE" transform="matrix(1.00, 0.00, -0.00, -1.00, 438.8, 626.0)">d</text><text xml:space="preserve" font-family="OpenSans-Light" font-size="250.0" fill="#FEFFFE" transform="matrix(1.00, 0.00, -0.00, -1.00, 587.6, 626.0)">a</text><text xml:space="preserve" font-family="OpenSans-Light" font-size="250.0" fill="#FEFFFE" transform="matrix(1.00, 0.00, -0.00, -1.00, 720.0, 626.0)">t</text><text xml:space="preserve" font-family="OpenSans-Light" font-size="250.0" fill="#FEFFFE" transform="matrix(1.00, 0.00, -0.00, -1.00, 803.8, 626.0)">i</text><text xml:space="preserve" font-family="OpenSans-Light" font-size="250.0" fill="#FEFFFE" transform="matrix(1.00, 0.00, -0.00, -1.00, 860.3, 626.0)">o</text><text xml:space="preserve" font-family="OpenSans-Light" font-size="250.0" fill="#FEFFFE" transform="matrix(1.00, 0.00, -0.00, -1.00, 1006.8, 626.0)">n</text><g><clipPath id="clip-344"><path d="M 50.0 52.0 L 154.0 52.0 L 154.0 -1.0 L 50.0 -1.0 Z M 50.4 52.4 "></path></clipPath><g clip-path="url(#clip-344)"><image xlink:href="../../4F9A92A2-2DC6-4691-97F8-9F75BE53396F/assets/B22C448CED7C82A0C99889D0AD879A76.png" width="104.00" height="104.00" transform="matrix(1.00, 0.00, -0.00, -0.99, 50.0, 77.0)"></image></g></g></g></svg>