<?xml version="1.0" encoding="UTF-8" standalone="no"?><svg xmlns="http://www.w3.org/2000/svg" xmlns:xlink="http://www.w3.org/1999/xlink" clip-rule="evenodd" stroke-miterlimit="4.00" viewBox="0 0 1920 1080"><desc>SVG generated by Keynote</desc><defs></defs><g transform="matrix(1.00, 0.00, -0.00, -1.00, 0.0, 1080.0)"><path d="M 0.0 1080.0 L 1920.0 1080.0 L 1920.0 0.0 L 0.0 0.0 Z M 0.0 1080.0 " fill="#FEFFFF"></path><g><clipPath id="clip-44"><path d="M 50.0 52.0 L 154.0 52.0 L 154.0 -1.0 L 50.0 -1.0 Z M 50.4 52.4 "></path></clipPath><g clip-path="url(#clip-44)"><image xlink:href="../../4F9A92A2-2DC6-4691-97F8-9F75BE53396F/assets/B22C448CED7C82A0C99889D0AD879A76.png" width="104.00" height="104.00" transform="matrix(1.00, 0.00, -0.00, -0.99, 50.0, 77.0)"></image></g></g><text xml:space="preserve" font-family="OpenSans-Bold" font-weight="bold" font-size="30.0" fill="#A6AAA8" transform="matrix(1.00, 0.00, -0.00, -1.00, 54.0, 1014.0)">C</text><text xml:space="preserve" font-family="OpenSans-Bold" font-weight="bold" font-size="30.0" fill="#A6AAA8" transform="matrix(1.00, 0.00, -0.00, -1.00, 73.1, 1014.0)">U</text><text xml:space="preserve" font-family="OpenSans-Bold" font-weight="bold" font-size="30.0" fill="#A6AAA8" transform="matrix(1.00, 0.00, -0.00, -1.00, 95.8, 1014.0)">L</text><text xml:space="preserve" font-family="OpenSans-Bold" font-weight="bold" font-size="30.0" fill="#A6AAA8" transform="matrix(1.00, 0.00, -0.00, -1.00, 112.2, 1014.0)">T</text><text xml:space="preserve" font-family="OpenSans-Bold" font-weight="bold" font-size="30.0" fill="#A6AAA8" transform="matrix(1.00, 0.00, -0.00, -1.00, 129.5, 1014.0)">U</text><text xml:space="preserve" font-family="OpenSans-Bold" font-weight="bold" font-size="30.0" fill="#A6AAA8" transform="matrix(1.00, 0.00, -0.00, -1.00, 152.2, 1014.0)">R</text><text xml:space="preserve" font-family="OpenSans-Bold" font-weight="bold" font-size="30.0" fill="#A6AAA8" transform="matrix(1.00, 0.00, -0.00, -1.00, 172.0, 1014.0)">E</text><text xml:space="preserve" font-family="OpenSans-Light" font-size="85.0" fill="#52575F" transform="matrix(1.00, 0.00, -0.00, -1.00, 54.0, 885.0)">C</text><text xml:space="preserve" font-family="OpenSans-Light" font-size="85.0" fill="#52575F" transform="matrix(1.00, 0.00, -0.00, -1.00, 106.8, 885.0)">u</text><text xml:space="preserve" font-family="OpenSans-Light" font-size="85.0" fill="#52575F" transform="matrix(1.00, 0.00, -0.00, -1.00, 156.9, 885.0)">l</text><text xml:space="preserve" font-family="OpenSans-Light" font-size="85.0" fill="#52575F" transform="matrix(1.00, 0.00, -0.00, -1.00, 176.1, 885.0)">t</text><text xml:space="preserve" font-family="OpenSans-Light" font-size="85.0" fill="#52575F" transform="matrix(1.00, 0.00, -0.00, -1.00, 204.6, 885.0)">u</text><text xml:space="preserve" font-family="OpenSans-Light" font-size="85.0" fill="#52575F" transform="matrix(1.00, 0.00, -0.00, -1.00, 254.7, 885.0)">r</text><text xml:space="preserve" font-family="OpenSans-Light" font-size="85.0" fill="#52575F" transform="matrix(1.00, 0.00, -0.00, -1.00, 286.1, 885.0)">e</text><text xml:space="preserve" font-family="OpenSans-Light" font-size="85.0" fill="#52575F" transform="matrix(1.00, 0.00, -0.00, -1.00, 332.8, 885.0)"> </text><text xml:space="preserve" font-family="OpenSans-Light" font-size="85.0" fill="#52575F" transform="matrix(1.00, 0.00, -0.00, -1.00, 354.8, 885.0)">c</text><text xml:space="preserve" font-family="OpenSans-Light" font-size="85.0" fill="#52575F" transform="matrix(1.00, 0.00, -0.00, -1.00, 395.2, 885.0)">l</text><text xml:space="preserve" font-family="OpenSans-Light" font-size="85.0" fill="#52575F" transform="matrix(1.00, 0.00, -0.00, -1.00, 414.4, 885.0)">a</text><text xml:space="preserve" font-family="OpenSans-Light" font-size="85.0" fill="#52575F" transform="matrix(1.00, 0.00, -0.00, -1.00, 459.5, 885.0)">s</text><text xml:space="preserve" font-family="OpenSans-Light" font-size="85.0" fill="#52575F" transform="matrix(1.00, 0.00, -0.00, -1.00, 499.0, 885.0)">h</text><text xml:space="preserve" font-family="OpenSans-Light" font-size="85.0" fill="#52575F" transform="matrix(1.00, 0.00, -0.00, -1.00, 549.1, 885.0)">e</text><text xml:space="preserve" font-family="OpenSans-Light" font-size="85.0" fill="#52575F" transform="matrix(1.00, 0.00, -0.00, -1.00, 595.8, 885.0)">s</text><text xml:space="preserve" font-family="OpenSans-Light" font-size="85.0" fill="#52575F" transform="matrix(1.00, 0.00, -0.00, -1.00, 635.4, 885.0)"> </text><text xml:space="preserve" font-family="OpenSans-Light" font-size="85.0" fill="#52575F" transform="matrix(1.00, 0.00, -0.00, -1.00, 54.0, 769.0)">D</text><text xml:space="preserve" font-family="OpenSans-Light" font-size="85.0" fill="#52575F" transform="matrix(1.00, 0.00, -0.00, -1.00, 114.0, 769.0)">i</text><text xml:space="preserve" font-family="OpenSans-Light" font-size="85.0" fill="#52575F" transform="matrix(1.00, 0.00, -0.00, -1.00, 133.2, 769.0)">ﬀ</text><text xml:space="preserve" font-family="OpenSans-Light" font-size="85.0" fill="#52575F" transform="matrix(1.00, 0.00, -0.00, -1.00, 184.3, 769.0)">e</text><text xml:space="preserve" font-family="OpenSans-Light" font-size="85.0" fill="#52575F" transform="matrix(1.00, 0.00, -0.00, -1.00, 230.9, 769.0)">r</text><text xml:space="preserve" font-family="OpenSans-Light" font-size="85.0" fill="#52575F" transform="matrix(1.00, 0.00, -0.00, -1.00, 262.3, 769.0)">e</text><text xml:space="preserve" font-family="OpenSans-Light" font-size="85.0" fill="#52575F" transform="matrix(1.00, 0.00, -0.00, -1.00, 308.9, 769.0)">n</text><text xml:space="preserve" font-family="OpenSans-Light" font-size="85.0" fill="#52575F" transform="matrix(1.00, 0.00, -0.00, -1.00, 359.0, 769.0)">t</text><text xml:space="preserve" font-family="OpenSans-Light" font-size="85.0" fill="#52575F" transform="matrix(1.00, 0.00, -0.00, -1.00, 387.5, 769.0)"> </text><text xml:space="preserve" font-family="OpenSans-Light" font-size="85.0" fill="#52575F" transform="matrix(1.00, 0.00, -0.00, -1.00, 409.6, 769.0)">w</text><text xml:space="preserve" font-family="OpenSans-Light" font-size="85.0" fill="#52575F" transform="matrix(1.00, 0.00, -0.00, -1.00, 471.0, 769.0)">o</text><text xml:space="preserve" font-family="OpenSans-Light" font-size="85.0" fill="#52575F" transform="matrix(1.00, 0.00, -0.00, -1.00, 520.8, 769.0)">r</text><text xml:space="preserve" font-family="OpenSans-Light" font-size="85.0" fill="#52575F" transform="matrix(1.00, 0.00, -0.00, -1.00, 553.9, 769.0)">k</text><text xml:space="preserve" font-family="OpenSans-Light" font-size="85.0" fill="#52575F" transform="matrix(1.00, 0.00, -0.00, -1.00, 595.1, 769.0)"> </text><text xml:space="preserve" font-family="OpenSans-Light" font-size="85.0" fill="#52575F" transform="matrix(1.00, 0.00, -0.00, -1.00, 617.1, 769.0)">s</text><text xml:space="preserve" font-family="OpenSans-Light" font-size="85.0" fill="#52575F" transform="matrix(1.00, 0.00, -0.00, -1.00, 656.7, 769.0)">t</text><text xml:space="preserve" font-family="OpenSans-Light" font-size="85.0" fill="#52575F" transform="matrix(1.00, 0.00, -0.00, -1.00, 685.2, 769.0)">y</text><text xml:space="preserve" font-family="OpenSans-Light" font-size="85.0" fill="#52575F" transform="matrix(1.00, 0.00, -0.00, -1.00, 724.2, 769.0)">l</text><text xml:space="preserve" font-family="OpenSans-Light" font-size="85.0" fill="#52575F" transform="matrix(1.00, 0.00, -0.00, -1.00, 743.4, 769.0)">e</text><text xml:space="preserve" font-family="OpenSans-Light" font-size="85.0" fill="#52575F" transform="matrix(1.00, 0.00, -0.00, -1.00, 790.0, 769.0)">s</text><text xml:space="preserve" font-family="OpenSans-Light" font-size="85.0" fill="#52575F" transform="matrix(1.00, 0.00, -0.00, -1.00, 829.6, 769.0)">/</text><text xml:space="preserve" font-family="OpenSans-Light" font-size="85.0" fill="#52575F" transform="matrix(1.00, 0.00, -0.00, -1.00, 858.6, 769.0)">p</text><text xml:space="preserve" font-family="OpenSans-Light" font-size="85.0" fill="#52575F" transform="matrix(1.00, 0.00, -0.00, -1.00, 909.2, 769.0)">a</text><text xml:space="preserve" font-family="OpenSans-Light" font-size="85.0" fill="#52575F" transform="matrix(1.00, 0.00, -0.00, -1.00, 954.2, 769.0)">c</text><text xml:space="preserve" font-family="OpenSans-Light" font-size="85.0" fill="#52575F" transform="matrix(1.00, 0.00, -0.00, -1.00, 994.6, 769.0)">e</text><text xml:space="preserve" font-family="OpenSans-Light" font-size="85.0" fill="#52575F" transform="matrix(1.00, 0.00, -0.00, -1.00, 1041.2, 769.0)"> </text><text xml:space="preserve" font-family="OpenSans-Light" font-size="85.0" fill="#52575F" transform="matrix(1.00, 0.00, -0.00, -1.00, 54.0, 653.0)">R</text><text xml:space="preserve" font-family="OpenSans-Light" font-size="85.0" fill="#52575F" transform="matrix(1.00, 0.00, -0.00, -1.00, 104.5, 653.0)">e</text><text xml:space="preserve" font-family="OpenSans-Light" font-size="85.0" fill="#52575F" transform="matrix(1.00, 0.00, -0.00, -1.00, 151.2, 653.0)">s</text><text xml:space="preserve" font-family="OpenSans-Light" font-size="85.0" fill="#52575F" transform="matrix(1.00, 0.00, -0.00, -1.00, 190.8, 653.0)">e</text><text xml:space="preserve" font-family="OpenSans-Light" font-size="85.0" fill="#52575F" transform="matrix(1.00, 0.00, -0.00, -1.00, 237.5, 653.0)">a</text><text xml:space="preserve" font-family="OpenSans-Light" font-size="85.0" fill="#52575F" transform="matrix(1.00, 0.00, -0.00, -1.00, 282.5, 653.0)">r</text><text xml:space="preserve" font-family="OpenSans-Light" font-size="85.0" fill="#52575F" transform="matrix(1.00, 0.00, -0.00, -1.00, 313.9, 653.0)">c</text><text xml:space="preserve" font-family="OpenSans-Light" font-size="85.0" fill="#52575F" transform="matrix(1.00, 0.00, -0.00, -1.00, 354.3, 653.0)">h</text><text xml:space="preserve" font-family="OpenSans-Light" font-size="85.0" fill="#52575F" transform="matrix(1.00, 0.00, -0.00, -1.00, 404.5, 653.0)"> </text><text xml:space="preserve" font-family="OpenSans-Light" font-size="85.0" fill="#52575F" transform="matrix(1.00, 0.00, -0.00, -1.00, 54.0, 537.0)">R</text><text xml:space="preserve" font-family="OpenSans-Light" font-size="85.0" fill="#52575F" transform="matrix(1.00, 0.00, -0.00, -1.00, 104.5, 537.0)">e</text><text xml:space="preserve" font-family="OpenSans-Light" font-size="85.0" fill="#52575F" transform="matrix(1.00, 0.00, -0.00, -1.00, 151.2, 537.0)">l</text><text xml:space="preserve" font-family="OpenSans-Light" font-size="85.0" fill="#52575F" transform="matrix(1.00, 0.00, -0.00, -1.00, 170.4, 537.0)">i</text><text xml:space="preserve" font-family="OpenSans-Light" font-size="85.0" fill="#52575F" transform="matrix(1.00, 0.00, -0.00, -1.00, 189.6, 537.0)">a</text><text xml:space="preserve" font-family="OpenSans-Light" font-size="85.0" fill="#52575F" transform="matrix(1.00, 0.00, -0.00, -1.00, 234.6, 537.0)">b</text><text xml:space="preserve" font-family="OpenSans-Light" font-size="85.0" fill="#52575F" transform="matrix(1.00, 0.00, -0.00, -1.00, 285.2, 537.0)">i</text><text xml:space="preserve" font-family="OpenSans-Light" font-size="85.0" fill="#52575F" transform="matrix(1.00, 0.00, -0.00, -1.00, 304.5, 537.0)">l</text><text xml:space="preserve" font-family="OpenSans-Light" font-size="85.0" fill="#52575F" transform="matrix(1.00, 0.00, -0.00, -1.00, 323.7, 537.0)">i</text><text xml:space="preserve" font-family="OpenSans-Light" font-size="85.0" fill="#52575F" transform="matrix(1.00, 0.00, -0.00, -1.00, 342.9, 537.0)">t</text><text xml:space="preserve" font-family="OpenSans-Light" font-size="85.0" fill="#52575F" transform="matrix(1.00, 0.00, -0.00, -1.00, 371.4, 537.0)">y</text><text xml:space="preserve" font-family="OpenSans-Light" font-size="85.0" fill="#52575F" transform="matrix(1.00, 0.00, -0.00, -1.00, 410.4, 537.0)"> </text><text xml:space="preserve" font-family="OpenSans-Light" font-size="85.0" fill="#52575F" transform="matrix(1.00, 0.00, -0.00, -1.00, 54.0, 421.0)">P</text><text xml:space="preserve" font-family="OpenSans-Light" font-size="85.0" fill="#52575F" transform="matrix(1.00, 0.00, -0.00, -1.00, 103.7, 421.0)">r</text><text xml:space="preserve" font-family="OpenSans-Light" font-size="85.0" fill="#52575F" transform="matrix(1.00, 0.00, -0.00, -1.00, 135.1, 421.0)">o</text><text xml:space="preserve" font-family="OpenSans-Light" font-size="85.0" fill="#52575F" transform="matrix(1.00, 0.00, -0.00, -1.00, 184.9, 421.0)">f</text><text xml:space="preserve" font-family="OpenSans-Light" font-size="85.0" fill="#52575F" transform="matrix(1.00, 0.00, -0.00, -1.00, 210.4, 421.0)">e</text><text xml:space="preserve" font-family="OpenSans-Light" font-size="85.0" fill="#52575F" transform="matrix(1.00, 0.00, -0.00, -1.00, 257.0, 421.0)">s</text><text xml:space="preserve" font-family="OpenSans-Light" font-size="85.0" fill="#52575F" transform="matrix(1.00, 0.00, -0.00, -1.00, 296.6, 421.0)">s</text><text xml:space="preserve" font-family="OpenSans-Light" font-size="85.0" fill="#52575F" transform="matrix(1.00, 0.00, -0.00, -1.00, 336.2, 421.0)">i</text><text xml:space="preserve" font-family="OpenSans-Light" font-size="85.0" fill="#52575F" transform="matrix(1.00, 0.00, -0.00, -1.00, 355.4, 421.0)">o</text><text xml:space="preserve" font-family="OpenSans-Light" font-size="85.0" fill="#52575F" transform="matrix(1.00, 0.00, -0.00, -1.00, 405.2, 421.0)">n</text><text xml:space="preserve" font-family="OpenSans-Light" font-size="85.0" fill="#52575F" transform="matrix(1.00, 0.00, -0.00, -1.00, 455.3, 421.0)">a</text><text xml:space="preserve" font-family="OpenSans-Light" font-size="85.0" fill="#52575F" transform="matrix(1.00, 0.00, -0.00, -1.00, 500.3, 421.0)">l</text><text xml:space="preserve" font-family="OpenSans-Light" font-size="85.0" fill="#52575F" transform="matrix(1.00, 0.00, -0.00, -1.00, 519.5, 421.0)">i</text><text xml:space="preserve" font-family="OpenSans-Light" font-size="85.0" fill="#52575F" transform="matrix(1.00, 0.00, -0.00, -1.00, 538.8, 421.0)">s</text><text xml:space="preserve" font-family="OpenSans-Light" font-size="85.0" fill="#52575F" transform="matrix(1.00, 0.00, -0.00, -1.00, 578.3, 421.0)">m</text></g></svg>