<?xml version="1.0" encoding="UTF-8" standalone="no"?><svg xmlns="http://www.w3.org/2000/svg" xmlns:xlink="http://www.w3.org/1999/xlink" clip-rule="evenodd" stroke-miterlimit="4.00" viewBox="0 0 1920 1080"><desc>SVG generated by Keynote</desc><defs></defs><g transform="matrix(1.00, 0.00, -0.00, -1.00, 0.0, 1080.0)"><path d="M 0.0 1080.0 L 1920.0 1080.0 L 1920.0 0.0 L 0.0 0.0 Z M 0.0 1080.0 " fill="#000000"></path><g opacity="0.25"><g><clipPath id="clip-617"><path d="M -5.0 1450.0 L 1952.0 1450.0 L 1952.0 -18.0 L -5.0 -18.0 Z M -4.8 1449.8 "></path></clipPath><g clip-path="url(#clip-617)"><g><clipPath id="clip-618"><path d="M 0.0 0.0 L 1920.0 0.0 L 1920.0 1080.0 L 0.0 1080.0 Z M 0.0 0.0 "></path></clipPath><g clip-path="url(#clip-618)"><image xlink:href="../../FD2AB2E0-6579-4739-A552-F7D0A2D55C0C/assets/0D3E89C17861E1DC5298439CDFE498D7.jpeg" width="1024.00" height="768.00" transform="matrix(1.91, 0.00, -0.00, -1.91, -5.0, 1450.0)"></image></g></g></g></g></g><text xml:space="preserve" font-family="Helvetica-Bold" font-weight="bold" font-size="90.0" fill="#FEFFFF" transform="matrix(1.00, 0.00, -0.00, -1.00, 538.0, 629.0)">1</text><text xml:space="preserve" font-family="Helvetica-Bold" font-weight="bold" font-size="90.0" fill="#FEFFFF" transform="matrix(1.00, 0.00, -0.00, -1.00, 588.1, 629.0)">.</text><text xml:space="preserve" font-family="Helvetica" font-size="52.0" fill="#FEFFFF" transform="matrix(1.00, 0.00, -0.00, -1.00, 538.0, 559.0)">W</text><text xml:space="preserve" font-family="Helvetica" font-size="52.0" fill="#FEFFFF" transform="matrix(1.00, 0.00, -0.00, -1.00, 586.2, 559.0)">e</text><text xml:space="preserve" font-family="Helvetica" font-size="52.0" fill="#FEFFFF" transform="matrix(1.00, 0.00, -0.00, -1.00, 615.1, 559.0)"> </text><text xml:space="preserve" font-family="Helvetica" font-size="52.0" fill="#FEFFFF" transform="matrix(1.00, 0.00, -0.00, -1.00, 629.5, 559.0)">f</text><text xml:space="preserve" font-family="Helvetica" font-size="52.0" fill="#FEFFFF" transform="matrix(1.00, 0.00, -0.00, -1.00, 644.0, 559.0)">o</text><text xml:space="preserve" font-family="Helvetica" font-size="52.0" fill="#FEFFFF" transform="matrix(1.00, 0.00, -0.00, -1.00, 672.9, 559.0)">u</text><text xml:space="preserve" font-family="Helvetica" font-size="52.0" fill="#FEFFFF" transform="matrix(1.00, 0.00, -0.00, -1.00, 701.8, 559.0)">n</text><text xml:space="preserve" font-family="Helvetica" font-size="52.0" fill="#FEFFFF" transform="matrix(1.00, 0.00, -0.00, -1.00, 730.8, 559.0)">d</text><text xml:space="preserve" font-family="Helvetica" font-size="52.0" fill="#FEFFFF" transform="matrix(1.00, 0.00, -0.00, -1.00, 759.7, 559.0)"> </text><text xml:space="preserve" font-family="Helvetica" font-size="52.0" fill="#FEFFFF" transform="matrix(1.00, 0.00, -0.00, -1.00, 774.1, 559.0)">t</text><text xml:space="preserve" font-family="Helvetica" font-size="52.0" fill="#FEFFFF" transform="matrix(1.00, 0.00, -0.00, -1.00, 788.6, 559.0)">h</text><text xml:space="preserve" font-family="Helvetica" font-size="52.0" fill="#FEFFFF" transform="matrix(1.00, 0.00, -0.00, -1.00, 817.5, 559.0)">a</text><text xml:space="preserve" font-family="Helvetica" font-size="52.0" fill="#FEFFFF" transform="matrix(1.00, 0.00, -0.00, -1.00, 846.4, 559.0)">t</text><text xml:space="preserve" font-family="Helvetica" font-size="52.0" fill="#FEFFFF" transform="matrix(1.00, 0.00, -0.00, -1.00, 860.9, 559.0)"> </text><text xml:space="preserve" font-family="Helvetica" font-size="52.0" fill="#FEFFFF" transform="matrix(1.00, 0.00, -0.00, -1.00, 875.3, 559.0)">m</text><text xml:space="preserve" font-family="Helvetica" font-size="52.0" fill="#FEFFFF" transform="matrix(1.00, 0.00, -0.00, -1.00, 918.6, 559.0)">a</text><text xml:space="preserve" font-family="Helvetica" font-size="52.0" fill="#FEFFFF" transform="matrix(1.00, 0.00, -0.00, -1.00, 947.5, 559.0)">n</text><text xml:space="preserve" font-family="Helvetica" font-size="52.0" fill="#FEFFFF" transform="matrix(1.00, 0.00, -0.00, -1.00, 976.5, 559.0)">y</text><text xml:space="preserve" font-family="Helvetica" font-size="52.0" fill="#FEFFFF" transform="matrix(1.00, 0.00, -0.00, -1.00, 1002.5, 559.0)"> </text><text xml:space="preserve" font-family="Helvetica" font-size="52.0" fill="#FEFFFF" transform="matrix(1.00, 0.00, -0.00, -1.00, 1016.9, 559.0)">o</text><text xml:space="preserve" font-family="Helvetica" font-size="52.0" fill="#FEFFFF" transform="matrix(1.00, 0.00, -0.00, -1.00, 1045.8, 559.0)">f</text><text xml:space="preserve" font-family="Helvetica" font-size="52.0" fill="#FEFFFF" transform="matrix(1.00, 0.00, -0.00, -1.00, 1060.3, 559.0)"> </text><text xml:space="preserve" font-family="Helvetica" font-size="52.0" fill="#FEFFFF" transform="matrix(1.00, 0.00, -0.00, -1.00, 1074.7, 559.0)">o</text><text xml:space="preserve" font-family="Helvetica" font-size="52.0" fill="#FEFFFF" transform="matrix(1.00, 0.00, -0.00, -1.00, 1103.6, 559.0)">u</text><text xml:space="preserve" font-family="Helvetica" font-size="52.0" fill="#FEFFFF" transform="matrix(1.00, 0.00, -0.00, -1.00, 1132.6, 559.0)">r</text><text xml:space="preserve" font-family="Helvetica" font-size="52.0" fill="#FEFFFF" transform="matrix(1.00, 0.00, -0.00, -1.00, 1149.9, 559.0)"> </text><text xml:space="preserve" font-family="Helvetica" font-size="52.0" fill="#FEFFFF" transform="matrix(1.00, 0.00, -0.00, -1.00, 1164.3, 559.0)">i</text><text xml:space="preserve" font-family="Helvetica" font-size="52.0" fill="#FEFFFF" transform="matrix(1.00, 0.00, -0.00, -1.00, 1175.9, 559.0)">n</text><text xml:space="preserve" font-family="Helvetica" font-size="52.0" fill="#FEFFFF" transform="matrix(1.00, 0.00, -0.00, -1.00, 1204.8, 559.0)">i</text><text xml:space="preserve" font-family="Helvetica" font-size="52.0" fill="#FEFFFF" transform="matrix(1.00, 0.00, -0.00, -1.00, 1216.4, 559.0)">t</text><text xml:space="preserve" font-family="Helvetica" font-size="52.0" fill="#FEFFFF" transform="matrix(1.00, 0.00, -0.00, -1.00, 1230.8, 559.0)">i</text><text xml:space="preserve" font-family="Helvetica" font-size="52.0" fill="#FEFFFF" transform="matrix(1.00, 0.00, -0.00, -1.00, 1242.4, 559.0)">a</text><text xml:space="preserve" font-family="Helvetica" font-size="52.0" fill="#FEFFFF" transform="matrix(1.00, 0.00, -0.00, -1.00, 1271.3, 559.0)">l</text><text xml:space="preserve" font-family="Helvetica" font-size="52.0" fill="#FEFFFF" transform="matrix(1.00, 0.00, -0.00, -1.00, 1282.9, 559.0)"> </text><text xml:space="preserve" font-family="Helvetica" font-size="52.0" fill="#FEFFFF" transform="matrix(1.00, 0.00, -0.00, -1.00, 1297.3, 559.0)">c</text><text xml:space="preserve" font-family="Helvetica" font-size="52.0" fill="#FEFFFF" transform="matrix(1.00, 0.00, -0.00, -1.00, 1323.3, 559.0)">o</text><text xml:space="preserve" font-family="Helvetica" font-size="52.0" fill="#FEFFFF" transform="matrix(1.00, 0.00, -0.00, -1.00, 1352.2, 559.0)">n</text><text xml:space="preserve" font-family="Helvetica" font-size="52.0" fill="#FEFFFF" transform="matrix(1.00, 0.00, -0.00, -1.00, 1381.2, 559.0)">c</text><text xml:space="preserve" font-family="Helvetica" font-size="52.0" fill="#FEFFFF" transform="matrix(1.00, 0.00, -0.00, -1.00, 1407.2, 559.0)">e</text><text xml:space="preserve" font-family="Helvetica" font-size="52.0" fill="#FEFFFF" transform="matrix(1.00, 0.00, -0.00, -1.00, 1436.1, 559.0)">p</text><text xml:space="preserve" font-family="Helvetica" font-size="52.0" fill="#FEFFFF" transform="matrix(1.00, 0.00, -0.00, -1.00, 1465.0, 559.0)">t</text><text xml:space="preserve" font-family="Helvetica" font-size="52.0" fill="#FEFFFF" transform="matrix(1.00, 0.00, -0.00, -1.00, 1479.5, 559.0)">s</text><text xml:space="preserve" font-family="Helvetica" font-size="52.0" fill="#FEFFFF" transform="matrix(1.00, 0.00, -0.00, -1.00, 1505.5, 559.0)"> </text><text xml:space="preserve" font-family="Helvetica" font-size="52.0" fill="#FEFFFF" transform="matrix(1.00, 0.00, -0.00, -1.00, 538.0, 497.0)">a</text><text xml:space="preserve" font-family="Helvetica" font-size="52.0" fill="#FEFFFF" transform="matrix(1.00, 0.00, -0.00, -1.00, 566.9, 497.0)">r</text><text xml:space="preserve" font-family="Helvetica" font-size="52.0" fill="#FEFFFF" transform="matrix(1.00, 0.00, -0.00, -1.00, 584.2, 497.0)">e</text><text xml:space="preserve" font-family="Helvetica" font-size="52.0" fill="#FEFFFF" transform="matrix(1.00, 0.00, -0.00, -1.00, 613.2, 497.0)"> </text><text xml:space="preserve" font-family="Helvetica" font-size="52.0" fill="#FEFFFF" transform="matrix(1.00, 0.00, -0.00, -1.00, 627.6, 497.0)">b</text><text xml:space="preserve" font-family="Helvetica" font-size="52.0" fill="#FEFFFF" transform="matrix(1.00, 0.00, -0.00, -1.00, 656.5, 497.0)">e</text><text xml:space="preserve" font-family="Helvetica" font-size="52.0" fill="#FEFFFF" transform="matrix(1.00, 0.00, -0.00, -1.00, 685.5, 497.0)">i</text><text xml:space="preserve" font-family="Helvetica" font-size="52.0" fill="#FEFFFF" transform="matrix(1.00, 0.00, -0.00, -1.00, 697.0, 497.0)">n</text><text xml:space="preserve" font-family="Helvetica" font-size="52.0" fill="#FEFFFF" transform="matrix(1.00, 0.00, -0.00, -1.00, 726.0, 497.0)">g</text><text xml:space="preserve" font-family="Helvetica" font-size="52.0" fill="#FEFFFF" transform="matrix(1.00, 0.00, -0.00, -1.00, 754.9, 497.0)"> </text><text xml:space="preserve" font-family="Helvetica" font-size="52.0" fill="#FEFFFF" transform="matrix(1.00, 0.00, -0.00, -1.00, 769.3, 497.0)">i</text><text xml:space="preserve" font-family="Helvetica" font-size="52.0" fill="#FEFFFF" transform="matrix(1.00, 0.00, -0.00, -1.00, 780.9, 497.0)">m</text><text xml:space="preserve" font-family="Helvetica" font-size="52.0" fill="#FEFFFF" transform="matrix(1.00, 0.00, -0.00, -1.00, 824.2, 497.0)">p</text><text xml:space="preserve" font-family="Helvetica" font-size="52.0" fill="#FEFFFF" transform="matrix(1.00, 0.00, -0.00, -1.00, 853.1, 497.0)">l</text><text xml:space="preserve" font-family="Helvetica" font-size="52.0" fill="#FEFFFF" transform="matrix(1.00, 0.00, -0.00, -1.00, 864.7, 497.0)">e</text><text xml:space="preserve" font-family="Helvetica" font-size="52.0" fill="#FEFFFF" transform="matrix(1.00, 0.00, -0.00, -1.00, 893.6, 497.0)">m</text><text xml:space="preserve" font-family="Helvetica" font-size="52.0" fill="#FEFFFF" transform="matrix(1.00, 0.00, -0.00, -1.00, 937.0, 497.0)">e</text><text xml:space="preserve" font-family="Helvetica" font-size="52.0" fill="#FEFFFF" transform="matrix(1.00, 0.00, -0.00, -1.00, 965.9, 497.0)">n</text><text xml:space="preserve" font-family="Helvetica" font-size="52.0" fill="#FEFFFF" transform="matrix(1.00, 0.00, -0.00, -1.00, 994.8, 497.0)">t</text><text xml:space="preserve" font-family="Helvetica" font-size="52.0" fill="#FEFFFF" transform="matrix(1.00, 0.00, -0.00, -1.00, 1009.3, 497.0)">e</text><text xml:space="preserve" font-family="Helvetica" font-size="52.0" fill="#FEFFFF" transform="matrix(1.00, 0.00, -0.00, -1.00, 1038.2, 497.0)">d</text><text xml:space="preserve" font-family="Helvetica" font-size="52.0" fill="#FEFFFF" transform="matrix(1.00, 0.00, -0.00, -1.00, 1067.1, 497.0)"> </text><text xml:space="preserve" font-family="Helvetica" font-size="52.0" fill="#FEFFFF" transform="matrix(1.00, 0.00, -0.00, -1.00, 1081.5, 497.0)">t</text><text xml:space="preserve" font-family="Helvetica" font-size="52.0" fill="#FEFFFF" transform="matrix(1.00, 0.00, -0.00, -1.00, 1096.0, 497.0)">o</text><text xml:space="preserve" font-family="Helvetica" font-size="52.0" fill="#FEFFFF" transform="matrix(1.00, 0.00, -0.00, -1.00, 1124.9, 497.0)">d</text><text xml:space="preserve" font-family="Helvetica" font-size="52.0" fill="#FEFFFF" transform="matrix(1.00, 0.00, -0.00, -1.00, 1153.8, 497.0)">a</text><text xml:space="preserve" font-family="Helvetica" font-size="52.0" fill="#FEFFFF" transform="matrix(1.00, 0.00, -0.00, -1.00, 1182.8, 497.0)">y</text><text xml:space="preserve" font-family="Helvetica" font-size="52.0" fill="#FEFFFF" transform="matrix(1.00, 0.00, -0.00, -1.00, 1204.9, 497.0)">.</text></g></svg>