<?xml version="1.0" encoding="UTF-8" standalone="no"?><svg xmlns="http://www.w3.org/2000/svg" xmlns:xlink="http://www.w3.org/1999/xlink" clip-rule="evenodd" stroke-miterlimit="4.00" viewBox="0 0 1920 1080"><desc>SVG generated by Keynote</desc><defs></defs><g transform="matrix(1.00, 0.00, -0.00, -1.00, 0.0, 1080.0)"><path d="M 0.0 1080.0 L 1920.0 1080.0 L 1920.0 0.0 L 0.0 0.0 Z M 0.0 1080.0 " fill="#000000"></path><g opacity="0.25"><g><clipPath id="clip-622"><path d="M 0.0 0.0 L 1920.0 0.0 L 1920.0 1080.0 L 0.0 1080.0 Z M 0.0 0.0 "></path></clipPath><g clip-path="url(#clip-622)"><image xlink:href="../../FD2AB2E0-6579-4739-A552-F7D0A2D55C0C/assets/0D3E89C17861E1DC5298439CDFE498D7.jpeg" width="1024.00" height="768.00" transform="matrix(1.91, 0.00, -0.00, -1.91, -5.0, 1450.0)"></image></g></g></g><text xml:space="preserve" font-family="Helvetica-Bold" font-weight="bold" font-size="90.0" fill="#FEFFFF" transform="matrix(1.00, 0.00, -0.00, -1.00, 538.0, 629.0)">3</text><text xml:space="preserve" font-family="Helvetica-Bold" font-weight="bold" font-size="90.0" fill="#FEFFFF" transform="matrix(1.00, 0.00, -0.00, -1.00, 588.1, 629.0)">.</text><text xml:space="preserve" font-family="Helvetica" font-size="52.0" fill="#FEFFFF" transform="matrix(1.00, 0.00, -0.00, -1.00, 538.0, 559.0)">O</text><text xml:space="preserve" font-family="Helvetica" font-size="52.0" fill="#FEFFFF" transform="matrix(1.00, 0.00, -0.00, -1.00, 578.4, 559.0)">u</text><text xml:space="preserve" font-family="Helvetica" font-size="52.0" fill="#FEFFFF" transform="matrix(1.00, 0.00, -0.00, -1.00, 607.4, 559.0)">r</text><text xml:space="preserve" font-family="Helvetica" font-size="52.0" fill="#FEFFFF" transform="matrix(1.00, 0.00, -0.00, -1.00, 624.7, 559.0)"> </text><text xml:space="preserve" font-family="Helvetica" font-size="52.0" fill="#FEFFFF" transform="matrix(1.00, 0.00, -0.00, -1.00, 639.1, 559.0)">c</text><text xml:space="preserve" font-family="Helvetica" font-size="52.0" fill="#FEFFFF" transform="matrix(1.00, 0.00, -0.00, -1.00, 665.1, 559.0)">o</text><text xml:space="preserve" font-family="Helvetica" font-size="52.0" fill="#FEFFFF" transform="matrix(1.00, 0.00, -0.00, -1.00, 694.1, 559.0)">l</text><text xml:space="preserve" font-family="Helvetica" font-size="52.0" fill="#FEFFFF" transform="matrix(1.00, 0.00, -0.00, -1.00, 705.6, 559.0)">l</text><text xml:space="preserve" font-family="Helvetica" font-size="52.0" fill="#FEFFFF" transform="matrix(1.00, 0.00, -0.00, -1.00, 717.2, 559.0)">e</text><text xml:space="preserve" font-family="Helvetica" font-size="52.0" fill="#FEFFFF" transform="matrix(1.00, 0.00, -0.00, -1.00, 746.1, 559.0)">c</text><text xml:space="preserve" font-family="Helvetica" font-size="52.0" fill="#FEFFFF" transform="matrix(1.00, 0.00, -0.00, -1.00, 772.1, 559.0)">t</text><text xml:space="preserve" font-family="Helvetica" font-size="52.0" fill="#FEFFFF" transform="matrix(1.00, 0.00, -0.00, -1.00, 786.5, 559.0)">i</text><text xml:space="preserve" font-family="Helvetica" font-size="52.0" fill="#FEFFFF" transform="matrix(1.00, 0.00, -0.00, -1.00, 798.1, 559.0)">v</text><text xml:space="preserve" font-family="Helvetica" font-size="52.0" fill="#FEFFFF" transform="matrix(1.00, 0.00, -0.00, -1.00, 824.1, 559.0)">e</text><text xml:space="preserve" font-family="Helvetica" font-size="52.0" fill="#FEFFFF" transform="matrix(1.00, 0.00, -0.00, -1.00, 853.0, 559.0)"> </text><text xml:space="preserve" font-family="Helvetica" font-size="52.0" fill="#FEFFFF" transform="matrix(1.00, 0.00, -0.00, -1.00, 867.5, 559.0)">i</text><text xml:space="preserve" font-family="Helvetica" font-size="52.0" fill="#FEFFFF" transform="matrix(1.00, 0.00, -0.00, -1.00, 879.0, 559.0)">n</text><text xml:space="preserve" font-family="Helvetica" font-size="52.0" fill="#FEFFFF" transform="matrix(1.00, 0.00, -0.00, -1.00, 908.0, 559.0)">t</text><text xml:space="preserve" font-family="Helvetica" font-size="52.0" fill="#FEFFFF" transform="matrix(1.00, 0.00, -0.00, -1.00, 922.4, 559.0)">e</text><text xml:space="preserve" font-family="Helvetica" font-size="52.0" fill="#FEFFFF" transform="matrix(1.00, 0.00, -0.00, -1.00, 951.3, 559.0)">r</text><text xml:space="preserve" font-family="Helvetica" font-size="52.0" fill="#FEFFFF" transform="matrix(1.00, 0.00, -0.00, -1.00, 968.7, 559.0)">e</text><text xml:space="preserve" font-family="Helvetica" font-size="52.0" fill="#FEFFFF" transform="matrix(1.00, 0.00, -0.00, -1.00, 997.6, 559.0)">s</text><text xml:space="preserve" font-family="Helvetica" font-size="52.0" fill="#FEFFFF" transform="matrix(1.00, 0.00, -0.00, -1.00, 1023.6, 559.0)">t</text><text xml:space="preserve" font-family="Helvetica" font-size="52.0" fill="#FEFFFF" transform="matrix(1.00, 0.00, -0.00, -1.00, 1038.0, 559.0)">s</text><text xml:space="preserve" font-family="Helvetica" font-size="52.0" fill="#FEFFFF" transform="matrix(1.00, 0.00, -0.00, -1.00, 1064.0, 559.0)"> </text><text xml:space="preserve" font-family="Helvetica" font-size="52.0" fill="#FEFFFF" transform="matrix(1.00, 0.00, -0.00, -1.00, 1078.5, 559.0)">c</text><text xml:space="preserve" font-family="Helvetica" font-size="52.0" fill="#FEFFFF" transform="matrix(1.00, 0.00, -0.00, -1.00, 1104.5, 559.0)">a</text><text xml:space="preserve" font-family="Helvetica" font-size="52.0" fill="#FEFFFF" transform="matrix(1.00, 0.00, -0.00, -1.00, 1133.4, 559.0)">n</text><text xml:space="preserve" font-family="Helvetica" font-size="52.0" fill="#FEFFFF" transform="matrix(1.00, 0.00, -0.00, -1.00, 1162.3, 559.0)"> </text><text xml:space="preserve" font-family="Helvetica" font-size="52.0" fill="#FEFFFF" transform="matrix(1.00, 0.00, -0.00, -1.00, 1176.8, 559.0)">b</text><text xml:space="preserve" font-family="Helvetica" font-size="52.0" fill="#FEFFFF" transform="matrix(1.00, 0.00, -0.00, -1.00, 1205.7, 559.0)">e</text><text xml:space="preserve" font-family="Helvetica" font-size="52.0" fill="#FEFFFF" transform="matrix(1.00, 0.00, -0.00, -1.00, 1234.6, 559.0)"> </text><text xml:space="preserve" font-family="Helvetica" font-size="52.0" fill="#FEFFFF" transform="matrix(1.00, 0.00, -0.00, -1.00, 538.0, 497.0)">a</text><text xml:space="preserve" font-family="Helvetica" font-size="52.0" fill="#FEFFFF" transform="matrix(1.00, 0.00, -0.00, -1.00, 566.9, 497.0)">c</text><text xml:space="preserve" font-family="Helvetica" font-size="52.0" fill="#FEFFFF" transform="matrix(1.00, 0.00, -0.00, -1.00, 592.9, 497.0)">h</text><text xml:space="preserve" font-family="Helvetica" font-size="52.0" fill="#FEFFFF" transform="matrix(1.00, 0.00, -0.00, -1.00, 621.9, 497.0)">i</text><text xml:space="preserve" font-family="Helvetica" font-size="52.0" fill="#FEFFFF" transform="matrix(1.00, 0.00, -0.00, -1.00, 633.4, 497.0)">e</text><text xml:space="preserve" font-family="Helvetica" font-size="52.0" fill="#FEFFFF" transform="matrix(1.00, 0.00, -0.00, -1.00, 662.4, 497.0)">v</text><text xml:space="preserve" font-family="Helvetica" font-size="52.0" fill="#FEFFFF" transform="matrix(1.00, 0.00, -0.00, -1.00, 688.4, 497.0)">e</text><text xml:space="preserve" font-family="Helvetica" font-size="52.0" fill="#FEFFFF" transform="matrix(1.00, 0.00, -0.00, -1.00, 717.3, 497.0)">d</text><text xml:space="preserve" font-family="Helvetica" font-size="52.0" fill="#FEFFFF" transform="matrix(1.00, 0.00, -0.00, -1.00, 746.2, 497.0)"> </text><text xml:space="preserve" font-family="Helvetica" font-size="52.0" fill="#FEFFFF" transform="matrix(1.00, 0.00, -0.00, -1.00, 760.7, 497.0)">b</text><text xml:space="preserve" font-family="Helvetica" font-size="52.0" fill="#FEFFFF" transform="matrix(1.00, 0.00, -0.00, -1.00, 789.6, 497.0)">y</text><text xml:space="preserve" font-family="Helvetica" font-size="52.0" fill="#FEFFFF" transform="matrix(1.00, 0.00, -0.00, -1.00, 815.6, 497.0)"> </text><text xml:space="preserve" font-family="Helvetica" font-size="52.0" fill="#FEFFFF" transform="matrix(1.00, 0.00, -0.00, -1.00, 830.0, 497.0)">i</text><text xml:space="preserve" font-family="Helvetica" font-size="52.0" fill="#FEFFFF" transform="matrix(1.00, 0.00, -0.00, -1.00, 841.6, 497.0)">n</text><text xml:space="preserve" font-family="Helvetica" font-size="52.0" fill="#FEFFFF" transform="matrix(1.00, 0.00, -0.00, -1.00, 870.5, 497.0)">t</text><text xml:space="preserve" font-family="Helvetica" font-size="52.0" fill="#FEFFFF" transform="matrix(1.00, 0.00, -0.00, -1.00, 884.9, 497.0)">e</text><text xml:space="preserve" font-family="Helvetica" font-size="52.0" fill="#FEFFFF" transform="matrix(1.00, 0.00, -0.00, -1.00, 913.9, 497.0)">r</text><text xml:space="preserve" font-family="Helvetica" font-size="52.0" fill="#FEFFFF" transform="matrix(1.00, 0.00, -0.00, -1.00, 931.2, 497.0)">a</text><text xml:space="preserve" font-family="Helvetica" font-size="52.0" fill="#FEFFFF" transform="matrix(1.00, 0.00, -0.00, -1.00, 960.1, 497.0)">c</text><text xml:space="preserve" font-family="Helvetica" font-size="52.0" fill="#FEFFFF" transform="matrix(1.00, 0.00, -0.00, -1.00, 986.1, 497.0)">t</text><text xml:space="preserve" font-family="Helvetica" font-size="52.0" fill="#FEFFFF" transform="matrix(1.00, 0.00, -0.00, -1.00, 1000.6, 497.0)">i</text><text xml:space="preserve" font-family="Helvetica" font-size="52.0" fill="#FEFFFF" transform="matrix(1.00, 0.00, -0.00, -1.00, 1012.1, 497.0)">n</text><text xml:space="preserve" font-family="Helvetica" font-size="52.0" fill="#FEFFFF" transform="matrix(1.00, 0.00, -0.00, -1.00, 1041.1, 497.0)">g</text><text xml:space="preserve" font-family="Helvetica" font-size="52.0" fill="#FEFFFF" transform="matrix(1.00, 0.00, -0.00, -1.00, 1070.0, 497.0)"> </text><text xml:space="preserve" font-family="Helvetica" font-size="52.0" fill="#FEFFFF" transform="matrix(1.00, 0.00, -0.00, -1.00, 1084.4, 497.0)">w</text><text xml:space="preserve" font-family="Helvetica" font-size="52.0" fill="#FEFFFF" transform="matrix(1.00, 0.00, -0.00, -1.00, 1122.0, 497.0)">i</text><text xml:space="preserve" font-family="Helvetica" font-size="52.0" fill="#FEFFFF" transform="matrix(1.00, 0.00, -0.00, -1.00, 1133.5, 497.0)">t</text><text xml:space="preserve" font-family="Helvetica" font-size="52.0" fill="#FEFFFF" transform="matrix(1.00, 0.00, -0.00, -1.00, 1148.0, 497.0)">h</text><text xml:space="preserve" font-family="Helvetica" font-size="52.0" fill="#FEFFFF" transform="matrix(1.00, 0.00, -0.00, -1.00, 1176.9, 497.0)"> </text><text xml:space="preserve" font-family="Helvetica" font-size="52.0" fill="#FEFFFF" transform="matrix(1.00, 0.00, -0.00, -1.00, 538.0, 435.0)">g</text><text xml:space="preserve" font-family="Helvetica" font-size="52.0" fill="#FEFFFF" transform="matrix(1.00, 0.00, -0.00, -1.00, 566.9, 435.0)">r</text><text xml:space="preserve" font-family="Helvetica" font-size="52.0" fill="#FEFFFF" transform="matrix(1.00, 0.00, -0.00, -1.00, 584.2, 435.0)">o</text><text xml:space="preserve" font-family="Helvetica" font-size="52.0" fill="#FEFFFF" transform="matrix(1.00, 0.00, -0.00, -1.00, 613.2, 435.0)">w</text><text xml:space="preserve" font-family="Helvetica" font-size="52.0" fill="#FEFFFF" transform="matrix(1.00, 0.00, -0.00, -1.00, 650.7, 435.0)">i</text><text xml:space="preserve" font-family="Helvetica" font-size="52.0" fill="#FEFFFF" transform="matrix(1.00, 0.00, -0.00, -1.00, 662.3, 435.0)">n</text><text xml:space="preserve" font-family="Helvetica" font-size="52.0" fill="#FEFFFF" transform="matrix(1.00, 0.00, -0.00, -1.00, 691.2, 435.0)">g</text><text xml:space="preserve" font-family="Helvetica" font-size="52.0" fill="#FEFFFF" transform="matrix(1.00, 0.00, -0.00, -1.00, 720.2, 435.0)"> </text><text xml:space="preserve" font-family="Helvetica" font-size="52.0" fill="#FEFFFF" transform="matrix(1.00, 0.00, -0.00, -1.00, 734.6, 435.0)">c</text><text xml:space="preserve" font-family="Helvetica" font-size="52.0" fill="#FEFFFF" transform="matrix(1.00, 0.00, -0.00, -1.00, 760.6, 435.0)">o</text><text xml:space="preserve" font-family="Helvetica" font-size="52.0" fill="#FEFFFF" transform="matrix(1.00, 0.00, -0.00, -1.00, 789.5, 435.0)">m</text><text xml:space="preserve" font-family="Helvetica" font-size="52.0" fill="#FEFFFF" transform="matrix(1.00, 0.00, -0.00, -1.00, 832.8, 435.0)">p</text><text xml:space="preserve" font-family="Helvetica" font-size="52.0" fill="#FEFFFF" transform="matrix(1.00, 0.00, -0.00, -1.00, 861.8, 435.0)">a</text><text xml:space="preserve" font-family="Helvetica" font-size="52.0" fill="#FEFFFF" transform="matrix(1.00, 0.00, -0.00, -1.00, 890.7, 435.0)">n</text><text xml:space="preserve" font-family="Helvetica" font-size="52.0" fill="#FEFFFF" transform="matrix(1.00, 0.00, -0.00, -1.00, 919.6, 435.0)">i</text><text xml:space="preserve" font-family="Helvetica" font-size="52.0" fill="#FEFFFF" transform="matrix(1.00, 0.00, -0.00, -1.00, 931.2, 435.0)">e</text><text xml:space="preserve" font-family="Helvetica" font-size="52.0" fill="#FEFFFF" transform="matrix(1.00, 0.00, -0.00, -1.00, 960.1, 435.0)">s</text><text xml:space="preserve" font-family="Helvetica" font-size="52.0" fill="#FEFFFF" transform="matrix(1.00, 0.00, -0.00, -1.00, 986.1, 435.0)">.</text></g></svg>