<?xml version="1.0" encoding="UTF-8" standalone="no"?><svg xmlns="http://www.w3.org/2000/svg" xmlns:xlink="http://www.w3.org/1999/xlink" clip-rule="evenodd" stroke-miterlimit="4.00" viewBox="0 0 1920 1080"><desc>SVG generated by Keynote</desc><defs></defs><g transform="matrix(1.00, 0.00, -0.00, -1.00, 0.0, 1080.0)"><path d="M 0.0 1080.0 L 1920.0 1080.0 L 1920.0 0.0 L 0.0 0.0 Z M 0.0 1080.0 " fill="#000000"></path><g opacity="0.39"><g><clipPath id="clip-557"><path d="M 18.0 0.0 L 1906.0 0.0 L 1906.0 1080.0 L 18.0 1080.0 Z M 18.0 0.0 "></path></clipPath><g clip-path="url(#clip-557)"><image xlink:href="../../44CDB6CA-22C4-4C7E-9169-77206C966AAE/assets/DA9ECC8D8AB6D040D8613F323D7A6822.jpeg" width="675.00" height="769.00" transform="matrix(2.79, 0.00, -0.00, -2.79, 19.0, 1429.0)"></image></g></g></g><text xml:space="preserve" font-family="Helvetica-Bold" font-weight="bold" font-size="151.0" fill="#FEFFFF" transform="matrix(1.00, 0.00, -0.00, -1.00, 538.0, 570.0)">W</text><text xml:space="preserve" font-family="Helvetica-Bold" font-weight="bold" font-size="151.0" fill="#FEFFFF" transform="matrix(1.00, 0.00, -0.00, -1.00, 680.5, 570.0)">h</text><text xml:space="preserve" font-family="Helvetica-Bold" font-weight="bold" font-size="151.0" fill="#FEFFFF" transform="matrix(1.00, 0.00, -0.00, -1.00, 772.7, 570.0)">o</text><text xml:space="preserve" font-family="Helvetica-Bold" font-weight="bold" font-size="151.0" fill="#FEFFFF" transform="matrix(1.00, 0.00, -0.00, -1.00, 864.9, 570.0)"> </text><text xml:space="preserve" font-family="Helvetica-Bold" font-weight="bold" font-size="151.0" fill="#FEFFFF" transform="matrix(1.00, 0.00, -0.00, -1.00, 906.8, 570.0)">w</text><text xml:space="preserve" font-family="Helvetica-Bold" font-weight="bold" font-size="151.0" fill="#FEFFFF" transform="matrix(1.00, 0.00, -0.00, -1.00, 1024.2, 570.0)">e</text><text xml:space="preserve" font-family="Helvetica-Bold" font-weight="bold" font-size="151.0" fill="#FEFFFF" transform="matrix(1.00, 0.00, -0.00, -1.00, 1108.2, 570.0)"> </text><text xml:space="preserve" font-family="Helvetica-Bold" font-weight="bold" font-size="151.0" fill="#FEFFFF" transform="matrix(1.00, 0.00, -0.00, -1.00, 538.0, 389.0)">t</text><text xml:space="preserve" font-family="Helvetica-Bold" font-weight="bold" font-size="151.0" fill="#FEFFFF" transform="matrix(1.00, 0.00, -0.00, -1.00, 588.3, 389.0)">a</text><text xml:space="preserve" font-family="Helvetica-Bold" font-weight="bold" font-size="151.0" fill="#FEFFFF" transform="matrix(1.00, 0.00, -0.00, -1.00, 672.3, 389.0)">l</text><text xml:space="preserve" font-family="Helvetica-Bold" font-weight="bold" font-size="151.0" fill="#FEFFFF" transform="matrix(1.00, 0.00, -0.00, -1.00, 714.2, 389.0)">k</text><text xml:space="preserve" font-family="Helvetica-Bold" font-weight="bold" font-size="151.0" fill="#FEFFFF" transform="matrix(1.00, 0.00, -0.00, -1.00, 798.2, 389.0)">e</text><text xml:space="preserve" font-family="Helvetica-Bold" font-weight="bold" font-size="151.0" fill="#FEFFFF" transform="matrix(1.00, 0.00, -0.00, -1.00, 882.2, 389.0)">d</text><text xml:space="preserve" font-family="Helvetica-Bold" font-weight="bold" font-size="151.0" fill="#FEFFFF" transform="matrix(1.00, 0.00, -0.00, -1.00, 974.4, 389.0)"> </text><text xml:space="preserve" font-family="Helvetica-Bold" font-weight="bold" font-size="151.0" fill="#FEFFFF" transform="matrix(1.00, 0.00, -0.00, -1.00, 1016.4, 389.0)">t</text><text xml:space="preserve" font-family="Helvetica-Bold" font-weight="bold" font-size="151.0" fill="#FEFFFF" transform="matrix(1.00, 0.00, -0.00, -1.00, 1066.6, 389.0)">o</text></g></svg>