<svg xmlns="http://www.w3.org/2000/svg" xmlns:xlink="http://www.w3.org/1999/xlink" stroke-miterlimit="4" clip-rule="evenodd" viewBox="0 0 1920 1080"><desc>SVG generated by Keynote</desc><g transform="matrix(1.00, 0.00, -0.00, -1.00, 0.0, 1080.0)"><path fill="#000" d="M 0.0 1080.0 L 1920.0 1080.0 L 1920.0 0.0 L 0.0 0.0 Z M 0.0 1080.0"/><image width="1280" height="720" transform="matrix(1.68, 0.00, -0.00, -1.68, 0.0, 1086.0)" xlink:href="../../FD07B97B-B618-46B9-8411-E891208C7A13/assets/E55CB6F7CE05F3F2C8A152E104DA487F.jpeg"/><text fill="#FEFFFF" font-family="Helvetica-Bold" font-size="90" font-weight="bold" transform="matrix(1.00, 0.00, -0.00, -1.00, 538.0, 629.0)" xml:space="preserve">H</text><text fill="#FEFFFF" font-family="Helvetica-Bold" font-size="90" font-weight="bold" transform="matrix(1.00, 0.00, -0.00, -1.00, 603.0, 629.0)" xml:space="preserve">i</text><text fill="#FEFFFF" font-family="Helvetica-Bold" font-size="90" font-weight="bold" transform="matrix(1.00, 0.00, -0.00, -1.00, 628.0, 629.0)" xml:space="preserve">e</text><text fill="#FEFFFF" font-family="Helvetica-Bold" font-size="90" font-weight="bold" transform="matrix(1.00, 0.00, -0.00, -1.00, 678.1, 629.0)" xml:space="preserve">r</text><text fill="#FEFFFF" font-family="Helvetica-Bold" font-size="90" font-weight="bold" transform="matrix(1.00, 0.00, -0.00, -1.00, 713.2, 629.0)" xml:space="preserve">a</text><text fill="#FEFFFF" font-family="Helvetica-Bold" font-size="90" font-weight="bold" transform="matrix(1.00, 0.00, -0.00, -1.00, 763.2, 629.0)" xml:space="preserve">r</text><text fill="#FEFFFF" font-family="Helvetica-Bold" font-size="90" font-weight="bold" transform="matrix(1.00, 0.00, -0.00, -1.00, 798.3, 629.0)" xml:space="preserve">c</text><text fill="#FEFFFF" font-family="Helvetica-Bold" font-size="90" font-weight="bold" transform="matrix(1.00, 0.00, -0.00, -1.00, 848.3, 629.0)" xml:space="preserve">h</text><text fill="#FEFFFF" font-family="Helvetica-Bold" font-size="90" font-weight="bold" transform="matrix(1.00, 0.00, -0.00, -1.00, 903.3, 629.0)" xml:space="preserve">y</text><text fill="#FEFFFF" font-family="Helvetica-Light" font-size="45" transform="matrix(1.00, 0.00, -0.00, -1.00, 538.0, 565.0)" xml:space="preserve">T</text><text fill="#FEFFFF" font-family="Helvetica-Light" font-size="45" transform="matrix(1.00, 0.00, -0.00, -1.00, 563.0, 565.0)" xml:space="preserve">h</text><text fill="#FEFFFF" font-family="Helvetica-Light" font-size="45" transform="matrix(1.00, 0.00, -0.00, -1.00, 588.0, 565.0)" xml:space="preserve">e</text><text fill="#FEFFFF" font-family="Helvetica-Light" font-size="45" transform="matrix(1.00, 0.00, -0.00, -1.00, 625.6, 565.0)" xml:space="preserve">p</text><text fill="#FEFFFF" font-family="Helvetica-Light" font-size="45" transform="matrix(1.00, 0.00, -0.00, -1.00, 653.1, 565.0)" xml:space="preserve">r</text><text fill="#FEFFFF" font-family="Helvetica-Light" font-size="45" transform="matrix(1.00, 0.00, -0.00, -1.00, 667.2, 565.0)" xml:space="preserve">o</text><text fill="#FEFFFF" font-family="Helvetica-Light" font-size="45" transform="matrix(1.00, 0.00, -0.00, -1.00, 692.3, 565.0)" xml:space="preserve">m</text><text fill="#FEFFFF" font-family="Helvetica-Light" font-size="45" transform="matrix(1.00, 0.00, -0.00, -1.00, 729.7, 565.0)" xml:space="preserve">o</text><text fill="#FEFFFF" font-family="Helvetica-Light" font-size="45" transform="matrix(1.00, 0.00, -0.00, -1.00, 754.8, 565.0)" xml:space="preserve">t</text><text fill="#FEFFFF" font-family="Helvetica-Light" font-size="45" transform="matrix(1.00, 0.00, -0.00, -1.00, 767.3, 565.0)" xml:space="preserve">i</text><text fill="#FEFFFF" font-family="Helvetica-Light" font-size="45" transform="matrix(1.00, 0.00, -0.00, -1.00, 777.3, 565.0)" xml:space="preserve">o</text><text fill="#FEFFFF" font-family="Helvetica-Light" font-size="45" transform="matrix(1.00, 0.00, -0.00, -1.00, 802.3, 565.0)" xml:space="preserve">n</text><text fill="#FEFFFF" font-family="Helvetica-Light" font-size="45" transform="matrix(1.00, 0.00, -0.00, -1.00, 827.3, 565.0)" xml:space="preserve">a</text><text fill="#FEFFFF" font-family="Helvetica-Light" font-size="45" transform="matrix(1.00, 0.00, -0.00, -1.00, 852.3, 565.0)" xml:space="preserve">l</text><text fill="#FEFFFF" font-family="Helvetica-Light" font-size="45" transform="matrix(1.00, 0.00, -0.00, -1.00, 874.8, 565.0)" xml:space="preserve">s</text><text fill="#FEFFFF" font-family="Helvetica-Light" font-size="45" transform="matrix(1.00, 0.00, -0.00, -1.00, 897.3, 565.0)" xml:space="preserve">t</text><text fill="#FEFFFF" font-family="Helvetica-Light" font-size="45" transform="matrix(1.00, 0.00, -0.00, -1.00, 909.8, 565.0)" xml:space="preserve">r</text><text fill="#FEFFFF" font-family="Helvetica-Light" font-size="45" transform="matrix(1.00, 0.00, -0.00, -1.00, 924.8, 565.0)" xml:space="preserve">u</text><text fill="#FEFFFF" font-family="Helvetica-Light" font-size="45" transform="matrix(1.00, 0.00, -0.00, -1.00, 949.8, 565.0)" xml:space="preserve">c</text><text fill="#FEFFFF" font-family="Helvetica-Light" font-size="45" transform="matrix(1.00, 0.00, -0.00, -1.00, 974.9, 565.0)" xml:space="preserve">t</text><text fill="#FEFFFF" font-family="Helvetica-Light" font-size="45" transform="matrix(1.00, 0.00, -0.00, -1.00, 987.4, 565.0)" xml:space="preserve">u</text><text fill="#FEFFFF" font-family="Helvetica-Light" font-size="45" transform="matrix(1.00, 0.00, -0.00, -1.00, 1012.4, 565.0)" xml:space="preserve">r</text><text fill="#FEFFFF" font-family="Helvetica-Light" font-size="45" transform="matrix(1.00, 0.00, -0.00, -1.00, 1026.6, 565.0)" xml:space="preserve">e</text><text fill="#FEFFFF" font-family="Helvetica-Light" font-size="45" transform="matrix(1.00, 0.00, -0.00, -1.00, 1064.1, 565.0)" xml:space="preserve">i</text><text fill="#FEFFFF" font-family="Helvetica-Light" font-size="45" transform="matrix(1.00, 0.00, -0.00, -1.00, 1074.1, 565.0)" xml:space="preserve">n</text><text fill="#FEFFFF" font-family="Helvetica-Light" font-size="45" transform="matrix(1.00, 0.00, -0.00, -1.00, 1111.6, 565.0)" xml:space="preserve">a</text><text fill="#FEFFFF" font-family="Helvetica-Light" font-size="45" transform="matrix(1.00, 0.00, -0.00, -1.00, 538.0, 511.0)" xml:space="preserve">c</text><text fill="#FEFFFF" font-family="Helvetica-Light" font-size="45" transform="matrix(1.00, 0.00, -0.00, -1.00, 563.0, 511.0)" xml:space="preserve">o</text><text fill="#FEFFFF" font-family="Helvetica-Light" font-size="45" transform="matrix(1.00, 0.00, -0.00, -1.00, 588.0, 511.0)" xml:space="preserve">n</text><text fill="#FEFFFF" font-family="Helvetica-Light" font-size="45" transform="matrix(1.00, 0.00, -0.00, -1.00, 613.1, 511.0)" xml:space="preserve">s</text><text fill="#FEFFFF" font-family="Helvetica-Light" font-size="45" transform="matrix(1.00, 0.00, -0.00, -1.00, 635.6, 511.0)" xml:space="preserve">u</text><text fill="#FEFFFF" font-family="Helvetica-Light" font-size="45" transform="matrix(1.00, 0.00, -0.00, -1.00, 660.6, 511.0)" xml:space="preserve">l</text><text fill="#FEFFFF" font-family="Helvetica-Light" font-size="45" transform="matrix(1.00, 0.00, -0.00, -1.00, 670.6, 511.0)" xml:space="preserve">t</text><text fill="#FEFFFF" font-family="Helvetica-Light" font-size="45" transform="matrix(1.00, 0.00, -0.00, -1.00, 683.1, 511.0)" xml:space="preserve">a</text><text fill="#FEFFFF" font-family="Helvetica-Light" font-size="45" transform="matrix(1.00, 0.00, -0.00, -1.00, 708.1, 511.0)" xml:space="preserve">n</text><text fill="#FEFFFF" font-family="Helvetica-Light" font-size="45" transform="matrix(1.00, 0.00, -0.00, -1.00, 733.1, 511.0)" xml:space="preserve">c</text><text fill="#FEFFFF" font-family="Helvetica-Light" font-size="45" transform="matrix(1.00, 0.00, -0.00, -1.00, 758.1, 511.0)" xml:space="preserve">y</text><text fill="#FEFFFF" font-family="Helvetica-Light" font-size="45" transform="matrix(1.00, 0.00, -0.00, -1.00, 776.5, 511.0)" xml:space="preserve">.</text></g></svg>