<svg xmlns="http://www.w3.org/2000/svg" xmlns:xlink="http://www.w3.org/1999/xlink" stroke-miterlimit="4" clip-rule="evenodd" viewBox="0 0 1920 1080"><desc>SVG generated by Keynote</desc><g transform="matrix(1.00, 0.00, -0.00, -1.00, 0.0, 1080.0)"><path fill="#00D0C0" d="M 0.0 1080.0 L 1920.0 1080.0 L 1920.0 0.0 L 0.0 0.0 Z M 0.0 1080.0"/><image width="1365" height="702" transform="matrix(-1.55, 0.00, 0.00, -1.55, 1926.0, 1086.0)" xlink:href="../../9DD0E19F-E816-41A3-8E7C-16D834A55E28/assets/B692D7A04DCF83E5CA03700403EF5F59.png"/><text fill="#FEFFFE" font-family="OpenSans-Light" font-size="250" transform="matrix(1.00, 0.00, -0.00, -1.00, 54.0, 626.0)" xml:space="preserve">S</text><text fill="#FEFFFE" font-family="OpenSans-Light" font-size="250" transform="matrix(1.00, 0.00, -0.00, -1.00, 190.2, 626.0)" xml:space="preserve">c</text><text fill="#FEFFFE" font-family="OpenSans-Light" font-size="250" transform="matrix(1.00, 0.00, -0.00, -1.00, 309.0, 626.0)" xml:space="preserve">e</text><text fill="#FEFFFE" font-family="OpenSans-Light" font-size="250" transform="matrix(1.00, 0.00, -0.00, -1.00, 446.1, 626.0)" xml:space="preserve">n</text><text fill="#FEFFFE" font-family="OpenSans-Light" font-size="250" transform="matrix(1.00, 0.00, -0.00, -1.00, 593.6, 626.0)" xml:space="preserve">a</text><text fill="#FEFFFE" font-family="OpenSans-Light" font-size="250" transform="matrix(1.00, 0.00, -0.00, -1.00, 726.0, 626.0)" xml:space="preserve">r</text><text fill="#FEFFFE" font-family="OpenSans-Light" font-size="250" transform="matrix(1.00, 0.00, -0.00, -1.00, 823.3, 626.0)" xml:space="preserve">i</text><text fill="#FEFFFE" font-family="OpenSans-Light" font-size="250" transform="matrix(1.00, 0.00, -0.00, -1.00, 879.8, 626.0)" xml:space="preserve">o</text><g><clipPath id="clip-272"><path d="M 50.0 52.0 L 154.0 52.0 L 154.0 -1.0 L 50.0 -1.0 Z M 50.4 52.4"/></clipPath><g clip-path="url(#clip-272)"><image width="104" height="104" transform="matrix(1.00, 0.00, -0.00, -0.99, 50.0, 77.0)" xlink:href="../../4F9A92A2-2DC6-4691-97F8-9F75BE53396F/assets/B22C448CED7C82A0C99889D0AD879A76.png"/></g></g></g></svg>