<svg xmlns="http://www.w3.org/2000/svg" xmlns:xlink="http://www.w3.org/1999/xlink" stroke-miterlimit="4" clip-rule="evenodd" viewBox="0 0 1920 1080"><desc>SVG generated by Keynote</desc><g transform="matrix(1.00, 0.00, -0.00, -1.00, 0.0, 1080.0)"><path fill="#FEFFFF" d="M 0.0 1080.0 L 1920.0 1080.0 L 1920.0 0.0 L 0.0 0.0 Z M 0.0 1080.0"/><g><clipPath id="clip-32"><path d="M 50.0 52.0 L 154.0 52.0 L 154.0 -1.0 L 50.0 -1.0 Z M 50.4 52.4"/></clipPath><g clip-path="url(#clip-32)"><image width="104" height="104" transform="matrix(1.00, 0.00, -0.00, -0.99, 50.0, 77.0)" xlink:href="../../4F9A92A2-2DC6-4691-97F8-9F75BE53396F/assets/B22C448CED7C82A0C99889D0AD879A76.png"/></g></g><image width="675" height="769" transform="matrix(1.41, 0.00, -0.00, -1.40, 1973.0, 1080.0)" xlink:href="../../44CDB6CA-22C4-4C7E-9169-77206C966AAE/assets/DA9ECC8D8AB6D040D8613F323D7A6822.jpeg"/><text fill="#A6AAA8" font-family="OpenSans-Bold" font-size="30" font-weight="bold" transform="matrix(1.00, 0.00, -0.00, -1.00, 54.0, 1014.0)" xml:space="preserve">I</text><text fill="#A6AAA8" font-family="OpenSans-Bold" font-size="30" font-weight="bold" transform="matrix(1.00, 0.00, -0.00, -1.00, 63.9, 1014.0)" xml:space="preserve">N</text><text fill="#A6AAA8" font-family="OpenSans-Bold" font-size="30" font-weight="bold" transform="matrix(1.00, 0.00, -0.00, -1.00, 88.3, 1014.0)" xml:space="preserve">T</text><text fill="#A6AAA8" font-family="OpenSans-Bold" font-size="30" font-weight="bold" transform="matrix(1.00, 0.00, -0.00, -1.00, 105.7, 1014.0)" xml:space="preserve">R</text><text fill="#A6AAA8" font-family="OpenSans-Bold" font-size="30" font-weight="bold" transform="matrix(1.00, 0.00, -0.00, -1.00, 125.5, 1014.0)" xml:space="preserve">O</text><text fill="#52575F" font-family="OpenSans-Bold" font-size="165" font-weight="bold" transform="matrix(1.00, 0.00, -0.00, -1.00, 54.0, 800.0)" xml:space="preserve">2</text><text fill="#52575F" font-family="OpenSans-Bold" font-size="165" font-weight="bold" transform="matrix(1.00, 0.00, -0.00, -1.00, 148.1, 800.0)" xml:space="preserve">3</text><text fill="#52575F" font-family="OpenSans-Light" font-size="165" transform="matrix(1.00, 0.00, -0.00, -1.00, 285.2, 800.0)" xml:space="preserve">C</text><text fill="#52575F" font-family="OpenSans-Light" font-size="165" transform="matrix(1.00, 0.00, -0.00, -1.00, 387.7, 800.0)" xml:space="preserve">o</text><text fill="#52575F" font-family="OpenSans-Light" font-size="165" transform="matrix(1.00, 0.00, -0.00, -1.00, 484.4, 800.0)" xml:space="preserve">n</text><text fill="#52575F" font-family="OpenSans-Light" font-size="165" transform="matrix(1.00, 0.00, -0.00, -1.00, 581.7, 800.0)" xml:space="preserve">s</text><text fill="#52575F" font-family="OpenSans-Light" font-size="165" transform="matrix(1.00, 0.00, -0.00, -1.00, 658.5, 800.0)" xml:space="preserve">u</text><text fill="#52575F" font-family="OpenSans-Light" font-size="165" transform="matrix(1.00, 0.00, -0.00, -1.00, 755.8, 800.0)" xml:space="preserve">l</text><text fill="#52575F" font-family="OpenSans-Light" font-size="165" transform="matrix(1.00, 0.00, -0.00, -1.00, 793.1, 800.0)" xml:space="preserve">t</text><text fill="#52575F" font-family="OpenSans-Light" font-size="165" transform="matrix(1.00, 0.00, -0.00, -1.00, 848.4, 800.0)" xml:space="preserve">a</text><text fill="#52575F" font-family="OpenSans-Light" font-size="165" transform="matrix(1.00, 0.00, -0.00, -1.00, 935.8, 800.0)" xml:space="preserve">n</text><text fill="#52575F" font-family="OpenSans-Light" font-size="165" transform="matrix(1.00, 0.00, -0.00, -1.00, 1033.1, 800.0)" xml:space="preserve">t</text><text fill="#52575F" font-family="OpenSans-Light" font-size="165" transform="matrix(1.00, 0.00, -0.00, -1.00, 1088.3, 800.0)" xml:space="preserve">s</text><image width="231" height="228" transform="matrix(0.81, 0.00, -0.00, -0.82, 54.0, 612.0)" xlink:href="../../5929B03F-3530-4957-8C06-FC14F496CA82/assets/34F99AB7CC127E0E12AE0B95ADA3AA6D.png"/><image width="401" height="401" transform="matrix(0.57, 0.00, -0.00, -0.57, 351.0, 634.0)" xlink:href="../../5929B03F-3530-4957-8C06-FC14F496CA82/assets/D780482F3C291F073D17DBF947C96DDD.png"/><path fill="none" stroke="#DCDDE0" stroke-width="3" d="M 0.0 0.0 L 1775.0 0.0" transform="matrix(1.00, 0.00, 0.00, -1.00, 58.0, 707.3)"/><image width="382" height="161" transform="matrix(1.00, 0.00, -0.00, -0.99, 391.0, 330.0)" xlink:href="../../ADA2732F-BCB0-46F6-909E-3B8E3206D333/assets/EADF7FB96BE964EE98E49BB7033633D6.png"/><image width="281" height="210" transform="matrix(1.00, 0.00, -0.00, -1.00, 23.0, 355.0)" xlink:href="../../ADA2732F-BCB0-46F6-909E-3B8E3206D333/assets/80FEA704546534EA5969F01904207DDD.png"/><image width="253" height="253" transform="matrix(1.00, 0.00, -0.00, -1.00, 1246.0, 376.0)" xlink:href="../../ADA2732F-BCB0-46F6-909E-3B8E3206D333/assets/E25198F30E751F435BBE5304A7D86180.jpeg"/><image width="262" height="30" transform="matrix(1.00, 0.00, -0.00, -1.00, 1594.0, 265.0)" xlink:href="../../ADA2732F-BCB0-46F6-909E-3B8E3206D333/assets/C74287FC0508F58DEF634EE3FC5F6B9D.png"/><image width="393" height="65" transform="matrix(1.00, 0.00, -0.00, -1.00, 699.0, 557.0)" xlink:href="../../ADA2732F-BCB0-46F6-909E-3B8E3206D333/assets/307BE96CED7C1011CF6778255792BA6D.png"/><image width="346" height="97" transform="matrix(1.00, 0.00, -0.00, -1.01, 1207.0, 589.0)" xlink:href="../../ADA2732F-BCB0-46F6-909E-3B8E3206D333/assets/E84EC123EF3F02ADA77E5479A0A26999.png"/><image width="281" height="126" transform="matrix(1.00, 0.00, -0.00, -1.00, 1601.0, 603.0)" xlink:href="../../ADA2732F-BCB0-46F6-909E-3B8E3206D333/assets/12BAE83E5F7EB618A013A3669FD89091.png"/><image width="234" height="97" transform="matrix(1.00, 0.00, -0.00, -1.01, 900.0, 315.0)" xlink:href="../../ADA2732F-BCB0-46F6-909E-3B8E3206D333/assets/70D3B33A35B036A949B52E5325CF4A0E.png"/></g></svg>