<?xml version="1.0" encoding="UTF-8" standalone="no"?><svg xmlns="http://www.w3.org/2000/svg" xmlns:xlink="http://www.w3.org/1999/xlink" clip-rule="evenodd" stroke-miterlimit="4.00" viewBox="0 0 1920 1080"><desc>SVG generated by Keynote</desc><defs></defs><g transform="matrix(1.00, 0.00, -0.00, -1.00, 0.0, 1080.0)"><path d="M 0.0 1080.0 L 1920.0 1080.0 L 1920.0 0.0 L 0.0 0.0 Z M 0.0 1080.0 " fill="#000000"></path><text xml:space="preserve" font-family="Helvetica-Bold" font-weight="bold" font-size="81.9" fill="#FEFFFF" transform="matrix(1.00, 0.00, -0.00, -1.00, 538.0, 637.0)">1</text><text xml:space="preserve" font-family="Helvetica-Bold" font-weight="bold" font-size="81.9" fill="#FEFFFF" transform="matrix(1.00, 0.00, -0.00, -1.00, 583.6, 637.0)">.</text><text xml:space="preserve" font-family="Helvetica-Bold" font-weight="bold" font-size="81.9" fill="#FEFFFF" transform="matrix(1.00, 0.00, -0.00, -1.00, 538.0, 539.0)">A</text><text xml:space="preserve" font-family="Helvetica-Bold" font-weight="bold" font-size="81.9" fill="#FEFFFF" transform="matrix(1.00, 0.00, -0.00, -1.00, 597.2, 539.0)">n</text><text xml:space="preserve" font-family="Helvetica-Bold" font-weight="bold" font-size="81.9" fill="#FEFFFF" transform="matrix(1.00, 0.00, -0.00, -1.00, 647.2, 539.0)">a</text><text xml:space="preserve" font-family="Helvetica-Bold" font-weight="bold" font-size="81.9" fill="#FEFFFF" transform="matrix(1.00, 0.00, -0.00, -1.00, 692.7, 539.0)">l</text><text xml:space="preserve" font-family="Helvetica-Bold" font-weight="bold" font-size="81.9" fill="#FEFFFF" transform="matrix(1.00, 0.00, -0.00, -1.00, 715.5, 539.0)">y</text><text xml:space="preserve" font-family="Helvetica-Bold" font-weight="bold" font-size="81.9" fill="#FEFFFF" transform="matrix(1.00, 0.00, -0.00, -1.00, 761.0, 539.0)">z</text><text xml:space="preserve" font-family="Helvetica-Bold" font-weight="bold" font-size="81.9" fill="#FEFFFF" transform="matrix(1.00, 0.00, -0.00, -1.00, 802.0, 539.0)">e</text><text xml:space="preserve" font-family="Helvetica-Bold" font-weight="bold" font-size="81.9" fill="#FEFFFF" transform="matrix(1.00, 0.00, -0.00, -1.00, 847.6, 539.0)">d</text><text xml:space="preserve" font-family="Helvetica-Bold" font-weight="bold" font-size="81.9" fill="#FEFFFF" transform="matrix(1.00, 0.00, -0.00, -1.00, 897.6, 539.0)"> </text><text xml:space="preserve" font-family="Helvetica-Bold" font-weight="bold" font-size="81.9" fill="#FEFFFF" transform="matrix(1.00, 0.00, -0.00, -1.00, 920.3, 539.0)">e</text><text xml:space="preserve" font-family="Helvetica-Bold" font-weight="bold" font-size="81.9" fill="#FEFFFF" transform="matrix(1.00, 0.00, -0.00, -1.00, 965.9, 539.0)">x</text><text xml:space="preserve" font-family="Helvetica-Bold" font-weight="bold" font-size="81.9" fill="#FEFFFF" transform="matrix(1.00, 0.00, -0.00, -1.00, 1011.4, 539.0)">i</text><text xml:space="preserve" font-family="Helvetica-Bold" font-weight="bold" font-size="81.9" fill="#FEFFFF" transform="matrix(1.00, 0.00, -0.00, -1.00, 1034.2, 539.0)">s</text><text xml:space="preserve" font-family="Helvetica-Bold" font-weight="bold" font-size="81.9" fill="#FEFFFF" transform="matrix(1.00, 0.00, -0.00, -1.00, 1079.7, 539.0)">t</text><text xml:space="preserve" font-family="Helvetica-Bold" font-weight="bold" font-size="81.9" fill="#FEFFFF" transform="matrix(1.00, 0.00, -0.00, -1.00, 1107.0, 539.0)">i</text><text xml:space="preserve" font-family="Helvetica-Bold" font-weight="bold" font-size="81.9" fill="#FEFFFF" transform="matrix(1.00, 0.00, -0.00, -1.00, 1129.8, 539.0)">n</text><text xml:space="preserve" font-family="Helvetica-Bold" font-weight="bold" font-size="81.9" fill="#FEFFFF" transform="matrix(1.00, 0.00, -0.00, -1.00, 1179.8, 539.0)">g</text><text xml:space="preserve" font-family="Helvetica-Bold" font-weight="bold" font-size="81.9" fill="#FEFFFF" transform="matrix(1.00, 0.00, -0.00, -1.00, 1229.8, 539.0)"> </text><text xml:space="preserve" font-family="Helvetica-Bold" font-weight="bold" font-size="81.9" fill="#FEFFFF" transform="matrix(1.00, 0.00, -0.00, -1.00, 538.0, 441.0)">c</text><text xml:space="preserve" font-family="Helvetica-Bold" font-weight="bold" font-size="81.9" fill="#FEFFFF" transform="matrix(1.00, 0.00, -0.00, -1.00, 583.6, 441.0)">o</text><text xml:space="preserve" font-family="Helvetica-Bold" font-weight="bold" font-size="81.9" fill="#FEFFFF" transform="matrix(1.00, 0.00, -0.00, -1.00, 633.6, 441.0)">m</text><text xml:space="preserve" font-family="Helvetica-Bold" font-weight="bold" font-size="81.9" fill="#FEFFFF" transform="matrix(1.00, 0.00, -0.00, -1.00, 706.4, 441.0)">p</text><text xml:space="preserve" font-family="Helvetica-Bold" font-weight="bold" font-size="81.9" fill="#FEFFFF" transform="matrix(1.00, 0.00, -0.00, -1.00, 756.4, 441.0)">a</text><text xml:space="preserve" font-family="Helvetica-Bold" font-weight="bold" font-size="81.9" fill="#FEFFFF" transform="matrix(1.00, 0.00, -0.00, -1.00, 802.0, 441.0)">n</text><text xml:space="preserve" font-family="Helvetica-Bold" font-weight="bold" font-size="81.9" fill="#FEFFFF" transform="matrix(1.00, 0.00, -0.00, -1.00, 852.0, 441.0)">i</text><text xml:space="preserve" font-family="Helvetica-Bold" font-weight="bold" font-size="81.9" fill="#FEFFFF" transform="matrix(1.00, 0.00, -0.00, -1.00, 874.7, 441.0)">e</text><text xml:space="preserve" font-family="Helvetica-Bold" font-weight="bold" font-size="81.9" fill="#FEFFFF" transform="matrix(1.00, 0.00, -0.00, -1.00, 920.3, 441.0)">s</text><text xml:space="preserve" font-family="Helvetica-Bold" font-weight="bold" font-size="81.9" fill="#FEFFFF" transform="matrix(1.00, 0.00, -0.00, -1.00, 965.9, 441.0)"> </text><text xml:space="preserve" font-family="Helvetica-Bold" font-weight="bold" font-size="81.9" fill="#FEFFFF" transform="matrix(1.00, 0.00, -0.00, -1.00, 988.6, 441.0)">w</text><text xml:space="preserve" font-family="Helvetica-Bold" font-weight="bold" font-size="81.9" fill="#FEFFFF" transform="matrix(1.00, 0.00, -0.00, -1.00, 1052.3, 441.0)">i</text><text xml:space="preserve" font-family="Helvetica-Bold" font-weight="bold" font-size="81.9" fill="#FEFFFF" transform="matrix(1.00, 0.00, -0.00, -1.00, 1075.0, 441.0)">t</text><text xml:space="preserve" font-family="Helvetica-Bold" font-weight="bold" font-size="81.9" fill="#FEFFFF" transform="matrix(1.00, 0.00, -0.00, -1.00, 1102.3, 441.0)">h</text><text xml:space="preserve" font-family="Helvetica-Bold" font-weight="bold" font-size="81.9" fill="#FEFFFF" transform="matrix(1.00, 0.00, -0.00, -1.00, 1152.3, 441.0)"> </text><text xml:space="preserve" font-family="Helvetica-Bold" font-weight="bold" font-size="81.9" fill="#FEFFFF" transform="matrix(1.00, 0.00, -0.00, -1.00, 1175.1, 441.0)">n</text><text xml:space="preserve" font-family="Helvetica-Bold" font-weight="bold" font-size="81.9" fill="#FEFFFF" transform="matrix(1.00, 0.00, -0.00, -1.00, 1225.1, 441.0)">e</text><text xml:space="preserve" font-family="Helvetica-Bold" font-weight="bold" font-size="81.9" fill="#FEFFFF" transform="matrix(1.00, 0.00, -0.00, -1.00, 1270.6, 441.0)">w</text><text xml:space="preserve" font-family="Helvetica-Bold" font-weight="bold" font-size="81.9" fill="#FEFFFF" transform="matrix(1.00, 0.00, -0.00, -1.00, 1334.3, 441.0)"> </text><text xml:space="preserve" font-family="Helvetica-Bold" font-weight="bold" font-size="81.9" fill="#FEFFFF" transform="matrix(1.00, 0.00, -0.00, -1.00, 538.0, 343.0)">m</text><text xml:space="preserve" font-family="Helvetica-Bold" font-weight="bold" font-size="81.9" fill="#FEFFFF" transform="matrix(1.00, 0.00, -0.00, -1.00, 610.8, 343.0)">o</text><text xml:space="preserve" font-family="Helvetica-Bold" font-weight="bold" font-size="81.9" fill="#FEFFFF" transform="matrix(1.00, 0.00, -0.00, -1.00, 660.9, 343.0)">d</text><text xml:space="preserve" font-family="Helvetica-Bold" font-weight="bold" font-size="81.9" fill="#FEFFFF" transform="matrix(1.00, 0.00, -0.00, -1.00, 710.9, 343.0)">e</text><text xml:space="preserve" font-family="Helvetica-Bold" font-weight="bold" font-size="81.9" fill="#FEFFFF" transform="matrix(1.00, 0.00, -0.00, -1.00, 756.4, 343.0)">l</text><text xml:space="preserve" font-family="Helvetica-Bold" font-weight="bold" font-size="81.9" fill="#FEFFFF" transform="matrix(1.00, 0.00, -0.00, -1.00, 779.2, 343.0)"> </text><text xml:space="preserve" font-family="Helvetica-Bold" font-weight="bold" font-size="81.9" fill="#FEFFFF" transform="matrix(1.00, 0.00, -0.00, -1.00, 801.9, 343.0)">o</text><text xml:space="preserve" font-family="Helvetica-Bold" font-weight="bold" font-size="81.9" fill="#FEFFFF" transform="matrix(1.00, 0.00, -0.00, -1.00, 851.9, 343.0)">f</text><text xml:space="preserve" font-family="Helvetica-Bold" font-weight="bold" font-size="81.9" fill="#FEFFFF" transform="matrix(1.00, 0.00, -0.00, -1.00, 879.2, 343.0)">f</text><text xml:space="preserve" font-family="Helvetica-Bold" font-weight="bold" font-size="81.9" fill="#FEFFFF" transform="matrix(1.00, 0.00, -0.00, -1.00, 906.5, 343.0)">e</text><text xml:space="preserve" font-family="Helvetica-Bold" font-weight="bold" font-size="81.9" fill="#FEFFFF" transform="matrix(1.00, 0.00, -0.00, -1.00, 952.0, 343.0)">r</text><text xml:space="preserve" font-family="Helvetica-Bold" font-weight="bold" font-size="81.9" fill="#FEFFFF" transform="matrix(1.00, 0.00, -0.00, -1.00, 983.9, 343.0)">i</text><text xml:space="preserve" font-family="Helvetica-Bold" font-weight="bold" font-size="81.9" fill="#FEFFFF" transform="matrix(1.00, 0.00, -0.00, -1.00, 1006.7, 343.0)">n</text><text xml:space="preserve" font-family="Helvetica-Bold" font-weight="bold" font-size="81.9" fill="#FEFFFF" transform="matrix(1.00, 0.00, -0.00, -1.00, 1056.7, 343.0)">g</text><text xml:space="preserve" font-family="Helvetica-Bold" font-weight="bold" font-size="81.9" fill="#FEFFFF" transform="matrix(1.00, 0.00, -0.00, -1.00, 1106.7, 343.0)">s</text><text xml:space="preserve" font-family="Helvetica-Bold" font-weight="bold" font-size="81.9" fill="#FEFFFF" transform="matrix(1.00, 0.00, -0.00, -1.00, 1152.2, 343.0)"> </text><text xml:space="preserve" font-family="Helvetica-Bold" font-weight="bold" font-size="81.9" fill="#FEFFFF" transform="matrix(1.00, 0.00, -0.00, -1.00, 1175.0, 343.0)">r</text><text xml:space="preserve" font-family="Helvetica-Bold" font-weight="bold" font-size="81.9" fill="#FEFFFF" transform="matrix(1.00, 0.00, -0.00, -1.00, 1206.9, 343.0)">e</text><text xml:space="preserve" font-family="Helvetica-Bold" font-weight="bold" font-size="81.9" fill="#FEFFFF" transform="matrix(1.00, 0.00, -0.00, -1.00, 1252.5, 343.0)">l</text><text xml:space="preserve" font-family="Helvetica-Bold" font-weight="bold" font-size="81.9" fill="#FEFFFF" transform="matrix(1.00, 0.00, -0.00, -1.00, 1275.2, 343.0)">a</text><text xml:space="preserve" font-family="Helvetica-Bold" font-weight="bold" font-size="81.9" fill="#FEFFFF" transform="matrix(1.00, 0.00, -0.00, -1.00, 1320.8, 343.0)">t</text><text xml:space="preserve" font-family="Helvetica-Bold" font-weight="bold" font-size="81.9" fill="#FEFFFF" transform="matrix(1.00, 0.00, -0.00, -1.00, 1348.1, 343.0)">e</text><text xml:space="preserve" font-family="Helvetica-Bold" font-weight="bold" font-size="81.9" fill="#FEFFFF" transform="matrix(1.00, 0.00, -0.00, -1.00, 1393.6, 343.0)">d</text><text xml:space="preserve" font-family="Helvetica-Bold" font-weight="bold" font-size="81.9" fill="#FEFFFF" transform="matrix(1.00, 0.00, -0.00, -1.00, 1443.7, 343.0)"> </text><text xml:space="preserve" font-family="Helvetica-Bold" font-weight="bold" font-size="81.9" fill="#FEFFFF" transform="matrix(1.00, 0.00, -0.00, -1.00, 1466.4, 343.0)">t</text><text xml:space="preserve" font-family="Helvetica-Bold" font-weight="bold" font-size="81.9" fill="#FEFFFF" transform="matrix(1.00, 0.00, -0.00, -1.00, 1493.7, 343.0)">o</text><text xml:space="preserve" font-family="Helvetica-Bold" font-weight="bold" font-size="81.9" fill="#FEFFFF" transform="matrix(1.00, 0.00, -0.00, -1.00, 1543.7, 343.0)"> </text><text xml:space="preserve" font-family="Helvetica-Bold" font-weight="bold" font-size="81.9" fill="#FEFFFF" transform="matrix(1.00, 0.00, -0.00, -1.00, 538.0, 245.0)">o</text><text xml:space="preserve" font-family="Helvetica-Bold" font-weight="bold" font-size="81.9" fill="#FEFFFF" transform="matrix(1.00, 0.00, -0.00, -1.00, 588.0, 245.0)">u</text><text xml:space="preserve" font-family="Helvetica-Bold" font-weight="bold" font-size="81.9" fill="#FEFFFF" transform="matrix(1.00, 0.00, -0.00, -1.00, 638.0, 245.0)">r</text><text xml:space="preserve" font-family="Helvetica-Bold" font-weight="bold" font-size="81.9" fill="#FEFFFF" transform="matrix(1.00, 0.00, -0.00, -1.00, 669.9, 245.0)"> </text><text xml:space="preserve" font-family="Helvetica-Bold" font-weight="bold" font-size="81.9" fill="#FEFFFF" transform="matrix(1.00, 0.00, -0.00, -1.00, 692.6, 245.0)">i</text><text xml:space="preserve" font-family="Helvetica-Bold" font-weight="bold" font-size="81.9" fill="#FEFFFF" transform="matrix(1.00, 0.00, -0.00, -1.00, 715.4, 245.0)">n</text><text xml:space="preserve" font-family="Helvetica-Bold" font-weight="bold" font-size="81.9" fill="#FEFFFF" transform="matrix(1.00, 0.00, -0.00, -1.00, 765.4, 245.0)">i</text><text xml:space="preserve" font-family="Helvetica-Bold" font-weight="bold" font-size="81.9" fill="#FEFFFF" transform="matrix(1.00, 0.00, -0.00, -1.00, 788.1, 245.0)">t</text><text xml:space="preserve" font-family="Helvetica-Bold" font-weight="bold" font-size="81.9" fill="#FEFFFF" transform="matrix(1.00, 0.00, -0.00, -1.00, 815.4, 245.0)">i</text><text xml:space="preserve" font-family="Helvetica-Bold" font-weight="bold" font-size="81.9" fill="#FEFFFF" transform="matrix(1.00, 0.00, -0.00, -1.00, 838.1, 245.0)">a</text><text xml:space="preserve" font-family="Helvetica-Bold" font-weight="bold" font-size="81.9" fill="#FEFFFF" transform="matrix(1.00, 0.00, -0.00, -1.00, 883.7, 245.0)">l</text><text xml:space="preserve" font-family="Helvetica-Bold" font-weight="bold" font-size="81.9" fill="#FEFFFF" transform="matrix(1.00, 0.00, -0.00, -1.00, 906.5, 245.0)"> </text><text xml:space="preserve" font-family="Helvetica-Bold" font-weight="bold" font-size="81.9" fill="#FEFFFF" transform="matrix(1.00, 0.00, -0.00, -1.00, 929.2, 245.0)">c</text><text xml:space="preserve" font-family="Helvetica-Bold" font-weight="bold" font-size="81.9" fill="#FEFFFF" transform="matrix(1.00, 0.00, -0.00, -1.00, 974.8, 245.0)">o</text><text xml:space="preserve" font-family="Helvetica-Bold" font-weight="bold" font-size="81.9" fill="#FEFFFF" transform="matrix(1.00, 0.00, -0.00, -1.00, 1024.8, 245.0)">n</text><text xml:space="preserve" font-family="Helvetica-Bold" font-weight="bold" font-size="81.9" fill="#FEFFFF" transform="matrix(1.00, 0.00, -0.00, -1.00, 1074.8, 245.0)">c</text><text xml:space="preserve" font-family="Helvetica-Bold" font-weight="bold" font-size="81.9" fill="#FEFFFF" transform="matrix(1.00, 0.00, -0.00, -1.00, 1120.3, 245.0)">e</text><text xml:space="preserve" font-family="Helvetica-Bold" font-weight="bold" font-size="81.9" fill="#FEFFFF" transform="matrix(1.00, 0.00, -0.00, -1.00, 1165.9, 245.0)">p</text><text xml:space="preserve" font-family="Helvetica-Bold" font-weight="bold" font-size="81.9" fill="#FEFFFF" transform="matrix(1.00, 0.00, -0.00, -1.00, 1215.9, 245.0)">t</text><text xml:space="preserve" font-family="Helvetica-Bold" font-weight="bold" font-size="81.9" fill="#FEFFFF" transform="matrix(1.00, 0.00, -0.00, -1.00, 1243.2, 245.0)">s</text><text xml:space="preserve" font-family="Helvetica-Bold" font-weight="bold" font-size="81.9" fill="#FEFFFF" transform="matrix(1.00, 0.00, -0.00, -1.00, 1288.8, 245.0)">.</text></g></svg>